<svg width="116" height="36" viewBox="0 0 116 36" fill="none" xmlns="http://www.w3.org/2000/svg">
<path fill-rule="evenodd" clip-rule="evenodd" d="M28.0598 0.381185C28.7851 1.61047 29.3675 2.79369 29.9482 4.21756C31.3646 7.69042 32.0747 10.657 32.2005 13.6273L32.2224 14.1449L32.101 13.9279C31.8347 13.4522 31.2494 12.6071 30.9195 12.2223C29.8134 10.9315 28.348 9.99763 26.4926 9.4011C24.5014 8.76095 22.5623 8.67824 20.7047 9.15427C19.8555 9.37193 19.125 9.67781 18.3565 10.1376C18.1146 10.2824 17.9116 10.3946 17.9054 10.3872C17.8992 10.3797 17.7897 10.1157 17.662 9.80052C16.6577 7.32161 15.1779 5.7101 12.8082 4.51457C11.2072 3.70682 9.71842 3.33021 8.12631 3.33021C5.21834 3.33021 2.52167 4.70361 0.757644 7.08299C0.448637 7.49979 0 8.19488 0 8.25685C0 8.27593 0.0850201 8.21925 0.188921 8.13092C1.33405 7.15753 1.79898 6.82961 2.58781 6.43914C3.42722 6.0236 4.29971 5.77037 5.28049 5.6576C5.77908 5.60025 7.20148 5.63238 7.70391 5.71232C8.49507 5.83821 9.34959 6.09044 10.102 6.42017C11.48 7.02405 12.9841 8.14663 13.8501 9.21753C14.429 9.93329 14.9599 10.8973 15.2563 11.7707C15.4128 12.2317 15.4187 12.2421 15.4954 12.192C17.5117 10.8742 19.994 10.4642 22.5575 11.0255C24.6073 11.4744 26.5412 12.6001 27.7575 14.0524C29.4829 16.1128 30.129 18.8953 29.5233 21.6576C29.1854 23.1992 28.5126 24.477 27.2009 26.0687C26.7168 26.6561 25.295 28.067 24.6266 28.6231C22.8494 30.102 20.7497 31.4524 18.5855 32.5084C16.1591 33.6923 13.8593 34.4868 10.4634 35.3143C9.86762 35.4595 9.38654 35.5847 9.39437 35.5925C9.43583 35.6339 11.5166 35.2589 12.6182 35.0113C15.6814 34.323 18.9528 33.1851 21.6423 31.8725C22.5017 31.453 24.6206 30.2381 25.4026 29.7164C27.7221 28.1688 29.2561 26.7628 30.8387 24.7335C31.8075 23.4913 32.705 21.8055 33.2172 20.2663C33.5541 19.2541 33.828 17.9321 33.9221 16.8647C33.9858 16.1414 33.9472 14.3577 33.8503 13.5472C33.6401 11.7894 33.4089 10.8507 32.734 9.01384C32.0837 7.24416 31.8351 6.67211 31.1449 5.35667C30.6459 4.40561 29.8094 2.92217 29.6164 2.6462C29.5311 2.52419 29.2898 2.14984 29.0801 1.8143C28.6446 1.11725 28.2884 0.597183 28.1176 0.409322C28.0204 0.302395 28.0104 0.297515 28.0598 0.381185ZM36.0809 6.75012C35.3142 6.8945 34.8518 7.2446 34.6388 7.84216C34.4499 8.37221 34.52 9.1763 34.8809 10.6182C35.0669 11.3615 35.107 11.4801 35.3253 11.9328C35.5269 12.3509 35.8224 12.7081 36.0779 12.8426C36.3136 12.9667 36.6525 12.9548 36.9097 12.8133C37.4664 12.5071 37.9939 11.7005 38.3481 10.6139C38.6463 9.69936 38.655 8.60777 38.3694 7.96151C38.0799 7.30638 37.5053 6.8342 36.8753 6.73367C36.573 6.68542 36.4063 6.68885 36.0809 6.75012ZM11.1464 8.39066C11.0571 8.41059 11.0293 8.44941 10.9577 8.65435C10.8463 8.9731 10.675 9.30963 10.4386 9.674C10.0756 10.2336 9.67933 10.6646 8.46137 11.8246C7.6411 12.6058 7.36734 12.904 7.06103 13.35C6.56857 14.0669 6.31832 14.7648 6.31832 15.421C6.31832 15.813 6.37152 16.0471 6.54164 16.4038C6.78432 16.9126 7.11058 17.1854 8.12883 17.7312C8.70494 18.04 8.89892 18.162 9.17116 18.3869C9.38451 18.5631 9.66381 18.9267 9.77162 19.1685L9.85195 19.3487L9.91728 19.1775C10.0086 18.9382 10.4671 18.4623 10.8582 18.2011C11.1735 17.9903 11.2936 17.9275 12.341 17.4245C13.3659 16.9324 13.7993 16.5568 14.1572 15.8505C14.368 15.4345 14.4489 15.0832 14.4499 14.5809C14.4509 14.0599 14.3584 13.6497 14.1327 13.1728C13.8933 12.6673 13.6975 12.4155 12.933 11.6305C11.9233 10.5938 11.5528 10.0568 11.3769 9.37533C11.3145 9.13367 11.3045 9.01355 11.3222 8.71905C11.3454 8.33198 11.3522 8.34474 11.1464 8.39066ZM47.4982 10.0771C46.0579 10.3448 42.9384 11.4634 41.494 12.23C38.8676 13.624 37.2109 15.0946 35.6645 17.4043C34.9353 18.4934 34.468 19.3994 33.2357 22.1126C31.823 25.2231 31.2269 26.3449 30.0628 28.0827C29.0929 29.5307 28.192 30.6213 26.9079 31.9022C25.922 32.8855 24.8649 33.645 23.9005 34.0629C23.7024 34.1487 23.5457 34.2242 23.5522 34.2307C23.5812 34.2597 24.2879 34.0793 24.7487 33.9251C25.5264 33.6651 27.0205 32.8814 28.028 32.2049C29.7248 31.0658 31.8354 28.8237 33.3521 26.5494C34.2985 25.1302 34.8709 24.0444 35.5458 22.3884C36.3119 20.5084 36.9935 19.1765 37.8552 17.8758C38.5525 16.8232 39.166 16.0816 40.0292 15.2475C41.7906 13.5453 42.972 12.7411 46.6853 10.7163C47.3153 10.3728 47.8466 10.0762 47.8659 10.057C47.9116 10.0119 47.8234 10.0167 47.4982 10.0771ZM10.5124 11.2517C10.3368 11.7639 10.2418 11.9003 9.59782 12.5637C9.0009 13.1785 8.86781 13.3995 8.868 13.7751C8.86807 13.9361 8.88965 14.0324 8.94651 14.1257C9.04805 14.2924 9.07643 14.3133 9.50958 14.5392C9.7683 14.6741 9.90224 14.7687 9.97067 14.8649L10.0671 15.0004L10.2363 14.8314C10.3386 14.7293 10.5582 14.5832 10.7913 14.4621C11.2704 14.2132 11.3971 14.1186 11.5101 13.9257C11.655 13.6782 11.6917 13.4317 11.6233 13.1647C11.5607 12.9202 11.47 12.7783 11.1052 12.3549C10.7943 11.994 10.6667 11.7385 10.6476 11.4388C10.6368 11.2693 10.6185 11.2055 10.5805 11.2055C10.5517 11.2055 10.5211 11.2263 10.5124 11.2517ZM15.3853 16.7544C14.8352 16.8194 14.2189 17.1279 13.819 17.5387C13.5173 17.8487 13.2654 18.2786 12.8384 19.2125C12.6276 19.6737 12.367 20.1927 12.2595 20.366C12.0208 20.7505 11.5688 21.2257 11.3526 21.3193C11.1721 21.3976 11.1578 21.4296 11.2888 21.4625C11.4268 21.4971 11.8986 21.963 12.1193 22.2824C12.2252 22.4358 12.4606 22.8721 12.6424 23.252C13.1724 24.36 13.273 24.5556 13.4621 24.8457C14.0362 25.7261 14.9513 26.1868 16.0167 26.1318C16.5312 26.1052 16.9509 25.9881 17.5004 25.718C18.0037 25.4706 18.3379 25.2242 19.0111 24.6045C20.051 23.6472 20.5389 23.2469 21.1778 22.8268C22.0172 22.2748 23.0852 21.8908 23.7809 21.8908H23.98V21.6938V21.497L23.5583 21.4376C22.8329 21.3356 22.1415 21.0634 21.449 20.6072C20.858 20.2178 20.3605 19.7867 19.3429 18.7823C18.7942 18.2407 18.2048 17.694 18.0331 17.5673C17.2208 16.9679 16.2088 16.6572 15.3853 16.7544ZM42.6241 16.7924C40.9825 17.032 39.7319 18.3273 39.397 20.1345C39.3099 20.6046 39.3128 21.6352 39.4026 22.1311C39.5746 23.0815 39.9118 23.7695 40.5146 24.4003C41.3394 25.2634 42.3357 25.6333 43.6842 25.5769C44.4772 25.5437 45.0116 25.3911 45.5206 25.0525C45.9348 24.777 46.1126 24.4992 46.1126 24.1276C46.1126 23.8848 46.0536 23.7272 45.8953 23.5467C45.6367 23.2521 45.367 23.223 44.7824 23.4269C43.9723 23.7094 43.5213 23.7656 43.0174 23.6467C42.3528 23.4899 41.8302 22.9854 41.5951 22.2736C41.4087 21.7091 41.3899 20.8108 41.5513 20.1799C41.7584 19.3703 42.3583 18.7468 43.0731 18.5983C43.3517 18.5404 43.8703 18.5724 44.2467 18.6707C44.4093 18.7131 44.7306 18.8394 44.9608 18.9513C45.191 19.0632 45.393 19.1547 45.4095 19.1547C45.4261 19.1547 45.5931 18.8687 45.7807 18.519C46.0366 18.0419 46.1128 17.869 46.0861 17.8258C46.0106 17.7036 45.6055 17.4117 45.313 17.2687C44.9571 17.0947 44.3625 16.8932 43.9592 16.8098C43.6547 16.7469 42.995 16.7383 42.6241 16.7924ZM83.1448 16.7924C82.7561 16.8405 82.4494 17.0549 82.2775 17.3985C82.1316 17.6903 82.1181 17.7583 81.2862 22.3899C80.9042 24.517 80.8946 24.6399 81.0841 24.9882C81.2522 25.2974 81.5231 25.4476 81.9165 25.4497C82.2027 25.4513 82.399 25.3652 82.5804 25.1585C82.8275 24.8769 82.8694 24.7043 83.1001 23.0185C83.6272 19.1669 83.5998 19.3408 83.6509 19.5245C83.8907 20.3853 84.3546 22.0718 84.6959 23.3235L85.1117 24.8486H86.0018H86.8918L87.3412 23.268C87.9705 21.0547 88.0162 20.8888 88.2198 20.0828C88.3195 19.6883 88.4048 19.3888 88.4095 19.4173C88.4142 19.4457 88.477 19.9182 88.5491 20.4673C89.0895 24.5821 89.2026 25.4227 89.2174 25.4376C89.2408 25.4609 91.0172 25.1419 91.0548 25.1076C91.0715 25.0924 90.9593 24.2916 90.8054 23.3282C90.6515 22.3648 90.3999 20.7862 90.2463 19.8203C89.9397 17.893 89.9049 17.7247 89.7489 17.4155C89.5303 16.9822 89.1632 16.7813 88.593 16.7829C87.974 16.7846 87.5584 17.0659 87.3495 17.6246C87.3085 17.7344 87.0237 18.8017 86.7168 19.9962C86.4099 21.1907 86.1129 22.3428 86.0567 22.5563L85.9546 22.9445L85.7834 22.2235C85.6893 21.827 85.4134 20.6606 85.1703 19.6316C84.9273 18.6026 84.6874 17.6679 84.6373 17.5545C84.4638 17.162 84.0873 16.8546 83.7207 16.8061C83.409 16.7649 83.3735 16.7641 83.1448 16.7924ZM107.075 16.9504C106.841 17.0338 106.717 17.1511 106.591 17.4082L106.469 17.6555L106.457 18.3651L106.444 19.0748L106.253 19.1007C105.544 19.1969 105.191 19.6101 105.344 20.1633C105.431 20.474 105.777 20.7006 106.22 20.7362L106.451 20.7547V23.0981V25.4415L107.384 25.4316L108.317 25.4217L108.326 23.0883L108.336 20.7548L108.66 20.7363C109.159 20.7078 109.453 20.5534 109.595 20.2455C109.737 19.9393 109.649 19.5645 109.386 19.3473C109.202 19.1958 108.976 19.1203 108.621 19.0924L108.335 19.0699V18.6158C108.335 17.7658 108.228 17.3359 107.958 17.105C107.733 16.9122 107.363 16.8474 107.075 16.9504ZM5.0623 17.1416C4.62708 17.2631 4.0745 17.6442 3.69717 18.0829C3.58001 18.2191 3.321 18.6033 3.12158 18.9368C2.57961 19.8429 2.34339 20.1757 1.99589 20.5228C1.65802 20.8602 1.43758 20.9938 1.10848 21.0605C0.996446 21.0832 0.906918 21.1211 0.908951 21.145C0.910983 21.1688 0.915158 21.2382 0.918188 21.2992C0.92277 21.3909 0.939471 21.4101 1.0147 21.4101C1.15407 21.4101 1.48318 21.5449 1.72353 21.7004C2.15913 21.9822 2.53206 22.4066 3.28286 23.4748C3.84604 24.2761 3.99986 24.456 4.41543 24.7997C5.19532 25.4446 5.94539 25.634 6.54633 25.338C7.07588 25.0772 7.31332 24.673 7.68876 23.3933C7.98539 22.3823 8.34162 21.7397 8.74861 21.4814L8.92032 21.3724L8.96369 21.5194C9.13728 22.1077 9.70914 22.4764 10.2301 22.3359C10.4459 22.2776 10.7205 22.0172 10.8274 21.7693C11.1304 21.0675 10.7377 20.1833 10.0835 20.0938C9.73124 20.0456 9.32118 20.2588 9.10406 20.6029C9.0012 20.766 8.88928 21.162 8.91655 21.2664C8.98128 21.514 8.40861 21.0418 8.1044 20.5967C7.91951 20.3262 7.70949 19.8778 7.46829 19.2388C7.17506 18.4618 7.08789 18.2675 6.89029 17.9501C6.55276 17.408 6.09906 17.1162 5.56252 17.096C5.3753 17.089 5.19015 17.1058 5.0623 17.1416ZM49.3289 18.8641C48.4018 19.0179 47.5432 19.6642 47.1012 20.5412C46.7715 21.1953 46.6641 22.1856 46.8346 23C47.0716 24.1325 47.833 25.0159 48.8723 25.3644C49.4965 25.5736 50.2927 25.5865 50.9101 25.3973C51.3977 25.2479 51.7159 25.0501 52.1169 24.647C52.4958 24.2661 52.6663 24.0207 52.8244 23.6293C53.1466 22.831 53.1802 21.7924 52.911 20.9541C52.5752 19.9084 51.7007 19.1109 50.6526 18.8945C50.2814 18.8178 49.6896 18.8042 49.3289 18.8641ZM67.9112 18.8914C66.6862 19.1595 65.7502 20.1647 65.5258 21.453C65.4444 21.9205 65.4715 22.7475 65.5819 23.1663C65.8363 24.1311 66.547 24.9587 67.4263 25.3141C68.1624 25.6116 69.2382 25.5963 69.9574 25.278C70.7837 24.9123 71.4254 24.1396 71.6842 23.1987C71.796 22.7922 71.8241 21.9002 71.7404 21.4172C71.5686 20.426 70.9438 19.5694 70.0676 19.1236C69.9827 19.0804 69.7666 19.0015 69.5873 18.9483C69.139 18.8153 68.3769 18.7895 67.9112 18.8914ZM61.4093 18.8946C61.0242 18.945 60.6547 19.1051 60.3636 19.3475C60.2659 19.4289 60.1822 19.4896 60.1776 19.4823C60.0602 19.2965 59.8569 19.1048 59.6916 19.0238C59.5158 18.9378 59.4537 18.9266 59.2176 18.9385C58.8891 18.9551 58.6941 19.0649 58.547 19.3161C58.3427 19.6651 58.3441 19.6298 58.3434 24.1369L58.3428 28.2871H59.285H60.2272V26.6603C60.2272 25.7656 60.2336 25.0335 60.2415 25.0335C60.2493 25.0335 60.3532 25.0973 60.4724 25.1753C61.0038 25.5231 61.5627 25.6252 62.2148 25.4937C63.2783 25.2792 64.1759 24.326 64.4839 23.084C64.55 22.8175 64.5641 22.6542 64.5632 22.1681C64.5621 21.5143 64.5164 21.2377 64.3297 20.7532C64.0928 20.1388 63.5091 19.4637 62.9687 19.1796C62.529 18.9484 61.8902 18.8317 61.4093 18.8946ZM75.7398 18.9276C75.6247 18.9657 75.4714 19.0334 75.3991 19.0782C75.1932 19.2055 74.9758 19.4775 74.9143 19.6845C74.7915 20.0985 74.8763 20.4119 75.2476 20.9158C75.3037 20.9919 75.2985 20.9986 75.0945 21.1138C74.7806 21.2911 74.5074 21.5683 74.3689 21.8499C74.2561 22.0793 74.2494 22.1158 74.2495 22.5002C74.2497 22.8706 74.259 22.9265 74.3524 23.117C74.4913 23.4004 74.8601 23.7438 75.1366 23.8473C75.7617 24.0813 76.5731 23.9861 77.1283 23.6135L77.3589 23.4587L77.6886 23.7648C78.0545 24.1046 78.1859 24.1831 78.3885 24.1831C78.4987 24.1831 78.5541 24.1548 78.6692 24.0396C78.7899 23.9187 78.8127 23.8716 78.8127 23.7419C78.8127 23.5637 78.7501 23.4265 78.6092 23.2957C78.5544 23.2449 78.4098 23.091 78.2879 22.9538L78.0661 22.7043L78.4231 22.2781L78.78 21.8519L78.514 21.5571C78.3676 21.3949 78.2441 21.2622 78.2395 21.2622C78.2349 21.2622 78.0764 21.4327 77.8872 21.6412C77.6979 21.8497 77.5319 22.0249 77.5181 22.0307C77.5043 22.0366 77.3544 21.8716 77.1849 21.6642L76.8767 21.2871L76.9672 21.2288C77.1597 21.1046 77.438 20.8107 77.5389 20.6253C77.6788 20.3681 77.7119 19.911 77.61 19.6439C77.5147 19.3943 77.2332 19.1118 76.9549 18.9864C76.6477 18.848 76.0656 18.8198 75.7398 18.9276ZM56.5508 18.9455C56.274 19.0372 56.172 19.1149 55.7637 19.5452L55.3555 19.9753L55.3321 19.7961C55.2415 19.1018 55.0843 18.9106 54.6281 18.9397C54.3552 18.9571 54.1858 19.0658 54.0379 19.3184C53.8398 19.6565 53.8337 19.764 53.844 22.7122L53.8535 25.4217L54.7843 25.4316L55.7152 25.4415L55.7265 23.5275C55.7376 21.6646 55.74 21.6089 55.8166 21.4431C55.9332 21.1908 56.1665 21.0353 56.753 20.8189C57.5682 20.5181 57.9006 20.2208 57.8986 19.794C57.8972 19.4833 57.6748 19.1406 57.3723 18.9828C57.2167 18.9016 56.7475 18.8803 56.5508 18.9455ZM101.735 18.9512C101.418 19.0201 101.127 19.1721 100.879 19.3974L100.668 19.5897L100.539 19.3445C100.376 19.0353 100.203 18.9329 99.8462 18.9329C99.436 18.9329 99.1654 19.1127 99.0146 19.4856L98.9315 19.6909L98.9212 22.5662L98.9109 25.4415L99.8449 25.4316L100.779 25.4217L100.799 23.3882C100.82 21.2088 100.822 21.183 101.017 20.8662C101.184 20.5948 101.58 20.4554 101.994 20.5222C102.391 20.5861 102.622 20.827 102.722 21.2807C102.746 21.3879 102.774 22.1337 102.789 23.0554C102.813 24.5845 102.817 24.6533 102.897 24.8544C102.999 25.1119 103.241 25.3489 103.445 25.3909C103.855 25.4753 104.227 25.3657 104.416 25.1046C104.65 24.7823 104.654 24.7465 104.668 22.853C104.677 21.7478 104.668 21.0269 104.642 20.8327C104.505 19.8052 103.938 19.1438 103.027 18.9508C102.715 18.8847 102.039 18.885 101.735 18.9512ZM94.4729 19.0053C93.2837 19.2229 92.3359 20.0965 91.9958 21.2884C91.8851 21.6766 91.8737 22.7349 91.9763 23.1064C92.1522 23.7435 92.3572 24.0934 92.8349 24.5713C93.3845 25.1213 93.9009 25.3804 94.6454 25.4798C95.0389 25.5323 95.8465 25.5058 96.2528 25.427C96.4883 25.3814 96.9401 25.2453 96.9762 25.2092C96.9864 25.1991 96.7104 23.8536 96.6769 23.7497C96.6662 23.7169 96.5989 23.7284 96.4297 23.792C96.0864 23.921 95.6894 23.9734 95.211 23.9527C94.7406 23.9325 94.4792 23.8542 94.2499 23.6649C94.1022 23.5431 93.9109 23.1895 93.8565 22.9379L93.8231 22.7834L95.6938 22.7715L97.5644 22.7596L97.7485 22.6672C98.0311 22.5253 98.0826 22.4068 98.0776 21.9093C98.0728 21.4283 98.0014 21.1075 97.8061 20.6891C97.4512 19.9286 96.7288 19.3127 95.9192 19.0803C95.6111 18.9919 94.7812 18.9488 94.4729 19.0053ZM112.43 19.0422C111.545 19.2044 110.818 19.6859 110.332 20.432C109.773 21.2884 109.652 22.5562 110.035 23.5493C110.337 24.3333 111.061 25.0477 111.855 25.3461C112.551 25.6074 113.703 25.6213 114.543 25.3786C114.715 25.3286 114.87 25.2748 114.886 25.2591C114.909 25.2359 114.659 23.9506 114.599 23.787C114.587 23.7539 114.541 23.7605 114.424 23.812C114.12 23.9459 113.685 24.0081 113.18 23.9897C112.657 23.9707 112.411 23.9003 112.17 23.7013C112.016 23.5746 111.825 23.2109 111.787 22.9725L111.763 22.8195L113.642 22.808C115.5 22.7968 115.524 22.7957 115.689 22.7142C115.957 22.5817 116.002 22.4707 116 21.9462C115.997 21.4128 115.937 21.153 115.709 20.6891C115.518 20.302 115.233 19.9418 114.905 19.6732C114.627 19.4463 114.1 19.18 113.767 19.0987C113.487 19.0305 112.68 18.9964 112.43 19.0422ZM76.1293 19.6885C75.9826 19.7525 75.8937 19.8792 75.8937 20.0246C75.8937 20.1454 76.0487 20.418 76.1871 20.5409L76.2701 20.6144L76.4422 20.5188C76.8612 20.2861 76.8906 19.8504 76.4983 19.6864C76.3483 19.6236 76.2774 19.6241 76.1293 19.6885ZM4.11984 19.9439C3.89951 20.0494 3.84179 20.1106 3.5694 20.528C3.31889 20.9118 3.09032 21.1322 2.8854 21.1874C2.69352 21.2391 2.6895 21.3213 2.87635 21.3716C3.14013 21.4427 3.37198 21.6573 3.74547 22.1763C4.12937 22.7097 4.58085 22.8836 4.8504 22.6021C4.96439 22.483 5.03245 22.3302 5.11691 22.0039C5.18601 21.737 5.29297 21.505 5.40186 21.386C5.46161 21.3206 5.46545 21.3007 5.42337 21.2751C5.31315 21.2078 5.17104 20.9679 5.04383 20.6344C4.88753 20.2245 4.798 20.0696 4.661 19.972C4.49306 19.8524 4.32878 19.8438 4.11984 19.9439ZM16.9227 19.8916C16.7282 19.9316 16.501 20.0611 16.386 20.1976C16.3295 20.2646 16.1951 20.5028 16.0873 20.7268C15.8859 21.1456 15.6842 21.4248 15.5528 21.4665C15.4859 21.4877 15.4957 21.5055 15.6487 21.6403C15.7835 21.759 15.866 21.888 16.0428 22.2565C16.3159 22.8257 16.4244 22.9676 16.6833 23.0944C16.8594 23.1806 16.9197 23.1911 17.1721 23.1795C17.5769 23.161 17.832 23.0273 18.3173 22.5794C18.5255 22.3873 18.7771 22.1705 18.8763 22.0976C19.1394 21.9043 19.5022 21.7457 19.7523 21.7146C19.9411 21.6911 19.9727 21.676 19.9829 21.6042C19.9924 21.5373 19.9769 21.521 19.9036 21.521C19.7336 21.521 19.3385 21.3748 19.1113 21.2279C18.9868 21.1473 18.6651 20.8704 18.3964 20.6125C17.9997 20.2316 17.8588 20.1206 17.6462 20.022C17.3651 19.8915 17.1294 19.849 16.9227 19.8916ZM9.63783 20.5236C9.12594 20.7942 9.10606 21.5782 9.60299 21.8977C9.75415 21.9949 9.79867 22.0056 10.0034 21.9934C10.1978 21.9819 10.2516 21.9628 10.3485 21.8706C10.7292 21.5087 10.704 20.8505 10.2984 20.5564C10.1166 20.4247 9.84999 20.4114 9.63783 20.5236ZM94.7008 20.5204C94.2936 20.6448 93.9198 21.0405 93.8341 21.4378L93.8082 21.558H95.0334H96.2586L96.2344 21.4378C96.157 21.0532 95.8552 20.6976 95.4901 20.561C95.2836 20.4836 94.8877 20.4633 94.7008 20.5204ZM112.56 20.589C112.167 20.7294 111.863 21.0727 111.758 21.4933L111.733 21.595H112.957H114.181L114.156 21.4584C114.091 21.1148 113.814 20.7737 113.476 20.6233C113.234 20.5157 112.809 20.4998 112.56 20.589ZM49.5922 20.6494C48.9214 20.8682 48.5593 21.7242 48.7523 22.6351C48.8892 23.2814 49.286 23.6869 49.8236 23.7301C50.4343 23.7791 50.9292 23.3749 51.0971 22.6896C51.1469 22.4864 51.1584 21.9488 51.1177 21.7242C51.0769 21.4991 50.9039 21.142 50.7565 20.9787C50.4681 20.6593 49.9826 20.522 49.5922 20.6494ZM68.2698 20.6608C68.0009 20.7505 67.752 20.9962 67.591 21.3308C67.4641 21.5945 67.4539 21.6417 67.4388 22.0341C67.413 22.7056 67.5486 23.1178 67.9049 23.4513C68.3383 23.8569 69.0781 23.823 69.4671 23.3796C69.7142 23.0979 69.8696 22.6234 69.8698 22.1496C69.8702 21.0937 69.1056 20.3821 68.2698 20.6608ZM61.1491 20.682C60.6562 20.821 60.3174 21.2681 60.2231 21.9039C60.1016 22.7244 60.466 23.5301 61.0458 23.7229C61.3151 23.8123 61.7064 23.7854 61.9454 23.661C62.7354 23.2495 62.9039 21.7425 62.2418 21.0092C61.98 20.7193 61.5129 20.5794 61.1491 20.682ZM75.7399 21.8127C75.4733 21.9818 75.3633 22.1529 75.3479 22.4221C75.3319 22.7023 75.4129 22.8711 75.6204 22.9901C75.8899 23.1447 76.3749 23.0665 76.6687 22.8211L76.7955 22.7152L76.3937 22.2567C76.1726 22.0046 75.9732 21.7774 75.9504 21.7519C75.9177 21.7151 75.8735 21.7279 75.7399 21.8127ZM9.85084 23.5413C9.75836 23.765 9.34952 24.1749 9.03408 24.3601C8.89183 24.4436 8.5778 24.5964 8.33622 24.6996C7.60962 25.0099 7.31831 25.1761 7.07311 25.4202C6.34329 26.1468 6.42831 27.2486 7.30996 28.4891C7.57991 28.8689 8.15632 29.4508 8.83086 30.0245C9.67862 30.7454 10.4674 31.5584 10.7807 32.0341C10.926 32.2546 11.0912 32.5485 11.1479 32.6873C11.2397 32.9118 11.2633 32.9411 11.3619 32.9527L11.4727 32.9658L11.4598 32.6635C11.4285 31.9285 11.8025 31.3816 13.02 30.3823C13.3426 30.1175 13.6949 29.7936 13.8029 29.6625C14.8514 28.3906 14.5713 26.6947 13.1542 25.7355C13.0222 25.6462 12.5525 25.3865 12.1104 25.1583C11.6683 24.9301 11.186 24.6641 11.0386 24.5672C10.7034 24.3467 10.1694 23.8191 10.0267 23.5675L9.91872 23.377L9.85084 23.5413ZM10.1501 27.4958C10.076 27.5829 9.94824 27.6554 9.69817 27.7524C9.24983 27.9262 9.12627 28.0521 9.12682 28.3346C9.12745 28.684 9.24436 28.8604 9.91443 29.5234C10.4923 30.0951 10.6213 30.2639 10.7285 30.5887C10.7681 30.7085 10.8157 30.6547 10.8382 30.4648C10.8689 30.2048 11.0017 29.9967 11.3649 29.6389C11.7097 29.2993 11.7872 29.158 11.786 28.8706C11.7843 28.4711 11.5599 28.2029 10.9742 27.9008C10.7813 27.8013 10.5402 27.6421 10.4384 27.5472L10.2534 27.3745L10.1501 27.4958Z" fill="white" fill-opacity="0.5"/>
</svg>
