<svg width="68" height="33" viewBox="0 0 68 33" fill="none" xmlns="http://www.w3.org/2000/svg">
<path fill-rule="evenodd" clip-rule="evenodd" d="M15.9316 1.15483C15.4831 1.53699 15.4538 2.1415 15.8643 2.53999C16.2703 2.93403 16.8902 2.90396 17.2816 2.47127C17.4563 2.27816 17.4872 2.19241 17.4872 1.9009C17.4872 1.65061 17.4462 1.49879 17.3356 1.33949C17.1377 1.05443 16.933 0.960162 16.5091 0.959001C16.2167 0.958162 16.1263 0.98881 15.9316 1.15483ZM12.086 1.48866C11.5451 1.79301 11.4273 2.52728 11.8452 2.98926C12.511 3.72552 13.7485 3.15876 13.6132 2.17944C13.5182 1.49215 12.7209 1.13153 12.086 1.48866ZM20.1073 1.47221C20.0312 1.50208 19.8891 1.61861 19.7916 1.73114C19.4682 2.10421 19.586 2.8406 20.0025 3.04971C20.3991 3.24883 20.8176 3.2065 21.121 2.93661C21.3303 2.75046 21.3668 2.67426 21.3918 2.37204C21.4394 1.79708 21.0816 1.40801 20.5116 1.41472C20.3653 1.41646 20.1834 1.44234 20.1073 1.47221ZM23.6531 2.93015C23.4159 3.05507 23.27 3.33729 23.27 3.67093C23.27 4.1835 23.6176 4.50675 24.1688 4.50675C24.4441 4.50675 24.5134 4.47636 24.7402 4.25628C24.9694 4.03368 24.9982 3.97077 24.9978 3.69171C24.9973 3.34632 24.8424 3.05417 24.5868 2.91648C24.3797 2.80492 23.8768 2.81234 23.6531 2.93015ZM8.54708 3.04933C8.17445 3.21005 8.02403 3.43678 7.99591 3.87973C7.97438 4.21918 7.99458 4.3157 8.12712 4.50675C8.30739 4.76646 8.65602 4.95815 8.94842 4.95828C9.05949 4.95835 9.28382 4.89305 9.44694 4.81324C9.80195 4.63948 9.9759 4.34558 9.97604 3.91947C9.9763 3.21883 9.22068 2.75872 8.54708 3.04933ZM14.8791 4.34964C14.3112 4.64877 14.4142 5.57692 15.0373 5.77636C15.3164 5.86572 15.705 5.8001 15.8974 5.63112C16.2555 5.31651 16.2037 4.61076 15.8053 4.37487C15.5536 4.22595 15.1356 4.21453 14.8791 4.34964ZM18.1698 4.34435C17.3761 4.67929 17.647 5.86172 18.5175 5.86172C19.1699 5.86172 19.5547 5.19088 19.2137 4.64806C19.0822 4.43862 18.7376 4.24621 18.503 4.25118C18.4378 4.2526 18.2879 4.29448 18.1698 4.34435ZM11.8069 5.00545C11.0276 5.19759 10.939 6.37545 11.681 6.67644C12.1593 6.8704 12.7428 6.61702 12.9029 6.14575C13.1314 5.47394 12.5136 4.83124 11.8069 5.00545ZM21.1613 5.25037C20.9406 5.46459 20.9289 5.49717 20.96 5.81107C21.0047 6.26279 21.2699 6.50694 21.7157 6.50694C21.9736 6.50694 22.0551 6.47326 22.2464 6.28757C22.4452 6.09458 22.4724 6.02799 22.4724 5.73416C22.4724 5.45104 22.4428 5.37142 22.2781 5.21153C22.1134 5.05164 22.0314 5.02293 21.7397 5.02293C21.4346 5.02293 21.369 5.04874 21.1613 5.25037ZM5.38041 5.42026C4.70249 5.80178 4.6761 6.84085 5.33355 7.26321C5.83825 7.58737 6.61541 7.42619 6.92516 6.93311C7.11679 6.62805 7.09891 6.02386 6.8894 5.72461C6.58145 5.2847 5.87455 5.1421 5.38041 5.42026ZM8.79574 6.69632C7.95091 7.21127 8.2911 8.44261 9.27824 8.44261C9.88318 8.44261 10.2703 8.02463 10.2236 7.42174C10.2012 7.13107 10.1605 7.04286 9.95842 6.84678C9.75622 6.65044 9.66582 6.61121 9.36611 6.58972C9.09266 6.57005 8.96318 6.59424 8.79574 6.69632ZM16.4182 6.81549C15.9835 7.19249 16.1314 7.90075 16.6779 8.05967C17.2482 8.22556 17.7234 7.85126 17.6635 7.28327C17.6001 6.68089 16.8837 6.41177 16.4182 6.81549ZM24.2929 6.69593C24.2157 6.728 24.0856 6.83652 24.0038 6.93711C23.8835 7.085 23.8609 7.17849 23.8853 7.42703C23.9198 7.78029 24.0562 7.95598 24.3748 8.05806C25.0888 8.28679 25.6511 7.43787 25.1478 6.89111C24.9501 6.67638 24.5562 6.58643 24.2929 6.69593ZM13.8156 7.05958C13.4338 7.26076 13.3055 7.88127 13.5767 8.21588C14.0683 8.82258 15.0278 8.50939 15.0278 7.74229C15.0278 7.57188 14.9824 7.37599 14.9241 7.29521C14.6959 6.97892 14.1778 6.86885 13.8156 7.05958ZM19.2663 7.27592C19.0821 7.43574 19.0492 7.50813 19.0492 7.75461C19.0492 7.97276 19.0891 8.08632 19.2094 8.21059C19.6373 8.65269 20.4118 8.3617 20.4118 7.75887C20.4118 7.16429 19.7276 6.87582 19.2663 7.27592ZM11.2522 8.03438C10.975 8.16697 10.8403 8.41764 10.8403 8.80071C10.8403 9.05589 10.874 9.13351 11.0663 9.32011C11.2653 9.51336 11.3335 9.53949 11.6379 9.53949C11.9407 9.53949 12.0109 9.51297 12.2043 9.32521C12.478 9.05951 12.5504 8.74444 12.4117 8.42222C12.2244 7.98708 11.7104 7.81519 11.2522 8.03438ZM21.7014 8.33937C21.2311 8.7958 21.5391 9.47496 22.2163 9.47496C22.3599 9.47496 22.4877 9.40844 22.6537 9.24733C22.8672 9.04009 22.8848 8.99537 22.8506 8.74728C22.8012 8.39009 22.5063 8.12 22.1656 8.12C21.9832 8.12 21.8743 8.17149 21.7014 8.33937ZM3.0268 8.33628C2.58093 8.53249 2.28607 9.08054 2.36198 9.57188C2.4876 10.3849 3.37417 10.8104 4.13305 10.4218C4.52023 10.2236 4.72257 9.88068 4.72403 9.42019C4.72622 8.72122 4.3294 8.30021 3.63699 8.26679C3.38999 8.25485 3.1497 8.28221 3.0268 8.33628ZM6.40284 8.95846C5.73729 9.35231 5.76481 10.2913 6.45223 10.6459C6.75247 10.8008 7.00884 10.797 7.35887 10.6325C8.06464 10.3008 8.07814 9.27501 7.38127 8.92524C7.11207 8.79006 6.66148 8.80535 6.40284 8.95846ZM26.7264 8.87529C26.3556 9.00692 26.1852 9.43173 26.3498 9.81422C26.4683 10.0893 26.657 10.2008 26.9964 10.1963C27.3129 10.1921 27.4966 10.0808 27.6268 9.81448C27.9024 9.25068 27.3354 8.65921 26.7264 8.87529ZM15.0793 8.99485C14.8402 9.1208 14.762 9.27649 14.762 9.62627C14.762 9.86965 14.7942 9.94146 14.9665 10.0822C15.4277 10.4589 16.0913 10.1772 16.0913 9.60472C16.0913 9.27043 16.0079 9.11603 15.7603 8.99169C15.5189 8.87052 15.3136 8.87149 15.0793 8.99485ZM17.2929 9.12583C17.1166 9.26985 17.0884 9.33579 17.0884 9.60401C17.0884 9.87223 17.1166 9.93817 17.2929 10.0822C17.7545 10.4592 18.4178 10.1772 18.4178 9.60401C18.4178 9.03079 17.7545 8.74883 17.2929 9.12583ZM12.9341 9.46871C12.1921 9.78499 12.3836 10.8945 13.1801 10.8945C13.6858 10.8945 13.9606 10.64 13.9629 10.1696C13.964 9.9263 13.9271 9.82371 13.7815 9.66556C13.5854 9.45245 13.1884 9.36024 12.9341 9.46871ZM9.07338 9.53749C8.99734 9.56736 8.85523 9.68389 8.75765 9.79641C8.43621 10.1672 8.5518 10.9059 8.96364 11.1125C9.36106 11.3118 9.785 11.2706 10.0854 11.0034C10.5232 10.6139 10.4573 9.89791 9.95629 9.60143C9.73562 9.47077 9.31992 9.44064 9.07338 9.53749ZM19.7139 9.53355C19.3023 9.70466 19.1775 10.2448 19.4828 10.5346C19.739 10.7778 20.1357 10.7813 20.3816 10.5425C20.6057 10.325 20.6111 9.88055 20.392 9.68079C20.2162 9.52045 19.9069 9.45329 19.7139 9.53355ZM23.9297 9.89958C23.6894 10.1478 23.7019 10.5918 23.9551 10.8033C24.2287 11.0318 24.6154 11.0179 24.8704 10.7704C25.1251 10.5232 25.1334 10.2093 24.8926 9.93159C24.745 9.76131 24.6757 9.73305 24.4057 9.73305C24.1531 9.73305 24.059 9.76602 23.9297 9.89958ZM11.0064 10.5333C10.6635 10.6802 10.5412 10.8685 10.5412 11.2493C10.5412 11.6369 10.6656 11.822 11.0255 11.9698C11.5097 12.1688 12.1032 11.7853 12.1032 11.2735C12.1032 10.9273 11.9564 10.6753 11.6806 10.5483C11.4074 10.4224 11.2722 10.4194 11.0064 10.5333ZM16.1906 10.5881C16.0757 10.684 16.0044 10.822 15.9805 10.9945C15.9504 11.2132 15.9736 11.2892 16.1235 11.4622C16.2757 11.6377 16.3471 11.6687 16.5988 11.6687C16.995 11.6687 17.2213 11.4606 17.2213 11.0962C17.2213 10.7504 17.1719 10.6482 16.9507 10.5372C16.6799 10.4012 16.3913 10.4206 16.1906 10.5881ZM14.2568 10.8557C14.0368 11.0693 14.0172 11.1165 14.0501 11.3542C14.1143 11.8191 14.4666 12.0422 14.937 11.9162C15.2236 11.8394 15.3769 11.6119 15.372 11.2706C15.3671 10.9244 15.1537 10.705 14.774 10.6555C14.5247 10.6231 14.4777 10.6413 14.2568 10.8557ZM21.6957 10.7659C21.5086 10.839 21.4084 11.0248 21.411 11.2935C21.4135 11.5452 21.5227 11.7049 21.75 11.7887C22.1397 11.9326 22.5389 11.6538 22.5389 11.2377C22.5389 10.8264 22.1283 10.5967 21.6957 10.7659ZM18.1276 10.9637C17.9926 11.0667 17.9525 11.1543 17.9525 11.3455C17.9525 11.6865 18.0029 11.7864 18.2336 11.9022C18.6267 12.0995 19.0825 11.828 19.0825 11.3964C19.0825 10.9029 18.5332 10.654 18.1276 10.9637ZM12.7272 11.2773C12.65 11.3092 12.5199 11.4176 12.4383 11.5182C12.3186 11.6653 12.2961 11.7572 12.3228 11.9892C12.3671 12.3745 12.5969 12.572 13.0005 12.572C13.4069 12.572 13.6337 12.375 13.6793 11.9823C13.7093 11.7237 13.6901 11.6619 13.5232 11.4822C13.3186 11.2617 12.9773 11.1738 12.7272 11.2773ZM4.95774 11.5215C4.7221 11.577 4.38138 11.8729 4.27895 12.1109C4.15133 12.4074 4.19726 12.9112 4.37294 13.1414C4.44539 13.2364 4.60664 13.3819 4.73121 13.465C4.92031 13.5909 5.02101 13.6115 5.3408 13.5898C5.58368 13.5733 5.79053 13.5167 5.90579 13.4351C6.13324 13.2743 6.38683 12.8022 6.38683 12.5398C6.38683 12.4306 6.31949 12.2117 6.23727 12.0534C6.01014 11.6161 5.48391 11.3974 4.95774 11.5215ZM7.3376 11.6014C6.91838 11.8495 6.76816 12.3012 6.95454 12.7533C7.21922 13.3956 8.04218 13.5353 8.54714 13.0236C8.7877 12.7799 8.85397 12.2533 8.68414 11.9345C8.45256 11.4998 7.78733 11.3352 7.3376 11.6014ZM19.8743 11.5579C19.4074 11.9058 19.6199 12.572 20.1978 12.572C20.706 12.572 20.945 11.9868 20.581 11.6336C20.4017 11.4595 20.056 11.4224 19.8743 11.5579ZM1.57471 11.8614C1.34759 11.9314 1.02907 12.2109 0.897193 12.4559C0.749697 12.7299 0.778877 13.333 0.954024 13.6318C1.27833 14.185 2.131 14.3523 2.7146 13.9775C3.39737 13.5389 3.38388 12.4567 2.68994 11.9952C2.43204 11.8236 1.90314 11.7601 1.57471 11.8614ZM15.4569 12.0207C15.1061 12.3611 15.3508 12.9592 15.8409 12.9592C16.1303 12.9592 16.3359 12.813 16.3915 12.5677C16.5165 12.0151 15.859 11.6303 15.4569 12.0207ZM25.6267 12.0852C25.5066 12.2017 25.4635 12.3133 25.4635 12.5075C25.4635 12.8784 25.6865 13.0882 26.0803 13.0882C26.4626 13.0882 26.6902 12.8715 26.6902 12.5075C26.6902 12.1435 26.4626 11.9268 26.0803 11.9268C25.8605 11.9268 25.7501 11.9653 25.6267 12.0852ZM9.40573 12.1151C9.13699 12.227 8.91266 12.5622 8.91292 12.8512C8.91339 13.3572 9.23204 13.6689 9.74891 13.6689H9.97829L9.7737 13.8463C9.38672 14.1821 9.45837 14.8296 9.9075 15.055C10.0148 15.1088 10.1414 15.1529 10.1889 15.1529C10.2466 15.1529 10.2753 15.2465 10.2753 15.4346C10.2753 15.6734 10.263 15.6993 10.1949 15.6048C10.0755 15.4395 9.74871 15.3294 9.45718 15.3564L9.19981 15.3802L9.32184 15.1859C9.55588 14.8134 9.42308 14.2505 9.05091 14.0371C8.9453 13.9765 8.72249 13.927 8.55578 13.927C8.31144 13.927 8.20695 13.9658 8.01765 14.1273C7.88843 14.2374 7.78268 14.369 7.78268 14.4198C7.78268 14.4712 7.69261 14.4126 7.57995 14.2881C7.11094 13.7695 6.27024 13.851 5.95345 14.4457C5.8112 14.7127 5.82828 15.1924 5.98907 15.4449C6.35532 16.0202 7.33581 15.9893 7.68577 15.3915C7.81585 15.1694 7.82502 15.1652 7.90545 15.2901C8.02317 15.4731 8.43009 15.6242 8.69344 15.5827C8.94729 15.5427 8.9423 15.5347 8.81335 15.7747C8.53525 16.2923 8.95819 16.9595 9.56452 16.9595C9.63299 16.9595 9.72319 17.0325 9.76506 17.1217C9.84057 17.2826 9.83991 17.2831 9.67772 17.1799C9.56625 17.109 9.40805 17.083 9.1802 17.0984C8.8531 17.1204 8.84612 17.117 8.84612 16.9402C8.84619 16.7042 8.69338 16.4237 8.47296 16.2555C8.1137 15.9811 7.27053 16.143 7.15076 16.5093C7.11513 16.6182 7.07385 16.6384 6.96205 16.6015C6.88328 16.5755 6.65436 16.5427 6.45329 16.5285C5.78721 16.4815 5.36326 16.8942 5.40634 17.5479L5.4302 17.9103L5.13421 17.7576C4.31644 17.3354 3.39571 17.8658 3.39571 18.7589C3.39571 19.3169 3.71948 19.7284 4.27064 19.8711C4.65783 19.9713 5.02341 19.8803 5.34944 19.6023C5.65247 19.3441 5.7438 19.101 5.70977 18.6438L5.68139 18.2631L5.91682 18.3856C6.38842 18.631 7.08522 18.4499 7.30789 18.0242C7.40646 17.8357 7.42195 17.8306 7.89495 17.8306C8.34893 17.8306 8.3807 17.8398 8.38084 17.9705C8.38084 18.0474 8.39619 18.1491 8.41494 18.1963C8.44093 18.2619 8.37419 18.2778 8.13244 18.2634C7.90412 18.2498 7.75556 18.2811 7.59929 18.3757C7.34259 18.5312 7.11859 18.8632 7.11825 19.0888C7.11805 19.2419 7.1015 19.249 6.79176 19.2281C6.12121 19.183 5.656 19.6009 5.65526 20.249L5.65487 20.605L5.33874 20.6109C4.66168 20.6233 4.19666 21.0468 4.14076 21.7019C4.07855 22.4294 4.61768 22.9935 5.36513 22.9829C6.11344 22.9725 6.62272 22.4334 6.57573 21.7014C6.553 21.3472 6.5532 21.3469 6.74802 21.347C7.04108 21.3471 7.4948 21.1065 7.64429 20.8717C7.71714 20.7573 7.79644 20.5441 7.8205 20.3981L7.86424 20.1326L8.20569 20.1059C8.45568 20.0864 8.56934 20.1054 8.63016 20.177C8.72927 20.2937 8.63541 20.3766 8.40264 20.3782C8.22404 20.3795 7.87733 20.6553 7.74705 20.8998C7.69354 21.0004 7.64974 21.1865 7.64974 21.3136C7.64974 21.4755 7.61491 21.5566 7.53342 21.5844C7.3174 21.6583 6.98551 21.9332 6.88528 22.1214C6.75686 22.3625 6.75706 22.9775 6.88568 23.2188L6.98571 23.4066L6.70289 23.4796C5.86797 23.6953 5.48763 24.5543 5.88804 25.3204C5.9793 25.4949 6.05408 25.6451 6.05421 25.6539C6.05435 25.6627 5.99346 25.67 5.91888 25.67C5.69388 25.67 5.28244 25.9094 5.06249 26.1682C4.59448 26.719 4.61057 27.56 5.09985 28.1148C5.67088 28.7624 6.87823 28.7429 7.44375 28.077C7.85633 27.5911 7.89069 26.7784 7.52026 26.2682C7.40866 26.1146 7.3174 25.9775 7.3174 25.9636C7.3174 25.9497 7.40181 25.9204 7.50491 25.8984C7.76301 25.8433 8.09489 25.5336 8.24916 25.2035C8.33637 25.017 8.37844 24.972 8.37944 25.0642C8.38024 25.1391 8.45296 25.3035 8.54103 25.4294L8.70122 25.6586L8.54163 25.8041C8.00987 26.289 7.9787 27.1933 8.47562 27.7197L8.69358 27.9505L8.42457 28.1497C7.65034 28.7229 7.60248 29.8818 8.3252 30.5543C8.62717 30.8353 8.96796 30.961 9.42567 30.9602C10.3396 30.9587 11.0397 30.3099 11.0397 29.4644V29.1451L11.2611 29.3729C11.3829 29.4983 11.5609 29.6297 11.6568 29.6651L11.8311 29.7295L11.6514 30.0387C11.4973 30.304 11.4719 30.4212 11.4729 30.8641C11.4742 31.4485 11.598 31.7493 11.981 32.0989C12.2868 32.3779 12.5891 32.5142 12.9914 32.5542C13.9988 32.6543 14.8949 31.9068 14.8949 30.9665V30.5997L15.1172 30.6248L15.3394 30.65L15.3083 31.1209C15.2817 31.5237 15.3008 31.6418 15.4405 31.938C15.7676 32.6315 16.2834 32.9577 17.0551 32.959C18.1499 32.9609 18.9562 32.1411 18.8686 31.1154C18.8283 30.6433 18.9798 30.6424 19.0807 31.1141C19.2754 32.0242 20.0019 32.5757 21.0018 32.5725C22.0326 32.5692 22.8689 31.7805 22.8705 30.8102L22.8712 30.4337L23.1756 30.6938C23.592 31.0496 24.0171 31.1778 24.6574 31.1407C25.4637 31.0939 26.0375 30.7359 26.3748 30.0693C26.6231 29.5785 26.636 28.8419 26.4052 28.3413C26.2163 27.9317 25.7989 27.5285 25.3638 27.3351C24.8663 27.114 24.0959 27.1291 23.6167 27.3694C22.8957 27.731 22.4724 28.3847 22.4724 29.1365V29.501L22.2896 29.3347C21.9214 28.9998 21.5552 28.8714 20.9483 28.8648L20.3879 28.8586L20.291 28.5764C20.1529 28.1743 19.7111 27.7677 19.276 27.6422C18.8408 27.5168 18.6626 27.5158 18.2471 27.6361C17.5682 27.8327 17.0904 28.4526 17.089 29.1381C17.0886 29.3244 17.0585 29.4768 17.0219 29.4768C16.9854 29.4768 16.9554 29.3118 16.9554 29.1101C16.9554 28.4504 16.5278 27.8818 15.9086 27.7181C15.6359 27.646 15.626 27.6344 15.6246 27.3827C15.6207 26.6859 14.9596 26.0579 14.2302 26.0579C13.7174 26.0579 13.1156 26.4411 12.9562 26.8692C12.9111 26.9904 12.8494 27.0895 12.8193 27.0895C12.7891 27.0895 12.8101 27.0038 12.8659 26.8992C12.9229 26.7921 12.9673 26.5435 12.9673 26.3311C12.9673 26.0229 12.9309 25.8977 12.7693 25.6504C12.6605 25.4838 12.5398 25.3474 12.5011 25.3474C12.4522 25.3474 12.4518 25.3094 12.4997 25.2226C12.5375 25.154 12.5685 24.9405 12.5685 24.7483C12.5685 24.3431 12.404 24.0541 12.0351 23.811C11.837 23.6804 11.7409 23.662 11.3603 23.6822C11.0449 23.699 10.8766 23.7408 10.7787 23.8269C10.6077 23.9771 10.6071 23.9549 10.7738 23.6376C10.9487 23.3046 10.9416 23.0488 10.7471 22.6758L10.5874 22.3696L10.8221 22.1608C11.0155 21.9887 11.0623 21.8957 11.0885 21.6315C11.1528 20.9819 10.787 20.5735 10.1405 20.573C9.95251 20.5729 9.74485 20.6146 9.66576 20.6684C9.54153 20.7528 9.5156 20.7528 9.44342 20.6684C9.37455 20.5879 9.39057 20.5728 9.54478 20.5728C9.84988 20.5728 10.1537 20.3424 10.2835 20.0125C10.3905 19.7404 10.3918 19.6925 10.2986 19.441L10.1969 19.1665L10.4383 19.129C10.9461 19.0502 11.2323 18.4954 11.005 18.0304C10.8685 17.751 10.7122 17.6555 10.3138 17.6077C10.1522 17.5884 10.0067 17.5334 9.99039 17.4856C9.9664 17.4151 9.98886 17.4133 10.1088 17.4755C10.1984 17.5221 10.3652 17.5363 10.5319 17.5115C10.879 17.4598 11.0676 17.4599 11.4201 17.512C11.6721 17.5492 11.7217 17.5334 11.902 17.3583C12.1584 17.1095 12.1845 16.697 11.9587 16.4636L11.8141 16.3143H12.0487C12.3456 16.3143 12.6349 16.0715 12.6349 15.8222V15.6466L12.7887 15.7869C12.9898 15.9702 13.3824 15.9759 13.5655 15.7981C13.6459 15.7201 13.6984 15.5831 13.6984 15.4512V15.2333L13.9964 15.2659C14.3704 15.3068 14.6841 15.1871 14.7368 14.9834C14.7586 14.8992 14.7806 14.8308 14.7858 14.8313C14.7909 14.8318 14.8999 14.8681 15.0278 14.9119C15.1977 14.9701 15.2663 15.0352 15.2819 15.1529C15.3252 15.4779 15.6745 15.5751 15.9375 15.3353C16.0703 15.2141 16.0913 15.21 16.0913 15.305C16.0913 15.3655 16.1349 15.4313 16.1882 15.4511C16.2559 15.4763 16.2734 15.5437 16.2463 15.6748C16.198 15.9097 16.3161 16.0562 16.5541 16.0562C16.7448 16.0562 16.889 16.2546 16.889 16.517C16.889 16.592 16.943 16.6627 17.0142 16.6808C17.0936 16.701 17.1284 16.7535 17.1093 16.8244C17.0927 16.886 17.123 16.9716 17.1766 17.0148C17.2302 17.058 17.2596 17.147 17.2419 17.2127C17.2242 17.2784 17.2423 17.3516 17.2822 17.3756C17.3319 17.4054 17.3337 17.4569 17.2882 17.5395C17.2103 17.6808 17.2656 17.8629 17.3865 17.8629C17.4329 17.8629 17.5105 17.9137 17.5589 17.9758C17.6338 18.0718 17.633 18.0766 17.5538 18.008C17.4279 17.899 17.2256 17.9061 17.1801 18.021C17.1598 18.0725 17.2238 18.2249 17.3225 18.3597C17.4866 18.584 17.4877 18.5889 17.3349 18.4181C17.1655 18.2288 16.9554 18.2184 16.9554 18.3994C16.9554 18.5308 17.1549 18.8952 17.2268 18.8952C17.2609 18.8952 17.254 18.9494 17.2114 19.0157C17.103 19.1841 17.1863 19.3469 17.3809 19.3469C17.5986 19.3469 17.6748 19.1252 17.5157 18.9546C17.4025 18.8333 17.405 18.8309 17.6033 18.8693C17.8647 18.9201 18.0009 18.733 17.8524 18.5272C17.7675 18.4094 17.774 18.3905 17.922 18.325C18.096 18.2481 18.1362 18.067 18.0073 17.9418C17.9473 17.8836 17.955 17.838 18.0405 17.7464C18.1789 17.5979 18.1827 17.4518 18.0509 17.3456C17.9813 17.2896 17.9621 17.2012 17.9891 17.0615C18.0191 16.9065 17.9959 16.8302 17.8907 16.7378C17.815 16.6713 17.7531 16.5475 17.7531 16.4627C17.7531 16.3587 17.6881 16.2724 17.5541 16.1984C17.4447 16.138 17.3549 16.066 17.3547 16.0386C17.3545 16.0112 17.4223 16.032 17.5053 16.0848C17.7018 16.2098 17.9434 16.1459 17.9926 15.9558C18.027 15.8227 18.0493 15.8143 18.1958 15.8791C18.3254 15.9365 18.405 15.9305 18.5718 15.8512C18.6882 15.7958 18.8648 15.7186 18.9643 15.6797C19.1965 15.5889 19.2674 15.3365 19.1215 15.1202C18.9885 14.9232 18.6891 14.9043 18.5229 15.0826C18.4597 15.1504 18.3345 15.2238 18.2447 15.2456C18.1319 15.2731 18.0693 15.3438 18.0425 15.4744C18.0084 15.6397 17.9914 15.6516 17.9068 15.5694C17.7932 15.4591 17.7216 15.4528 17.5564 15.5386C17.4541 15.5918 17.4365 15.5779 17.4445 15.4502C17.4529 15.3159 17.4806 15.3018 17.6866 15.3264C17.8788 15.3493 17.9579 15.3182 18.1415 15.1478C18.3243 14.9781 18.3591 14.9035 18.3379 14.7266C18.3144 14.5316 18.3221 14.5204 18.42 14.6064C18.5695 14.7378 18.9066 14.7251 19.0389 14.5833C19.0994 14.5183 19.1489 14.3594 19.1489 14.2299C19.1489 13.9374 18.9201 13.7587 18.6347 13.8283C18.3641 13.8942 18.2848 13.9832 18.2848 14.2212C18.2848 14.4312 18.2805 14.4344 18.0423 14.3968C17.8235 14.3624 17.7779 14.3825 17.577 14.6016C17.4545 14.7352 17.3543 14.8964 17.3543 14.9597C17.3543 15.0469 17.2898 15.0808 17.0884 15.0994C16.7961 15.1265 16.7283 15.0608 16.9843 14.9985C17.1907 14.9482 17.4386 14.6124 17.4472 14.3714C17.453 14.2131 17.4812 14.1853 17.6368 14.1852C18.0293 14.1849 18.2336 13.6837 17.9525 13.4108C17.6647 13.1314 17.1549 13.3194 17.1549 13.7048C17.1549 13.8747 17.1271 13.927 17.0367 13.927C16.84 13.927 16.6436 14.1037 16.5909 14.3279L16.5411 14.54L16.4693 14.3184C16.4128 14.1441 16.4162 14.0907 16.4854 14.0684C16.8173 13.9609 16.938 13.4584 16.6896 13.2173C16.3845 12.9212 15.7785 13.2001 15.8402 13.6081C15.8622 13.7538 15.833 13.8206 15.7143 13.8962C15.6292 13.9502 15.5596 14.0374 15.5596 14.0898C15.5596 14.1422 15.5347 14.1851 15.5042 14.1851C15.3761 14.1851 15.3728 14.0931 15.4953 13.9419C15.5672 13.8532 15.6261 13.7278 15.6261 13.6632C15.6261 13.2891 15.2385 13.0037 14.9211 13.1441C14.7576 13.2164 14.7561 13.2149 14.8576 13.0743C15.1351 12.6897 14.8604 12.1849 14.3735 12.1849C13.9803 12.1849 13.7982 12.3586 13.7982 12.7333C13.7982 13.1291 13.9938 13.3027 14.4041 13.2711C14.6478 13.2522 14.6749 13.2631 14.6224 13.3582C14.5457 13.4975 14.5448 13.8442 14.6211 13.89C14.6775 13.9238 14.4993 14.3723 14.4279 14.3765C14.4086 14.3777 14.4041 14.2641 14.4178 14.124C14.4604 13.691 14.0206 13.4025 13.6286 13.6062C13.511 13.6672 13.5064 13.6585 13.5702 13.4958C13.656 13.2767 13.5989 13.0365 13.4161 12.8462C13.2145 12.6366 12.7547 12.6435 12.5322 12.8595C12.3544 13.0321 12.3122 13.3806 12.4408 13.6141C12.5443 13.8016 12.9088 13.9343 13.1422 13.8693C13.3305 13.8169 13.3329 13.8195 13.3329 14.0875C13.3329 14.2367 13.3769 14.4103 13.4307 14.4732C13.528 14.587 13.5866 15.0441 13.497 14.9904C13.4712 14.9749 13.4316 14.8503 13.4091 14.7136C13.3527 14.3716 13.1583 14.2158 12.797 14.2235C12.537 14.229 12.5012 14.2112 12.4424 14.0474C12.4064 13.9472 12.2887 13.8131 12.1808 13.7494C11.9851 13.6339 11.9849 13.6332 12.1104 13.4828C12.2676 13.2943 12.2768 12.8506 12.1277 12.6441C11.8816 12.303 11.3325 12.2521 11.0118 12.5407C10.6693 12.8487 10.762 13.5028 11.1731 13.6794C11.3446 13.7531 11.3525 13.771 11.2665 13.8901C11.2149 13.9616 11.1726 14.1457 11.1726 14.2992C11.1726 14.7603 11.5935 15.0545 12.0382 14.904C12.223 14.8415 12.2469 14.8494 12.3028 14.9921C12.3366 15.0783 12.4251 15.1858 12.4995 15.2309C12.574 15.2761 12.6349 15.3535 12.6349 15.4029C12.6349 15.455 12.5786 15.4234 12.5012 15.3279C12.3411 15.1303 12.0608 15.0581 11.8113 15.1503C11.6501 15.2097 11.6108 15.196 11.4676 15.0309C11.3787 14.9283 11.2377 14.8277 11.1542 14.8074C11.0214 14.7751 11.0057 14.7377 11.0282 14.508C11.079 13.9921 10.7892 13.6689 10.2763 13.6689H10.038L10.2675 13.4733C10.6652 13.1343 10.6391 12.4849 10.2169 12.2164C10.0139 12.0873 9.59736 12.0353 9.40573 12.1151ZM16.8938 12.2259C16.5221 12.6845 17.0076 13.2628 17.5839 13.0481C17.7542 12.9847 17.9002 12.6524 17.8517 12.4383C17.7617 12.0402 17.1535 11.9053 16.8938 12.2259ZM23.2278 12.3249C22.9313 12.4642 22.853 12.9018 23.0755 13.1763C23.2536 13.3962 23.7271 13.4188 23.9347 13.2173C24.1423 13.0157 24.119 12.5561 23.8925 12.3832C23.7043 12.2395 23.4558 12.2177 23.2278 12.3249ZM18.552 12.5888C18.2245 12.7528 18.1508 13.1586 18.4 13.4269C18.5562 13.5952 18.9584 13.5754 19.1374 13.3906C19.529 12.9858 19.0553 12.3369 18.552 12.5888ZM21.2517 12.7703C21.1156 12.8742 21.0765 12.9605 21.0765 13.1574C21.0765 13.4799 21.2581 13.6689 21.5677 13.6689C21.9095 13.6689 22.1038 13.4818 22.1038 13.1527C22.1038 12.9456 22.0668 12.8518 21.9484 12.7587C21.7453 12.5991 21.4699 12.6036 21.2517 12.7703ZM19.6807 13.6044C19.5216 13.7588 19.5087 14.0377 19.6512 14.2352C19.7844 14.4198 20.2061 14.4347 20.3683 14.2606C20.5329 14.0841 20.5117 13.6989 20.3306 13.5758C20.127 13.4374 19.8397 13.45 19.6807 13.6044ZM24.539 14.1895C24.1714 14.3354 24.0809 14.7845 24.3638 15.059C24.5656 15.255 24.8519 15.2647 25.089 15.0837C25.2293 14.9765 25.2641 14.8953 25.2641 14.6743C25.2641 14.2672 24.9211 14.0379 24.539 14.1895ZM22.4108 14.3551C22.1311 14.7002 22.3278 15.1142 22.7715 15.1142C23.2152 15.1142 23.4119 14.7002 23.1322 14.3551C23.0323 14.2318 22.9332 14.1851 22.7715 14.1851C22.6098 14.1851 22.5107 14.2318 22.4108 14.3551ZM26.9496 14.3757C26.5811 14.5263 26.475 15.0438 26.7567 15.3171C27.1251 15.6748 27.7899 15.4281 27.7899 14.9336C27.7899 14.5222 27.333 14.2189 26.9496 14.3757ZM3.86033 14.5883C3.51967 14.8134 3.3771 15.045 3.34453 15.4264C3.30697 15.8665 3.43851 16.1765 3.76568 16.4187C3.98516 16.5812 4.07343 16.6047 4.4658 16.6047C4.96697 16.6047 5.17223 16.5028 5.43964 16.1214C5.55157 15.9618 5.58919 15.8155 5.58919 15.5401C5.58919 15.1169 5.43047 14.8305 5.06262 14.5899C4.75022 14.3855 4.16848 14.3848 3.86033 14.5883ZM20.6777 14.6367C20.3899 14.9161 20.5835 15.411 20.9806 15.411C21.4296 15.411 21.6405 14.9389 21.3215 14.648C21.1293 14.4727 20.8517 14.4678 20.6777 14.6367ZM16.3753 14.6971C16.3066 14.8039 16.3126 14.8207 16.416 14.8131C16.4981 14.8071 16.5271 14.7668 16.5059 14.6882C16.4676 14.5458 16.4729 14.5454 16.3753 14.6971ZM19.3854 14.7802C19.162 15.0897 19.3407 15.4755 19.7074 15.4755C19.9771 15.4755 20.146 15.3077 20.146 15.0396C20.146 14.7796 19.9924 14.6367 19.7129 14.6367C19.5567 14.6367 19.4575 14.6802 19.3854 14.7802ZM16.0249 14.9701C16.0249 15.047 16.0333 15.0978 16.0437 15.083C16.0541 15.0683 16.1026 15.0054 16.1515 14.9432C16.2277 14.8466 16.225 14.8303 16.1327 14.8303C16.0664 14.8303 16.0249 14.8842 16.0249 14.9701ZM1.03605 15.5664C0.534736 15.7821 0.270985 16.2125 0.272714 16.8123C0.275705 17.8157 1.30678 18.3914 2.26573 17.9252C2.7481 17.6906 2.95422 17.3041 2.91906 16.6999C2.88815 16.1686 2.66228 15.8065 2.23735 15.6068C1.91291 15.4544 1.34107 15.4351 1.03605 15.5664ZM17.2324 15.7256C17.161 15.7696 17.1642 15.7878 17.249 15.8194C17.3156 15.8442 17.3543 15.8238 17.3543 15.7639C17.3543 15.6542 17.3504 15.653 17.2324 15.7256ZM19.1655 15.8465C19.1016 15.9087 18.9857 15.9507 18.908 15.9399C18.6311 15.9015 18.4311 16.3015 18.6305 16.495C18.726 16.5877 19.0583 16.598 19.1144 16.51C19.1362 16.4757 19.2395 16.4642 19.344 16.4845C19.4832 16.5115 19.5712 16.4851 19.6738 16.3856C19.8495 16.215 19.852 16.0289 19.6807 15.8627C19.5168 15.7036 19.3192 15.6974 19.1655 15.8465ZM20.1593 15.811C20.0455 15.9215 20.0606 16.2868 20.1839 16.4065C20.5161 16.7289 21.039 16.2734 20.779 15.8881C20.6636 15.7172 20.3022 15.6723 20.1593 15.811ZM21.2894 15.9437C21.2514 15.9882 21.2 16.1029 21.1752 16.1985C21.1401 16.3343 21.1673 16.4083 21.2998 16.5369C21.4946 16.726 21.6495 16.7437 21.8594 16.601C22.0254 16.4881 22.0677 16.0764 21.9273 15.9401C21.8223 15.8381 21.3776 15.8406 21.2894 15.9437ZM10.375 16.0223C10.375 16.0813 10.4349 16.1208 10.5245 16.121C10.6068 16.1211 10.767 16.1762 10.8805 16.2435C11.0149 16.323 11.1194 16.3457 11.1797 16.3087C11.2306 16.2774 11.3548 16.2513 11.4556 16.2508C11.6232 16.2499 11.6318 16.2384 11.5553 16.118C11.4968 16.0257 11.4318 15.9987 11.3388 16.0279C11.0219 16.1275 10.7809 16.1277 10.5832 16.0284C10.3993 15.9361 10.375 15.9354 10.375 16.0223ZM23.1371 16.0562C22.9391 16.2484 22.9598 16.5937 23.1793 16.7613C23.3791 16.9139 23.4639 16.9241 23.6916 16.8234C24.1578 16.6172 24.0043 15.9272 23.4924 15.9272C23.3586 15.9272 23.2171 15.9786 23.1371 16.0562ZM18.0023 16.1259C17.8687 16.2015 17.8462 16.5079 17.9658 16.624C18.0096 16.6666 18.1084 16.7015 18.1851 16.7015C18.2619 16.7015 18.3606 16.6666 18.4045 16.624C18.5308 16.5014 18.5014 16.1987 18.3557 16.123C18.1986 16.0414 18.1511 16.0418 18.0023 16.1259ZM25.2212 16.3597C24.8677 16.4249 24.7102 16.9444 24.962 17.2144C25.1342 17.3991 25.5456 17.3942 25.7268 17.2054C26.0797 16.8378 25.7371 16.2647 25.2212 16.3597ZM41.7036 16.6351C41.3682 16.6642 40.9419 16.7083 40.7564 16.7331L40.4191 16.7781V21.5777V26.3773L40.6019 26.4269C40.7025 26.4542 41.6671 26.4766 42.7455 26.4766C44.5641 26.4766 44.7492 26.466 45.297 26.3306C46.7978 25.9594 47.6456 25.1995 47.8699 24.0247C48.084 22.9029 47.4879 21.7758 46.4523 21.3445C46.2428 21.2572 46.0707 21.1694 46.0701 21.1493C46.0695 21.1293 46.174 21.0642 46.3023 21.0049C46.6207 20.8575 47.109 20.4097 47.2973 20.0926C47.6387 19.5173 47.649 18.6598 47.3221 18.0376C47.0113 17.4465 46.2029 16.9249 45.2904 16.7269C44.7556 16.6108 42.6154 16.5561 41.7036 16.6351ZM50.8763 16.6351C50.5409 16.6642 50.1146 16.7083 49.9291 16.7331L49.5919 16.7781V21.6112V26.4443H50.7551H51.9183V24.5409V22.6375H52.4692C52.9086 22.6375 53.08 22.6669 53.3159 22.7827C53.7536 22.9975 53.9284 23.3307 54.2724 24.6054C54.4352 25.2087 54.6255 25.862 54.6953 26.0572L54.8223 26.412L56.0291 26.4297C56.6928 26.4393 57.2358 26.4301 57.2358 26.4093C57.2358 26.3884 57.2081 26.321 57.1742 26.2596C57.1403 26.1981 56.9292 25.4843 56.705 24.6734C56.1903 22.8114 55.96 22.3388 55.3995 21.9936L55.1122 21.8168L55.3914 21.6948C55.8002 21.5163 56.4078 20.9094 56.6219 20.4657C56.7861 20.1255 56.8036 20.0198 56.8019 19.3791C56.8003 18.7859 56.7741 18.6061 56.6421 18.2842C56.3356 17.5366 55.5276 16.9575 54.4715 16.7286C53.9283 16.6108 51.7961 16.5554 50.8763 16.6351ZM27.9893 21.5406V26.4443H29.1526H30.3158V24.4764V22.5084H32.1104H33.9051V21.6051V20.7018H32.1104H30.3158V19.605V18.5081H32.2434H34.171V17.5725V16.6369H31.0802H27.9893V21.5406ZM35.9657 21.5406V26.4443H37.1289H38.2921V21.5406V16.6369H37.1289H35.9657V21.5406ZM61.0574 16.7164C60.9896 16.899 58.0335 26.3722 58.0335 26.4069C58.0335 26.4275 58.5707 26.4443 59.2273 26.4443H60.4212L60.4897 26.2023C60.5274 26.0693 60.6879 25.5103 60.8464 24.9603L61.1345 23.9602L62.5374 23.9428L63.9404 23.9254L64.1068 24.459C64.1982 24.7525 64.3722 25.319 64.4934 25.718L64.7136 26.4434L65.9599 26.4439C66.9137 26.4442 67.2059 26.4254 67.2048 26.3637C67.2039 26.3193 66.5082 24.1199 65.6588 21.4761L64.1143 16.6692L62.6011 16.6518C61.4258 16.6383 61.0811 16.6528 61.0574 16.7164ZM19.585 16.8035C19.5012 16.8849 19.4536 16.8939 19.3973 16.8393C19.298 16.7429 18.9973 16.7454 18.8963 16.8434C18.7623 16.9735 18.8047 17.2071 18.9828 17.3203C19.1371 17.4185 19.1612 17.4182 19.3208 17.3168C19.4827 17.2138 19.5 17.214 19.6219 17.3211C19.7219 17.409 19.7906 17.4211 19.9251 17.3745C20.1712 17.2894 20.255 17.1354 20.1755 16.9146C20.0957 16.6929 19.7634 16.6304 19.585 16.8035ZM18.2317 16.8434C18.0452 17.0244 18.1857 17.3467 18.451 17.3467C18.6291 17.3467 18.7501 17.2292 18.7501 17.0563C18.7501 16.8834 18.6291 16.766 18.451 16.766C18.3742 16.766 18.2755 16.8008 18.2317 16.8434ZM14.1637 16.9649C14.1637 17.1221 14.3191 17.0999 14.3514 16.9381C14.3641 16.8744 14.3302 16.8305 14.2683 16.8305C14.2067 16.8305 14.1637 16.8857 14.1637 16.9649ZM20.6492 16.9319C20.3637 17.209 20.6859 17.7101 21.047 17.5504C21.1374 17.5104 21.2452 17.4058 21.2864 17.318C21.4509 16.9675 20.9348 16.6547 20.6492 16.9319ZM13.7363 17.1458C13.6911 17.2169 13.8605 17.3614 13.9206 17.3031C13.9447 17.2798 13.9643 17.222 13.9643 17.1746C13.9643 17.0785 13.793 17.0568 13.7363 17.1458ZM14.0604 17.2878C13.992 17.3954 14.146 17.5188 14.2377 17.4297C14.3144 17.3553 14.2664 17.2176 14.1637 17.2176C14.1315 17.2176 14.085 17.2492 14.0604 17.2878ZM21.6896 17.4471C21.5886 17.5158 21.5418 17.6137 21.5418 17.7568C21.5418 18.0221 21.6443 18.1209 21.9192 18.1209C22.1898 18.1209 22.3678 17.8981 22.3016 17.6422C22.2285 17.3593 21.9494 17.2704 21.6896 17.4471ZM18.35 17.6072C18.2573 17.7752 18.3218 17.9741 18.4851 18.0244C18.7776 18.1146 19.0167 17.7603 18.8033 17.5531C18.6787 17.4322 18.4301 17.4618 18.35 17.6072ZM13.7428 17.5833C13.6513 17.6721 13.7033 17.7983 13.8314 17.7983C13.92 17.7983 13.9643 17.7553 13.9643 17.6693C13.9643 17.545 13.8342 17.4944 13.7428 17.5833ZM19.0293 17.6822C18.9854 17.7248 18.9495 17.8351 18.9495 17.9274C18.9495 18.0196 18.9854 18.13 19.0293 18.1726C19.2177 18.3555 19.5477 18.1775 19.5477 17.8928C19.5477 17.6563 19.201 17.5155 19.0293 17.6822ZM14.0308 17.7661C14.0308 17.8198 14.0899 17.8629 14.1637 17.8629C14.2376 17.8629 14.2967 17.8198 14.2967 17.7661C14.2967 17.7123 14.2376 17.6693 14.1637 17.6693C14.0899 17.6693 14.0308 17.7123 14.0308 17.7661ZM23.3593 17.8349C23.2213 17.9688 23.1966 18.0397 23.2303 18.2059C23.2813 18.4582 23.4293 18.5726 23.7045 18.5726C23.9664 18.5726 24.1341 18.4006 24.1341 18.132C24.1341 17.7039 23.6754 17.528 23.3593 17.8349ZM19.7177 17.8804C19.5845 18.0778 19.655 18.3058 19.8651 18.357C20.0869 18.411 20.2406 18.3106 20.2671 18.0944C20.3097 17.7463 19.9127 17.5917 19.7177 17.8804ZM13.3006 17.9269C13.1799 17.9992 13.273 18.1999 13.415 18.1733C13.4786 18.1615 13.5401 18.1049 13.5514 18.0476C13.5757 17.9252 13.4246 17.8524 13.3006 17.9269ZM13.8537 18.093C13.7983 18.2331 13.9389 18.365 14.0396 18.2672C14.1247 18.1846 14.072 17.9919 13.9643 17.9919C13.9254 17.9919 13.8757 18.0374 13.8537 18.093ZM14.1637 18.1424C14.1637 18.2638 14.2277 18.3114 14.3364 18.2709C14.4778 18.2182 14.4478 18.0564 14.2967 18.0564C14.2236 18.0564 14.1637 18.0951 14.1637 18.1424ZM20.7575 18.1338C20.626 18.2615 20.659 18.6229 20.8093 18.7009C21.1345 18.8699 21.4764 18.5599 21.3424 18.2177C21.2925 18.0903 21.2328 18.0564 21.0583 18.0564C20.9367 18.0564 20.8014 18.0913 20.7575 18.1338ZM18.2981 18.2629C18.1193 18.4365 18.2585 18.7016 18.5284 18.7016C18.7254 18.7016 18.8468 18.4897 18.7501 18.3145C18.6712 18.1714 18.4217 18.1429 18.2981 18.2629ZM42.8286 18.2893C42.7669 18.316 42.7455 18.6058 42.7455 19.4167V20.5083H43.2633C44.1848 20.5083 44.8672 20.2453 45.1053 19.7984C45.2492 19.5281 45.2322 19.0501 45.0694 18.7945C44.8422 18.4376 44.4259 18.2878 43.6096 18.2691C43.2258 18.2604 42.8743 18.2695 42.8286 18.2893ZM51.9626 18.3575C51.9382 18.3812 51.9183 18.9764 51.9183 19.6802V20.9599H52.48C53.5341 20.9599 54.1253 20.7129 54.3813 20.1655C54.5299 19.8479 54.5473 19.3635 54.4208 19.0695C54.3021 18.7938 53.9109 18.4671 53.5984 18.3829C53.323 18.3086 52.0336 18.2886 51.9626 18.3575ZM14.3964 18.4436C14.3407 18.5309 14.4158 18.6371 14.5332 18.6371C14.5859 18.6371 14.629 18.579 14.629 18.5081C14.629 18.3745 14.4686 18.33 14.3964 18.4436ZM13.3993 18.5081C13.338 18.6045 13.4233 18.7016 13.5694 18.7016C13.6541 18.7016 13.6984 18.6573 13.6984 18.5726C13.6984 18.4357 13.476 18.3877 13.3993 18.5081ZM14.0308 18.5726C14.0308 18.6586 14.0751 18.7016 14.1637 18.7016C14.2523 18.7016 14.2967 18.6586 14.2967 18.5726C14.2967 18.4866 14.2523 18.4436 14.1637 18.4436C14.0751 18.4436 14.0308 18.4866 14.0308 18.5726ZM18.8299 18.5855C18.7053 18.7064 18.7358 18.9478 18.8856 19.0255C19.0586 19.1155 19.2635 19.0529 19.3154 18.8944C19.4082 18.6105 19.0433 18.3783 18.8299 18.5855ZM62.4666 18.6087C62.4461 18.6776 62.3398 19.0968 62.2303 19.5404C62.1209 19.984 61.9095 20.7647 61.7606 21.2753C61.6117 21.7859 61.4899 22.2142 61.4899 22.227C61.4899 22.2398 61.9656 22.2504 62.5471 22.2504H63.6043L63.3715 21.4922C63.2435 21.0753 62.9959 20.2277 62.8213 19.6088C62.6296 18.9291 62.4891 18.5331 62.4666 18.6087ZM16.7136 18.6694C16.6926 18.7226 16.6926 18.8097 16.7136 18.8629C16.7653 18.9937 16.6904 18.9855 16.5877 18.8493C16.4539 18.6716 16.3106 18.8414 16.3179 19.1689C16.323 19.3987 16.3458 19.4436 16.4569 19.4436C16.5564 19.4436 16.5906 19.3996 16.5929 19.2687C16.5966 19.0545 16.6714 18.9679 16.7283 19.1118C16.7519 19.1714 16.8437 19.2178 16.9378 19.2178C17.0971 19.2178 17.1032 19.2046 17.0612 18.9497C17.0369 18.8023 17.0014 18.6571 16.9823 18.6271C16.9257 18.5381 16.7548 18.565 16.7136 18.6694ZM25.0673 18.7138C24.7778 19.0155 25.0024 19.5404 25.421 19.5404C25.8355 19.5404 26.085 18.9823 25.7959 18.7016C25.6131 18.5242 25.2433 18.5304 25.0673 18.7138ZM8.99189 18.771C9.00498 18.8091 9.03735 18.8382 9.06388 18.8355C9.0904 18.8329 9.23351 18.8307 9.38187 18.8307C9.54478 18.8307 9.63538 18.8051 9.61059 18.7662C9.55395 18.6773 8.96125 18.6819 8.99189 18.771ZM14.708 18.8138C14.7414 18.982 14.9614 19.0008 14.9614 18.8354C14.9614 18.7431 14.9187 18.7016 14.8236 18.7016C14.7285 18.7016 14.6926 18.7364 14.708 18.8138ZM19.6413 18.8629C19.5405 19.0124 19.5405 19.0361 19.6413 19.1856C19.8342 19.4713 20.2124 19.3644 20.2124 19.0243C20.2124 18.6841 19.8342 18.5772 19.6413 18.8629ZM14.395 18.8973C14.3693 18.9378 14.3794 19.0013 14.4176 19.0384C14.507 19.1252 14.7152 19.0495 14.6789 18.9435C14.6419 18.8357 14.4538 18.805 14.395 18.8973ZM13.7027 18.987C13.5995 19.1077 13.665 19.2178 13.84 19.2178C13.9393 19.2178 13.9681 19.1819 13.9524 19.0777C13.9258 18.9026 13.8106 18.8608 13.7027 18.987ZM15.0943 18.992C15.0943 19.0457 15.0352 19.0888 14.9614 19.0888C14.8728 19.0888 14.8284 19.1318 14.8284 19.2178C14.8284 19.3727 15.078 19.3987 15.1367 19.2501C15.1578 19.1968 15.2167 19.1533 15.2676 19.1533C15.3185 19.1533 15.3602 19.0952 15.3602 19.0243C15.3602 18.9382 15.3158 18.8952 15.2272 18.8952C15.1534 18.8952 15.0943 18.9382 15.0943 18.992ZM18.0309 19.0012C17.8992 19.2298 18.1158 19.4703 18.3686 19.3762C18.6182 19.2832 18.5237 18.8952 18.2516 18.8952C18.1639 18.8952 18.0645 18.9429 18.0309 19.0012ZM21.4655 19.0517C21.2973 19.41 21.5925 19.7457 21.9573 19.6111C22.1686 19.5331 22.2563 19.2785 22.1499 19.0517C22.0897 18.9236 22.0276 18.8952 21.8077 18.8952C21.5878 18.8952 21.5257 18.9236 21.4655 19.0517ZM15.4931 19.0888C15.4931 19.163 15.4488 19.2178 15.3888 19.2178C15.3186 19.2178 15.2915 19.2654 15.3057 19.363C15.3196 19.4583 15.3726 19.5082 15.4599 19.5082C15.555 19.5082 15.5913 19.4669 15.5876 19.363C15.5846 19.2827 15.6217 19.2178 15.6707 19.2178C15.7192 19.2178 15.759 19.1597 15.759 19.0888C15.759 19.0028 15.7147 18.9597 15.6261 18.9597C15.5375 18.9597 15.4931 19.0028 15.4931 19.0888ZM15.8919 19.0759C15.8919 19.1397 15.858 19.2249 15.8166 19.2651C15.7095 19.3691 15.7965 19.5404 15.9563 19.5404C16.056 19.5404 16.0913 19.4982 16.0913 19.3791C16.0913 19.2904 16.1213 19.2178 16.1578 19.2178C16.1944 19.2178 16.2243 19.1597 16.2243 19.0888C16.2243 18.9941 16.1799 18.9597 16.0581 18.9597C15.9424 18.9597 15.8919 18.995 15.8919 19.0759ZM13.2332 19.3101C13.2332 19.4451 13.2649 19.4759 13.404 19.4759C13.543 19.4759 13.5708 19.4489 13.5535 19.3307C13.5399 19.2374 13.4788 19.1782 13.3827 19.1649C13.2609 19.1481 13.2332 19.1751 13.2332 19.3101ZM1.63427 19.3251C1.07181 19.6128 0.846543 20.0165 0.880775 20.6751C0.902045 21.0837 0.931557 21.1757 1.10989 21.3907C1.42383 21.7691 1.75691 21.9254 2.25177 21.9267C3.10922 21.9288 3.66158 21.3984 3.66158 20.5728C3.66158 20.0095 3.40375 19.5832 2.91646 19.3406C2.60672 19.1864 1.92142 19.1781 1.63427 19.3251ZM14.1139 19.3254C14.0682 19.3431 14.0308 19.4133 14.0308 19.4813C14.0308 19.5711 14.0776 19.605 14.2016 19.605C14.3391 19.605 14.3683 19.5777 14.3512 19.4648C14.3288 19.3171 14.2517 19.2718 14.1139 19.3254ZM18.485 19.3783C18.4379 19.4333 18.4208 19.5434 18.4448 19.6364C18.4777 19.7637 18.5289 19.7985 18.6826 19.7985C18.9247 19.7985 19.0571 19.6066 18.9495 19.4114C18.8657 19.2593 18.6027 19.2406 18.485 19.3783ZM16.7819 19.4391C16.7157 19.6066 16.8084 19.7449 16.9718 19.7224C17.0816 19.7072 17.1216 19.6587 17.1216 19.5404C17.1216 19.4222 17.0816 19.3736 16.9718 19.3585C16.8819 19.3461 16.8059 19.3783 16.7819 19.4391ZM20.5581 19.4243C20.4367 19.5421 20.4627 19.7648 20.6132 19.897C20.9037 20.1522 21.3245 19.7337 21.0732 19.4398C20.9768 19.327 20.6679 19.3177 20.5581 19.4243ZM17.5809 19.5646C17.5012 19.7661 17.5819 19.8953 17.7872 19.8953C17.9635 19.8953 17.9857 19.8736 17.9857 19.7017C17.9857 19.5384 17.9571 19.5049 17.8025 19.4877C17.6857 19.4747 17.6054 19.5025 17.5809 19.5646ZM23.1009 19.6343C22.8921 19.8369 22.894 20.0201 23.1072 20.227C23.289 20.4035 23.5375 20.3994 23.7298 20.2168C23.8788 20.0751 23.8472 19.7322 23.6726 19.5949C23.4672 19.4335 23.2955 19.4453 23.1009 19.6343ZM14.6091 19.6457C14.5836 19.6706 14.5625 19.7463 14.5625 19.8137C14.5625 19.9042 14.602 19.9311 14.7121 19.9159C14.8099 19.9025 14.8617 19.8509 14.8617 19.7672C14.8617 19.6391 14.6973 19.5602 14.6091 19.6457ZM16.2501 19.6972C16.1839 19.8647 16.2767 20.003 16.44 19.9805C16.5498 19.9653 16.5899 19.9168 16.5899 19.7985C16.5899 19.6802 16.5498 19.6317 16.44 19.6166C16.3501 19.6042 16.2741 19.6364 16.2501 19.6972ZM19.3221 19.6888C19.2435 19.7446 19.2115 19.8363 19.2263 19.963C19.2444 20.1173 19.2841 20.1573 19.4354 20.1742C19.5382 20.1856 19.6653 20.1603 19.7179 20.1179C19.855 20.0074 19.836 19.7502 19.6851 19.6717C19.5181 19.585 19.4648 19.5875 19.3221 19.6888ZM13.7244 19.7615C13.6639 19.9145 13.7494 20.0689 13.881 20.0443C13.9546 20.0306 13.9976 19.9638 13.9976 19.863C13.9976 19.6791 13.7878 19.6011 13.7244 19.7615ZM15.1604 19.8312C15.0868 19.9173 15.0897 19.9507 15.1779 20.0364C15.3205 20.1747 15.5084 20.0979 15.4812 19.9124C15.4552 19.7357 15.28 19.6913 15.1604 19.8312ZM15.7756 19.7767C15.7299 19.7946 15.6925 19.8794 15.6925 19.9652C15.6925 20.0871 15.7276 20.1211 15.8532 20.1211C16.0366 20.1211 16.1008 20.0115 16.0136 19.8469C15.952 19.7306 15.9185 19.7208 15.7756 19.7767ZM17.0937 20.0182C16.9526 20.1831 17.0332 20.347 17.2555 20.347C17.4317 20.347 17.454 20.3253 17.454 20.1534C17.454 20.0063 17.4207 19.9552 17.3152 19.9406C17.2389 19.93 17.1392 19.9649 17.0937 20.0182ZM17.9303 19.9706C17.8386 20.0596 17.8909 20.3127 18.0142 20.3767C18.2514 20.4999 18.4665 20.3073 18.3815 20.0475C18.3428 19.929 18.0284 19.8754 17.9303 19.9706ZM14.2974 20.1526C14.1792 20.2908 14.265 20.4437 14.4608 20.4437C14.5939 20.4437 14.629 20.4115 14.629 20.2893C14.629 20.2044 14.5817 20.1173 14.5239 20.0958C14.385 20.044 14.3915 20.0424 14.2974 20.1526ZM21.0914 20.2861C20.8084 20.4785 20.9723 20.9599 21.3207 20.9599C21.6484 20.9599 21.7983 20.4705 21.527 20.2861C21.4458 20.2309 21.3477 20.1857 21.3092 20.1857C21.2706 20.1857 21.1726 20.2309 21.0914 20.2861ZM16.401 20.3435C16.3316 20.5191 16.4279 20.6457 16.615 20.6247C16.7512 20.6093 16.7893 20.5698 16.7893 20.4437C16.7893 20.3177 16.7512 20.2782 16.615 20.2628C16.5046 20.2504 16.4261 20.2799 16.401 20.3435ZM13.9111 20.3921C13.7948 20.5051 13.8134 20.6234 13.9597 20.6994C14.0566 20.7498 14.1136 20.7413 14.1924 20.6649C14.2497 20.6091 14.2967 20.5424 14.2967 20.5166C14.2967 20.445 14.1465 20.3147 14.064 20.3147C14.0238 20.3147 13.955 20.3495 13.9111 20.3921ZM14.9208 20.407C14.8987 20.4626 14.8973 20.5503 14.9176 20.6018C14.9408 20.6604 14.9226 20.6834 14.8689 20.6634C14.7551 20.621 14.6121 20.795 14.641 20.9407C14.6559 21.0153 14.7231 21.0567 14.8294 21.0567C14.9586 21.0567 14.9991 21.0195 15.015 20.8858C15.0278 20.7788 15.0855 20.7022 15.1698 20.6809C15.3602 20.6325 15.3139 20.3543 15.1107 20.3263C15.0207 20.3139 14.9447 20.3462 14.9208 20.407ZM15.7038 20.4921C15.6177 20.6547 15.6801 20.7664 15.8571 20.7664C16.0223 20.7664 16.1108 20.6324 16.0489 20.476C15.9966 20.3436 15.7771 20.3539 15.7038 20.4921ZM17.1821 20.5325C17.1024 20.734 17.183 20.8631 17.3884 20.8631C17.5646 20.8631 17.5869 20.8415 17.5869 20.6696C17.5869 20.5063 17.5583 20.4728 17.4037 20.4555C17.2869 20.4425 17.2066 20.4703 17.1821 20.5325ZM18.6453 20.6665C18.5895 20.8824 18.7227 21.0365 18.9438 21.0116C19.0921 20.9948 19.1157 20.9612 19.1157 20.7664C19.1157 20.5592 19.098 20.5388 18.9019 20.5205C18.7199 20.5034 18.6819 20.525 18.6453 20.6665ZM20.0263 20.5857C19.8384 20.7682 20.0098 21.1535 20.2789 21.1535C20.548 21.1535 20.7195 20.7682 20.5315 20.5857C20.4876 20.5431 20.374 20.5083 20.2789 20.5083C20.1839 20.5083 20.0702 20.5431 20.0263 20.5857ZM16.3113 20.8719C16.2508 21.0251 16.3801 21.1857 16.5639 21.1857C16.6946 21.1857 16.7265 21.1485 16.7436 20.976C16.7631 20.7803 16.7508 20.7664 16.5588 20.7664C16.4296 20.7664 16.3375 20.8056 16.3113 20.8719ZM15.5375 20.8739C15.4548 20.954 15.4925 21.204 15.5928 21.2414C15.8035 21.3198 15.9968 21.1321 15.916 20.9277C15.8775 20.8303 15.62 20.7937 15.5375 20.8739ZM17.8471 21.2412C17.8262 21.2943 17.8189 21.4051 17.8309 21.4875C17.8481 21.6049 17.8945 21.6374 18.0449 21.6374C18.2818 21.6374 18.4178 21.4642 18.311 21.2987C18.2163 21.1518 17.898 21.1124 17.8471 21.2412ZM22.4207 21.2539C22.3175 21.3241 22.273 21.4202 22.273 21.5729C22.273 21.9763 22.746 22.1349 23.0031 21.8176C23.3299 21.4143 22.8575 20.957 22.4207 21.2539ZM19.2952 21.489C19.2513 21.5316 19.2154 21.6487 19.2154 21.7492C19.2154 22.0963 19.7594 22.1172 19.8018 21.7717C19.8136 21.6758 19.7875 21.5555 19.7438 21.5045C19.6473 21.3916 19.4042 21.3832 19.2952 21.489ZM20.2124 21.5406C20.1393 21.6116 20.0795 21.7232 20.0795 21.7887C20.0795 22.0508 20.5385 22.2306 20.7309 22.0439C20.8501 21.9282 20.8271 21.6396 20.6891 21.5184C20.5276 21.3765 20.3742 21.3836 20.2124 21.5406ZM16.9609 21.631C16.855 21.7548 16.8894 21.9261 17.0385 22.0173C17.209 22.1215 17.3875 21.9896 17.3875 21.7594C17.3875 21.6068 17.3563 21.5693 17.2156 21.5535C17.1211 21.5428 17.0065 21.5777 16.9609 21.631ZM14.9323 21.7213C14.8648 21.928 14.9589 22.066 15.1527 22.0441C15.2975 22.0278 15.3269 21.9918 15.3269 21.831C15.3269 21.6693 15.2978 21.6341 15.1499 21.6175C15.0226 21.6032 14.9614 21.6324 14.9323 21.7213ZM15.9717 21.7471C15.8047 21.9092 15.929 22.1858 16.1688 22.1858C16.2333 22.1858 16.3181 22.1278 16.3572 22.0568C16.5009 21.7963 16.1835 21.5415 15.9717 21.7471ZM9.17767 22.1865C8.96078 22.3453 9.02825 22.3921 9.26734 22.2487C9.37096 22.1866 9.42999 22.1203 9.39842 22.1013C9.36684 22.0824 9.26747 22.1207 9.17767 22.1865ZM18.2563 22.2227C18.0429 22.4299 18.2098 22.7258 18.5207 22.6914C18.6797 22.6739 18.7209 22.6354 18.7383 22.4884C18.7766 22.1637 18.4836 22.0021 18.2563 22.2227ZM42.7455 23.4734V24.8449L43.5265 24.8219C44.2238 24.8014 44.3489 24.7793 44.6931 24.6152C45.7967 24.0892 45.7134 22.7347 44.5516 22.3124C44.294 22.2187 43.9484 22.1638 43.4601 22.1387L42.7455 22.102V23.4734ZM19.1323 22.4491C18.9529 22.5505 18.982 22.871 19.1822 22.9983C19.3361 23.0962 19.3606 23.0962 19.5145 22.9983C19.9224 22.7389 19.5546 22.2104 19.1323 22.4491ZM17.1017 22.6504C16.9915 22.7574 17.0017 22.9926 17.1208 23.0884C17.3718 23.2907 17.7613 22.9126 17.5529 22.6689C17.4542 22.5534 17.2119 22.5434 17.1017 22.6504ZM3.12365 22.9167C2.96253 22.9992 2.74145 23.1898 2.63237 23.3401C2.46547 23.5702 2.43017 23.6878 2.40964 24.083C2.38112 24.6317 2.50701 24.9417 2.89147 25.2694C3.56181 25.8407 4.6775 25.6458 5.12803 24.8787C5.43778 24.3513 5.3065 23.5245 4.847 23.1084C4.44047 22.7403 3.64138 22.6514 3.12365 22.9167ZM8.48061 23.6742C8.37093 23.7424 8.2148 23.7984 8.13364 23.7986L7.98608 23.7989L8.15026 24.0338C8.24059 24.1629 8.31756 24.3589 8.32128 24.4693L8.32819 24.6699L8.39347 24.4316C8.42943 24.3006 8.55864 24.0985 8.68068 23.9827C8.85589 23.8164 8.88913 23.7478 8.83881 23.6564C8.76118 23.5157 8.73339 23.5171 8.48061 23.6742ZM10.4477 25.6305C10.3933 25.694 10.3905 25.7362 10.4387 25.7651C10.4773 25.7883 10.5273 25.7606 10.5499 25.7036C10.606 25.5616 10.5443 25.5175 10.4477 25.6305ZM61.327 27.0215C61.2703 27.0822 61.224 27.1462 61.224 27.1636C61.224 27.2163 61.9157 27.1902 62.005 27.1341C62.0507 27.1054 62.0881 27.0456 62.0881 27.0013C62.0881 26.8702 61.4523 26.8871 61.327 27.0215ZM10.7419 27.4727C10.7194 27.5415 10.5976 27.6859 10.4712 27.7936L10.2414 27.9894L10.4129 28.0985C10.5073 28.1586 10.657 28.3113 10.7456 28.4378L10.9067 28.668V28.3326C10.9067 28.1481 10.9572 27.8945 11.0189 27.769C11.1262 27.5504 11.1256 27.5368 11.0023 27.4463C10.8308 27.3204 10.7903 27.3245 10.7419 27.4727ZM66.4009 27.4698C66.2826 27.5627 66.2454 27.6567 66.2454 27.8626C66.2454 28.1105 66.2776 28.1612 66.6279 28.4663C67.0399 28.825 67.1295 29.086 66.8842 29.2134C66.7413 29.2877 66.4751 29.1418 66.4751 28.9893C66.4751 28.938 66.4152 28.8961 66.3421 28.8961C66.1665 28.8961 66.1687 29.0869 66.347 29.3068C66.4574 29.4431 66.5411 29.4768 66.7687 29.4768C67.1321 29.4768 67.2727 29.3347 67.2727 28.9675C67.2727 28.6161 67.2179 28.5244 66.8477 28.2556C66.5138 28.0132 66.4211 27.8434 66.5442 27.6994C66.6805 27.54 66.8783 27.5874 66.9607 27.7993C67.0055 27.9145 67.0839 27.9928 67.1543 27.9928C67.298 27.9928 67.3057 27.8548 67.1757 27.6107C67.0276 27.3328 66.6602 27.2659 66.4009 27.4698ZM58.7886 27.5063C58.5525 27.6669 58.4839 27.9371 58.5089 28.6076C58.5315 29.2161 58.5366 29.2335 58.748 29.4168C58.8669 29.5198 58.964 29.6447 58.964 29.6942C58.964 29.7438 59.0314 29.8071 59.1136 29.8349C59.2378 29.8769 59.2153 29.8898 58.9807 29.9107C58.7859 29.9281 58.6982 29.9659 58.6982 30.0324C58.6982 30.1082 58.7728 30.1247 59.0471 30.1093L59.3961 30.0898V29.8669C59.3961 29.6825 59.3673 29.6372 59.2299 29.6049C59.0691 29.5671 59.0705 29.5645 59.2762 29.5237C59.5153 29.4761 59.6053 29.353 59.6389 29.0269C59.6561 28.8596 59.6345 28.7978 59.5531 28.7818C59.4747 28.7664 59.4275 28.8291 59.3848 29.0057C59.3373 29.202 59.2915 29.2549 59.1556 29.2704C58.8933 29.3004 58.8094 29.139 58.7825 28.5527C58.7543 27.9377 58.8419 27.7025 59.099 27.7025C59.2269 27.7025 59.2772 27.7489 59.3268 27.9122C59.4128 28.1958 59.6287 28.2052 59.6287 27.9254C59.6287 27.5252 59.1282 27.2755 58.7886 27.5063ZM61.297 27.58C61.2222 27.6723 61.1415 27.8488 61.1176 27.9723C61.0475 28.3355 61.1246 29.128 61.2479 29.3107C61.4661 29.634 61.9752 29.5995 62.151 29.2495C62.3631 28.827 62.2969 27.8017 62.0396 27.5251C61.8721 27.345 61.463 27.3753 61.297 27.58ZM63.8163 28.4445V29.4768H64.3148C64.769 29.4768 64.8133 29.4654 64.8133 29.3478C64.8133 29.2344 64.769 29.2188 64.4478 29.2188H64.0822V28.8639V28.509H64.3481C64.5401 28.509 64.6139 28.4821 64.6139 28.4122C64.6139 28.3424 64.5401 28.3154 64.3481 28.3154H64.0822V27.9928V27.6702H64.4478C64.769 27.6702 64.8133 27.6546 64.8133 27.5412C64.8133 27.4236 64.769 27.4121 64.3148 27.4121H63.8163V28.4445ZM51.5195 28.5413C51.5195 29.5629 51.5249 29.6059 51.6524 29.6059C51.78 29.6059 51.7854 29.5629 51.7854 28.5413C51.7854 27.5197 51.78 27.4767 51.6524 27.4767C51.5249 27.4767 51.5195 27.5197 51.5195 28.5413ZM53.5227 27.6413C53.3597 27.8425 53.2824 28.3815 53.3459 28.8749C53.4172 29.4289 53.785 29.7236 54.2085 29.5658C54.3475 29.514 54.5106 29.2066 54.5106 28.9962C54.5106 28.8747 54.4758 28.8316 54.3777 28.8316C54.2876 28.8316 54.2447 28.8747 54.2447 28.9649C54.2447 29.3232 53.9313 29.4755 53.7554 29.2026C53.6287 29.0062 53.5732 28.4754 53.6428 28.1257C53.7341 27.6663 54.0752 27.5407 54.1566 27.9364C54.1864 28.081 54.2313 28.1219 54.3599 28.1219C54.5066 28.1219 54.52 28.1021 54.4801 27.9444C54.3894 27.5863 54.2649 27.4767 53.9489 27.4767C53.7142 27.4767 53.6297 27.5093 53.5227 27.6413ZM56.2762 27.553C56.2607 27.5997 56.1697 28.0154 56.074 28.4768C55.9783 28.9381 55.8844 29.3664 55.8655 29.4285C55.839 29.5154 55.8704 29.5414 56.0017 29.5414C56.134 29.5414 56.1725 29.5089 56.1733 29.3962C56.1753 29.0594 56.2444 28.9607 56.478 28.9607C56.6677 28.9607 56.7077 28.9875 56.7422 29.1381C56.8253 29.5005 56.8489 29.5414 56.9744 29.5414C57.1387 29.5414 57.1395 29.5512 56.8794 28.4445C56.6671 27.5414 56.6533 27.5082 56.482 27.4885C56.3781 27.4765 56.2928 27.5032 56.2762 27.553ZM37.9932 27.6864C37.6271 27.9929 37.5922 29.1737 37.938 29.5517C38.1713 29.8068 38.6725 29.7413 38.8152 29.4372C38.9375 29.1766 38.9113 28.9607 38.7574 28.9607C38.6609 28.9607 38.6244 29.0037 38.6244 29.1174C38.6244 29.2657 38.4729 29.4768 38.3665 29.4768C38.3395 29.4768 38.2595 29.4357 38.1885 29.3854C38.0799 29.3084 38.0559 29.1979 38.0369 28.6898C38.0171 28.1594 38.0308 28.0665 38.149 27.9264C38.2585 27.7969 38.3061 27.7803 38.4028 27.8377C38.4682 27.8765 38.5386 27.9781 38.5592 28.0635C38.583 28.1621 38.6525 28.2265 38.75 28.2401C38.8909 28.2598 38.8997 28.2442 38.8586 28.0465C38.805 27.7883 38.5442 27.5412 38.3253 27.5412C38.238 27.5412 38.0886 27.6065 37.9932 27.6864ZM40.5853 27.6864C40.3724 27.8644 40.2751 28.4153 40.3564 28.9812C40.4281 29.4811 40.5743 29.6676 40.8956 29.6694C41.1668 29.6709 41.2781 29.6087 41.3979 29.3884C41.5501 29.1087 41.5469 28.1701 41.3929 27.8819C41.1989 27.5188 40.8783 27.4412 40.5853 27.6864ZM43.0326 28.5781C43.056 29.1537 43.0886 29.6379 43.1053 29.654C43.2222 29.7675 43.278 29.5147 43.2841 28.844L43.291 28.0896L43.4192 28.6058C43.6412 29.4996 43.6789 29.6059 43.7739 29.6059C43.8776 29.6059 43.8848 29.5863 44.0481 28.8639C44.1122 28.58 44.1894 28.3201 44.2196 28.2864C44.2497 28.2527 44.2743 28.5358 44.2743 28.9155C44.2743 29.4861 44.2916 29.6059 44.374 29.6059C44.4585 29.6059 44.4737 29.4482 44.4737 28.5735V27.5412H44.2832C44.0943 27.5412 44.0913 27.5476 43.9342 28.2595L43.7758 28.9778L43.6024 28.2756L43.429 27.5734L43.2096 27.5525L42.9902 27.5314L43.0326 28.5781ZM46.069 28.3381C46.069 28.7764 46.1008 29.2237 46.1398 29.3321C46.2782 29.7175 46.9268 29.7695 47.1141 29.4101C47.1677 29.3072 47.1974 28.9494 47.198 28.3961C47.1989 27.5839 47.1923 27.5412 47.066 27.5412C46.9413 27.5412 46.9331 27.5842 46.9331 28.2429C46.9331 29.1086 46.8912 29.3315 46.7183 29.3848C46.4441 29.4693 46.3751 29.283 46.3461 28.38C46.3214 27.611 46.3088 27.5412 46.1941 27.5412C46.0784 27.5412 46.069 27.6009 46.069 28.3381ZM48.7942 28.5735C48.7942 29.5821 48.7975 29.6059 48.935 29.6059C49.0725 29.6059 49.0752 29.5865 49.0491 28.7727L49.0224 27.9396L49.3313 28.7566C49.584 29.4247 49.6662 29.5774 49.7822 29.5943C49.9222 29.6146 49.9242 29.6003 49.9242 28.5781C49.9242 27.5905 49.918 27.5412 49.7937 27.5412C49.6742 27.5412 49.6615 27.5943 49.6441 28.1703L49.6251 28.7994L49.3943 28.1703C49.1775 27.5792 49.1524 27.5412 48.9789 27.5412H48.7942V28.5735ZM35.301 28.6381V29.6704H35.7995C36.2537 29.6704 36.298 29.6589 36.298 29.5414C36.298 29.4279 36.2537 29.4123 35.9324 29.4123H35.5668V29.0897V28.7671H35.8327C36.0543 28.7671 36.0986 28.7456 36.0986 28.6381C36.0986 28.5305 36.0543 28.509 35.8327 28.509H35.5668V28.1864V27.8638H35.9324C36.2537 27.8638 36.298 27.8482 36.298 27.7347C36.298 27.6172 36.2537 27.6057 35.7995 27.6057H35.301V28.6381ZM27.9229 27.7993C27.9229 27.8997 27.9672 27.9283 28.1223 27.9283H28.3217V28.8316C28.3217 29.6919 28.328 29.7349 28.4546 29.7349C28.5813 29.7349 28.5876 29.6919 28.5876 28.8316V27.9283H28.787C28.9421 27.9283 28.9864 27.8997 28.9864 27.7993C28.9864 27.681 28.9421 27.6702 28.4546 27.6702C27.9672 27.6702 27.9229 27.681 27.9229 27.7993ZM30.4487 28.7026V29.7349H30.9472C31.4014 29.7349 31.4458 29.7235 31.4458 29.6059C31.4458 29.4925 31.4014 29.4768 31.0802 29.4768H30.7146V29.122V28.7671H30.9805C31.202 28.7671 31.2463 28.7456 31.2463 28.6381C31.2463 28.5305 31.202 28.509 30.9805 28.509H30.7146V28.2187V27.9283H31.0802C31.4014 27.9283 31.4458 27.9127 31.4458 27.7993C31.4458 27.6817 31.4014 27.6702 30.9472 27.6702H30.4487V28.7026ZM32.9081 28.5009C32.9081 28.9578 32.927 29.4236 32.9502 29.5361L32.9923 29.7404L33.4314 29.7216C33.7875 29.7062 33.8747 29.6813 33.8927 29.5898C33.9114 29.4942 33.863 29.4768 33.5776 29.4768H33.2404V28.5735V27.6702H33.0742H32.9081V28.5009ZM61.4814 27.7769C61.3629 27.9156 61.3599 28.9337 61.4775 29.1381C61.5234 29.218 61.6188 29.2833 61.6893 29.2833C61.8908 29.2833 61.9799 29.0359 61.9799 28.4768C61.9799 28.1925 61.9435 27.8953 61.8987 27.8154C61.8031 27.6444 61.6099 27.6266 61.4814 27.7769ZM40.7453 27.9032C40.6166 28.0537 40.5844 29.0034 40.7009 29.2188C40.8232 29.4452 41.0396 29.461 41.1382 29.251C41.2419 29.03 41.2371 28.197 41.131 27.9934C41.0277 27.7953 40.8694 27.7582 40.7453 27.9032ZM56.4143 28.1219C56.3874 28.2816 56.3486 28.4775 56.3281 28.5574C56.2966 28.6801 56.3177 28.7026 56.4643 28.7026C56.6627 28.7026 56.6584 28.7276 56.5476 28.2187L56.4633 27.8315L56.4143 28.1219ZM13.6646 28.9398C13.583 29.1293 13.5795 29.1875 13.6471 29.2292C13.8336 29.3441 13.8979 29.2835 13.8979 28.9929C13.8979 28.641 13.8025 28.6193 13.6646 28.9398Z" fill="white"/>
</svg>
