<svg width="44" height="33" viewBox="0 0 44 33" fill="none" xmlns="http://www.w3.org/2000/svg">
<path fill-rule="evenodd" clip-rule="evenodd" d="M9.52979 0.987781C9.04637 1.13429 8.73704 1.54034 8.73704 2.02842C8.73704 2.24335 8.7542 2.31261 8.85637 2.50987C8.922 2.63658 9.032 2.78416 9.10081 2.83778C9.25428 2.95732 15.8608 6.78623 15.9108 6.78453C15.9305 6.78389 17.4587 5.92624 19.3069 4.87864C21.616 3.56978 22.714 2.9284 22.817 2.82827C23.2141 2.44217 23.2305 1.80214 22.8546 1.36104C22.5924 1.0535 22.0203 0.932213 21.6432 1.10431C21.5379 1.15236 20.2086 1.89717 18.6892 2.75936C16.1941 4.17528 15.919 4.32296 15.8472 4.28492C15.8036 4.26179 14.5291 3.52457 13.0152 2.6467C11.5013 1.76886 10.1917 1.02898 10.105 1.00258C9.93521 0.950878 9.67378 0.944171 9.52979 0.987781ZM25.7236 2.27798C25.6548 2.30357 23.4188 3.55498 20.7546 5.05894C18.0905 6.56286 15.874 7.81236 15.8291 7.83557C15.7546 7.8741 15.3354 7.6381 11.0156 5.12551C8.41309 3.61179 6.22639 2.34948 6.15626 2.32039C5.93777 2.22976 5.64095 2.25162 5.38825 2.37698C5.14913 2.49557 5.03466 2.61909 4.91502 2.8876C4.76838 3.21664 4.86518 3.66527 5.13858 3.92398C5.29101 4.06819 15.1714 9.8192 15.4103 9.90273C15.6211 9.97643 15.8947 9.98281 16.0767 9.91827C16.3202 9.83194 26.5606 4.02788 26.7116 3.89063C27.1041 3.53383 27.1101 2.89863 26.7246 2.5159C26.6544 2.44632 26.5333 2.35871 26.4553 2.32127C26.2796 2.23696 25.8951 2.21422 25.7236 2.27798ZM2.32583 6.07701C1.88749 6.27963 1.65605 6.7378 1.76837 7.18057C1.79275 7.27659 2.95485 9.34144 4.61834 12.2444C7.13407 16.6347 7.4232 17.1549 7.38895 17.2294C7.36793 17.2752 6.1135 19.4084 4.60136 21.97C3.08919 24.5315 1.83419 26.6912 1.81242 26.7693C1.71926 27.1037 1.81635 27.458 2.06705 27.698C2.30538 27.9262 2.42624 27.9748 2.75555 27.9746C3.08583 27.9745 3.2443 27.9093 3.45732 27.686C3.60793 27.5281 9.32285 17.8605 9.4519 17.5453C9.52368 17.3701 9.53551 17.2915 9.52196 17.0816L9.50562 16.8289L6.52879 11.6342C4.89149 8.77714 3.51198 6.38753 3.46311 6.32398C3.41428 6.26039 3.27676 6.16001 3.15754 6.10086C2.87774 5.96208 2.59215 5.95388 2.32583 6.07701ZM1.39156 9.86128C1.15916 9.90894 0.974306 10.0193 0.794672 10.2176C0.541863 10.4968 0.452815 10.9014 0.571033 11.2341C0.59838 11.311 1.33175 12.6087 2.20075 14.1179C3.06971 15.6271 3.79646 16.8963 3.81577 16.9383C3.84587 17.0039 3.6139 17.4181 2.1882 19.8449C0.376886 22.9279 0.402553 22.8764 0.48177 23.2678C0.626407 23.9828 1.38033 24.3428 2.04403 24.0137C2.12875 23.9717 2.24565 23.8879 2.30381 23.8275C2.36197 23.7671 3.2961 22.2099 4.37965 20.3671L6.3498 17.0166L4.43135 13.6784C3.37621 11.8424 2.46607 10.2808 2.4088 10.2083C2.20986 9.95645 1.7283 9.79216 1.39156 9.86128ZM15.6248 11.1595C14.4092 11.3317 13.5136 11.6872 12.6682 12.3329C11.6009 13.1481 10.8201 14.3687 10.5288 15.6773C10.307 16.6735 10.3771 17.8409 10.7164 18.8011C11.3905 20.7085 13.0086 22.1193 15.0406 22.5709C15.3681 22.6437 15.5021 22.653 16.2147 22.6523C16.9106 22.6516 17.0676 22.6409 17.3802 22.5728C18.1254 22.4106 18.846 22.107 19.4852 21.686C20.163 21.2395 20.911 20.4179 21.3412 19.6474L21.474 19.4094L19.318 19.3985C17.1688 19.3875 17.1612 19.3873 16.9117 19.3047C16.4597 19.1551 16.1844 18.9878 15.8542 18.6621C15.5976 18.409 15.5201 18.3041 15.3813 18.0223C15.1692 17.5918 15.0891 17.2107 15.1167 16.764C15.1558 16.1316 15.4001 15.6015 15.8643 15.1418C16.0834 14.9248 16.2071 14.8363 16.472 14.7073C17.0702 14.416 16.9682 14.4266 19.3337 14.4117C20.4888 14.4044 21.4336 14.3875 21.4334 14.3741C21.4321 14.3151 21.1234 13.7928 20.9395 13.5387C20.0885 12.3633 18.7915 11.5363 17.3388 11.2429C16.9956 11.1736 15.9011 11.1204 15.6248 11.1595ZM34.2674 15.1683C33.6017 15.3114 33.1036 15.7982 32.9279 16.4775C32.864 16.7245 32.8564 17.2285 32.9124 17.4973C33.0069 17.9503 33.3384 18.4272 33.7084 18.6424C34.2601 18.9634 34.9938 18.9877 35.5657 18.704C36.1865 18.396 36.5332 17.7882 36.5314 17.0111C36.5304 16.6081 36.4674 16.3458 36.2929 16.0186C35.929 15.3362 35.1018 14.989 34.2674 15.1683ZM16.8293 15.3168L16.8402 15.4853L17.01 15.5179L17.1798 15.5504V17.0132V18.4761L17.01 18.5067L16.8402 18.5373L16.8293 18.7057L16.8184 18.8741H17.448H18.0775L18.0666 18.7057L18.0557 18.5373L17.8859 18.5067L17.7161 18.4761V17.0111V15.5462L17.8859 15.5156L18.0557 15.485L18.0666 15.3166L18.0775 15.1482H17.448H16.8184L16.8293 15.3168ZM18.3953 15.3062C18.3953 15.4586 18.4001 15.4656 18.5293 15.5012C18.6031 15.5215 18.6835 15.5382 18.7081 15.5383C18.7431 15.5385 18.7528 15.856 18.7528 17.0072V18.4758L18.6187 18.5007C18.4348 18.5348 18.3953 18.5765 18.3953 18.7364V18.8741H19.0209H19.6465V18.7182C19.6465 18.5461 19.6367 18.5381 19.3829 18.5003L19.2175 18.4757V17.2484C19.2175 16.5508 19.2309 16.0357 19.2485 16.0548C19.2657 16.0734 19.734 16.6794 20.2894 17.4015C20.8448 18.1236 21.3384 18.7503 21.3864 18.7942C21.4495 18.8521 21.5174 18.8741 21.6325 18.8741H21.7913V17.2104V15.5466L21.9493 15.5231C22.1399 15.4947 22.1931 15.4391 22.1781 15.2836L22.1667 15.166L21.548 15.1562L20.9294 15.1465L20.9403 15.3159L20.9513 15.4853L21.138 15.5168L21.3248 15.5482L21.3347 16.7587C21.3401 17.4245 21.3433 17.9731 21.3418 17.9778C21.3403 17.9825 20.8679 17.3757 20.2919 16.6294C19.7158 15.8831 19.2125 15.2445 19.1734 15.2103C19.116 15.1601 19.0346 15.1482 18.7488 15.1482H18.3953V15.3062ZM22.4418 15.3168L22.4527 15.4853L22.6225 15.5179L22.7923 15.5504V17.0132V18.4761L22.6225 18.5067L22.4527 18.5373L22.4418 18.7057L22.4309 18.8741H23.0584H23.686V18.716C23.686 18.5637 23.6812 18.5567 23.5519 18.5211C23.4782 18.5008 23.3978 18.4841 23.3732 18.4839C23.3392 18.4838 23.3285 18.3393 23.3285 17.8805V17.2773H24.0256H24.7227V17.0644V16.8515H24.0256H23.3285V16.212V15.5726L24.0524 15.5822L24.7763 15.5918L24.7946 15.7869C24.8046 15.8943 24.8256 16.0021 24.8414 16.0265C24.8572 16.051 24.9407 16.0708 25.0286 16.0708H25.1874V15.6095V15.1482H23.8091H22.4309L22.4418 15.3168ZM25.4615 15.1719C25.4196 15.2134 25.4359 15.422 25.4841 15.4617C25.5096 15.4827 25.5981 15.5107 25.6807 15.5238L25.8309 15.5476V17.0126V18.4775L25.6789 18.5024C25.4764 18.5355 25.4376 18.5733 25.4376 18.7373V18.8757L26.0722 18.866L26.7067 18.8563L26.718 18.7387C26.7331 18.5832 26.6835 18.5318 26.491 18.5031L26.3313 18.4794V17.8961V17.3128H26.5077C26.6048 17.3128 26.7238 17.3277 26.7724 17.346C26.8274 17.3668 27.0526 17.6414 27.3709 18.0759C27.6516 18.459 27.9141 18.7953 27.9543 18.8232C28.0034 18.8574 28.1243 18.8741 28.3233 18.8741H28.6192V18.716C28.6192 18.5637 28.6144 18.5567 28.4851 18.5211C28.4114 18.5008 28.3309 18.4841 28.3062 18.4839C28.2815 18.4838 28.1221 18.2961 27.9519 18.0668C27.7818 17.8375 27.5735 17.5589 27.4891 17.4476L27.3357 17.2454L27.5395 17.153C27.938 16.9724 28.1533 16.6785 28.1825 16.2753C28.2059 15.9511 28.1436 15.7511 27.9537 15.5415C27.7671 15.3354 27.5555 15.2387 27.1778 15.1867C26.875 15.145 25.5004 15.1332 25.4615 15.1719ZM30.4932 15.1882C30.4784 15.2118 30.1732 15.9587 29.8147 16.8479C29.4563 17.7371 29.1412 18.477 29.1145 18.492C29.0878 18.507 29.0218 18.5348 28.9677 18.5538C28.8825 18.5838 28.8694 18.6075 28.8694 18.7312V18.8741H29.4077H29.946L29.935 18.726C29.9254 18.5968 29.9103 18.5736 29.8167 18.5437C29.7578 18.5249 29.7034 18.5042 29.6958 18.4979C29.6883 18.4914 29.7434 18.3256 29.8183 18.1295L29.9544 17.7727L30.756 17.7823L31.5577 17.7918L31.6936 18.1466L31.8295 18.5015L31.699 18.5379C31.5779 18.5717 31.5676 18.5853 31.5574 18.7242L31.5464 18.8741H32.0867H32.6271L32.6161 18.7262C32.6062 18.5926 32.5931 18.5744 32.4803 18.5369L32.3555 18.4954L31.6856 16.8307L31.0156 15.166L30.7678 15.1556C30.6023 15.1487 30.511 15.1595 30.4932 15.1882ZM36.7767 15.3166L36.7876 15.485L36.9574 15.5156L37.1272 15.5462V17.015C37.1272 18.1662 37.1175 18.4838 37.0825 18.4839C37.058 18.4841 36.9775 18.5008 36.9038 18.5211C36.7745 18.5567 36.7697 18.5637 36.7697 18.716V18.8741H37.3953H38.0209V18.7182C38.0209 18.5461 38.0111 18.5381 37.7574 18.5003L37.5919 18.4757V17.2528V16.0299L37.6749 16.1302C37.7206 16.1854 38.1884 16.7894 38.7146 17.4724C39.2408 18.1555 39.7111 18.7503 39.7597 18.7942C39.8235 18.8519 39.8922 18.8741 40.0069 18.8741H40.1658V17.2104V15.5466L40.3237 15.5231C40.5144 15.4947 40.5676 15.4391 40.5525 15.2836L40.5411 15.166H39.9155H39.29L39.2788 15.2618C39.2598 15.4254 39.324 15.4937 39.5217 15.5207L39.7011 15.5452V16.7554C39.7011 17.459 39.6878 17.9515 39.6694 17.932C39.652 17.9134 39.1755 17.2994 38.6103 16.5676C38.0452 15.8357 37.5577 15.217 37.5269 15.1926C37.4907 15.1638 37.3468 15.1482 37.1184 15.1482H36.7658L36.7767 15.3166ZM40.7973 15.1719C40.7555 15.2134 40.7718 15.422 40.82 15.4617C40.8455 15.4827 40.934 15.5107 41.0166 15.5238L41.1667 15.5476V17.0135V18.4794L41.0049 18.5035C40.8257 18.5301 40.7619 18.6031 40.7802 18.7605L40.7914 18.8563L42.123 18.8656L43.4546 18.8749V18.429V17.9831L43.2848 17.9939L43.115 18.0047L43.0819 18.2265L43.0488 18.4482H42.3759H41.7029V17.8273V17.2063H42.3822H43.0614V16.9934V16.7805H42.3822H41.7029V16.1773V15.574H42.3771H43.0512L43.0739 15.79C43.0864 15.9087 43.1058 16.0205 43.1169 16.0383C43.128 16.0562 43.2085 16.0708 43.2958 16.0708H43.4546V15.6095V15.1482H42.1379C41.4137 15.1482 40.8104 15.1589 40.7973 15.1719ZM26.3313 16.2667V16.968L26.7179 16.9498C27.1482 16.9295 27.3533 16.8623 27.5178 16.6875C27.7084 16.4851 27.7393 16.046 27.5773 15.8417C27.4309 15.657 27.2479 15.5979 26.7692 15.581L26.3313 15.5655V16.2667ZM34.3526 15.6055C33.9838 15.7003 33.6551 15.9897 33.5099 16.3475C33.4385 16.5236 33.4278 16.612 33.4275 17.0289C33.4273 17.4821 33.4328 17.5198 33.5302 17.7291C33.6502 17.9871 33.9038 18.2408 34.1494 18.3486C34.3798 18.4498 34.8353 18.4751 35.0921 18.401C35.4998 18.2833 35.7877 18.0025 35.913 17.6001C36.0556 17.1424 36.0306 16.6629 35.8434 16.2628C35.6374 15.823 35.2963 15.6082 34.7721 15.5884C34.6026 15.5821 34.4138 15.5897 34.3526 15.6055ZM30.7283 15.7493C30.7283 15.7741 30.5916 16.146 30.4245 16.5758C30.2573 17.0056 30.1206 17.3632 30.1206 17.3705C30.1206 17.3778 30.4021 17.3837 30.7462 17.3837C31.0903 17.3837 31.3718 17.3698 31.3718 17.3527C31.3718 17.3181 30.7648 15.7422 30.7425 15.7189C30.7347 15.7108 30.7283 15.7245 30.7283 15.7493ZM15.7857 23.996C15.5856 24.0674 5.26856 29.9042 5.15642 30.0095C4.97007 30.1845 4.87416 30.3906 4.85489 30.6576C4.83873 30.8819 4.84735 30.9241 4.95323 31.1375C5.07345 31.38 5.25737 31.5474 5.50157 31.6368C5.67824 31.7014 6.02338 31.6918 6.18736 31.6176C6.266 31.582 8.49399 30.3314 11.1384 28.8385C13.7829 27.3457 15.9834 26.1048 16.0285 26.081C16.1038 26.0412 16.4957 26.2618 20.8448 28.7913C23.4486 30.3057 25.6352 31.5681 25.7038 31.5966C25.8677 31.6645 26.1698 31.6623 26.3788 31.5917C26.5753 31.5252 26.8221 31.3003 26.9202 31.0983C26.9587 31.0193 26.9956 30.853 27.0036 30.7231C27.0211 30.4378 26.9296 30.1967 26.7313 30.0055C26.5731 29.853 16.7056 24.1034 16.447 24.013C16.238 23.94 15.9626 23.9329 15.7857 23.996ZM12.5613 29.0357C10.6426 30.1243 9.12044 31.01 9.04759 31.0801C8.53106 31.5774 8.67395 32.4569 9.3252 32.7894C9.42709 32.8415 9.565 32.8718 9.74939 32.8827C9.98561 32.8968 10.0485 32.887 10.2141 32.8111C10.3194 32.7628 11.6496 32.0186 13.1701 31.1571C15.63 29.7635 15.9432 29.5954 16.0121 29.6315C16.0547 29.6539 17.3282 30.3906 18.8421 31.2688C20.3561 32.1469 21.6656 32.887 21.7523 32.9133C22.1061 33.0209 22.4789 32.9361 22.7617 32.6837C22.9683 32.4994 23.0671 32.3246 23.1174 32.0543C23.1903 31.6631 22.9907 31.2219 22.6376 30.9936C22.5032 30.9067 16.0881 27.1868 15.9644 27.124C15.9546 27.119 14.4232 27.9792 12.5613 29.0357Z" fill="white"/>
</svg>
