<svg width="138" height="30" viewBox="0 0 138 30" fill="none" xmlns="http://www.w3.org/2000/svg">
<path fill-rule="evenodd" clip-rule="evenodd" d="M11.4342 3.59333C10.1951 5.31725 9.18863 6.73514 9.19769 6.74416C9.20675 6.75322 10.2206 6.95601 11.4507 7.19477L13.6872 7.62893L13.6995 5.83762C13.7062 4.85235 13.7062 3.23911 13.6995 2.25263L13.6872 0.458984L11.4342 3.59333ZM14.4581 4.03716V7.64579L14.5633 7.62023C14.6211 7.60617 15.6319 7.40787 16.8096 7.17953C17.9872 6.95124 18.9613 6.75388 18.9742 6.74098C18.9951 6.72014 14.6776 0.665785 14.5214 0.496924C14.4681 0.439314 14.4581 0.999394 14.4581 4.03716ZM7.63991 8.87034C7.06341 9.67352 6.17225 10.9147 5.65953 11.6286C5.14681 12.3425 4.73771 12.937 4.75038 12.9497C4.76649 12.9658 12.0268 15.9063 13.6522 16.555C13.6986 16.5735 13.7106 15.7415 13.7106 12.4881C13.7106 8.63298 13.7059 8.39651 13.6288 8.3738C13.5839 8.36058 12.5064 8.14873 11.2344 7.9031C9.96238 7.65743 8.8691 7.446 8.80486 7.43325C8.69768 7.41194 8.60153 7.53062 7.63991 8.87034ZM16.9344 7.90427C15.5853 8.17027 14.4762 8.38875 14.4698 8.38978C14.4498 8.39291 14.4571 16.5683 14.4772 16.5683C14.4971 16.5683 23.4447 12.9665 23.462 12.9515C23.4921 12.9254 19.4885 7.41124 19.4424 7.41549C19.4121 7.41829 18.2835 7.63822 16.9344 7.90427ZM91.8408 9.2881C91.7793 9.34963 90.9179 11.4414 89.6778 14.5408C88.5444 17.3736 87.5555 19.7883 87.4803 19.907C87.3117 20.1729 87.3004 20.1686 86.7667 19.6371C86.2417 19.1142 85.7634 18.551 84.5012 16.9695L83.4231 15.6186L83.643 15.4317C84.0518 15.0843 84.5316 14.5591 84.7932 14.1727C85.3874 13.2951 85.5569 12.2176 85.2363 11.3547C84.8381 10.2824 83.9638 9.71118 82.4992 9.56648C81.9578 9.51298 77.2082 9.52008 77.1232 9.57451C77.0394 9.62825 77.0513 9.73627 77.1466 9.78589C77.1916 9.80935 77.3977 9.8379 77.6045 9.84939C78.0581 9.87453 78.3083 9.98344 78.4418 10.2138C78.5348 10.3744 78.5368 10.4559 78.551 14.7227C78.5661 19.2488 78.5454 19.9041 78.3754 20.2885C78.2766 20.5117 78.1646 20.5623 77.6568 20.6131C77.3282 20.6459 77.2362 20.7123 77.3423 20.8401C77.3877 20.8949 77.7666 20.9044 79.6435 20.8979C81.7139 20.8909 81.8943 20.884 81.941 20.8098C82.0247 20.6772 81.9277 20.6359 81.4188 20.5874C80.8877 20.5368 80.697 20.462 80.5947 20.2642C80.4766 20.0359 80.4282 19.3607 80.4166 17.7831L80.4054 16.2646L81.1697 16.2518L81.9339 16.2389L82.0807 16.3953C82.1615 16.4813 82.4993 16.9391 82.8314 17.4127C84.2358 19.4151 85.0107 20.3142 85.5982 20.6228C85.7561 20.7058 85.8974 20.8054 85.9123 20.8442C85.9359 20.9057 86.184 20.9131 87.8679 20.9025L89.7964 20.8903V20.7735C89.7964 20.6615 89.7811 20.6553 89.4238 20.6229C88.9486 20.5798 88.8215 20.4954 88.7995 20.2081C88.7751 19.8882 88.8529 19.6225 89.3661 18.2711L89.8443 17.0122L91.5826 16.9999L93.321 16.9877L93.3867 17.0934C93.5032 17.2807 94.6393 20.3512 94.6231 20.4352C94.6145 20.4799 94.5275 20.554 94.4298 20.6C94.1962 20.71 94.2133 20.8298 94.469 20.8752C94.5716 20.8934 95.4346 20.9095 96.3869 20.9109C97.7734 20.9131 98.1356 20.901 98.2049 20.8503C98.3672 20.7316 98.2611 20.6438 97.9173 20.6119C97.4083 20.5647 97.2164 20.4973 96.9773 20.2816C96.4934 19.8448 96.3503 19.5251 93.9554 13.5312C93.1392 11.4882 92.4189 9.71156 92.3549 9.58306C92.1472 9.16587 92.0301 9.09872 91.8408 9.2881ZM37.8137 9.40785C37.7817 9.49092 37.7411 11.1629 37.6991 14.1387C37.6168 19.9672 37.6027 20.2003 37.3163 20.4595C37.1817 20.5813 36.5609 20.6404 35.9884 20.5858C35.2402 20.5145 35.1326 20.4196 35.0598 19.7672C35.0307 19.5064 35.0178 17.6458 35.0259 14.8622C35.0377 10.7887 35.0461 10.3616 35.117 10.2052C35.2172 9.98438 35.4192 9.88079 35.8077 9.85112C36.1468 9.82524 36.277 9.77678 36.277 9.67651C36.277 9.63979 36.2402 9.59152 36.1953 9.56933C36.1503 9.54709 35.1509 9.53059 33.9743 9.5326C31.7376 9.53653 31.7044 9.53952 31.7779 9.73109C31.806 9.80444 31.8965 9.82654 32.2865 9.85547C32.8633 9.89822 32.9992 10.0682 33.0572 10.8195C33.1097 11.4999 33.1072 18.0806 33.054 19.1256C32.9865 20.4503 32.9538 20.511 32.2614 20.5963C31.823 20.6503 31.7247 20.7064 31.8352 20.8396C31.8804 20.8941 32.5657 20.9048 36.105 20.9066C38.4237 20.9078 40.3487 20.8915 40.3827 20.8706C40.4166 20.8495 40.4368 20.7928 40.4276 20.7445C40.414 20.674 40.3507 20.6495 40.1076 20.6206C39.9409 20.6007 39.7153 20.5732 39.6062 20.5593C39.1823 20.5056 39.0066 20.2024 38.9327 19.3974C38.8953 18.9895 38.7057 12.605 38.7298 12.5626C38.7331 12.5567 38.9973 12.8403 39.3169 13.1928C40.481 14.477 41.3914 15.4234 43.7052 17.7541C46.5171 20.5866 47.0749 21.1118 47.2501 21.0914C47.3266 21.0825 47.3933 21.0333 47.4275 20.9604C47.4666 20.8769 47.5038 19.4888 47.5577 16.1011C47.5992 13.4927 47.6515 11.135 47.6737 10.8617C47.724 10.2453 47.808 10.0479 48.0706 9.92859C48.257 9.84397 48.7519 9.80505 48.7514 9.87509C48.7513 9.89434 48.6987 10.1826 48.6346 10.5156C48.4989 11.2205 48.4848 11.5461 48.5881 11.5857C48.7143 11.6342 48.7924 11.5643 48.8687 11.3345C48.9788 11.0029 49.1921 10.7344 49.4283 10.6299C49.6873 10.5153 50.297 10.4603 51.6834 10.4264L52.7697 10.3999L52.7685 14.1966C52.7668 19.4553 52.7207 20.2765 52.4166 20.4758C52.3529 20.5176 52.1205 20.5736 51.9 20.6003C51.4927 20.6497 51.3959 20.7082 51.5048 20.8394C51.5492 20.8929 51.9622 20.9044 53.8924 20.9059C55.9586 20.9075 56.2348 20.8993 56.3001 20.8339C56.4343 20.6997 56.2896 20.6392 55.7133 20.5886C55.1176 20.5363 54.9984 20.4829 54.8607 20.2066C54.7142 19.9125 54.6868 19.0417 54.686 14.6643L54.6853 10.4007L54.9306 10.4027C55.7982 10.4098 57.2643 10.4993 57.4775 10.5582C57.8149 10.6515 58.1278 10.8439 58.2143 11.0112C58.254 11.088 58.3014 11.2689 58.3197 11.4132C58.3561 11.7012 58.4553 11.8179 58.5775 11.7164C58.6317 11.6715 58.6539 11.4627 58.6808 10.7437L58.7151 9.82818L58.9675 9.85425C59.3028 9.88883 59.5442 10.0142 59.6598 10.2138C59.7529 10.3745 59.7548 10.4553 59.7686 14.7694C59.7827 19.1812 59.763 19.8904 59.6169 20.2354C59.5152 20.4754 59.4016 20.5381 58.962 20.5969C58.5419 20.6532 58.4522 20.7098 58.566 20.8471C58.6186 20.9104 58.8232 20.9177 60.1948 20.9049C61.0576 20.8969 62.5835 20.9088 63.5857 20.9314L65.4078 20.9727L65.5352 20.8706C65.6869 20.7489 65.7365 20.5818 65.8288 19.8817C65.9198 19.1924 65.9215 18.643 65.8329 18.609C65.7133 18.5631 65.6239 18.6906 65.5509 19.0106C65.471 19.361 65.3463 19.6356 65.2142 19.7518C64.9243 20.0069 64.4053 20.1199 63.53 20.1184C62.4794 20.1166 62.0594 19.9956 61.8693 19.6398C61.7647 19.4439 61.7634 19.4201 61.7492 17.3505C61.7373 15.6008 61.7455 15.2551 61.7997 15.2342C61.8354 15.2206 62.3884 15.2277 63.0288 15.2501C64.088 15.2872 64.2109 15.3001 64.3909 15.3929C64.6589 15.531 64.7323 15.6613 64.7967 16.1133C64.8446 16.45 64.864 16.5 64.9513 16.5128C65.1047 16.535 65.1355 16.4176 65.1697 15.6805C65.187 15.3079 65.2272 14.7999 65.2592 14.5517C65.2911 14.3034 65.3095 14.0774 65.3002 14.0494C65.2701 13.9591 65.1235 13.9951 65.0071 14.1213C64.7703 14.3782 64.6856 14.3914 63.1535 14.41L61.7402 14.4272V12.3843V10.3413L62.8265 10.3734C63.9996 10.4082 64.3722 10.4526 64.6411 10.5898C64.8496 10.6962 65.0107 10.9956 65.0107 11.2769C65.0107 11.5458 65.0813 11.709 65.1976 11.709C65.3365 11.709 65.3645 11.5899 65.4259 10.735C65.4561 10.3149 65.5034 9.86612 65.5309 9.73763C65.6007 9.41233 65.5668 9.39042 65.1182 9.47093C64.5913 9.5655 58.7147 9.56026 58.6559 9.46518C58.6229 9.41182 58.5698 9.41206 58.3213 9.46667C58.0869 9.51821 57.2629 9.53513 54.3349 9.54858C50.5752 9.56582 49.619 9.53709 49.2831 9.39673C49.0494 9.29908 48.9447 9.30823 48.8886 9.43121L48.8407 9.53634L46.939 9.53087C45.8878 9.52784 45.0007 9.54424 44.9555 9.56755C44.8368 9.62881 44.8518 9.78697 44.9789 9.81341C45.0367 9.82542 45.2543 9.84318 45.4625 9.8529C46.1055 9.88285 46.2894 10.0722 46.3677 10.7848C46.391 10.9976 46.4326 12.3596 46.4601 13.8116C46.4875 15.2635 46.523 16.7932 46.5391 17.2108C46.5572 17.683 46.5513 17.97 46.5236 17.97C46.499 17.97 45.9443 17.4085 45.2909 16.7223C44.6375 16.036 43.325 14.6839 42.3742 13.7176C41.4234 12.7513 40.133 11.4153 39.5068 10.7485C38.1268 9.27954 38.1266 9.27936 37.9805 9.27936C37.8957 9.27936 37.8495 9.31501 37.8137 9.40785ZM120.648 9.38449C120.604 9.46373 120.57 10.7492 120.509 14.6059C120.46 17.7045 120.408 19.8235 120.378 19.9792C120.287 20.4452 120.126 20.5575 119.473 20.6116C119.096 20.6428 118.999 20.7045 119.112 20.8409C119.194 20.9403 123.145 20.941 123.227 20.8416C123.339 20.7065 123.244 20.646 122.867 20.6125C122.371 20.5684 122.16 20.5078 122.035 20.3729C121.918 20.2465 121.798 19.8581 121.755 19.4652C121.729 19.23 121.54 12.5834 121.559 12.567C121.563 12.5631 121.828 12.8468 122.146 13.1974C124.12 15.3715 129.728 21.0191 129.972 21.0804C130.157 21.1266 130.25 21.0554 130.288 20.8388C130.306 20.7386 130.354 18.47 130.396 15.7974C130.438 13.1247 130.492 10.7941 130.517 10.6182C130.542 10.4423 130.595 10.2356 130.635 10.1589C130.729 9.97816 131.029 9.84238 131.338 9.84107C131.615 9.83991 131.806 9.72534 131.73 9.60643C131.692 9.54629 131.422 9.53522 129.827 9.52835C128.804 9.52396 127.912 9.5305 127.843 9.54288C127.691 9.5705 127.644 9.67273 127.739 9.76861C127.789 9.81804 127.904 9.84005 128.114 9.84005C128.514 9.84005 128.803 9.91705 128.948 10.0621C129.193 10.3071 129.204 10.429 129.275 13.6013C129.312 15.2203 129.351 16.8656 129.363 17.2575C129.375 17.6494 129.368 17.97 129.348 17.97C129.327 17.97 128.883 17.5233 128.361 16.9771C127.839 16.4311 126.518 15.0694 125.424 13.9511C124.331 12.8329 123.048 11.5083 122.574 11.0075C122.1 10.5068 121.538 9.91308 121.324 9.68819C120.906 9.24773 120.76 9.18203 120.648 9.38449ZM71.7152 9.35687C70.075 9.55363 68.7813 10.1573 67.8095 11.1794C67.6143 11.3847 67.3648 11.685 67.255 11.8467C66.9347 12.3184 66.6068 13.0569 66.4507 13.658C66.3268 14.1353 66.3046 14.315 66.2843 15.0056C66.2562 15.9588 66.329 16.5135 66.5819 17.2748C67.1169 18.8855 68.3805 20.0745 70.1968 20.6764C71.7743 21.1992 73.8299 21.2822 75.5697 20.8934C76.1665 20.76 76.811 20.5176 76.957 20.3716L77.0648 20.2638L77.0669 18.3109C77.068 17.2368 77.0866 16.2664 77.1082 16.1544C77.1837 15.7637 77.3596 15.6355 77.9292 15.5561C78.1866 15.5202 78.2095 15.5075 78.2095 15.4002V15.2834L75.9821 15.2743C74.0982 15.2666 73.7462 15.2755 73.6992 15.3321C73.584 15.4709 73.6825 15.523 74.1576 15.5747C74.667 15.6301 74.8712 15.7095 74.997 15.9013C75.0714 16.015 75.0804 16.2076 75.0928 17.9614C75.108 20.1192 75.1178 20.0483 74.7862 20.1971C74.654 20.2564 74.4277 20.2802 73.8493 20.2956C72.9938 20.3185 72.5204 20.2663 71.95 20.0863C69.8161 19.4131 68.4906 17.5129 68.3875 14.9797C68.3072 13.0056 68.8931 11.5627 70.0953 10.7734C70.543 10.4795 71.0487 10.283 71.6074 10.1859C72.2146 10.0804 73.5157 10.1171 74.0621 10.255C75.5022 10.6187 76.3217 11.2723 76.5005 12.1996C76.5302 12.3538 76.5641 12.525 76.5757 12.5799C76.6074 12.7303 76.7448 12.7618 76.8425 12.6412C76.9131 12.554 76.9247 12.4365 76.9247 11.8066C76.9247 11.4034 76.9473 10.7916 76.9749 10.447C77.0318 9.73744 77.0176 9.69987 76.6922 9.69987C76.5998 9.69987 76.2096 9.64824 75.8251 9.58517C74.6705 9.39575 73.8283 9.32552 72.8028 9.33309C72.2817 9.33692 71.7923 9.34767 71.7152 9.35687ZM101.757 9.35687C100.176 9.54648 99.0189 10.0521 98.0622 10.9706C97.5773 11.4361 97.28 11.8247 97.0003 12.3588C96.5568 13.2052 96.3472 14.0949 96.3496 15.1199C96.3536 16.8007 96.8853 18.1684 97.9488 19.2332C98.9148 20.2003 100.219 20.8091 101.802 21.0312C103.566 21.2789 105.97 21.0535 106.369 20.603C106.467 20.4931 106.56 20.1373 106.686 19.4008C106.836 18.5146 106.853 18.2366 106.759 18.1429C106.634 18.0183 106.516 18.1156 106.457 18.3907C106.339 18.9428 105.887 19.561 105.398 19.8407C104.989 20.0752 104.52 20.1713 103.647 20.1998C103.027 20.2202 102.797 20.2094 102.48 20.1452C101.559 19.9587 100.782 19.5354 100.073 18.8344C99.0375 17.8115 98.5807 16.7146 98.5239 15.1148C98.4795 13.865 98.6304 13.0106 99.0479 12.1478C99.5601 11.0893 100.446 10.4015 101.57 10.1907C102.738 9.97153 104.162 10.1256 105.08 10.5707C105.773 10.9063 106.182 11.4685 106.276 12.2148C106.329 12.6341 106.362 12.7136 106.48 12.7136C106.637 12.7136 106.671 12.5274 106.711 11.4169C106.774 9.67053 106.781 9.78001 106.616 9.73903C106.259 9.65007 105.107 9.46065 104.537 9.3972C103.969 9.33393 102.166 9.30781 101.757 9.35687ZM112.41 9.35767C112.048 9.40294 111.307 9.58031 110.943 9.70866C109.681 10.1541 108.692 10.9635 108.018 12.1034C107.377 13.1869 107.072 14.543 107.195 15.7623C107.477 18.5699 109.277 20.5648 111.945 21.0268C115.205 21.5912 118.115 20.0397 119.109 17.2084C119.54 15.9805 119.601 14.5468 119.278 13.2706C119.137 12.7161 118.752 11.906 118.423 11.4724C117.585 10.3696 116.252 9.63484 114.661 9.3985C114.214 9.3322 112.815 9.30678 112.41 9.35767ZM134.205 9.39626C133.445 9.55003 132.905 9.82603 132.429 10.3048C131.776 10.9621 131.532 11.7436 131.685 12.6902C131.865 13.805 132.495 14.636 134.183 15.9842C135.223 16.8146 135.542 17.1477 135.803 17.6755C135.974 18.0205 135.995 18.1014 136.015 18.4931C136.033 18.8589 136.021 18.9698 135.937 19.192C135.653 19.9436 134.986 20.353 134.047 20.353C133.073 20.353 132.407 19.9727 132.052 19.2146C131.906 18.9022 131.778 18.3862 131.776 18.1042C131.775 17.8171 131.546 17.737 131.45 17.9899C131.426 18.0536 131.383 18.5901 131.355 19.1823C131.291 20.5437 131.301 20.594 131.673 20.7587C132.352 21.0593 133.435 21.2019 134.337 21.1096C135.039 21.0377 135.342 20.9566 135.887 20.6943C136.262 20.5141 136.395 20.417 136.74 20.0726C137.08 19.7334 137.179 19.5983 137.33 19.2728C137.581 18.7311 137.639 18.4564 137.636 17.8299C137.63 16.3383 136.991 15.4242 134.764 13.7181C134.02 13.1482 133.571 12.6981 133.364 12.3153C133.209 12.0289 133.201 11.9889 133.202 11.5688C133.204 11.1822 133.22 11.0948 133.327 10.8913C133.562 10.4433 133.991 10.1616 134.579 10.0705C135.011 10.0035 135.56 10.0736 135.914 10.2408C136.433 10.4863 136.834 11.0316 136.934 11.6278C136.995 11.9911 137.091 12.1133 137.217 11.9878C137.272 11.9322 137.296 11.6915 137.329 10.8205C137.358 10.0828 137.356 9.70394 137.324 9.66436C137.113 9.40378 135.046 9.22614 134.205 9.39626ZM112.285 10.1183C110.766 10.3965 109.806 11.4017 109.44 13.0966C109.299 13.7497 109.262 15.1772 109.368 15.8942C109.593 17.4317 110.295 18.7521 111.28 19.4925C111.88 19.9439 112.563 20.2129 113.347 20.3068C114.096 20.3965 114.633 20.318 115.26 20.0272C115.919 19.721 116.36 19.2861 116.727 18.5774C117.164 17.7336 117.313 16.9596 117.311 15.5404C117.31 14.6368 117.295 14.4222 117.207 14.0131C116.835 12.2884 115.986 11.0869 114.706 10.474C114.471 10.3614 114.142 10.2344 113.975 10.1918C113.626 10.103 112.61 10.0588 112.285 10.1183ZM80.6624 10.294C80.5724 10.3042 80.4726 10.3469 80.4404 10.3889C80.3955 10.4477 80.382 11.0114 80.382 12.836C80.382 14.8814 80.3917 15.2163 80.4522 15.2768C80.5697 15.3944 81.0284 15.4668 81.6669 15.4686C82.2077 15.4701 82.2981 15.4586 82.4916 15.3632C82.9454 15.1396 83.3584 14.5342 83.4985 13.8871C83.5952 13.4408 83.5926 12.5303 83.4934 12.1114C83.2199 10.9558 82.3038 10.2398 81.1349 10.268C80.9649 10.2722 80.7523 10.2838 80.6624 10.294ZM90.9004 14.2048C90.5116 15.247 90.1935 16.121 90.1935 16.1471C90.1935 16.1782 90.6855 16.1945 91.6185 16.1945C92.4023 16.1945 93.0435 16.1805 93.0435 16.1634C93.0435 16.1053 91.6781 12.3867 91.6426 12.3482C91.6232 12.3271 91.2892 13.1626 90.9004 14.2048ZM2.41566 16.1342C0.962578 18.1599 0.5939 18.7025 0.640247 18.747C0.672391 18.778 3.62112 20.7374 7.19297 23.1014L13.6872 27.3994L13.6992 22.3968C13.7057 19.6454 13.7039 17.3871 13.6952 17.3783C13.6729 17.3561 4.40548 13.6165 4.3196 13.5951C4.27209 13.5832 3.65906 14.4008 2.41566 16.1342ZM19.1653 15.4823L14.4581 17.3831V22.398C14.4581 26.7293 14.4673 27.4078 14.5249 27.3756C14.7997 27.2216 27.5852 18.7327 27.5859 18.7037C27.5872 18.653 23.9375 13.5775 23.9013 13.5797C23.8855 13.5806 21.7543 14.4368 19.1653 15.4823ZM48.2844 25.3551V27.9743L48.483 27.9599L48.6816 27.9456L48.6936 25.3407L48.7057 22.7359H48.4951H48.2844V25.3551ZM82.1107 23.7654V24.795L81.9692 24.6338C81.8195 24.4633 81.496 24.3243 81.2497 24.3248C80.6227 24.3259 80.1796 24.8475 80.0541 25.7322C80.0021 26.0994 80.0551 26.7203 80.1722 27.1147C80.4247 27.9651 81.326 28.2667 81.9291 27.7025L82.152 27.494L82.1664 27.7198L82.1808 27.9456H82.3677H82.5546L82.5529 27.6769C82.552 27.5292 82.5467 26.357 82.5412 25.0721L82.5312 22.7359H82.321H82.1107V23.7654ZM92.7165 23.7583V24.7808L92.5402 24.6045C91.9997 24.0639 91.1018 24.3382 90.807 25.134C90.6015 25.6888 90.5896 26.4844 90.7775 27.1142C90.9342 27.6398 91.3406 27.9775 91.8197 27.9804C92.1485 27.9824 92.3704 27.8919 92.5893 27.6665L92.7577 27.493L92.7721 27.7193L92.7866 27.9456H92.9734H93.1603L93.1589 27.6302C93.1581 27.4568 93.1528 26.2846 93.1472 25.0254L93.137 22.7359H92.9267H92.7165V23.7583ZM56.6943 23.2966V23.6236H56.9513H57.2082V23.2966V22.9695H56.9513H56.6943V23.2966ZM34.1279 23.0622C33.027 23.2704 32.4317 24.1234 32.4317 25.4926C32.4317 26.3286 32.6323 26.9202 33.0795 27.4033C33.578 27.9418 34.3746 28.1245 35.1791 27.885C35.3122 27.8453 35.3186 27.8319 35.3071 27.6175C35.3004 27.4933 35.2849 27.3816 35.2725 27.3694C35.2602 27.357 35.1611 27.387 35.0522 27.436C34.7504 27.5719 34.1757 27.5601 33.8745 27.4119C33.1655 27.0629 32.8095 26.164 32.9474 25.0711C33.0357 24.3718 33.327 23.892 33.8212 23.6321C34.0263 23.5243 34.1137 23.5076 34.4783 23.5072C34.8161 23.5069 34.9384 23.5266 35.1005 23.6077C35.3328 23.7238 35.3568 23.7011 35.3339 23.3881C35.3204 23.2045 35.3054 23.1839 35.1456 23.1288C34.9108 23.0479 34.3852 23.0134 34.1279 23.0622ZM62.5345 25.516V27.9741L62.7564 27.9599L62.9783 27.9456V25.516V23.0863L62.7564 23.0721L62.5345 23.0578V25.516ZM88.2312 25.5134V27.969H89.2357H90.2402V27.7353V27.5017H89.4698H88.6994L88.6872 25.294L88.6751 23.0863L88.4532 23.0721L88.2312 23.0578V25.5134ZM49.9781 23.6292L49.8262 23.673V24.0221V24.3712H49.5693H49.3123V24.5815V24.7917H49.5693H49.8262L49.8273 26.1117C49.8282 27.287 49.8376 27.4521 49.9133 27.6185C49.9601 27.7213 50.0279 27.8297 50.0642 27.8593C50.184 27.9574 50.4979 28.013 50.7373 27.9785L50.9709 27.9449L50.9853 27.7193C51.0009 27.4756 51.0202 27.4864 50.7222 27.5723C50.539 27.6252 50.3477 27.5128 50.2944 27.3211C50.2685 27.2276 50.2472 26.6214 50.247 25.9715L50.2467 24.7917H50.6205H50.9943V24.5815V24.3712H50.6205H50.2467V23.9741C50.2467 23.5458 50.2504 23.5506 49.9781 23.6292ZM67.4986 23.6352L67.3468 23.6839V24.0276V24.3712H67.0898H66.8328V24.5815V24.7917H67.0898H67.3468L67.347 26.065C67.3472 26.8301 67.3674 27.4105 67.3976 27.5194C67.4964 27.8751 67.8329 28.0536 68.2679 27.9812L68.4914 27.9439L68.5058 27.7188C68.5198 27.5015 68.5165 27.495 68.4124 27.532C68.2362 27.5944 68.0095 27.5708 67.9085 27.4793C67.8179 27.3974 67.814 27.3394 67.814 26.0928V24.7917H68.1644H68.5148V24.5815V24.3712H68.1644H67.814V23.9741C67.814 23.5356 67.8129 23.5343 67.4986 23.6352ZM36.9227 24.3983C36.2838 24.5949 35.9008 25.5299 36.0408 26.5515C36.1103 27.0597 36.2206 27.3401 36.4519 27.5977C36.6977 27.8714 36.9525 27.9799 37.3527 27.9815C38.111 27.9845 38.5408 27.5123 38.6719 26.5324C38.7755 25.7585 38.555 24.9356 38.1555 24.6052C37.8396 24.3439 37.3606 24.2635 36.9227 24.3983ZM40.3652 24.3947C40.2624 24.4311 40.0995 24.545 40.0031 24.6478L39.8279 24.8349L39.8272 24.7081C39.8258 24.421 39.784 24.3653 39.5815 24.3805L39.3941 24.3946L39.4035 26.1467C39.4087 27.1104 39.4299 27.9161 39.4507 27.9371C39.4715 27.9581 39.5701 27.9686 39.6698 27.9605L39.8512 27.9456L39.8746 26.6373C39.8972 25.3682 39.9013 25.3233 40.0086 25.136C40.2779 24.666 40.9367 24.6104 41.1703 25.0378C41.243 25.1708 41.2545 25.3553 41.2671 26.5789L41.2814 27.969H41.489H41.6967V26.5991C41.6967 25.012 41.6723 24.8604 41.3727 24.5898C41.0885 24.333 40.7337 24.2644 40.3652 24.3947ZM43.1915 24.3681C42.7078 24.5153 42.4443 24.8628 42.4443 25.3533C42.4443 25.7706 42.6399 26.0007 43.2763 26.3318C43.4798 26.4377 43.6921 26.573 43.7479 26.6325C43.974 26.8732 43.8917 27.3323 43.5943 27.4892C43.3981 27.5928 43.0383 27.5813 42.7274 27.4616C42.5876 27.4078 42.4642 27.3728 42.4532 27.3837C42.4423 27.3947 42.4227 27.498 42.4097 27.6133L42.386 27.8229L42.6604 27.9032C43.05 28.0172 43.5386 28.0096 43.7803 27.8857C44.1478 27.6972 44.359 27.3497 44.3596 26.9324C44.3602 26.5327 44.1606 26.2979 43.5085 25.9312C43.0101 25.6508 42.9115 25.5493 42.9115 25.3164C42.9115 24.8519 43.3405 24.6274 43.8687 24.8154C43.9711 24.8519 44.0691 24.8668 44.0865 24.8484C44.1039 24.8301 44.1252 24.731 44.1338 24.6282C44.1495 24.4422 44.1486 24.441 43.9393 24.3866C43.6992 24.3242 43.3632 24.3159 43.1915 24.3681ZM52.301 24.3963C51.6739 24.5896 51.312 25.3714 51.3839 26.3776C51.4199 26.8811 51.5134 27.1975 51.7115 27.4857C52.1354 28.1024 53.1151 28.1657 53.6167 27.6088C54.1512 27.0153 54.2022 25.5762 53.7152 24.8306C53.4361 24.4031 52.8563 24.2251 52.301 24.3963ZM55.7365 24.3947C55.6337 24.4311 55.47 24.5458 55.3727 24.6496C55.2755 24.7535 55.1861 24.8385 55.1742 24.8385C55.1622 24.8385 55.1525 24.7333 55.1525 24.6048V24.3712H54.9351H54.7177L54.748 24.8969C54.7646 25.186 54.7784 25.9967 54.7785 26.6984L54.7787 27.9743L54.9773 27.9599L55.1758 27.9456L55.1992 26.6373C55.2196 25.4945 55.2332 25.3096 55.3066 25.1751C55.4144 24.9776 55.6208 24.8535 55.9067 24.8142L56.1336 24.7829V24.5537C56.1336 24.3465 56.1235 24.3247 56.0285 24.3265C55.9707 24.3277 55.8393 24.3584 55.7365 24.3947ZM58.7734 24.39C58.4931 24.4789 58.1893 24.646 58.1899 24.7109C58.1902 24.7425 58.203 24.8443 58.2183 24.9371L58.2462 25.1059L58.5037 24.9508C59.0164 24.6421 59.5581 24.6921 59.7515 25.0662C59.7881 25.1369 59.8323 25.3216 59.8499 25.4765L59.8818 25.7582L59.421 25.7869C58.6255 25.8365 58.2382 26.0184 58.0274 26.4415C57.8979 26.7014 57.8759 26.9816 57.9607 27.2915C58.0364 27.5683 58.3945 27.8985 58.6863 27.9605C59.0858 28.0455 59.5168 27.916 59.7476 27.6416C59.8671 27.4996 59.8689 27.4992 59.8919 27.6049C59.9048 27.6638 59.9211 27.7645 59.9283 27.8288C59.9397 27.9307 59.9642 27.9456 60.1195 27.9456H60.2976L60.2933 26.6653C60.2893 25.4479 60.2598 25.0928 60.1445 24.8676C59.9184 24.4261 59.3186 24.2171 58.7734 24.39ZM64.9997 24.371C64.8088 24.4285 64.5753 24.5856 64.5012 24.7066C64.4376 24.8104 64.4345 24.8108 64.3994 24.7209C64.3794 24.6699 64.3617 24.5704 64.3599 24.4997C64.3568 24.38 64.3429 24.3712 64.1562 24.3712H63.9557L63.9722 26.1117C63.9812 27.0689 63.9972 27.8785 64.0076 27.9106C64.0186 27.9443 64.1049 27.969 64.2116 27.969H64.3966L64.4116 26.6957C64.4261 25.4715 64.4309 25.414 64.5358 25.2009C64.5959 25.079 64.7081 24.9343 64.7854 24.8793C65.0945 24.6592 65.5826 24.7377 65.7429 25.0333C65.8177 25.1712 65.8291 25.3472 65.8437 26.5814L65.86 27.9739L66.0544 27.9598L66.2488 27.9456L66.2612 26.6168C66.2716 25.5093 66.2612 25.2451 66.1987 25.0303C66.0443 24.4989 65.5244 24.213 64.9997 24.371ZM69.7896 24.4016C69.4821 24.5105 69.1614 24.8933 69.0259 25.3133C68.8703 25.7955 68.8683 26.537 69.0214 27.0291C69.1588 27.4708 69.4805 27.8197 69.8464 27.9237C70.1499 28.0101 70.5923 28.0003 70.8925 27.9006L71.1312 27.8213V27.5641C71.1312 27.4228 71.1154 27.3151 71.0962 27.325C70.7328 27.5113 70.5649 27.5636 70.331 27.5638C69.8552 27.5642 69.506 27.2555 69.4268 26.7647C69.4134 26.6818 69.3926 26.5513 69.3805 26.4747L69.3585 26.3355L70.3266 26.3229L71.2947 26.3103L71.3092 26.083C71.3291 25.7706 71.2416 25.2456 71.1242 24.9727C70.8942 24.438 70.3475 24.204 69.7896 24.4016ZM72.7554 24.371C72.2449 24.5248 71.971 24.9784 71.8691 25.8392C71.7084 27.1959 72.3541 28.1632 73.2869 27.9632C73.473 27.9233 73.5745 27.8642 73.7382 27.7005L73.9494 27.4893L73.9194 27.9464C73.8849 28.4713 73.7778 28.7489 73.5461 28.9139C73.2715 29.1094 72.6698 29.0734 72.0747 28.8258C72.028 28.8064 72.017 28.8591 72.028 29.0505L72.0423 29.3005L72.3226 29.3786C72.6411 29.4673 73.2214 29.4865 73.4728 29.4167C73.7119 29.3502 73.9333 29.1894 74.0837 28.9728C74.3265 28.6231 74.3496 28.4036 74.3646 26.2986L74.3783 24.3712L74.1798 24.3712H73.9812V24.6036V24.836L73.7826 24.6377C73.505 24.3604 73.1214 24.2608 72.7554 24.371ZM76.2005 24.3947C76.0977 24.4311 75.934 24.5458 75.8367 24.6496C75.7394 24.7535 75.65 24.8385 75.6381 24.8385C75.6262 24.8385 75.6165 24.7333 75.6165 24.6048V24.3712H75.3991H75.1818L75.2122 24.8691C75.229 25.1429 75.2427 25.9524 75.2427 26.668V27.969H75.4497H75.6567L75.6716 26.649C75.6848 25.4844 75.6964 25.3109 75.7706 25.1751C75.8784 24.9776 76.0847 24.8535 76.3706 24.8142L76.5976 24.7829V24.5537C76.5976 24.3465 76.5875 24.3247 76.4925 24.3265C76.4347 24.3277 76.3033 24.3584 76.2005 24.3947ZM77.7422 24.4227C77.588 24.4745 77.4117 24.5547 77.3504 24.6009C77.2515 24.6755 77.2426 24.7085 77.2709 24.8971L77.3027 25.1094L77.5631 24.9526C78.0917 24.6343 78.6534 24.6958 78.8172 25.0899C78.8506 25.17 78.8924 25.3532 78.9102 25.4969L78.9426 25.7583L78.4826 25.7871C77.4641 25.851 77.0331 26.159 76.9802 26.8609C76.9269 27.569 77.5079 28.0972 78.1972 27.9671C78.484 27.9129 78.6603 27.8195 78.809 27.6427L78.9291 27.5L78.9584 27.6761C79.0051 27.9568 79.0148 27.969 79.1928 27.969H79.3614L79.3453 26.5556C79.3314 25.3225 79.3187 25.1183 79.2459 24.9553C78.9996 24.4032 78.4159 24.1964 77.7422 24.4227ZM84.0964 24.39C83.8161 24.4789 83.5123 24.646 83.5129 24.7109C83.5132 24.7425 83.526 24.8443 83.5413 24.9371L83.5692 25.1059L83.8267 24.9508C84.3394 24.6421 84.8811 24.6921 85.0745 25.0662C85.1111 25.1369 85.1553 25.3216 85.1729 25.4765L85.2048 25.7582L84.744 25.7869C83.9485 25.8365 83.5612 26.0184 83.3504 26.4415C83.2209 26.7014 83.1989 26.9816 83.2837 27.2915C83.3594 27.5683 83.7175 27.8985 84.0093 27.9605C84.4088 28.0455 84.8398 27.916 85.0706 27.6416C85.1901 27.4996 85.1919 27.4992 85.2149 27.6049C85.2277 27.6638 85.2441 27.7645 85.2513 27.8288C85.2627 27.9307 85.2872 27.9456 85.4425 27.9456H85.6206L85.6163 26.6653C85.6123 25.4479 85.5828 25.0928 85.4675 24.8676C85.2414 24.4261 84.6416 24.2171 84.0964 24.39ZM94.7021 24.39C94.4218 24.4789 94.1181 24.646 94.1186 24.7109C94.1189 24.7425 94.1317 24.8443 94.147 24.9371L94.175 25.1059L94.4324 24.9508C94.9452 24.6421 95.4868 24.6921 95.6803 25.0662C95.7168 25.1369 95.7611 25.3216 95.7787 25.4765L95.8105 25.7582L95.3497 25.7869C94.5542 25.8365 94.1669 26.0184 93.9561 26.4415C93.8267 26.7014 93.8047 26.9816 93.8894 27.2915C93.9652 27.5683 94.3233 27.8985 94.615 27.9605C94.9967 28.0417 95.4191 27.9237 95.6564 27.6697C95.7187 27.603 95.7858 27.5485 95.8056 27.5485C95.8253 27.5485 95.8479 27.6378 95.8558 27.747C95.87 27.9434 95.8721 27.9456 96.0482 27.9456H96.2263L96.2221 26.6537C96.2177 25.3013 96.1746 24.9327 95.9966 24.7248C95.6921 24.3692 95.183 24.2375 94.7021 24.39ZM45.0451 24.4024C44.9936 24.4539 45.0101 26.8555 45.0639 27.1544C45.1629 27.7033 45.4833 27.9806 46.0184 27.9806C46.3484 27.9806 46.6178 27.865 46.8043 27.6434L46.9244 27.5007L46.9386 27.7232L46.9529 27.9456L47.152 27.96L47.3511 27.9744L47.3389 26.1845L47.3266 24.3946L47.1047 24.3803L46.8828 24.3661V25.6218V26.8775L46.7543 27.1305C46.6713 27.2939 46.5692 27.4158 46.4659 27.4749C46.2622 27.5915 45.9108 27.5958 45.7397 27.4837C45.4989 27.3259 45.4812 27.2052 45.4812 25.7277V24.3712H45.2787C45.1673 24.3712 45.0622 24.3852 45.0451 24.4024ZM56.7156 24.4298C56.7032 24.462 56.6986 25.2663 56.7054 26.217L56.7177 27.9456H56.9279H57.1381L57.1504 26.1584L57.1626 24.3712H56.9503C56.8233 24.3712 56.7291 24.3947 56.7156 24.4298ZM37.0456 24.8107C36.8442 24.8985 36.665 25.1301 36.5819 25.4098C36.4864 25.7315 36.4864 26.6087 36.5819 26.9305C36.7193 27.3931 37.1132 27.6492 37.5398 27.5534C37.9173 27.4685 38.1216 27.1549 38.2013 26.5381C38.3051 25.7337 38.0933 25.0097 37.7023 24.8321C37.4821 24.732 37.244 24.7243 37.0456 24.8107ZM52.3286 24.8509C51.9538 25.0633 51.7583 25.7957 51.8706 26.5665C51.9571 27.1602 52.166 27.4705 52.5348 27.5534C52.9178 27.6394 53.245 27.4709 53.4264 27.0939C53.5727 26.7901 53.6145 25.8305 53.4988 25.4325C53.3253 24.8358 52.8085 24.579 52.3286 24.8509ZM69.9632 24.7779C69.7391 24.8594 69.4813 25.2368 69.4257 25.5649C69.4084 25.6665 69.3842 25.7864 69.3719 25.8313C69.3512 25.9068 69.4082 25.9131 70.1068 25.9131H70.8642L70.8339 25.6237C70.7679 24.9919 70.3883 24.6232 69.9632 24.7779ZM72.7664 24.846C72.3643 25.115 72.2029 26.0201 72.3993 26.9052C72.5086 27.398 72.8516 27.65 73.2816 27.5534C73.7141 27.4562 73.8919 27.1186 73.9241 26.3341C73.9666 25.2978 73.7293 24.8112 73.1554 24.7577C72.9742 24.7408 72.8979 24.7581 72.7664 24.846ZM80.9427 24.846C80.8495 24.9084 80.7289 25.0559 80.6624 25.1889C80.5524 25.4089 80.5456 25.4661 80.5456 26.1701C80.5456 26.8913 80.55 26.9261 80.6712 27.1557C80.8604 27.5144 81.1001 27.6336 81.4669 27.5515C81.7322 27.4921 81.9433 27.2595 82.0429 26.9167C82.1017 26.7148 82.1159 26.508 82.1035 26.0376C82.0892 25.493 82.074 25.396 81.9706 25.1913C81.8192 24.8918 81.6624 24.7814 81.3534 24.7565C81.151 24.7403 81.0766 24.7565 80.9427 24.846ZM91.5512 24.846C91.4628 24.9061 91.3367 25.0598 91.2709 25.1876C91.1577 25.4074 91.1513 25.4587 91.1513 26.1454C91.1513 26.8369 91.1572 26.8837 91.2781 27.1415C91.3856 27.3709 91.4366 27.4261 91.6141 27.5046C92.062 27.7027 92.4903 27.4616 92.6468 26.9232C92.7077 26.7139 92.7218 26.5133 92.7093 26.0376C92.695 25.493 92.6798 25.396 92.5763 25.1913C92.425 24.8918 92.2682 24.7814 91.9592 24.7565C91.7564 24.7402 91.6831 24.7563 91.5512 24.846ZM58.8668 26.2554C58.6047 26.358 58.5086 26.4344 58.4424 26.5928C58.2374 27.0835 58.5309 27.5703 59.0273 27.5628C59.5707 27.5546 59.8713 27.1493 59.8713 26.4248V26.1935L59.4392 26.197C59.2015 26.199 58.9439 26.2252 58.8668 26.2554ZM77.8937 26.2602C77.665 26.3419 77.5781 26.4172 77.5014 26.6008C77.2256 27.2607 77.8283 27.7998 78.4757 27.4722C78.7609 27.3279 78.9337 26.9224 78.9337 26.3974V26.1935L78.5015 26.1955C78.2638 26.1966 77.9903 26.2257 77.8937 26.2602ZM84.1898 26.2554C83.9277 26.358 83.8316 26.4344 83.7654 26.5928C83.5523 27.103 83.9203 27.6481 84.4234 27.5674C84.9458 27.4836 85.1943 27.1153 85.1943 26.4248V26.1935L84.7622 26.197C84.5245 26.199 84.2669 26.2252 84.1898 26.2554ZM94.8246 26.2473C94.5917 26.3143 94.4623 26.4134 94.3791 26.5887C94.1548 27.0616 94.4561 27.5704 94.956 27.5628C95.4995 27.5546 95.8001 27.1493 95.8001 26.4248V26.1935L95.3913 26.1977C95.1665 26.2 94.9114 26.2223 94.8246 26.2473Z" fill="white" fill-opacity="0.9"/>
</svg>
