<svg width="105" height="38" viewBox="0 0 105 38" fill="none" xmlns="http://www.w3.org/2000/svg">
<path fill-rule="evenodd" clip-rule="evenodd" d="M18.6205 0.533596C18.4332 0.634338 18.3011 0.834763 18.2844 1.04337C18.2558 1.40157 18.4915 1.67097 18.8964 1.74266C19.4942 1.84848 20.0338 1.56085 19.9602 1.1756C19.9289 1.01182 19.6184 0.717782 19.3218 0.571082C19.0466 0.435004 18.8257 0.423194 18.6205 0.533596ZM18.4231 2.23732C17.68 2.51939 17.1589 3.08428 16.9683 3.81444C16.7938 4.48273 16.8086 5.51974 16.9989 5.96286C17.0141 5.99816 17.0532 6.09203 17.0858 6.17147C17.2731 6.62694 17.6798 7.28204 18.1918 7.95267C18.3266 8.12918 18.4374 8.30249 18.4381 8.33779C18.44 8.44444 18.3151 8.61232 18.0187 8.90139C17.5334 9.37451 16.8777 9.76618 16.2664 9.94806C15.9932 10.0293 15.9315 10.0354 15.4004 10.0342C14.8442 10.0328 14.5935 10.004 14.2949 9.90717C13.9402 9.79215 13.8233 9.68852 13.5371 9.23548C13.41 9.03432 13.268 8.84031 13.2214 8.80437C13.0979 8.70899 12.9492 8.72266 12.711 8.85129C12.5093 8.96018 12.3286 8.9978 12.3286 8.93088C12.3286 8.87282 12.4815 8.662 12.6111 8.54152C12.7316 8.42945 12.9632 8.28965 13.0284 8.28965C13.0454 8.28965 13.1899 8.3763 13.3495 8.48221C13.6912 8.70899 13.8392 8.73463 13.9842 8.59223C14.1049 8.47364 14.0829 8.23647 13.9307 8.01518C13.5672 7.48705 13.2726 7.22966 13.0338 7.23168C12.806 7.23361 12.4045 7.31737 12.2152 7.40252C11.767 7.604 11.3765 8.27251 11.3687 8.85129C11.3658 9.06767 11.3804 9.14334 11.4613 9.3327C11.5141 9.45625 11.6075 9.63608 11.669 9.73229L11.7807 9.90727L11.699 9.973C11.6541 10.0092 11.5342 10.1005 11.4326 10.1759C11.2053 10.3446 11.0541 10.5671 11.0541 10.733C11.0541 10.8962 11.0024 11.0175 10.9324 11.0183C10.7079 11.021 10.4146 11.2816 10.1514 11.7118C10.1164 11.7691 10.1118 11.7692 10.0508 11.7157C10.0157 11.6848 9.97809 11.6595 9.96727 11.6595C9.95645 11.6595 9.85469 11.6179 9.7411 11.567C9.25847 11.351 8.95577 11.3334 8.55421 11.4982C8.081 11.6924 7.73829 11.9497 7.60255 12.2128C7.44994 12.5086 7.37475 13.0923 7.46879 13.2508C7.62153 13.5081 8.20537 13.95 8.50343 14.0339C8.71362 14.0931 8.88142 14.0059 8.91714 13.8189C8.94374 13.6797 8.90499 13.5962 8.67898 13.3062C8.52399 13.1073 8.50212 13.0621 8.52069 12.9791C8.57353 12.7429 8.95936 12.3656 9.14808 12.3656C9.20831 12.3656 9.17566 12.492 9.05681 12.719C8.90584 13.0072 8.90358 13.0754 9.04047 13.206C9.10468 13.2672 9.23478 13.3582 9.32958 13.4081C9.69352 13.5999 9.93779 13.7747 10.0327 13.9111C10.2463 14.2184 10.3709 14.7939 10.3721 15.4786C10.373 16.0588 10.2707 16.4333 9.94501 17.0408C9.64427 17.6019 9.12619 18.2194 8.84708 18.3495L8.73404 18.4021L8.4154 18.1818C7.47595 17.5324 6.8249 17.1951 6.136 17.001C5.84183 16.9182 5.1758 16.9031 4.71448 16.9688C4.34047 17.0221 4.26825 17.0392 3.93516 17.1533C3.34538 17.3554 2.84272 17.8345 2.57848 18.4467C2.18728 19.353 2.82582 20.5799 3.97209 21.1245C4.25303 21.2579 4.46684 21.3183 4.79618 21.3572C5.08205 21.3909 5.54007 21.3733 5.7048 21.3224C6.59735 21.0461 7.14698 20.7585 7.84087 20.2047C8.53408 19.6514 8.61915 19.5866 8.65258 19.5866C8.69388 19.5866 8.94371 19.8385 9.08243 20.0199C9.6844 20.8074 9.99678 21.4857 10.1761 22.3948C10.2442 22.7398 10.2363 23.6371 10.1635 23.8326C10.0672 24.0911 9.98635 24.2233 9.85106 24.3434C9.69708 24.48 9.57967 24.5111 9.38481 24.467C8.91688 24.3611 8.65071 24.5201 8.62006 24.9239C8.61451 24.9968 8.5966 25.0608 8.58023 25.0662C8.52765 25.0834 8.40013 24.9217 8.27948 24.685C8.21491 24.5583 8.13763 24.4398 8.10776 24.4216C7.94486 24.3224 7.5403 24.875 7.60124 25.1135C7.61255 25.1578 7.68823 25.2893 7.76941 25.4057C7.93329 25.6408 7.9478 25.7084 7.85162 25.7893C7.75539 25.8702 7.77094 25.9371 7.91662 26.0692C8.09459 26.2306 8.27386 26.2871 8.4336 26.2321C8.5651 26.1869 8.93034 26.0275 9.06073 25.9585C9.21455 25.877 9.71055 25.6844 9.76652 25.6844C9.84008 25.6844 10.0738 25.9271 10.0738 26.0035C10.0738 26.0363 10.0167 26.1728 9.94697 26.3067C9.78783 26.6123 9.78071 26.6405 9.81603 26.8261C9.86832 27.1011 10.0333 27.2488 10.3895 27.34C10.6078 27.3958 10.7652 27.3963 11.1031 27.3424L11.3646 27.3006V27.8164C11.3646 28.3275 11.3655 28.3337 11.461 28.5031C11.5901 28.7319 11.7577 28.8297 12.021 28.8295C12.1817 28.8295 12.2444 28.8116 12.3939 28.7231C12.6824 28.5524 12.7593 28.5351 12.888 28.612C13.0291 28.6963 13.0779 28.7612 13.0792 28.8668C13.0797 28.9137 12.9612 29.2435 12.8157 29.5996C12.5187 30.3265 12.5143 30.3641 12.6976 30.5995C12.7552 30.6736 12.8441 30.7477 12.8949 30.7643C12.9734 30.7898 13.0009 30.7818 13.0765 30.7106L13.1656 30.6268L13.3598 30.7435C13.7635 30.9861 13.8106 30.9941 14.0767 30.8663C14.3107 30.7538 14.4609 30.5969 14.4471 30.4793C14.436 30.385 14.4088 30.3657 14.1262 30.2524C13.9772 30.1927 13.7664 30.0341 13.7664 29.9817C13.7664 29.9658 13.8101 29.9529 13.8635 29.9529C13.917 29.9529 14.0425 29.9174 14.1424 29.874C14.3926 29.7653 14.4314 29.6725 14.3825 29.3001C14.3363 28.9488 14.3604 28.8313 14.5115 28.6722C14.9417 28.219 16.1626 28.1572 17.3284 28.5296C17.6114 28.62 17.6097 28.6192 17.9983 28.8009C18.61 29.0869 19.322 29.585 19.3217 29.7267C19.3215 29.7999 19.235 29.9278 18.8965 30.3552C18.3361 31.063 18.0045 31.6362 17.8032 32.2456C17.6503 32.7083 17.6098 32.9603 17.6333 33.3034C17.6787 33.9677 17.9144 34.4912 18.3918 34.9883C19.1022 35.7278 20.0065 35.967 20.7923 35.623C20.9658 35.5471 21.2342 35.3646 21.406 35.2057C21.9631 34.6906 22.1711 34.1095 22.1778 33.0499C22.1813 32.4949 22.1699 32.4146 22.0281 31.9909C21.8502 31.459 21.4463 30.7754 20.8378 29.9762C20.705 29.8017 20.5963 29.6289 20.5963 29.5921C20.5963 29.3513 21.3013 28.6919 21.9361 28.3389C22.5993 27.9702 23.093 27.8465 23.7822 27.8762C24.6261 27.9125 25.0629 28.0625 25.3151 28.4027C25.3779 28.4875 25.4951 28.6651 25.5754 28.7975C25.7847 29.1423 25.8496 29.1947 26.0444 29.1763C26.1376 29.1675 26.2547 29.1274 26.3319 29.0779C26.4035 29.032 26.5172 28.9846 26.5846 28.9726C26.6903 28.9539 26.7071 28.9591 26.7069 29.0106C26.7063 29.1965 26.2095 29.6641 26.0127 29.6641C25.9866 29.6641 25.8668 29.5908 25.7464 29.5012C25.6259 29.4117 25.4775 29.318 25.4166 29.293C25.3171 29.2522 25.291 29.2537 25.1615 29.3082C24.8892 29.4229 24.9049 29.6365 25.2175 30.0652C25.3705 30.2751 25.6854 30.588 25.8051 30.6492C25.9808 30.739 26.5319 30.6653 26.858 30.5085C27.2724 30.3092 27.6566 29.6345 27.6638 29.0932C27.6672 28.8375 27.6024 28.6291 27.405 28.2612L27.2637 27.9976L27.4184 27.8956C27.7968 27.646 27.9816 27.3989 27.9816 27.1425C27.9816 27.0118 27.9887 26.9967 28.0388 27.0199C28.1356 27.0647 28.7066 27.0724 28.8966 27.0314C29.1691 26.9727 29.3131 26.8871 29.4212 26.7197C29.5607 26.5037 29.5571 26.2748 29.4105 26.0356C29.2324 25.7452 29.2105 25.6737 29.2665 25.5673C29.3555 25.3984 29.4345 25.3524 29.5979 25.3744C29.6787 25.3853 29.7709 25.4076 29.8027 25.424C29.9152 25.482 30.7771 25.8228 30.8863 25.8524C31.0306 25.8916 31.2337 25.8176 31.3706 25.676C31.519 25.5225 31.5328 25.4445 31.4281 25.3493L31.3412 25.2702L31.5078 24.9868C31.5994 24.8309 31.6743 24.6655 31.6743 24.6192C31.6743 24.5133 31.537 24.2505 31.4109 24.1148C31.3339 24.0321 31.2936 24.0135 31.2086 24.0216C31.1099 24.0309 31.0919 24.0527 30.952 24.3318C30.8144 24.606 30.7536 24.6877 30.6858 24.6891C30.6723 24.6893 30.6613 24.6587 30.6613 24.621C30.6613 24.515 30.5904 24.2974 30.5255 24.2043C30.4304 24.0679 30.2983 24.0313 30.0583 24.0747C29.6496 24.1487 29.5202 24.1168 29.3127 23.8912C29.1563 23.7212 29.1029 23.6139 29.0266 23.3168C28.8997 22.8222 28.9668 21.9194 29.1798 21.2555C29.3507 20.7228 29.5992 20.2332 29.9586 19.7208C30.1763 19.4103 30.3395 19.2336 30.4084 19.2336C30.4526 19.2336 30.9461 19.5598 30.9881 19.6167C31.0163 19.6551 31.5008 19.9979 31.7355 20.1456C32.1366 20.3982 32.6701 20.6425 33.0632 20.7538C33.171 20.7843 33.318 20.8265 33.3897 20.8475C33.5886 20.9059 34.2309 20.8934 34.4969 20.826C35.1892 20.6507 35.7546 20.2691 36.1708 19.6963C36.6373 19.0543 36.7199 18.2859 36.3862 17.6931C35.8779 16.79 35.1539 16.4294 33.8148 16.4122C33.3701 16.4066 33.0996 16.4458 32.7364 16.5688C32.182 16.7565 31.5197 17.131 30.7701 17.6805C30.5258 17.8596 30.3279 17.9819 30.2826 17.9819C30.1958 17.9819 29.8962 17.7584 29.6866 17.5374C29.1813 17.0041 28.7964 16.3489 28.6092 15.7033C28.5067 15.3495 28.5462 14.2792 28.6749 13.9221C28.8219 13.5145 28.897 13.4336 29.4316 13.1062C29.609 12.9976 29.7813 12.8768 29.8144 12.8377C29.908 12.7277 29.8914 12.5624 29.7626 12.3196C29.6553 12.1175 29.6151 11.9483 29.6744 11.9483C29.7356 11.9483 30.0929 12.2659 30.1929 12.4092C30.3569 12.644 30.342 12.7355 30.0879 13.0556C29.8875 13.3079 29.8693 13.4919 30.0321 13.6177C30.186 13.7366 30.3965 13.6892 30.7266 13.4613C31.0037 13.27 31.2385 13.0543 31.339 12.8986C31.4107 12.7875 31.4178 12.7484 31.4032 12.5455C31.3547 11.866 31.1442 11.5352 30.5765 11.2461C30.3351 11.1232 29.9617 11.0176 29.7684 11.0176C29.5845 11.0176 29.2782 11.1174 28.9747 11.2763C28.8418 11.3458 28.7147 11.4023 28.6923 11.4017C28.6699 11.4012 28.581 11.3003 28.4949 11.1776C28.4087 11.0549 28.29 10.9184 28.2312 10.8743C28.0981 10.7746 27.8783 10.6967 27.7302 10.6967C27.6386 10.6967 27.6208 10.6863 27.6343 10.6405C27.6434 10.6096 27.6679 10.4699 27.6886 10.33C27.7605 9.84642 27.6264 9.36026 27.3745 9.19094C27.1351 9.03005 26.8827 9.05194 26.5294 9.26421C26.4226 9.32836 26.3157 9.38084 26.292 9.38084C26.2142 9.38084 26.0235 9.23827 25.9872 9.1531C25.9678 9.10727 25.9621 9.02784 25.9746 8.97658C26.002 8.86512 26.1605 8.4593 26.2556 8.25756C26.3792 7.99497 26.4784 7.71183 26.4784 7.62123C26.4784 7.53259 26.336 7.27976 26.2471 7.2104C26.1443 7.13033 26.0627 7.13091 25.964 7.21246L25.867 7.29266L25.7148 7.19785C25.4727 7.04708 25.3111 6.97381 25.2207 6.97381C25.1059 6.97381 24.7831 7.13931 24.6704 7.25594C24.5273 7.40409 24.5562 7.51536 24.7628 7.61145C24.8527 7.65326 24.9703 7.70949 25.0242 7.73645C25.1323 7.79043 25.2693 7.90311 25.2693 7.93803C25.2693 7.95032 25.1809 7.97744 25.0728 7.99834C24.9176 8.02831 24.848 8.06271 24.7417 8.16205L24.6071 8.28779L24.6353 8.5214C24.6835 8.92036 24.6734 9.06404 24.5889 9.18031C24.378 9.47076 24.0108 9.60642 23.3733 9.6294C22.3399 9.66666 21.3333 9.37089 20.3675 8.74615C19.902 8.44498 19.7167 8.28792 19.7154 8.19337C19.715 8.16689 19.863 7.95748 20.0441 7.72801C20.6286 6.98777 20.888 6.57296 21.1179 6.011C21.1576 5.91391 21.2011 5.81282 21.2146 5.78634C21.228 5.75986 21.2645 5.6371 21.2957 5.51354C21.3268 5.38998 21.366 5.23667 21.3827 5.17284C21.3995 5.109 21.4132 4.9357 21.4132 4.78771C21.4132 4.0348 21.1052 3.35457 20.5191 2.81279C20.1915 2.51002 19.9682 2.37411 19.5974 2.25173C19.3575 2.17259 19.2699 2.15998 18.9689 2.16132C18.6839 2.16261 18.5829 2.17667 18.4231 2.23732ZM19.1748 3.5558C18.9753 3.60589 18.8052 3.68009 18.7147 3.75654C18.3744 4.0441 18.1963 4.7232 18.2733 5.43992C18.3187 5.86199 18.3938 6.31252 18.4569 6.54054C18.5572 6.9032 18.5807 6.97362 18.7222 7.33486L18.8698 7.71196H19.0086C19.1381 7.71196 19.1626 7.69643 19.3756 7.47928C19.6452 7.20437 19.7733 7.02618 19.9419 6.69129C20.2223 6.13401 20.3534 5.56903 20.39 4.75934C20.4124 4.26288 20.3646 4.06779 20.1663 3.84647C20.0219 3.68539 19.9203 3.62345 19.6861 3.55365C19.5061 3.50002 19.3951 3.5005 19.1748 3.5558ZM65.9742 7.03212C65.9643 7.04785 65.8197 7.0708 65.6529 7.08312C65.4861 7.09544 65.2908 7.1181 65.2189 7.13347C65.147 7.14885 64.9705 7.18604 64.8267 7.21611C64.3468 7.3165 63.7281 7.49219 63.4216 7.6151C63.3856 7.62951 63.3047 7.65936 63.2418 7.68144C63.1393 7.71745 63.0326 7.75933 62.8333 7.84185C62.2624 8.07834 61.5801 8.42053 61.0197 8.75145C60.8669 8.84166 60.7162 8.92992 60.6847 8.94757C60.3688 9.12463 58.8632 10.1508 58.5901 10.3752C58.5514 10.407 58.3654 10.5537 58.1766 10.7012C57.9879 10.8487 57.8041 10.9934 57.7682 11.0228C57.7322 11.0522 57.5484 11.2021 57.3597 11.3558C57.0651 11.5958 56.8589 11.7672 56.6086 11.9804C56.3959 12.1615 56.1341 12.3869 56.1043 12.4145C56.0848 12.4325 55.8042 12.6779 55.4807 12.9597C55.1571 13.2415 54.8851 13.4795 54.8761 13.4886C54.8554 13.5095 54.015 14.2427 53.8645 14.3712C53.8024 14.4243 53.6848 14.526 53.6031 14.5973C52.6078 15.4663 50.9981 16.6237 50.9013 16.54C50.86 16.5042 50.4301 16.4186 50.0724 16.3748C49.5935 16.3162 48.9291 16.3777 48.6597 16.5055C48.5857 16.5407 48.5199 16.5642 48.5135 16.5579C48.507 16.5516 48.5475 16.447 48.6035 16.3255C48.6594 16.2039 48.7247 16.0611 48.7486 16.0082C48.7726 15.9552 48.8356 15.818 48.8887 15.7033C48.9808 15.5045 49.0407 15.3748 49.2074 15.0133C49.2481 14.925 49.3185 14.7662 49.3637 14.6602C49.409 14.5543 49.5134 14.3263 49.5958 14.1536C49.6782 13.9808 49.7456 13.8336 49.7456 13.8265C49.7456 13.8052 49.9984 13.2757 50.2132 12.847C50.4334 12.4075 50.7681 11.8075 50.9471 11.5311C51.305 10.9787 51.8339 10.3904 52.1303 10.2153C52.393 10.06 52.4111 10.0395 52.3749 9.93782C52.3128 9.76333 52.1399 9.80306 51.6573 10.1027C51.3766 10.2769 51.0064 10.4622 50.7551 10.5542C50.5556 10.6273 50.4582 10.6431 50.1962 10.6453C49.9842 10.647 49.8654 10.6346 49.8383 10.6081C49.8161 10.5862 49.7769 10.5683 49.7513 10.5683C49.7064 10.5683 49.2129 10.3365 49.1428 10.2824C49.049 10.2101 48.1566 9.75662 47.8992 9.65042C47.4743 9.47516 47.074 9.34797 46.7555 9.28703C46.6476 9.26639 46.4922 9.23503 46.41 9.21738C46.2075 9.17386 45.0444 9.17659 44.8156 9.22114C44.3501 9.31177 44.15 9.36174 43.8307 9.46707C43.0046 9.73968 42.2457 10.2176 41.5981 10.8732C41.405 11.0686 41.0159 11.5641 40.9174 11.7397C40.7094 12.1108 40.6023 12.3576 40.4924 12.7186C40.4682 12.7983 40.4494 12.9997 40.4504 13.1679C40.4521 13.4283 40.4649 13.4985 40.5382 13.6493C40.7074 13.9978 40.9616 14.175 41.3772 14.2342C41.6832 14.2778 41.842 14.2507 41.9777 14.1316C42.0705 14.0501 42.0822 14.021 42.0801 13.8762C42.0771 13.6776 41.9926 13.5763 41.7132 13.4371C41.4898 13.3257 41.2097 13.063 41.1315 12.8914C41.0921 12.805 41.0744 12.683 41.074 12.4939C41.0735 12.2415 41.0833 12.2007 41.2048 11.9483C41.6654 10.9913 42.9543 10.1306 44.3373 9.85666C44.6032 9.80399 45.329 9.78769 45.53 9.82989C46.0709 9.94337 46.2496 10.0113 47.1803 10.457C47.8293 10.7678 48.0985 10.882 48.5038 11.0184C48.5487 11.0335 48.7105 11.0692 48.8633 11.0978C49.189 11.1586 49.9332 11.1514 50.2619 11.0843C50.3752 11.0612 50.4741 11.0485 50.4819 11.056C50.4895 11.0636 50.3895 11.1772 50.2596 11.3085C49.9027 11.6691 49.5759 12.0554 49.2647 12.4847C49.0597 12.7676 48.4996 13.8106 48.2776 14.3233C48.2355 14.4203 48.1641 14.5792 48.119 14.6763C48.0738 14.7734 47.9303 15.1055 47.8001 15.4145C47.6698 15.7234 47.5264 16.0555 47.4813 16.1526C47.4362 16.2497 47.361 16.419 47.3143 16.5289C47.2363 16.7119 47.1064 17.0043 47.0323 17.1636C47.0159 17.1989 46.8979 17.466 46.7702 17.7573C46.6424 18.0485 46.518 18.3302 46.4939 18.3831C46.3367 18.7273 46.2816 18.8519 46.2816 18.8632C46.2816 18.8703 46.2375 18.9697 46.1836 19.0841C46.1297 19.1985 46.0856 19.3003 46.0856 19.3102C46.0856 19.3201 46.0434 19.4189 45.9918 19.5297C45.7891 19.9653 45.7588 20.033 45.7588 20.0494C45.7588 20.0588 45.7166 20.1571 45.6651 20.2678C45.4624 20.7035 45.432 20.7712 45.432 20.7876C45.432 20.7969 45.3866 20.9024 45.3311 21.022C45.2756 21.1416 45.2105 21.2828 45.1865 21.3357C45.0048 21.7358 44.9745 21.8045 44.9745 21.8158C44.9745 21.8228 44.9253 21.9343 44.8652 22.0635C44.8051 22.1928 44.7061 22.4069 44.6452 22.5393C44.4719 22.9158 44.2708 23.2522 44.1396 23.3848C43.9449 23.5817 43.5615 23.7267 43.2356 23.7267C43.1037 23.7267 43.0424 23.7422 43.0025 23.7854C42.947 23.8456 42.9306 24.004 42.9734 24.0669C42.9904 24.0919 43.456 24.1022 44.5497 24.102C45.5819 24.1019 46.1998 24.1148 46.3941 24.1406C46.6655 24.1766 46.6923 24.175 46.7699 24.1184C46.8701 24.0453 46.8952 23.9037 46.822 23.8243C46.7802 23.7789 46.7008 23.764 46.4356 23.7518C46.1794 23.74 46.0657 23.7195 45.9462 23.6636C45.6983 23.5477 45.6049 23.3578 45.6899 23.1425C45.7059 23.102 45.7446 23.0038 45.776 22.9244C45.8074 22.8449 45.8605 22.7187 45.894 22.6439C45.9275 22.5691 45.9549 22.4996 45.9549 22.4894C45.9549 22.4793 45.9916 22.392 46.0366 22.2955C46.0815 22.1991 46.1182 22.1119 46.1182 22.1018C46.1182 22.0918 46.1388 22.0381 46.1639 21.9825C46.1889 21.9268 46.3446 21.5564 46.5098 21.1592C46.6751 20.7621 46.8228 20.4082 46.8383 20.3729C46.8537 20.3376 46.8949 20.2438 46.9299 20.1643C46.9649 20.0849 47.0922 19.7888 47.2127 19.5064C47.3333 19.224 47.4598 18.9323 47.494 18.8583C47.5282 18.7842 47.5561 18.716 47.5561 18.7068C47.5561 18.6911 47.6341 18.5145 47.7873 18.1829C47.8219 18.108 47.8502 18.0387 47.8502 18.0287C47.8502 18.0187 47.8817 17.9427 47.9202 17.8598C47.9586 17.777 48.0183 17.6442 48.0527 17.5647C48.0871 17.4853 48.1393 17.3661 48.1688 17.2999L48.2223 17.1795L48.3059 17.2534C48.4584 17.3882 48.4918 17.4035 48.7334 17.4483C49.1024 17.5168 49.8674 17.4388 50.6116 17.2566C50.9662 17.1698 50.9749 17.1695 51.057 17.2382C51.0996 17.2738 51.2049 17.3596 51.291 17.4288C51.5016 17.5981 52.0034 18.1869 52.1871 18.4803C52.32 18.6928 52.6604 19.2793 52.7452 19.4422C52.8802 19.7014 53.3075 20.6027 53.3075 20.6281C53.3075 20.6352 53.359 20.7505 53.4219 20.8842C53.4848 21.018 53.5363 21.1353 53.5363 21.1451C53.5363 21.1548 53.5665 21.2306 53.6034 21.3134C53.6404 21.3963 53.6845 21.4966 53.7015 21.5363C53.7185 21.576 53.7462 21.641 53.7632 21.6807C53.7802 21.7204 53.8236 21.8191 53.8596 21.9C53.8956 21.9808 53.9559 22.1252 53.9936 22.2209C54.0313 22.3166 54.0919 22.458 54.1281 22.5352C54.1644 22.6125 54.2209 22.7424 54.2538 22.8241C54.2867 22.9057 54.353 23.0592 54.4012 23.1651C54.5483 23.4883 54.574 23.546 54.6228 23.6625C54.7796 24.0367 55.3423 25.1595 55.6602 25.7326C55.8359 26.0493 56.3034 26.7786 56.5242 27.0805C57.2929 28.1314 58.2162 29.0174 59.157 29.6071C59.7906 30.0043 60.7368 30.397 61.4935 30.5771C61.6193 30.607 61.7737 30.6445 61.8366 30.6605C61.8996 30.6765 62.1128 30.7118 62.3105 30.739C62.5082 30.7662 62.7734 30.8031 62.8998 30.8209C63.1791 30.8603 64.8112 30.8589 65.0486 30.819C65.1423 30.8032 65.3806 30.7666 65.5783 30.7375C65.9766 30.679 66.4632 30.5639 66.7384 30.463C66.8373 30.4268 66.9476 30.3888 66.9835 30.3785C67.1172 30.3403 67.6753 30.0404 67.8332 29.9219C68.3411 29.5408 68.5803 29.1799 68.5784 28.7975C68.576 28.2944 68.2446 28.0906 67.8342 28.34C67.647 28.4538 67.5418 28.5554 67.3267 28.8296C67.1089 29.1074 66.7393 29.465 66.4702 29.6584C66.3677 29.7321 66.276 29.7924 66.2666 29.7924C66.2572 29.7924 66.1691 29.843 66.0707 29.9048C65.9724 29.9665 65.8843 30.0171 65.8749 30.0171C65.8656 30.0171 65.7803 30.0525 65.6854 30.0957C65.0572 30.3821 64.4367 30.4832 63.6148 30.433C63.074 30.4 62.6882 30.3287 62.1471 30.1617C61.8416 30.0675 61.8596 30.0749 61.3955 29.8547C60.719 29.5337 60.2139 29.1686 59.5816 28.5436C59.1407 28.1078 59.0742 28.0332 58.7347 27.594C58.5288 27.3275 58.0133 26.5942 58.0133 26.5676C58.0133 26.5612 57.9369 26.4358 57.8437 26.2887C57.4294 25.6358 56.6105 24.0814 55.9029 22.6049C55.713 22.2087 54.9489 20.7111 54.8542 20.5494C54.818 20.4877 54.734 20.3381 54.6675 20.2171C54.4367 19.7973 53.8537 18.8844 53.7175 18.7294C53.6987 18.7081 53.6319 18.6228 53.569 18.5399C53.1292 17.9603 52.4176 17.2982 51.8983 16.9854L51.7145 16.8747L52.2088 16.6314C52.8699 16.3059 53.1435 16.1493 53.7499 15.7492C54.6826 15.1336 55.8776 14.1904 57.1815 13.0405C57.2722 12.9605 57.4621 12.794 57.6034 12.6704C57.7447 12.5469 57.8851 12.4241 57.9154 12.3976C58.1814 12.165 58.5503 11.8391 58.6987 11.7056C58.798 11.6162 59.0557 11.3924 59.2714 11.2082C59.4871 11.024 59.6709 10.866 59.6799 10.857C59.6889 10.848 59.7918 10.7614 59.9086 10.6646C60.0254 10.5677 60.1284 10.4812 60.1374 10.4722C60.1463 10.4633 60.2272 10.3974 60.3171 10.3258C60.794 9.94597 61.0162 9.77228 61.1341 9.6872C61.206 9.63531 61.2721 9.58396 61.2811 9.57308C61.3283 9.51601 62.2669 8.87462 62.6164 8.66059C63.0089 8.42024 63.8275 7.99169 64.0588 7.90546C64.1217 7.882 64.2173 7.84467 64.2712 7.82249C64.3251 7.80035 64.4428 7.75767 64.5326 7.72766C64.6225 7.69762 64.7254 7.66138 64.7614 7.64707C64.7973 7.63276 64.8561 7.61427 64.8921 7.60602C64.928 7.59777 65.0677 7.5617 65.2025 7.52585C66.0084 7.31169 67.0018 7.30428 67.6208 7.50782C68.1619 7.68577 68.5324 7.99259 68.7573 8.44903C68.8684 8.67471 68.8764 8.71114 68.877 8.99571C68.8775 9.27576 68.8688 9.31787 68.771 9.51229C68.5976 9.85685 68.3049 10.1053 67.911 10.2419C67.5323 10.3734 67.4448 10.3882 67.0374 10.3898C66.6209 10.3916 66.4762 10.3637 66.2163 10.2317C66.0617 10.1532 65.9011 9.93936 65.8424 9.73393C65.759 9.44188 65.5806 9.34165 65.3659 9.4662C65.1481 9.59256 65.073 9.93635 65.2048 10.2037C65.4306 10.6619 66.0654 10.8471 67.1371 10.7673C67.4121 10.7468 67.6812 10.7161 67.7351 10.6989C67.7891 10.6818 67.9214 10.6442 68.0292 10.6155C68.1371 10.5869 68.2547 10.5518 68.2907 10.5376C68.3266 10.5234 68.4222 10.4855 68.5031 10.4533C68.7603 10.351 69.1777 10.061 69.38 9.8442C69.697 9.50446 69.8091 9.23394 69.8097 8.80652C69.8102 8.52483 69.8024 8.48892 69.6907 8.26093C69.3906 7.64823 68.668 7.226 67.6462 7.0663C67.3524 7.02038 65.999 6.99271 65.9742 7.03212ZM25.3673 12.0148C25.0542 12.0687 24.9659 12.0885 24.6648 12.1716C24.5179 12.2121 24.3504 12.2702 24.235 12.3206C24.1784 12.3453 24.1236 12.3656 24.1133 12.3656C24.0848 12.3656 23.6771 12.5495 23.4557 12.6622C23.3478 12.7171 23.2155 12.7839 23.1615 12.8106C22.8361 12.972 21.9244 13.5859 21.3972 13.9987C21.1629 14.1821 20.5205 14.7196 20.2856 14.9287C20.2135 14.9929 20.015 15.168 19.8444 15.3178C19.6738 15.4676 19.4386 15.6792 19.3218 15.788C18.7028 16.3645 17.8491 17.0588 17.3938 17.3561L17.1645 17.5058L16.9585 17.455C16.7263 17.3978 16.1644 17.3868 15.9897 17.436C15.8399 17.4782 15.8077 17.4373 15.8865 17.3047C15.9222 17.2447 16.1005 16.8563 16.2827 16.4415C16.9901 14.8314 17.4345 14.1135 17.8861 13.8516C17.9389 13.8209 17.9906 13.7694 18.0011 13.7371C18.023 13.6691 17.9634 13.5851 17.8931 13.5851C17.8424 13.5851 17.4717 13.7759 17.3234 13.8783C17.2757 13.9112 17.2264 13.9381 17.2139 13.9381C17.2015 13.9381 17.1449 13.9593 17.0883 13.9852C16.9134 14.065 16.7111 14.0962 16.5982 14.0608C16.4829 14.0246 16.2893 13.9309 16.0213 13.7813C15.7649 13.6383 15.3404 13.442 15.1226 13.3658C14.816 13.2586 14.5497 13.2203 14.1096 13.2203C13.5468 13.2203 13.0835 13.3212 12.7081 13.5255C12.6742 13.544 12.5933 13.5882 12.5284 13.6237C11.8492 13.9956 11.2798 14.713 11.1505 15.3599C11.0767 15.729 11.1986 16.0116 11.4919 16.151C11.7048 16.2522 11.9859 16.2345 12.0772 16.1141C12.1782 15.9808 12.1238 15.8427 11.919 15.7123C11.8298 15.6555 11.7089 15.5556 11.6505 15.4903C11.5553 15.384 11.5443 15.3512 11.5443 15.1746C11.5443 15.0057 11.561 14.95 11.6606 14.7867C11.9443 14.3216 12.5008 13.9208 13.1376 13.7229C13.3834 13.6466 13.4758 13.6344 13.7991 13.6361C14.2438 13.6384 14.2952 13.6537 15.0082 13.9941C15.607 14.28 15.5957 14.2753 15.8252 14.3371C16.0234 14.3905 16.4916 14.4096 16.683 14.3722C16.8329 14.3429 16.8385 14.3768 16.7045 14.5018C16.5906 14.6081 16.2439 15.0415 16.1126 15.2418C15.9932 15.4241 15.4679 16.4948 15.4646 16.5628C15.464 16.5755 15.4351 16.6436 15.4004 16.7142C15.3656 16.7849 15.3368 16.853 15.3361 16.8657C15.3355 16.8785 15.2983 16.9678 15.2533 17.0643C15.2084 17.1607 15.1716 17.2475 15.1716 17.257C15.1716 17.2665 15.1295 17.3649 15.0781 17.4757C15.0267 17.5864 14.9077 17.8576 14.8137 18.0782C14.7197 18.2989 14.6229 18.5227 14.5985 18.5757C14.5742 18.6286 14.4641 18.8814 14.3539 19.1373C14.2437 19.3933 14.1326 19.6446 14.1071 19.6959C14.0815 19.7471 14.0606 19.8002 14.0606 19.8139C14.0606 19.8275 14.0075 19.9516 13.9426 20.0896C13.8777 20.2276 13.7984 20.4055 13.7664 20.4851C13.7015 20.6463 13.5358 21.0075 13.4318 21.2144C13.2741 21.5281 13.0759 21.6727 12.8035 21.6727C12.6521 21.6727 12.5573 21.7432 12.5573 21.8559C12.5573 21.9913 12.6207 22.0034 13.2195 21.9827C13.5293 21.9721 14.0034 21.9738 14.273 21.9865C14.7079 22.0071 14.7693 22.0036 14.8179 21.9559C14.8754 21.8995 14.8657 21.7858 14.8 21.7452C14.7797 21.7327 14.6634 21.7133 14.5415 21.7022C14.3732 21.6868 14.3005 21.6641 14.2392 21.6076C14.1949 21.5667 14.1586 21.5169 14.1586 21.4971C14.1586 21.4515 15.1441 19.0306 15.3348 18.6078C15.3507 18.5725 15.4174 18.4208 15.4829 18.2708C15.5485 18.1208 15.6068 17.9933 15.6126 17.9876C15.6183 17.9819 15.6722 18.0032 15.7323 18.0349C15.9401 18.1445 16.5901 18.097 17.122 17.9333C17.1804 17.9154 17.2341 17.9514 17.4168 18.1312C17.8341 18.5419 18.1583 19.1098 18.66 20.3087C18.7486 20.5206 18.8405 20.7444 18.8643 20.8062C18.888 20.868 18.9198 20.9323 18.9349 20.949C18.95 20.9658 18.9623 20.9972 18.9623 21.0189C18.9623 21.0405 19.0138 21.1677 19.0767 21.3014C19.1396 21.4352 19.1911 21.5521 19.1911 21.5611C19.1911 21.6025 19.3936 22.027 19.6685 22.5617C20.6596 24.49 21.8307 25.4777 23.5326 25.8207C24.0076 25.9164 25.2297 25.9246 25.6615 25.8349C26.6675 25.626 27.2627 25.1964 27.2627 24.6791C27.2627 24.4373 27.1805 24.3365 26.9831 24.3365C26.8236 24.3365 26.8055 24.3511 26.3247 24.8691C25.9869 25.233 25.594 25.4561 25.0876 25.5714C24.8371 25.6285 24.4327 25.6349 24.1852 25.5857C23.511 25.4517 23.3242 25.3851 22.9001 25.1282C21.8909 24.5167 21.1819 23.516 20.0312 21.079C19.7437 20.47 19.4062 19.8127 19.2347 19.5278C19.1568 19.3984 19.0931 19.2854 19.0931 19.2767C19.0931 19.268 18.987 19.1068 18.8574 18.9183C18.6062 18.5531 17.985 17.9058 17.792 17.8083C17.6691 17.7462 17.6693 17.6909 17.7925 17.6585C17.9927 17.6059 18.6172 17.2277 19.1421 16.8411C19.611 16.4958 20.4124 15.8248 21.0377 15.254C23.2912 13.1968 24.3033 12.5129 25.4817 12.2508C25.8276 12.1739 26.3607 12.1734 26.6228 12.2499C26.8128 12.3053 27.113 12.4714 27.1848 12.5608C27.3221 12.7318 27.3934 12.9216 27.3934 13.116C27.3934 13.3558 27.3415 13.4726 27.1652 13.6289C26.9825 13.7911 26.8251 13.8611 26.5365 13.9087C26.3119 13.9458 26.2642 13.9442 26.1043 13.8948C25.8859 13.8271 25.7388 13.7117 25.7106 13.5858C25.683 13.4621 25.5736 13.3284 25.5002 13.3284C25.468 13.3284 25.4028 13.3664 25.3555 13.413C25.2862 13.481 25.2693 13.5279 25.2693 13.6526C25.2693 14.0194 25.6899 14.2275 26.3467 14.1857C27.0976 14.138 27.6925 13.8357 27.8917 13.4007C27.9838 13.1996 27.988 12.8521 27.9005 12.6739C27.7792 12.4271 27.4964 12.2042 27.1483 12.081C26.7468 11.9389 25.9748 11.9102 25.3673 12.0148ZM65.7078 12.6945C65.6993 12.7166 65.6961 15.2837 65.7007 18.3992L65.7091 24.0637H66.428H67.1469L67.1552 18.359L67.1635 12.6544H66.4434C65.8974 12.6544 65.7196 12.6641 65.7078 12.6945ZM60.2681 15.9962C59.8179 16.0677 59.4311 16.158 59.3127 16.2195C59.2815 16.2356 59.2396 16.2489 59.2196 16.2489C59.1811 16.2489 59.1466 16.2634 58.6874 16.4721L58.3975 16.6038L58.4171 16.7874C58.4278 16.8884 58.4511 17.1575 58.4688 17.3853C58.4864 17.6132 58.5135 17.8121 58.529 17.8273C58.5446 17.8427 58.6531 17.7929 58.7745 17.7146C58.9649 17.5918 59.371 17.382 59.5655 17.306C59.6397 17.277 59.8796 17.2067 60.121 17.1432C60.3357 17.0868 60.9607 17.0867 61.1504 17.1431C61.5574 17.264 61.7852 17.4286 61.9594 17.7276C62.1205 18.0041 62.1889 18.3616 62.1938 18.9528L62.1961 19.2336H61.7458C61.3022 19.2336 60.621 19.2965 60.3334 19.364C59.9449 19.4552 59.7889 19.4959 59.7289 19.5216C59.6929 19.537 59.59 19.5752 59.5001 19.6065C58.9738 19.7901 58.3783 20.2549 58.1171 20.6858C57.8822 21.0735 57.7583 21.6402 57.7973 22.1476C57.8604 22.9669 58.271 23.6171 58.9609 23.9899C59.6993 24.3889 60.7526 24.3437 61.4331 23.8838C61.628 23.7522 61.9043 23.4784 62.0836 23.2393L62.2205 23.0568L62.241 23.2037C62.2523 23.2845 62.2615 23.4695 62.2615 23.6149C62.2615 23.7602 62.2707 23.9243 62.2819 23.9795L62.3023 24.0798H62.9867H63.6712L63.6517 23.6545C63.641 23.4206 63.6203 22.0522 63.6055 20.6136C63.5832 18.4348 63.5704 17.9658 63.5288 17.8054C63.387 17.259 63.2356 16.978 62.9118 16.6605C62.7081 16.4606 62.603 16.387 62.3549 16.27C62.0297 16.1168 61.896 16.0788 61.4282 16.0073C61.1026 15.9575 60.5454 15.9522 60.2681 15.9962ZM71.0847 16.0106C70.9319 16.0339 70.7187 16.0764 70.6108 16.1051C70.503 16.1337 70.3742 16.165 70.3245 16.1746C70.2749 16.1842 70.2262 16.2049 70.2164 16.2205C70.2066 16.2361 70.1759 16.2489 70.1482 16.2489C70.1205 16.2489 70.0442 16.2722 69.9785 16.3008C69.5579 16.4836 69.354 16.5846 69.3417 16.6158C69.334 16.6356 69.3396 16.7886 69.354 16.9558C69.3685 17.123 69.3878 17.3876 69.3968 17.5437C69.406 17.6998 69.4212 17.8352 69.4308 17.8447C69.4404 17.8541 69.5554 17.7964 69.6864 17.7166C70.0587 17.4896 70.1959 17.4218 70.5292 17.3001C70.9724 17.1383 71.1834 17.099 71.5912 17.1023C71.9991 17.1057 72.2312 17.1604 72.4706 17.3095C72.9263 17.5932 73.1097 18.0631 73.1105 18.9483L73.1108 19.2246L72.498 19.2438C71.6337 19.2708 71.0474 19.3683 70.4801 19.5793C69.6442 19.8902 69.0865 20.4107 68.8388 21.1111C68.7305 21.4175 68.7155 21.5188 68.7155 21.9455C68.7155 22.4589 68.7578 22.6474 68.9688 23.0737C69.4235 23.9922 70.5172 24.4466 71.6566 24.1903C72.1706 24.0747 72.7554 23.6424 73.0769 23.1401L73.134 23.0511L73.155 23.3086C73.1666 23.4503 73.1856 23.6818 73.1971 23.823L73.2181 24.0798H73.8997H74.5813V23.8679C74.5813 23.7515 74.5665 23.4157 74.5484 23.1218C74.5303 22.8279 74.511 21.5476 74.5054 20.2766C74.4976 18.4909 74.4856 17.9367 74.4528 17.8375C74.4295 17.7669 74.3872 17.6297 74.3588 17.5326C74.1974 16.9803 73.8008 16.5205 73.2719 16.2726C72.6686 15.99 71.8566 15.8927 71.0847 16.0106ZM79.5648 16.0077C78.9708 16.1289 78.3923 16.5111 78.0703 16.995C78.0145 17.0789 77.962 17.1407 77.9536 17.1325C77.9453 17.1242 77.9294 16.8968 77.9183 16.627L77.8982 16.1366L77.2331 16.1279L76.5681 16.1192L76.5886 16.6735C76.6034 17.0733 76.6506 23.6894 76.6412 24.0403C76.6403 24.0722 76.7931 24.0791 77.3508 24.0724L78.0616 24.0637L78.078 21.3197L78.0944 18.5757L78.1974 18.296C78.4852 17.5151 78.9211 17.1655 79.6003 17.1709C79.8489 17.1729 79.9275 17.1869 80.0747 17.2553C80.3777 17.3961 80.5978 17.6631 80.7002 18.014C80.82 18.4244 80.8229 18.502 80.8229 21.3061V24.0798H81.5418H82.2608V21.2286C82.2608 18.0572 82.2558 17.9674 82.0457 17.3465C81.9177 16.9682 81.6514 16.6011 81.3294 16.3591C81.1838 16.2496 80.8591 16.0884 80.7842 16.0884C80.7576 16.0884 80.7247 16.0776 80.7113 16.0644C80.6681 16.022 80.2586 15.9651 80.0059 15.9664C79.8711 15.9671 79.6726 15.9857 79.5648 16.0077ZM86.1985 16.0102C85.7172 16.0871 85.6005 16.1179 85.1201 16.2955C84.7776 16.4221 84.4559 16.5729 84.441 16.6138C84.4218 16.6665 84.5163 17.8536 84.5397 17.8536C84.5479 17.8536 84.6819 17.7766 84.8374 17.6825C85.2636 17.4247 85.5936 17.2874 86.1332 17.1433C86.3682 17.0806 86.9994 17.0901 87.2342 17.1599C87.4949 17.2374 87.7472 17.4107 87.8991 17.6166C88.116 17.9106 88.2082 18.2804 88.2082 18.8565L88.2083 19.2336H87.7576C86.6771 19.2336 85.7174 19.4464 85.0384 19.8364C84.7771 19.9865 84.7111 20.0368 84.4799 20.2622C83.5817 21.1378 83.5662 22.7367 84.4476 23.5981C84.7744 23.9176 85.0761 24.0813 85.5776 24.2114C85.7925 24.2671 86.4046 24.2668 86.6724 24.2109C87.2337 24.0935 87.8144 23.6908 88.1318 23.1989C88.1828 23.1198 88.232 23.0546 88.2409 23.054C88.2499 23.0534 88.2621 23.1749 88.268 23.324C88.2739 23.4732 88.2842 23.6573 88.2909 23.7332C88.2975 23.809 88.3037 23.9184 88.3047 23.9761L88.3063 24.081L89.0007 24.0724L89.6951 24.0637L89.6858 23.9353C89.6806 23.8647 89.6641 22.5794 89.6492 21.079C89.6201 18.1574 89.6032 17.8546 89.4484 17.4845C89.3286 17.1979 89.2759 17.0963 89.1604 16.9292C88.7247 16.2991 87.8715 15.9508 86.7968 15.9642C86.6115 15.9666 86.3423 15.9873 86.1985 16.0102ZM101.312 15.9962C100.862 16.0677 100.475 16.158 100.357 16.2195C100.326 16.2356 100.284 16.2489 100.264 16.2489C100.225 16.2489 100.191 16.2634 99.7325 16.4716L99.4435 16.603L99.4606 16.771C99.4701 16.8633 99.4935 17.1331 99.5127 17.3705C99.5319 17.6079 99.5599 17.8142 99.5749 17.8289C99.59 17.8437 99.6893 17.7994 99.7956 17.7305C100.198 17.4694 100.566 17.3056 101.044 17.1742C101.342 17.0923 101.994 17.0749 102.211 17.143C102.93 17.3682 103.187 17.7722 103.229 18.7442L103.251 19.2336H102.795C102.349 19.2336 101.669 19.296 101.378 19.3637C101.11 19.426 100.839 19.4971 100.773 19.5226C100.737 19.5364 100.634 19.5735 100.544 19.6049C100.301 19.69 99.8639 19.9466 99.6449 20.133C99.2935 20.432 99.0444 20.8231 98.9097 21.2876C98.8191 21.6 98.8253 22.3086 98.9215 22.6351C99.1403 23.3777 99.6654 23.9172 100.402 24.1557C100.889 24.3136 101.637 24.2863 102.084 24.0944C102.471 23.9289 102.895 23.5789 103.153 23.2137C103.252 23.0733 103.255 23.0718 103.277 23.1495C103.289 23.1934 103.301 23.3665 103.303 23.5342C103.305 23.7018 103.316 23.8935 103.327 23.96L103.347 24.081L104.037 24.0723L104.727 24.0637L104.716 23.7428C104.71 23.5663 104.698 23.3641 104.689 23.2935C104.68 23.2229 104.662 22.0097 104.648 20.5976C104.622 17.9363 104.62 17.8951 104.476 17.4845C104.354 17.1341 104.216 16.9157 103.958 16.6622C103.691 16.4004 103.34 16.1996 102.979 16.1021C102.512 15.976 101.746 15.9274 101.312 15.9962ZM91.719 16.1627C91.7097 16.1866 91.7068 17.5697 91.7126 19.2363C91.7241 22.5699 91.7126 22.3721 91.9281 22.9404C92.1536 23.5353 92.5963 23.9654 93.1778 24.1548C93.4047 24.2287 93.8544 24.2806 94.0741 24.2582C94.3309 24.232 94.6216 24.1728 94.6607 24.1389C94.6777 24.124 94.7148 24.1118 94.743 24.1118C94.8358 24.1118 95.2901 23.8281 95.4937 23.6431C95.6034 23.5433 95.7554 23.3687 95.8313 23.255L95.9694 23.0485L95.9897 23.524C96.0009 23.7855 96.0119 24.0176 96.0142 24.0396C96.0175 24.0703 96.1775 24.0798 96.6934 24.0798H97.3683L97.3423 23.6866C97.3279 23.4704 97.3073 21.6832 97.2964 19.715L97.2766 16.1366H96.574H95.8714L95.8551 18.8645C95.8436 20.7828 95.8278 21.6163 95.802 21.6727C95.7818 21.7169 95.7401 21.8324 95.7094 21.9295C95.4655 22.6999 94.8373 23.1597 94.1829 23.0469C93.6936 22.9625 93.4433 22.7481 93.2536 22.2504L93.1619 22.0097L93.1441 19.0731L93.1264 16.1366L92.4312 16.1279C91.8707 16.1209 91.7327 16.1276 91.719 16.1627ZM48.901 16.7475C48.6728 16.7962 48.6018 16.8377 48.6018 16.9229C48.6018 17.0074 48.6658 17.0444 48.9064 17.0992C49.1022 17.1438 49.1585 17.1439 49.4539 17.1005C49.7781 17.053 50.3011 16.8995 50.3011 16.8521C50.3011 16.8258 50.2746 16.8185 49.915 16.7462C49.623 16.6876 49.1796 16.6881 48.901 16.7475ZM33.1939 17.8237C32.8327 17.847 32.4612 17.8977 32.252 17.9521C31.7199 18.0905 31.3652 18.2047 31.0943 18.3249C30.9306 18.3975 30.9227 18.4067 30.9227 18.524C30.9227 18.6803 31.08 18.8629 31.4516 19.1379C32.0571 19.586 32.681 19.7947 33.6657 19.8785C34.3958 19.9406 34.6498 19.8947 34.8931 19.6567C35.1081 19.4464 35.1533 19.3249 35.1519 18.9608C35.151 18.7054 35.1368 18.6097 35.0823 18.4921C34.836 17.9598 34.2575 17.7551 33.1939 17.8237ZM37.4076 17.88C36.9554 18.0886 36.8139 18.7627 37.1215 19.2428C37.2107 19.3821 37.3721 19.4901 37.4911 19.4901C37.6112 19.4901 37.755 19.392 37.9356 19.187C38.3117 18.7599 38.4001 18.4186 38.2122 18.1188C38.1594 18.0347 38.0701 17.9392 38.0136 17.9065C37.8601 17.8176 37.5702 17.805 37.4076 17.88ZM5.221 18.3023C4.32087 18.3806 3.89931 18.7456 3.89801 19.4476C3.89725 19.8522 4.0495 20.1249 4.384 20.318C4.52958 20.402 4.55096 20.405 5.00859 20.4037C5.48752 20.4024 5.75814 20.3696 6.23403 20.2553C6.52056 20.1865 7.07724 19.9795 7.09456 19.9353C7.10057 19.9201 7.12475 19.9076 7.14832 19.9076C7.17191 19.9076 7.3038 19.8282 7.44141 19.7312C7.90384 19.4054 8.14625 19.1375 8.14524 18.9534C8.14436 18.8009 8.11599 18.7803 7.72091 18.6462C6.8777 18.3599 5.97895 18.2363 5.221 18.3023ZM1.18967 18.5073C1.03925 18.5608 0.830434 18.7386 0.806056 18.8341C0.795011 18.8773 0.772855 18.9127 0.756842 18.9127C0.703249 18.9127 0.726908 19.1916 0.792887 19.3381C0.828768 19.4177 0.922098 19.5682 1.0003 19.6726C1.3513 20.1408 1.68825 20.2199 1.90759 19.8856C2.09624 19.598 2.1396 19.3414 2.05281 19.0265C1.93105 18.5848 1.57475 18.3704 1.18967 18.5073ZM61.2975 20.2294C59.9477 20.3319 59.255 20.8971 59.255 21.896C59.255 22.7337 59.8723 23.2337 60.7574 23.1128C61.0891 23.0675 61.3194 22.9517 61.5778 22.7003C61.7757 22.5078 61.8643 22.3679 62.0358 21.9776C62.1302 21.7627 62.1738 21.4053 62.1767 20.8222L62.1798 20.2125L61.902 20.2085C61.7492 20.2064 61.4772 20.2158 61.2975 20.2294ZM72.1958 20.2296C71.2548 20.3059 70.5825 20.6372 70.3302 21.149C70.2202 21.3722 70.1705 21.6053 70.1706 21.8974C70.1708 22.4272 70.3829 22.7923 70.8129 23.0031C71.1477 23.1671 71.7167 23.1671 72.0821 23.0029C72.3071 22.9018 72.5895 22.646 72.734 22.4125C73.0116 21.9636 73.125 21.4131 73.1047 20.6136L73.0944 20.2125L72.8003 20.2085C72.6386 20.2063 72.3665 20.2158 72.1958 20.2296ZM87.2933 20.2296C86.6179 20.2844 86.0343 20.4874 85.6957 20.7857C85.5784 20.889 85.4152 21.1534 85.3463 21.3518C85.3 21.485 85.2852 21.6189 85.2858 21.8974C85.2865 22.2316 85.2952 22.285 85.3774 22.4628C85.603 22.9502 86.1248 23.1944 86.7707 23.1148C87.0893 23.0755 87.3321 22.9522 87.5888 22.6995C88.0397 22.2556 88.2195 21.6814 88.2019 20.742L88.1919 20.2125L87.8978 20.2085C87.7361 20.2063 87.464 20.2158 87.2933 20.2296ZM102.342 20.2294C100.996 20.3316 100.298 20.8995 100.3 21.892C100.301 22.7281 100.909 23.2262 101.793 23.1161C102.293 23.0538 102.728 22.7221 102.969 22.2183C103.177 21.7852 103.217 21.5633 103.221 20.8383L103.224 20.2125L102.946 20.2085C102.794 20.2064 102.521 20.2158 102.342 20.2294ZM19.7012 30.3924C19.2783 30.8011 18.9426 31.4055 18.7866 32.039C18.6436 32.6196 18.5924 33.5398 18.6877 33.8147C18.7523 34.0008 18.959 34.2147 19.1753 34.3191C19.3143 34.3864 19.3846 34.3979 19.6552 34.3978C19.8648 34.3977 19.9861 34.3841 20.0131 34.3577C20.0355 34.3356 20.0768 34.3176 20.105 34.3176C20.1966 34.3176 20.481 34.0414 20.5728 33.8633C20.7647 33.4908 20.8248 32.9362 20.7444 32.2797C20.6581 31.5753 20.4917 30.9578 20.2274 30.3621C20.1624 30.2156 20.1545 30.2097 20.025 30.2097C19.905 30.2097 19.8695 30.2297 19.7012 30.3924ZM19.7093 36.181C19.3977 36.2301 19.0604 36.47 19.0604 36.6426C19.0604 36.8642 19.3269 37.1528 19.7234 37.3606C19.9057 37.4561 19.9486 37.4658 20.1451 37.4559C20.3301 37.4466 20.383 37.4299 20.4882 37.3476C20.6369 37.2314 20.7565 37.01 20.7583 36.8477C20.7613 36.5902 20.542 36.2908 20.2968 36.2175C20.1365 36.1696 19.8821 36.1538 19.7093 36.181Z" fill="white"/>
</svg>
