<svg width="70" height="30" viewBox="0 0 70 30" fill="none" xmlns="http://www.w3.org/2000/svg">
<path fill-rule="evenodd" clip-rule="evenodd" d="M13.9146 0.478916C12.2962 0.604593 10.6339 1.04584 8.8666 1.81886C8.00042 2.19776 7.29895 2.62896 6.41768 3.32431C4.99064 4.45023 3.58959 6.13586 2.65209 7.85479C2.49298 8.14652 2.4827 8.18582 2.49425 8.45934C2.5012 8.62393 2.47752 8.87583 2.44012 9.03538C2.40355 9.19135 2.37364 9.43029 2.37364 9.56638C2.37364 9.70248 2.35679 9.81382 2.33619 9.81382C2.31563 9.81382 2.28568 9.88282 2.26968 9.96712C2.24866 10.078 2.16537 10.1975 1.96894 10.3988C1.71868 10.6552 1.7006 10.6859 1.73978 10.788C1.7632 10.8489 1.82976 10.9165 1.88764 10.9383C2.03478 10.9937 1.9855 11.0818 1.75962 11.1671C1.56007 11.2425 1.45556 11.3681 1.52271 11.452C1.54449 11.4792 1.57558 11.5744 1.59184 11.6635L1.62141 11.8256L1.48905 11.7994C1.32598 11.7671 1.14897 11.851 1.02938 12.0171C0.900431 12.1963 0.856325 12.8765 0.868163 14.5055C0.877262 15.759 0.884465 15.8828 0.947148 15.8665C1.04871 15.8403 1.08368 15.9287 0.984134 15.9599C0.875535 15.9941 0.87524 16.1358 0.983502 16.2727C1.02883 16.33 1.06632 16.4097 1.06683 16.4498C1.06796 16.5407 0.947822 16.5461 0.913111 16.4567C0.892511 16.4035 0.88059 16.4015 0.851902 16.4463C0.794654 16.5356 0.808892 16.749 0.90637 17.2611C0.968168 17.5859 0.984555 17.7618 0.957005 17.805C0.928613 17.8496 0.939523 17.9155 0.993022 18.0225C1.04083 18.1181 1.0849 18.3457 1.10979 18.6259C1.13376 18.8961 1.17521 19.1143 1.21359 19.1721C1.25302 19.2317 1.26149 19.2783 1.23579 19.294C1.21288 19.308 1.19413 19.3997 1.19413 19.4979C1.19413 19.6468 1.21119 19.6839 1.29742 19.7228C1.44566 19.7896 1.5209 19.963 1.5701 20.351C1.61467 20.7026 1.65031 20.8057 1.75802 20.8941C1.79265 20.9225 1.81219 20.9685 1.80145 20.9962C1.77656 21.0604 2.33295 22.1704 2.65045 22.6898C3.02574 23.3039 3.31262 23.6668 3.86935 24.2316C4.23803 24.6057 4.48067 24.8993 4.73018 25.2734C5.11053 25.8435 5.36964 26.1362 5.65715 26.3202C5.85729 26.4484 5.99066 26.4708 6.07226 26.3901C6.11156 26.3512 6.13452 26.3519 6.17546 26.3929C6.21767 26.4353 6.21198 26.4575 6.14694 26.505C6.05233 26.5741 6.05094 26.5722 6.27024 26.6734C6.36292 26.7161 6.58092 26.8837 6.75469 27.0458C6.92845 27.208 7.12531 27.3818 7.19216 27.4321C7.31335 27.5233 7.53026 27.5553 7.57222 27.4882C7.58435 27.4687 7.68688 27.541 7.79999 27.6489C7.96756 27.8087 8.09988 27.8812 8.51448 28.0408C8.79432 28.1485 9.10048 28.2919 9.19489 28.3595C9.34704 28.4685 9.36646 28.4736 9.36646 28.404C9.36646 28.2394 9.47245 28.2135 9.7782 28.3034C10.0391 28.3801 10.0625 28.3965 10.0742 28.5105C10.0861 28.6266 10.1072 28.6401 10.413 28.7276C10.5924 28.7788 10.8409 28.8758 10.9653 28.943C11.2213 29.0816 11.2948 29.0892 11.5449 29.003C11.7499 28.9323 11.8107 28.9477 11.9771 29.1123C12.0726 29.2067 12.1366 29.2322 12.2804 29.233C12.3807 29.2336 12.5338 29.2504 12.6207 29.2703C12.7471 29.2993 12.7786 29.2946 12.7786 29.2466C12.7786 29.2136 12.8252 29.1406 12.882 29.0843C12.9645 29.0027 13.0285 28.982 13.198 28.982C13.3149 28.982 13.4105 28.9984 13.4105 29.0184C13.4105 29.0385 13.3839 29.1294 13.3514 29.2204L13.2924 29.386L14.057 29.4236C15.5989 29.4994 16.0722 29.462 16.5375 29.2271L16.6971 29.1466L16.7469 29.2546C16.7845 29.3364 16.8177 29.3565 16.8834 29.3374C16.9311 29.3235 17.3682 29.2114 17.8547 29.0883C18.994 28.8 19.3825 28.6464 19.8129 28.3143C19.9311 28.2229 20.0205 28.1952 20.2559 28.1765C20.7226 28.1393 20.9502 28.0403 21.1784 27.7748C21.2862 27.6494 21.3965 27.474 21.4234 27.385C21.4815 27.1933 21.5457 27.1602 21.7311 27.2265C21.8463 27.2677 21.9226 27.2613 22.1997 27.1874C22.6035 27.0795 22.851 26.9441 22.931 26.7874C22.9641 26.7224 22.9961 26.6619 23.0022 26.6529C23.0082 26.644 23.0407 26.6593 23.0745 26.687C23.1246 26.7282 23.149 26.716 23.208 26.62C23.5258 26.1024 23.7141 25.8953 23.96 25.7928C24.0521 25.7544 24.0973 25.6952 24.1383 25.5594C24.2121 25.3153 24.2085 25.2313 24.1209 25.1603C24.0534 25.1056 24.0561 25.1028 24.1525 25.1274C24.2104 25.1423 24.2819 25.1562 24.3114 25.1583C24.3409 25.1605 24.3761 25.206 24.3897 25.2595C24.4033 25.313 24.4245 25.3567 24.4369 25.3567C24.4492 25.3567 24.5604 25.2713 24.6839 25.1669C25.0897 24.824 25.6712 24.0374 25.9682 23.4295C26.0258 23.3116 26.0931 23.2315 26.1346 23.2315C26.2519 23.2315 26.3998 23.0606 26.605 22.6882C26.7128 22.4926 26.8402 22.2975 26.888 22.2547C26.9358 22.2119 26.9749 22.1587 26.9749 22.1365C26.9749 22.1143 27.0434 21.946 27.1272 21.7625C27.2487 21.4962 27.2754 21.3931 27.2594 21.2521C27.2417 21.0974 27.2486 21.078 27.3153 21.0952C27.3775 21.1113 27.457 20.9853 27.7518 20.4027C27.9501 20.011 28.1122 19.6575 28.1121 19.6171C28.112 19.5768 28.0741 19.4824 28.0279 19.4073C27.9187 19.2302 27.9188 19.1492 28.028 19.1775C28.0744 19.1895 28.1123 19.1868 28.1123 19.1715C28.1123 19.09 27.9675 18.8888 27.8176 18.7618L27.647 18.6174L27.7343 18.416L27.8217 18.2145L27.9417 18.4207C28.0077 18.5342 28.1194 18.6811 28.19 18.7473L28.3184 18.8675L28.3451 18.7626C28.3597 18.7048 28.3513 18.5851 28.3265 18.4964C28.2582 18.2532 28.2704 18.0867 28.3626 18.0041C28.4945 17.886 28.5151 17.6999 28.4115 17.5614C28.2989 17.4107 28.3002 17.3978 28.4282 17.3978C28.5117 17.3978 28.5335 17.3767 28.5335 17.2963C28.5335 17.2405 28.5125 17.142 28.4868 17.0775C28.4467 16.9769 28.436 16.971 28.4116 17.0356C28.3867 17.1018 28.3663 17.0928 28.2467 16.9627C28.0789 16.7803 27.9453 16.7615 27.9768 16.9248C28.0037 17.064 27.9153 17.022 27.8558 16.8672C27.8255 16.7885 27.8319 16.7363 27.8804 16.6629C27.9613 16.5409 28.0789 16.5375 28.2363 16.6526C28.4549 16.8124 28.4627 16.6992 28.2516 16.4333C28.0815 16.2192 28.0456 16.1925 28.0041 16.2487C27.9774 16.2848 27.915 16.3143 27.8654 16.3143C27.7631 16.3143 27.7578 16.3291 27.8189 16.4421C27.8562 16.5109 27.8483 16.5227 27.7653 16.5227C27.6803 16.5227 27.6611 16.5552 27.6114 16.7831C27.5801 16.9264 27.5454 17.1341 27.5342 17.2447L27.514 17.4459L27.6551 17.4323C27.7933 17.4189 27.7972 17.4229 27.8357 17.6205C27.8624 17.7572 27.8605 17.8446 27.8299 17.8913C27.7839 17.9615 27.7618 17.9633 27.5494 17.9142C27.4405 17.889 27.4317 17.8949 27.4575 17.9754C27.4895 18.0752 27.4695 18.0839 27.3515 18.0215C27.2771 17.982 27.2743 17.987 27.3175 18.0809C27.3549 18.1621 27.3489 18.2268 27.2888 18.3923C27.247 18.5073 27.1948 18.5977 27.1728 18.5933C27.1509 18.5889 27.1242 18.6088 27.1136 18.6374C27.1013 18.6706 27.1338 18.6895 27.2031 18.6895C27.2689 18.6895 27.3119 18.7129 27.3119 18.7486C27.3119 18.8318 27.241 18.8474 26.9689 18.8241C26.6959 18.8007 26.7044 18.7897 26.657 19.2312C26.6205 19.5717 26.5332 19.7917 26.3908 19.9025C26.2837 19.9857 26.2796 20.0053 26.2723 20.4529C26.2679 20.7231 26.2468 20.9228 26.2219 20.931C26.1984 20.9387 26.1431 20.926 26.0991 20.9027C26.0446 20.8739 26.0051 20.8739 25.9759 20.9028C25.9466 20.9318 25.8854 20.9258 25.7843 20.884L25.6358 20.8226L25.6103 20.9489C25.5714 21.1413 25.579 21.1897 25.6479 21.1897C25.7416 21.1897 25.7302 21.2163 25.5069 21.518C25.3946 21.6698 25.268 21.8536 25.2256 21.9266L25.1486 22.0593L25.0451 21.9787C24.8789 21.8494 24.8214 21.8725 24.8511 22.0565C24.8783 22.2246 24.7964 22.4782 24.6707 22.6157C24.5905 22.7033 24.6067 22.7244 24.8404 22.8355C24.9882 22.9058 25.0182 22.9412 25.0296 23.0589C25.037 23.1359 25.0276 23.192 25.0085 23.1837C24.9895 23.1754 24.8718 23.1155 24.7471 23.0506C24.5727 22.96 24.4873 22.9388 24.3785 22.959C24.291 22.9752 24.2367 22.9686 24.2367 22.9417C24.2367 22.9178 24.1621 22.8982 24.071 22.8982C23.8341 22.8982 23.6841 22.8345 23.7177 22.748C23.7364 22.6999 23.7264 22.6843 23.6853 22.6975C23.6526 22.708 23.6001 22.7959 23.5686 22.8927C23.5104 23.0717 23.4562 23.0938 23.3776 22.9705C23.344 22.9178 23.3563 22.8783 23.4311 22.7996C23.4845 22.7433 23.5218 22.6647 23.5139 22.6248C23.499 22.5497 23.2029 22.4231 23.1366 22.4636C23.0832 22.4963 23.0907 22.6355 23.151 22.731C23.192 22.7961 23.1914 22.8236 23.1481 22.8659C23.1039 22.909 23.0833 22.9051 23.0383 22.8449C22.9886 22.7783 22.9803 22.7776 22.9569 22.8378C22.9426 22.8748 22.9309 22.9319 22.9309 22.9647C22.9309 23.0489 23.1878 23.1942 23.2835 23.1641C23.3605 23.14 23.4344 23.2043 23.4357 23.2968C23.4361 23.3211 23.37 23.3724 23.2889 23.4107C23.1221 23.4894 23.0794 23.6324 23.2347 23.5922C23.3423 23.5643 23.4785 23.6659 23.4785 23.7741C23.4785 23.8697 23.3194 24.0649 23.2415 24.0649C23.1451 24.0649 22.8943 23.8491 22.9184 23.7869C22.9302 23.7565 22.9758 23.7316 23.0196 23.7316C23.1371 23.7316 23.1171 23.6575 22.9624 23.5204C22.8871 23.4536 22.7757 23.352 22.7147 23.2946C22.6252 23.2103 22.595 23.2008 22.5576 23.2454C22.4918 23.3238 22.561 23.5328 22.7176 23.7283C22.8373 23.8778 22.8836 24.0561 22.8194 24.1196C22.8044 24.1344 22.6631 24.0767 22.5053 23.9914C22.2909 23.8753 22.2064 23.8481 22.1706 23.8836C22.1347 23.9191 22.1392 23.956 22.1882 24.0301C22.2243 24.0845 22.2665 24.2413 22.2821 24.3783C22.3135 24.6558 22.4034 24.8442 22.5223 24.8815C22.5834 24.9007 22.5949 24.9309 22.5736 25.0169C22.5585 25.0777 22.5209 25.1531 22.4901 25.1843C22.4429 25.232 22.4296 25.2273 22.4065 25.1552C22.3913 25.1079 22.3408 25.0573 22.2943 25.0427C22.2477 25.0281 22.1894 24.9723 22.1648 24.9188C22.1399 24.8648 22.0954 24.8309 22.0645 24.8427C22.0243 24.8579 22.0054 24.8083 21.996 24.6625L21.983 24.4613L21.6336 24.383C21.4415 24.34 21.273 24.3158 21.2593 24.3294C21.2456 24.343 21.2654 24.4008 21.3033 24.4581C21.3988 24.6021 21.3897 24.6656 21.288 24.565C21.2416 24.5191 21.1753 24.4816 21.1405 24.4816C21.092 24.4816 21.0973 24.5014 21.1639 24.5673C21.2294 24.632 21.2473 24.6955 21.2376 24.8277C21.2268 24.9749 21.2091 25.0047 21.126 25.0164C21.0716 25.024 20.9721 25.0076 20.9048 24.9801C20.805 24.9391 20.7825 24.9048 20.7825 24.7936C20.7825 24.7055 20.7579 24.6479 20.7132 24.6309C20.604 24.5895 20.5984 24.6275 20.6716 24.9158C20.7673 25.2923 20.7635 25.3232 20.6245 25.3074C20.5069 25.294 20.4988 25.2735 20.5548 25.1311C20.5771 25.0745 20.5715 25.0603 20.5358 25.0821C20.5056 25.1006 20.4401 25.0617 20.3718 24.9848C20.2274 24.822 20.1506 24.8205 20.1506 24.9804C20.1506 25.0666 20.1335 25.0976 20.0941 25.0826C20.0631 25.0709 20.0132 25.0904 19.9833 25.1262C19.9455 25.1712 19.9132 25.1782 19.8777 25.1492C19.8401 25.1183 19.8137 25.1502 19.7772 25.2708C19.7496 25.3619 19.6954 25.4426 19.6548 25.4531C19.5882 25.4704 19.588 25.4725 19.6531 25.4769C19.6923 25.4796 19.7361 25.463 19.7504 25.4401C19.7963 25.3666 19.9333 25.3955 19.962 25.4847C19.9797 25.5399 19.9631 25.6001 19.9159 25.6517C19.8453 25.7288 19.8384 25.7292 19.7603 25.6592C19.6814 25.5886 19.6738 25.5915 19.5459 25.7408L19.4134 25.8955L19.3081 25.8146C19.1788 25.7152 19.1396 25.7117 19.1396 25.7993C19.1396 25.8542 19.1279 25.8573 19.0775 25.816C19.026 25.7737 19.0001 25.7906 18.9259 25.915C18.8767 25.9976 18.8232 26.0651 18.8072 26.0651C18.7911 26.0651 18.7551 25.9807 18.7272 25.8776C18.6993 25.7745 18.6579 25.6901 18.6351 25.6901C18.6082 25.6901 18.6083 25.7228 18.6356 25.7838C18.6984 25.9245 18.5909 26.4077 18.5081 26.357C18.4677 26.3323 18.4419 26.2222 18.4307 26.0259C18.4215 25.8641 18.3971 25.7317 18.3765 25.7317C18.356 25.7317 18.3392 25.7505 18.3392 25.7734C18.3392 25.7963 18.2817 25.8151 18.2115 25.8151C18.0589 25.8151 18.0057 25.9121 18.1011 26.0164C18.1571 26.0776 18.1601 26.1152 18.1199 26.2451C18.0698 26.4064 17.9919 26.4296 17.9665 26.2908C17.9439 26.1672 17.8787 26.1184 17.8326 26.1904C17.7797 26.2731 17.7806 26.5118 17.8338 26.5444C17.9109 26.5915 17.6337 26.7807 17.5089 26.7662C17.4048 26.754 17.3906 26.768 17.3677 26.9068C17.3536 26.9915 17.3204 27.0867 17.2939 27.1183C17.2614 27.157 17.2579 27.2182 17.2831 27.3052C17.3447 27.5176 17.2402 27.8569 17.113 27.8569C17.0167 27.8569 17.0085 27.7624 17.0985 27.6886C17.2003 27.605 17.159 27.461 17.0333 27.461C16.8824 27.461 16.8736 27.266 17.0099 26.9457C17.1177 26.6923 17.1417 26.5613 17.0898 26.5099C17.0746 26.4948 17.0367 26.5034 17.0056 26.5289C16.961 26.5655 16.9489 26.5544 16.9485 26.4765C16.9482 26.4221 16.9363 26.3347 16.922 26.2822C16.8963 26.1871 16.8959 26.1871 16.836 26.2717C16.7986 26.3246 16.7289 26.3568 16.6518 26.3568C16.5351 26.3568 16.4797 26.4167 16.5682 26.4471C16.5905 26.4547 16.5525 26.5501 16.4839 26.6589C16.3301 26.9029 16.1918 26.9322 16.1889 26.7214C16.1878 26.6469 16.1627 26.5297 16.133 26.461L16.079 26.336L16.0498 26.4506C16.0153 26.5863 15.938 26.6036 15.938 26.4757C15.938 26.3878 15.9292 26.3867 15.4431 26.4115C15.1708 26.4254 14.8354 26.4672 14.6976 26.5044C14.4304 26.5765 14.0686 26.7418 13.948 26.8469C13.8812 26.905 13.8669 26.9009 13.7868 26.8002C13.7034 26.6954 13.3288 26.4159 13.3128 26.4465C13.1886 26.6833 13.1417 26.6907 13.0789 26.4834C13.0095 26.2541 12.8836 26.2256 12.5834 26.3713L12.3574 26.4809V26.3588C12.3574 26.1856 12.276 26.1558 12.1682 26.2896L12.0772 26.4025L12.0339 26.3067L11.9907 26.2109L11.9605 26.3047C11.8943 26.5109 11.5656 26.3277 11.6197 26.1147C11.6465 26.0088 11.6447 26.0074 11.567 26.077C11.4904 26.1456 11.4827 26.145 11.4106 26.0663C11.3251 25.9728 10.9304 25.8151 10.7819 25.8151C10.7021 25.8151 10.6875 25.833 10.7028 25.9122C10.7237 26.0206 10.5901 26.3658 10.5588 26.2839C10.5479 26.2552 10.5121 26.2318 10.4793 26.2318C10.3998 26.2318 10.4035 26.1064 10.4865 25.9892C10.5472 25.9035 10.5473 25.8858 10.4873 25.7952C10.3825 25.637 10.1636 25.4924 9.85445 25.3774C9.69698 25.3187 9.49478 25.2292 9.40518 25.1783C9.26688 25.0998 9.2293 25.0939 9.15622 25.1387C9.08056 25.1852 9.06569 25.1802 9.03355 25.0971C8.98468 24.9706 8.88383 24.888 8.61731 24.7558C8.49489 24.6951 8.35874 24.6099 8.3148 24.5664C8.23641 24.4889 8.23367 24.4894 8.16564 24.592C8.12751 24.6496 8.04031 24.72 7.97186 24.7484C7.83954 24.8035 7.5972 24.7892 7.5972 24.7263C7.5972 24.7056 7.65407 24.5891 7.72357 24.4672C7.87973 24.1935 7.88104 24.1483 7.73297 24.1483C7.6686 24.1483 7.57853 24.1228 7.53287 24.0917C7.48716 24.0606 7.37865 24.0123 7.29179 23.9843C7.18614 23.9503 7.12758 23.9035 7.11511 23.8429C7.02926 23.4263 7.02576 23.4188 6.92458 23.4301C6.87041 23.4362 6.78224 23.4127 6.72861 23.378C6.60236 23.2961 6.45248 23.2728 6.38659 23.3248C6.33508 23.3654 6.33162 23.3608 6.27281 23.1723C6.26131 23.1354 6.30116 23.0967 6.37813 23.0702C6.4462 23.0467 6.50193 23.0078 6.50193 22.9837C6.50193 22.9219 6.41124 22.9316 6.31486 23.0037C6.22167 23.0734 6.05595 23.0848 6.01804 23.0241C6.00401 23.0016 6.01311 22.9452 6.0383 22.8987C6.07638 22.8283 6.06164 22.7865 5.95055 22.6498C5.86108 22.5397 5.82456 22.457 5.83985 22.3993C5.85695 22.3346 5.83256 22.2978 5.74203 22.2515C5.67573 22.2175 5.61107 22.1898 5.59834 22.1898C5.58558 22.1898 5.57517 22.2742 5.57517 22.3773C5.57517 22.5088 5.55782 22.5648 5.51713 22.5648C5.43448 22.5648 5.35077 22.4521 5.37912 22.379C5.3929 22.3435 5.3664 22.2916 5.31703 22.2574C5.24559 22.2079 5.23897 22.1829 5.27815 22.1104C5.31711 22.0384 5.31336 22.0231 5.25671 22.0231C5.1808 22.0231 4.94329 21.8689 4.94329 21.8196C4.94329 21.8025 5.01908 21.7463 5.11175 21.6948C5.32571 21.5758 5.38869 21.4696 5.29828 21.3801C5.26189 21.3441 5.19921 21.3147 5.15898 21.3147C5.1187 21.3147 5.04899 21.2866 5.004 21.2522C4.92657 21.1931 4.92615 21.1867 4.99595 21.133C5.15754 21.0088 5.01221 20.8821 4.65844 20.8388C4.36508 20.8029 4.31141 20.7791 4.31141 20.6852C4.31141 20.6307 4.34132 20.6063 4.4083 20.6063C4.52832 20.6063 4.60629 20.5333 4.60629 20.4209C4.60629 20.3574 4.57908 20.3355 4.50022 20.3355C4.41213 20.3355 4.40497 20.3434 4.45809 20.3817C4.54462 20.4443 4.53893 20.523 4.44794 20.523C4.33138 20.523 4.26693 20.3896 4.3374 20.2942C4.4345 20.1628 4.4072 19.8537 4.26929 19.5229C4.19717 19.3499 4.14291 19.1442 4.14291 19.0438C4.14291 18.8811 4.13537 18.8692 4.04307 18.8866C3.96211 18.902 3.93481 18.8816 3.89871 18.7792C3.86391 18.6805 3.86716 18.6423 3.91354 18.6043C3.96442 18.5625 3.964 18.5431 3.91046 18.4674C3.87613 18.419 3.84803 18.346 3.84803 18.3052C3.84803 18.2154 3.83455 18.2144 3.68202 18.2924C3.57148 18.3489 3.56069 18.3475 3.5414 18.2745C3.52986 18.2309 3.44325 18.1424 3.34885 18.0778C3.16012 17.9486 3.13396 17.8632 3.25107 17.7584C3.34678 17.6727 3.42387 17.6712 3.54178 17.7529C3.62616 17.8114 3.63707 17.8096 3.68016 17.73C3.71765 17.6606 3.7099 17.6171 3.6409 17.5102C3.46553 17.2384 3.44885 17.1891 3.50319 17.103C3.55058 17.0279 3.54073 17.0227 3.35129 17.0227C3.04462 17.0227 3.02494 16.9715 3.2167 16.6732C3.3638 16.4444 3.37463 16.4097 3.32302 16.3317C3.24079 16.2075 3.30815 16.1073 3.42547 16.1792C3.50088 16.2255 3.51103 16.2216 3.51103 16.1464C3.51103 16.0499 3.36641 15.7505 3.30027 15.71C3.27298 15.6934 3.28663 15.6459 3.33684 15.5828C3.38111 15.5271 3.43044 15.3746 3.44717 15.2419C3.46381 15.1098 3.49405 14.9709 3.5144 14.9332C3.53959 14.8865 3.53049 14.8475 3.48588 14.8108C3.43904 14.7724 3.42783 14.7175 3.44662 14.6184C3.46629 14.5148 3.45648 14.4735 3.40799 14.4551C3.37223 14.4416 3.35276 14.4148 3.36468 14.3957C3.37661 14.3766 3.3007 14.3027 3.19597 14.2314C3.09121 14.1602 3.00552 14.0916 3.00552 14.0791C3.00552 14.0666 3.09879 14.069 3.21278 14.0845C3.39758 14.1097 3.42535 14.1029 3.46873 14.0228C3.52034 13.9274 3.48971 13.6235 3.4245 13.5836C3.37383 13.5526 3.17402 13.154 3.17402 13.084C3.17402 12.9897 3.25255 12.9718 3.38343 13.0364C3.5425 13.1149 3.60299 13.0538 3.58972 12.8283C3.57995 12.6625 3.67658 12.4126 3.74554 12.4255C3.76715 12.4296 3.81804 12.4456 3.85856 12.4612C3.96805 12.5034 3.95343 12.3641 3.82941 12.1836C3.74196 12.0563 3.73459 12.0222 3.78017 11.9552C3.93683 11.7251 4.12033 10.8922 4.07079 10.6359C4.04686 10.512 4.11789 10.4204 4.28719 10.3567C4.40122 10.3138 4.4265 10.2543 4.35038 10.2078C4.32106 10.1898 4.33525 10.1483 4.39065 10.09C4.43973 10.0383 4.51075 9.85307 4.55734 9.65514C4.60199 9.4655 4.67348 9.27215 4.71619 9.22544L4.79387 9.14052L4.86827 9.23136C4.92278 9.29795 4.94784 9.3072 4.96212 9.2659C5.00581 9.13943 5.06971 8.70281 5.0706 8.5248L5.07152 8.33454L5.14828 8.43325L5.22503 8.53197L5.29479 8.3595C5.38797 8.1291 5.38325 8.08547 5.25923 8.0296C5.1233 7.96834 5.1075 7.71615 5.23531 7.64848C5.28009 7.62477 5.32874 7.56318 5.34344 7.5116C5.42807 7.21482 5.53305 7.08269 5.53305 7.27299C5.53305 7.37879 5.70635 7.45092 5.83846 7.40013C5.89061 7.38009 5.98935 7.30508 6.05793 7.23349C6.17302 7.11331 6.17875 7.0931 6.13241 6.9716C6.07129 6.8115 6.09075 6.78575 6.22643 6.84692C6.28364 6.87267 6.33832 6.88042 6.34797 6.86409C6.35757 6.84779 6.3403 6.68441 6.30955 6.50106C6.23111 6.0334 6.2282 6.05065 6.37345 6.12494C6.44182 6.15991 6.51537 6.21966 6.5369 6.25771C6.61167 6.38992 6.6864 6.14724 6.70519 5.71104L6.72305 5.29609L6.93781 5.05474C7.05593 4.92202 7.16962 4.81343 7.19047 4.81343C7.21133 4.81343 7.20358 4.84297 7.17329 4.8791C7.12762 4.93356 7.12851 4.95127 7.17864 4.98265C7.21192 5.00348 7.27228 5.02077 7.31285 5.02115C7.35556 5.02152 7.38657 5.05336 7.38657 5.09695C7.38657 5.13828 7.44955 5.2325 7.52655 5.3063C7.66287 5.43702 7.66839 5.43847 7.73869 5.36163C7.77838 5.31826 7.94759 5.22117 8.11475 5.14591C8.4793 4.98177 8.4673 4.99073 8.40529 4.92939C8.33115 4.85605 8.34374 4.78751 8.46452 4.60695C8.53482 4.50186 8.5641 4.41456 8.547 4.36122C8.52737 4.30005 8.54401 4.27105 8.61065 4.25009C8.67805 4.22896 8.73513 4.25463 8.83619 4.35151L8.97154 4.48123L9.0742 4.37285C9.17808 4.26321 9.86249 3.91506 9.9004 3.95261C9.91169 3.96377 9.98398 3.93231 10.0611 3.88273C10.1381 3.8331 10.308 3.72738 10.4386 3.64783C10.5691 3.56824 10.7128 3.44636 10.7577 3.37698L10.8394 3.2508L10.8401 3.36539C10.8405 3.42844 10.856 3.47999 10.8746 3.47999C10.9535 3.47999 11.0032 3.37685 10.9799 3.26134C10.9633 3.17921 10.9746 3.12592 11.0138 3.10137C11.1129 3.03928 11.1779 3.05895 11.1779 3.15109C11.1779 3.21813 11.1953 3.23193 11.2516 3.20947C11.2921 3.1933 11.4011 3.17013 11.4938 3.158C11.5865 3.14588 11.7078 3.09612 11.7633 3.04754L11.8643 2.95911L11.8422 3.04829L11.8201 3.13742L12.015 3.05391C12.1222 3.00795 12.2737 2.91157 12.3515 2.83973L12.4931 2.70909L12.4757 2.86681C12.4537 3.06491 12.5467 3.06475 12.6728 2.86648C12.7604 2.72864 12.8543 2.70013 12.9879 2.77089C13.046 2.80164 13.1318 2.78172 13.3327 2.69097L13.6001 2.57012L13.718 2.68063L13.836 2.79118L15.5505 2.7801C16.4935 2.77401 17.3618 2.75839 17.4802 2.74543C17.674 2.72414 17.6977 2.73051 17.7186 2.80993C17.7319 2.86019 17.7151 2.92461 17.6795 2.95978C17.6245 3.01424 17.6302 3.02637 17.7282 3.0632C17.7892 3.08616 17.8884 3.10496 17.9486 3.10496C18.0087 3.10496 18.1429 3.15417 18.2466 3.21434C18.415 3.31193 18.4394 3.31643 18.4736 3.25601C18.5252 3.16463 18.6215 3.17055 18.6744 3.26839C18.7541 3.41569 18.8493 3.4864 18.9057 3.44011C18.9685 3.38856 19.0132 3.42498 19.0132 3.5277C19.0132 3.59308 19.0273 3.59687 19.1183 3.55583C19.2039 3.51724 19.2378 3.52128 19.3007 3.57754C19.3432 3.61558 19.4179 3.64667 19.4669 3.64667C19.5158 3.64667 19.5691 3.66792 19.5853 3.69388C19.6051 3.72559 19.7098 3.73321 19.9036 3.71717C20.1604 3.69588 20.1972 3.70217 20.2361 3.77413C20.2721 3.84047 20.3256 3.85502 20.534 3.85502C20.6737 3.85502 20.8247 3.8356 20.8695 3.81189C20.9686 3.75942 20.9738 3.80418 20.8835 3.93177C20.8464 3.98419 20.8226 4.03307 20.8308 4.04045C20.839 4.04778 20.9973 4.11329 21.1826 4.18604C21.368 4.25876 21.7471 4.43702 22.0252 4.5822C22.4553 4.80672 23.1227 5.10661 23.4118 5.20529C23.4713 5.22558 23.4802 5.24513 23.4455 5.27942C23.4108 5.31371 23.4415 5.34709 23.5622 5.40614C23.6523 5.45022 23.7774 5.55519 23.8403 5.63949C24.2009 6.12265 24.3777 6.21779 24.7528 6.1307C24.886 6.09978 24.995 6.09011 24.995 6.10924C24.995 6.12836 24.9632 6.21008 24.9243 6.29079C24.8853 6.37146 24.8617 6.44272 24.8716 6.4491C24.8816 6.45547 24.9781 6.52135 25.0861 6.59548C25.1942 6.66957 25.3127 6.73024 25.3494 6.73024C25.3862 6.73024 25.4163 6.74899 25.4163 6.77191C25.4163 6.79483 25.3863 6.81358 25.3496 6.81358C25.2154 6.81358 25.3207 6.92088 25.5744 7.04277C25.7175 7.11152 25.8677 7.20057 25.9082 7.2407C25.9773 7.309 25.9774 7.31362 25.9097 7.31362C25.87 7.31362 25.8375 7.32787 25.8375 7.34529C25.8375 7.40884 26.3038 8.7799 26.4533 9.15614C26.7397 9.87653 27.0102 10.3344 27.3755 10.7169C27.4796 10.8259 27.5647 10.9369 27.5647 10.9636C27.5647 10.9903 27.5078 11.0355 27.4383 11.0639C27.2967 11.122 27.2779 11.1926 27.3817 11.2776C27.4201 11.309 27.5133 11.4622 27.5888 11.618C27.7208 11.8903 27.7527 12.0278 27.9226 13.0557C28.0024 13.5388 28.1055 13.833 28.2857 14.092C28.3628 14.2027 28.4705 14.382 28.5251 14.4904C28.5797 14.5987 28.7216 14.7738 28.8403 14.8794C29.0548 15.0702 29.4484 15.2982 29.4908 15.2563C29.503 15.2443 29.4725 14.9196 29.4231 14.5347C29.3737 14.1498 29.267 13.1693 29.1859 12.3557C29.1049 11.5421 29.0101 10.6898 28.9754 10.4617C28.8334 9.53013 28.8437 9.56084 28.4612 8.92771C28.264 8.60147 28.0072 8.14702 27.8904 7.91784C27.5837 7.31612 26.638 5.94376 25.911 5.04544C25.4315 4.45306 24.3815 3.43098 23.8479 3.03741C23.3445 2.66601 22.7293 2.30577 22.2674 2.1118C21.9819 1.99195 21.962 1.98883 21.962 2.06429C21.962 2.15834 21.7607 2.22889 21.7124 2.15167C21.6901 2.11584 21.6482 2.11575 21.5453 2.15121C21.4468 2.18518 21.395 2.1858 21.3624 2.15351C21.3054 2.09713 21.3923 1.98066 21.4932 1.9782C21.5364 1.97716 21.5181 1.95312 21.444 1.91336C20.9637 1.65576 18.6613 0.936161 18.5788 1.01783C18.5192 1.07671 17.4884 1.07776 17.2751 1.01917C17.188 0.995249 16.994 0.892491 16.8439 0.790899C16.5864 0.616469 16.5444 0.602676 16.0966 0.545046C15.481 0.465832 14.4756 0.435329 13.9146 0.478916ZM8.69246 4.56341C8.71727 4.60924 8.74701 4.64675 8.75859 4.64675C8.77018 4.64675 8.75939 4.60924 8.73458 4.56341C8.70977 4.51757 8.68003 4.48007 8.66845 4.48007C8.65686 4.48007 8.66764 4.51757 8.69246 4.56341ZM13.8318 4.98469C13.3702 5.03648 12.5419 5.21416 11.9891 5.37993C10.3488 5.87172 9.17104 6.58369 7.95328 7.81954C7.36875 8.41275 7.06831 8.77686 6.63918 9.41225C6.41798 9.73969 6.33343 9.90191 6.33343 9.99875C6.33343 10.0724 6.28604 10.2668 6.22812 10.4308C6.1702 10.5948 6.12281 10.7762 6.12281 10.8339C6.12281 10.8917 6.10385 10.9389 6.08068 10.9389C6.05751 10.9389 6.03855 10.9749 6.03855 11.0188C6.03855 11.0628 5.95325 11.1976 5.84899 11.3185C5.64864 11.5506 5.61566 11.6606 5.72771 11.7226C5.78546 11.7546 5.77249 11.7781 5.64346 11.8755C5.51072 11.9756 5.49092 12.0133 5.49092 12.166C5.49092 12.3197 5.47947 12.3411 5.39884 12.3381C5.17633 12.3302 5.06866 12.6953 4.98833 13.7308C4.89885 14.8838 4.88954 15.1892 4.94384 15.1892C4.98373 15.1892 4.98306 15.2043 4.94098 15.2545C4.89645 15.3076 4.89624 15.347 4.93971 15.466C4.99523 15.6179 4.96802 15.7119 4.89952 15.6047C4.82774 15.4925 4.86304 16.1127 4.98373 17.0852C5.00935 17.2915 5.03858 17.5503 5.04873 17.6605C5.05889 17.7706 5.10345 17.9063 5.14777 17.962C5.19276 18.0186 5.24146 18.1693 5.25805 18.3035C5.2744 18.4356 5.31172 18.5999 5.34096 18.6687C5.37019 18.7374 5.43763 18.9062 5.49088 19.0437C5.80518 19.8554 6.31443 20.7217 6.77625 21.2301C6.91093 21.3784 7.10665 21.6315 7.2112 21.7927C7.6544 22.4758 8.02077 22.8462 8.19824 22.7905C8.264 22.7698 8.27457 22.7803 8.25368 22.8454C8.23476 22.9044 8.25557 22.9384 8.3317 22.9727C8.38882 22.9985 8.57615 23.1516 8.74794 23.3131C8.94504 23.4983 9.0953 23.6066 9.15516 23.6066C9.20736 23.6066 9.31516 23.6632 9.39481 23.7323C9.47443 23.8015 9.70439 23.9406 9.90588 24.0414C10.1073 24.1422 10.3094 24.2524 10.355 24.2863C10.4261 24.3392 10.444 24.3396 10.4814 24.289C10.5186 24.2387 10.5525 24.2406 10.7145 24.3023C10.9063 24.3752 10.977 24.4323 10.943 24.4867C10.9327 24.5031 10.9956 24.5393 11.0827 24.567C11.1698 24.5948 11.3525 24.6716 11.4887 24.7377C11.6713 24.8262 11.7904 24.8559 11.9415 24.8506C12.0847 24.8456 12.1707 24.8652 12.2272 24.9158C12.2716 24.9555 12.4185 25.0104 12.5538 25.0377C12.7758 25.0826 12.8071 25.0801 12.8759 25.0113C12.9257 24.9615 12.9987 24.9396 13.0865 24.948C13.202 24.9591 13.2195 24.9756 13.2104 25.0657L13.1998 25.1706L13.8844 25.2437C14.7001 25.3307 14.991 25.3332 15.3235 25.2558C15.4926 25.2165 15.5941 25.211 15.6395 25.239C15.6862 25.2677 15.9163 25.2418 16.4014 25.1533C17.1416 25.0182 17.4783 24.9205 17.782 24.7526C17.8857 24.6952 18.0286 24.6483 18.0995 24.6483C18.1703 24.6483 18.3391 24.6176 18.4744 24.58C18.6774 24.5237 18.7566 24.4726 18.9259 24.2894C19.0984 24.1027 19.1538 24.0677 19.2723 24.0703C19.4871 24.075 19.9532 23.9132 20.0656 23.7949C20.1204 23.7372 20.1834 23.6899 20.2057 23.6899C20.2279 23.6899 20.3858 23.5587 20.5565 23.3982C20.7273 23.2378 20.8951 23.1065 20.9295 23.1065C21.0005 23.1065 21.133 22.8266 21.1011 22.7441C21.072 22.6693 21.1416 22.676 21.2222 22.7558C21.2831 22.816 21.3078 22.8061 21.5041 22.6436C21.7594 22.4321 22.1406 22.0015 22.3761 21.6584C22.4693 21.5227 22.595 21.3796 22.6555 21.3404C22.8613 21.2071 23.4748 20.2155 23.4771 20.0125C23.4779 19.9479 23.502 19.8979 23.5324 19.8979C23.5621 19.8979 23.7151 19.6624 23.8726 19.3745C24.1361 18.8927 24.1553 18.8407 24.1136 18.7224C24.0567 18.5612 24.0564 18.5645 24.1275 18.5645C24.2033 18.5645 24.1685 18.418 24.057 18.2676C23.9832 18.168 23.9815 18.1475 24.0377 18.0412L24.0997 17.9243L24.1912 18.1291C24.3033 18.3798 24.3615 18.3272 24.3625 17.9742C24.3629 17.8228 24.382 17.7318 24.4158 17.7207C24.4493 17.7096 24.4673 17.6259 24.4654 17.4901C24.4637 17.3729 24.478 17.2865 24.497 17.2982C24.516 17.3098 24.5316 17.2515 24.5316 17.1686C24.5316 17.0856 24.5154 17.0277 24.4956 17.0398C24.4759 17.0519 24.4384 17.0155 24.4123 16.9589C24.362 16.8497 24.253 16.8125 24.2941 16.9185C24.3074 16.9529 24.3 16.9811 24.2776 16.9811C24.2551 16.9811 24.2367 16.9242 24.2367 16.8547C24.2367 16.6992 24.3357 16.6519 24.4489 16.7533C24.5498 16.8436 24.5548 16.782 24.4623 16.5901C24.4021 16.4652 24.3827 16.4526 24.3148 16.4945C24.2719 16.521 24.2367 16.5664 24.2367 16.5952C24.2367 16.6241 24.2212 16.6477 24.2023 16.6477C24.1704 16.6477 24.0243 17.1888 24.0256 17.3027C24.0259 17.3306 24.0522 17.3436 24.0839 17.3315C24.1567 17.3039 24.2006 17.5017 24.1506 17.6319C24.1248 17.699 24.0912 17.7183 24.0284 17.7021C23.9773 17.6889 23.9419 17.6998 23.9419 17.7287C23.9419 17.7557 23.9254 17.7676 23.9052 17.7553C23.885 17.7429 23.8582 17.8089 23.8456 17.9019C23.8329 17.9949 23.7918 18.1047 23.7541 18.1459C23.6912 18.2146 23.6911 18.223 23.7531 18.2465C23.8614 18.2877 23.7814 18.3562 23.6251 18.3562C23.4916 18.3562 23.4786 18.3684 23.4365 18.5333C23.3589 18.8372 23.2679 19.0515 23.1853 19.1256C23.1348 19.1707 23.0868 19.306 23.054 19.4953C23.0256 19.6595 22.9881 19.8097 22.9708 19.8292C22.9535 19.8487 22.8697 19.8646 22.7847 19.8646C22.6654 19.8646 22.6222 19.8851 22.5953 19.9542C22.5762 20.0035 22.5754 20.0595 22.5937 20.0788C22.6244 20.1113 22.2443 20.6533 22.171 20.6815C22.153 20.6884 22.1258 20.6743 22.1108 20.6502C22.0611 20.5708 22.0041 20.6044 22.0041 20.7133C22.0041 20.8374 21.9443 20.9642 21.8242 21.0947L21.7391 21.1872L21.8505 21.2291C21.9204 21.2553 21.962 21.3025 21.962 21.3554C21.962 21.4566 21.9511 21.4579 21.791 21.376C21.6974 21.3281 21.6454 21.3233 21.5825 21.3566C21.5363 21.381 21.4986 21.3848 21.4986 21.3651C21.4986 21.3453 21.4396 21.3377 21.3675 21.3482C21.2881 21.3597 21.2234 21.3463 21.2033 21.3141C21.18 21.2767 21.149 21.3012 21.0991 21.3968C21.0473 21.4957 21.0154 21.5202 20.9816 21.4867C20.9478 21.4533 20.9628 21.4118 21.0368 21.3339C21.1224 21.2438 21.1286 21.2209 21.0762 21.1882C20.9448 21.1059 20.8504 21.1666 20.8472 21.3355C20.8462 21.389 20.821 21.4149 20.7767 21.4077C20.6855 21.393 20.6453 21.504 20.7197 21.5652C20.752 21.5916 20.8173 21.6011 20.8647 21.5862C20.9932 21.5459 20.9764 21.68 20.8456 21.739C20.7185 21.7963 20.7115 21.8393 20.8246 21.8685C20.9365 21.8974 20.9308 21.9465 20.8016 22.0665C20.7189 22.1434 20.6786 22.1563 20.6251 22.1229C20.5294 22.0632 20.5088 21.9814 20.5894 21.9814C20.7027 21.9814 20.6625 21.8395 20.5277 21.7636C20.4139 21.6995 20.3972 21.6988 20.3749 21.7563C20.3611 21.7919 20.3745 21.8951 20.4048 21.9858C20.4776 22.2039 20.422 22.2647 20.2368 22.17C20.1631 22.1322 20.0814 22.1084 20.0554 22.117C19.9798 22.1419 20.0149 22.6166 20.097 22.6788C20.159 22.7258 20.1585 22.7372 20.0898 22.8122C20.0155 22.8934 20.0137 22.8931 19.9007 22.783C19.8258 22.71 19.7927 22.6405 19.8042 22.5807C19.8204 22.4971 19.8025 22.4885 19.584 22.4752C19.3539 22.4611 19.347 22.4638 19.3706 22.5566C19.3918 22.6397 19.3846 22.647 19.3171 22.6113C19.2488 22.5751 19.2413 22.5841 19.2562 22.6844C19.2764 22.8208 19.1857 22.9104 19.0471 22.891C18.9839 22.8821 18.9453 22.8446 18.9365 22.7836C18.9128 22.6179 18.8497 22.6835 18.8365 22.8878C18.8272 23.0303 18.8059 23.0857 18.7604 23.0857C18.7257 23.0857 18.6972 23.0656 18.6972 23.0411C18.6972 22.9833 18.5691 22.8565 18.5107 22.8565C18.4859 22.8565 18.4656 22.8951 18.4656 22.9423C18.4656 22.9895 18.4489 23.0179 18.4285 23.0055C18.4082 22.993 18.3342 23.0112 18.2642 23.0457C18.1144 23.1196 18.0481 23.2337 18.1738 23.2011C18.2274 23.1873 18.2549 23.2015 18.2549 23.243C18.2549 23.3152 18.1552 23.3641 18.0723 23.3326C18.0414 23.3208 17.9704 23.3478 17.9146 23.3925C17.8356 23.4558 17.7951 23.4641 17.7307 23.43C17.6724 23.3991 17.6437 23.3996 17.6329 23.4316C17.6245 23.4565 17.5934 23.4677 17.5639 23.4565C17.5343 23.4453 17.4858 23.4651 17.4561 23.5005C17.3819 23.5889 17.3433 23.5813 17.3074 23.4711L17.2769 23.3774L17.2458 23.4816C17.1757 23.716 17.1483 23.7712 17.1127 23.7495C17.0922 23.7369 17.0754 23.6639 17.0754 23.5872C17.0754 23.4642 17.0642 23.4501 16.9806 23.4684C16.7837 23.5112 16.764 23.5235 16.8137 23.5727C16.8459 23.6045 16.8476 23.6437 16.8192 23.6963C16.7691 23.789 16.6963 23.7975 16.6963 23.7108C16.6963 23.5969 16.6104 23.646 16.5844 23.7748C16.5561 23.9146 16.436 24.0003 16.3129 23.9684C16.2638 23.9557 16.2329 23.9693 16.2329 24.0034C16.2329 24.0339 16.2068 24.0848 16.175 24.1163C16.1431 24.1478 16.1171 24.2241 16.1171 24.2858C16.1171 24.4158 16.0403 24.5233 15.9474 24.5233C15.8913 24.5233 15.892 24.5133 15.9526 24.447C16.0287 24.3639 16.007 24.3074 15.9128 24.3431C15.8198 24.3784 15.8399 24.1737 15.938 24.0858C16.0407 23.9938 16.0543 23.8355 15.9564 23.8727C15.9046 23.8923 15.8966 23.8785 15.9191 23.8083C15.9423 23.736 15.9342 23.7241 15.8763 23.7461C15.8369 23.761 15.7542 23.7748 15.6924 23.7765C15.6306 23.7783 15.6033 23.7892 15.6319 23.8006C15.6655 23.814 15.641 23.8572 15.5627 23.9223C15.4036 24.0547 15.3642 24.0497 15.3325 23.8931C15.3097 23.7803 15.2973 23.7703 15.2398 23.8175C15.185 23.8625 15.1673 23.8623 15.1386 23.8165C15.0906 23.7395 14.1038 23.7835 13.7991 23.8762C13.5972 23.9376 13.5708 23.9378 13.5108 23.8784C13.4744 23.8424 13.3882 23.7841 13.3192 23.7488C13.2185 23.6973 13.1814 23.6948 13.1308 23.7365C13.0786 23.7793 13.0513 23.7678 12.9723 23.67C12.8838 23.5602 12.8616 23.5534 12.6635 23.5767C12.4712 23.5992 12.4479 23.593 12.427 23.5139C12.4064 23.4364 12.3954 23.433 12.3316 23.4851C12.274 23.5322 12.2557 23.5332 12.2411 23.4902C12.2274 23.4499 12.2086 23.4481 12.1657 23.4833C12.0895 23.5459 11.9467 23.4968 11.9146 23.3969C11.9005 23.3527 11.8758 23.32 11.8598 23.3241C11.8439 23.3282 11.736 23.2833 11.6202 23.2245C11.2798 23.0513 11.2305 23.0444 11.2305 23.1696C11.2305 23.302 11.2097 23.3243 11.1185 23.2898C11.0662 23.2699 11.0538 23.2328 11.072 23.1508C11.0896 23.0712 11.0736 23.0182 11.0163 22.9669C10.9184 22.8792 10.1689 22.4815 10.1017 22.4815C10.0752 22.4815 10.0183 22.443 9.9753 22.396C9.83001 22.2372 9.41765 21.9892 9.37274 22.0336C9.31815 22.0876 9.11961 22.0873 9.06485 22.0331C9.0362 22.0048 9.04425 21.949 9.08949 21.8625C9.15542 21.7364 9.15449 21.7328 9.04041 21.6689C8.72329 21.4915 8.67468 21.4482 8.61684 21.2924C8.57025 21.1667 8.5141 21.1073 8.38182 21.0439C8.28624 20.998 8.18906 20.9605 8.16589 20.9605C8.0738 20.9605 8.0484 20.8432 8.12802 20.7856C8.20022 20.7334 8.1942 20.7293 8.06024 20.7403C7.93079 20.7508 7.91179 20.7397 7.90138 20.648C7.89001 20.5474 7.89182 20.5466 7.95404 20.6247C8.0171 20.7039 8.01845 20.7037 8.01845 20.6143C8.01845 20.5512 7.9928 20.523 7.93529 20.523C7.85323 20.523 7.69219 20.2901 7.74089 20.242C7.76561 20.2175 7.64147 20.1099 7.58586 20.1076C7.56805 20.1069 7.56535 20.1532 7.57988 20.2105C7.59534 20.2714 7.58818 20.3146 7.56274 20.3146C7.51876 20.3146 7.38657 20.0868 7.38657 20.0109C7.38657 19.9884 7.33631 19.924 7.27489 19.8677L7.16322 19.7653L7.2842 19.6698C7.38737 19.5885 7.39706 19.5648 7.34992 19.5086C7.31955 19.4724 7.25691 19.431 7.21069 19.4164C7.14831 19.3969 7.13285 19.3657 7.15062 19.2957C7.17881 19.1846 7.08706 19.0877 6.88886 19.0193C6.74723 18.9705 6.71176 18.8814 6.81787 18.8411C6.85263 18.8279 6.87887 18.7837 6.87618 18.7429C6.87154 18.6727 6.87024 18.6727 6.85158 18.7438C6.8362 18.8026 6.81922 18.8085 6.7736 18.7711C6.73337 18.7381 6.72233 18.6696 6.73801 18.5501C6.7541 18.4276 6.72912 18.2822 6.65241 18.0528C6.5928 17.8745 6.54406 17.6936 6.54406 17.6509C6.54406 17.6083 6.51348 17.5617 6.47607 17.5476C6.42872 17.5296 6.41452 17.4883 6.42927 17.4119C6.45239 17.2923 6.36722 17.0449 6.31924 17.0924C6.2809 17.1303 6.04251 16.8553 6.04028 16.7706C6.03708 16.6503 6.13014 16.5997 6.21489 16.6756C6.28646 16.7396 6.29131 16.7382 6.29131 16.6528C6.29131 16.6027 6.26363 16.4962 6.22985 16.4161C6.19602 16.3361 6.17909 16.243 6.19223 16.2091C6.20866 16.1667 6.1881 16.1477 6.12601 16.1477C5.99946 16.1477 5.97381 16.0442 6.05574 15.8641C6.09429 15.7794 6.1204 15.6632 6.11379 15.6059C6.10617 15.5401 6.12116 15.5056 6.1544 15.5122C6.2194 15.5251 6.22319 15.3802 6.16084 15.265C6.12668 15.2019 6.12849 15.1304 6.16771 14.9919C6.19695 14.8886 6.22247 14.658 6.2245 14.4792C6.22766 14.1967 6.21573 14.1412 6.13334 14.0544C6.00995 13.9245 6.01366 13.9083 6.16173 13.9298C6.271 13.9456 6.28642 13.9343 6.29864 13.8288C6.30618 13.7635 6.2887 13.6168 6.25971 13.5029C6.17913 13.1861 6.1873 13.1335 6.31237 13.1645C6.40757 13.1882 6.41768 13.1784 6.41768 13.0628C6.41768 12.8867 6.5278 12.6855 6.60758 12.7158C6.68042 12.7434 6.68682 12.6954 6.62995 12.5475C6.59912 12.4672 6.61003 12.3963 6.67595 12.2488C6.77626 12.0246 6.92319 11.5195 6.92319 11.3991C6.92319 11.3536 6.9793 11.2754 7.04792 11.2252C7.1165 11.1751 7.16368 11.1197 7.15273 11.1022C7.14178 11.0846 7.16891 11.0079 7.21297 10.9317C7.25703 10.8554 7.3147 10.7274 7.34112 10.6472C7.36757 10.567 7.41778 10.464 7.45271 10.4182C7.50629 10.3482 7.52225 10.3447 7.55431 10.396C7.59825 10.4663 7.65609 10.3448 7.73747 10.0111C7.76894 9.8822 7.80441 9.81961 7.83866 9.83261C7.86772 9.84365 7.9224 9.79332 7.96048 9.72048C8.00821 9.62918 8.01483 9.58343 7.98189 9.57259C7.91162 9.54942 7.92388 9.37412 8.00017 9.31149C8.03644 9.28169 8.09638 9.19973 8.13333 9.12931C8.17065 9.05818 8.20844 9.02442 8.21834 9.05334C8.27344 9.21481 8.65033 8.98692 8.65033 8.79211C8.65033 8.70465 8.66588 8.68798 8.72902 8.70782C8.79811 8.72952 8.81125 8.70144 8.83678 8.47826C8.8658 8.22478 8.86618 8.22415 8.96244 8.28653C9.05448 8.3462 9.06211 8.34266 9.12576 8.21061C9.16249 8.1344 9.20491 8.00684 9.22004 7.92709C9.23828 7.83087 9.31212 7.72082 9.43947 7.59994C9.54503 7.49976 9.61804 7.44126 9.60174 7.46988C9.58358 7.5018 9.59752 7.52197 9.63779 7.52197C9.67389 7.52197 9.70347 7.54593 9.70347 7.57523C9.70347 7.60452 9.74012 7.65948 9.7849 7.69744C9.85175 7.75407 9.87462 7.75653 9.91262 7.71128C9.93806 7.68094 10.0622 7.6119 10.1885 7.55781C10.3612 7.48384 10.4183 7.43784 10.4189 7.37217C10.4193 7.32416 10.4575 7.25091 10.5039 7.20945C10.5502 7.16799 10.5881 7.11081 10.5881 7.08244C10.5881 6.99764 10.707 6.97885 10.7809 7.05193C10.836 7.1064 10.8637 7.11011 10.919 7.07027C11.0179 6.99918 11.5134 6.77204 11.5714 6.7712C11.5982 6.77083 11.7755 6.68803 11.9654 6.58719C12.1878 6.46906 12.3171 6.42113 12.3289 6.45243C12.339 6.47918 12.3681 6.44947 12.3934 6.38647C12.4188 6.32346 12.4696 6.27187 12.5062 6.27187C12.5429 6.27187 12.5623 6.28896 12.5493 6.30983C12.5362 6.33071 12.6341 6.32279 12.7668 6.29229C12.8995 6.26179 13.0215 6.24504 13.0379 6.25508C13.0544 6.26508 13.1753 6.22629 13.3067 6.16882C13.4865 6.09015 13.5396 6.07969 13.5215 6.1264C13.4894 6.20908 13.5954 6.20699 13.6653 6.12357C13.6978 6.08477 13.772 6.06302 13.8495 6.06948C13.9209 6.07548 14.0594 6.05719 14.1575 6.02885C14.3054 5.98614 14.3522 5.98752 14.4313 6.0369C14.502 6.08094 14.7403 6.10215 15.3483 6.11844C15.8001 6.13057 16.4318 6.16374 16.7521 6.19216C17.2836 6.23933 17.3326 6.25054 17.3141 6.32054C17.2991 6.37742 17.3228 6.40334 17.4058 6.42093C17.4674 6.43393 17.5926 6.47589 17.6841 6.51418C17.7757 6.55244 17.8865 6.57769 17.9306 6.57031C17.9761 6.56269 18.0379 6.59544 18.074 6.64636C18.1088 6.69557 18.1633 6.72599 18.195 6.71395C18.2267 6.70191 18.2707 6.72391 18.2928 6.76287C18.3148 6.80183 18.3452 6.8215 18.3603 6.80654C18.3755 6.79158 18.4912 6.82454 18.6175 6.8798C18.7438 6.93505 18.9067 6.98026 18.9795 6.98026C19.0523 6.98026 19.148 7.01264 19.1922 7.05218C19.2423 7.09698 19.3427 7.12448 19.4587 7.12511C19.6417 7.12611 19.6901 7.15615 19.5986 7.21207C19.573 7.22774 19.7192 7.32812 19.9251 7.43626C20.1302 7.54393 20.439 7.7219 20.6113 7.8317C20.7835 7.94155 21.0394 8.09468 21.18 8.17206C21.3204 8.24945 21.4232 8.31295 21.4084 8.31324C21.3935 8.31349 21.5378 8.47309 21.7291 8.6679C22.0543 8.99917 22.0881 9.02209 22.25 9.02209C22.4184 9.02209 22.4226 9.02547 22.399 9.14197C22.3785 9.24344 22.3981 9.28028 22.5265 9.38158C22.6099 9.44742 22.6792 9.52942 22.6807 9.5638C22.6821 9.59818 22.7626 9.68452 22.8597 9.75569C22.9568 9.82682 23.0317 9.90587 23.0261 9.93129C23.0135 9.9895 23.5515 11.4466 23.726 11.8266C23.7976 11.9826 23.9228 12.2095 24.0043 12.331C24.1701 12.5781 24.1816 12.6271 24.0864 12.6798C24.0276 12.7123 24.0296 12.732 24.1044 12.859C24.2197 13.0546 24.3072 13.4196 24.3634 13.9391C24.4364 14.6139 24.5094 14.8707 24.7773 15.3943C24.8798 15.5946 25.0935 15.8186 25.1355 15.7698C25.156 15.746 25.0537 13.9726 24.995 13.3349C24.9697 13.0599 24.9106 12.5958 24.8638 12.3036C24.7812 11.7882 24.7672 11.7491 24.3948 10.991C23.3256 8.81453 22.0291 7.27033 20.59 6.45905C20.3996 6.35175 20.2492 6.29058 20.2343 6.31442C20.2034 6.36384 19.8136 6.31917 19.8136 6.26621C19.8136 6.24641 19.8325 6.2302 19.8557 6.2302C20.0796 6.2302 19.4242 5.92197 18.5533 5.6177C18.1718 5.48444 17.9494 5.43102 17.7318 5.42047C17.2362 5.39639 17.0252 5.35088 16.7384 5.20625C16.5249 5.09849 16.36 5.05382 15.9893 5.00327C15.4776 4.93348 14.3729 4.92398 13.8318 4.98469ZM14.0268 6.91809C13.2456 7.04389 11.8662 7.47184 11.4103 7.72986C10.4125 8.29457 9.46238 9.36337 8.64907 10.8359L8.51035 11.087L8.62619 11.2602C8.70552 11.3787 8.75287 11.5198 8.77637 11.7072C8.79524 11.8578 8.84916 12.0455 8.89618 12.1243C8.96686 12.2428 8.96994 12.2631 8.91399 12.2419C8.86446 12.2231 8.85325 12.2341 8.87221 12.2829C8.90776 12.3746 8.83884 12.4165 8.55184 12.4776L8.30587 12.53L8.40006 12.6291C8.45184 12.6837 8.55778 12.7491 8.63546 12.7744C8.85932 12.8475 8.80763 12.9072 8.54822 12.8751C8.25145 12.8385 8.19437 12.8744 8.33237 13.0109C8.46553 13.1427 8.47071 13.2083 8.34492 13.1696C8.16134 13.1132 7.82758 13.099 7.71304 13.1427C7.60693 13.1833 7.5972 13.2055 7.59736 13.4068C7.59745 13.5277 7.6266 13.8038 7.66211 14.0204C7.73777 14.4819 7.74784 14.9544 7.68553 15.1163C7.64244 15.2282 7.64513 15.231 7.79834 15.2366C7.91343 15.2407 7.92716 15.2472 7.84995 15.261C7.67905 15.2913 7.663 15.3443 7.80298 15.416C7.87514 15.4529 7.9342 15.5014 7.9342 15.5237C7.9342 15.5749 7.80647 15.5754 7.725 15.5244C7.58245 15.4352 7.50877 15.6931 7.5945 15.981C7.61156 16.0383 7.60861 16.1313 7.58793 16.1877C7.56295 16.256 7.56783 16.3226 7.60255 16.3867C7.64408 16.4635 7.64391 16.5248 7.60179 16.6874C7.56531 16.8282 7.56198 16.916 7.59113 16.9698C7.62373 17.0301 7.61611 17.0587 7.55789 17.0946C7.51631 17.1203 7.47204 17.1803 7.45945 17.2279C7.43965 17.3028 7.45557 17.3144 7.57799 17.3144C7.77218 17.3144 7.81486 17.4041 7.7333 17.6409C7.67231 17.818 7.67323 17.8322 7.74986 17.8944C7.79447 17.9306 7.82446 17.9927 7.8165 18.0323C7.8085 18.072 7.92552 18.3585 8.07654 18.6692C8.29871 19.1262 8.40032 19.2847 8.60896 19.4996C8.7508 19.6457 8.92326 19.7884 8.99226 19.8166C9.14834 19.8806 9.21073 19.998 9.32059 20.4348C9.41908 20.8262 9.52258 20.9961 9.69984 21.0572C9.80381 21.0931 9.84404 21.0841 9.96085 20.9988C10.1491 20.8614 10.208 20.8718 10.0671 21.0174L9.95146 21.1367L10.0791 21.162C10.1787 21.1816 10.2353 21.2372 10.3364 21.4143C10.5188 21.734 10.5576 21.7586 10.7099 21.6513L10.8347 21.5634L10.8622 21.6488C10.9064 21.7866 11.0485 21.8903 11.2354 21.921C11.4572 21.9574 11.6231 22.0413 11.6596 22.1354C11.6824 22.1941 11.7037 22.1746 11.7651 22.039C11.8527 21.8455 11.9008 21.8175 12.0966 21.8462C12.197 21.8609 12.2294 21.8837 12.2125 21.9274C12.1995 21.9609 12.1889 22.0055 12.1889 22.0265C12.1889 22.0476 12.1499 22.1034 12.1022 22.1505C12.052 22.2002 12.0387 22.2331 12.0706 22.2289C12.2864 22.2003 12.4167 22.2402 12.5554 22.3773C12.6365 22.4575 12.7163 22.5232 12.7328 22.5232C12.7493 22.5232 12.8173 22.4669 12.8839 22.3981C13.0279 22.2496 13.1154 22.2378 13.1163 22.3669C13.1174 22.5235 13.171 22.5624 13.3806 22.5582C13.5304 22.5552 13.579 22.5384 13.579 22.4894C13.579 22.3822 13.7464 22.0741 13.8197 22.0463C13.9421 21.9998 13.9673 22.0868 13.8981 22.3172C13.8005 22.6426 13.8034 22.6504 14.0127 22.622C14.118 22.6077 14.3399 22.627 14.5441 22.6683C14.985 22.7572 15.2115 22.7134 15.4386 22.4954L15.5922 22.3481L15.6206 22.5144L15.649 22.6808L15.8251 22.5848C15.922 22.532 16.1595 22.4471 16.3531 22.3961C16.8096 22.2758 16.9955 22.1385 17.1887 21.7791C17.1931 21.7709 17.2807 21.796 17.3834 21.8348C17.7585 21.9765 17.8674 21.8567 17.875 21.2939L17.879 21.0022L18.0143 21.1573C18.1321 21.2925 18.1808 21.3161 18.3912 21.3401C18.6582 21.3706 18.7595 21.3253 18.7618 21.1742C18.763 21.0913 18.7668 21.0903 18.8195 21.159C18.8692 21.2238 18.8791 21.2038 18.9036 20.9894C18.938 20.6893 19.0265 20.5495 19.1658 20.5758C19.2209 20.5863 19.2657 20.5927 19.2654 20.5901C19.2541 20.485 19.1265 20.1137 19.075 20.0359L19.0043 19.9291L19.1118 20.0072C19.1709 20.0503 19.2531 20.1464 19.2943 20.2209C19.3825 20.3801 19.4033 20.3839 19.5647 20.2703C19.7322 20.1523 19.9047 19.8472 19.9873 19.5229C20.0552 19.2566 20.0585 19.2523 20.1878 19.2656C20.308 19.278 20.3263 19.2631 20.4003 19.0923C20.4448 18.9896 20.5067 18.8897 20.5378 18.8705C20.5689 18.8512 20.6186 18.7427 20.6482 18.6295C20.6982 18.4386 20.6956 18.4148 20.6121 18.303L20.5219 18.1824L20.6172 18.2329C20.702 18.2778 20.7222 18.2702 20.7998 18.1635C20.8477 18.0976 20.9582 17.9665 21.0453 17.8723C21.1324 17.7781 21.2037 17.6805 21.2037 17.6555C21.2037 17.6306 21.1184 17.5521 21.0141 17.4811C20.7984 17.3342 20.7752 17.2979 20.9358 17.3583C21.2624 17.4811 20.9198 17.2219 20.4983 17.0273C20.3164 16.9434 20.2917 16.9189 20.34 16.8711C20.3715 16.8399 20.4091 16.8144 20.4234 16.8144C20.4378 16.8144 20.605 16.9069 20.7951 17.0201C20.985 17.1331 21.1737 17.2383 21.2142 17.2537C21.3212 17.2943 21.3065 17.2024 21.1826 17.0568C21.0528 16.9041 21.0508 16.8655 21.1721 16.8485C21.3103 16.8291 21.2952 16.6831 21.1479 16.6132C21.0016 16.5438 21.0238 16.5046 21.1768 16.5621C21.2621 16.5942 21.288 16.5912 21.288 16.5489C21.288 16.4743 21.1347 16.3418 21.0841 16.3727C21.0617 16.3864 20.942 16.3509 20.8181 16.2939C20.5965 16.1918 20.308 16.1432 20.4455 16.231C20.5003 16.2661 20.4995 16.2715 20.4396 16.272C20.4016 16.2724 20.3268 16.2376 20.2733 16.1947L20.176 16.1169L20.2695 16.0875C20.3732 16.0549 20.5329 16.0797 20.8379 16.1757C21.1405 16.2709 21.1277 16.2082 20.8163 16.07C20.6232 15.9843 20.4801 15.9497 20.3282 15.9519C20.2032 15.9538 20.1238 15.9718 20.1382 15.9949C20.1528 16.0182 20.1167 16.0259 20.0515 16.0136C19.9891 16.0018 19.9399 16.0115 19.9399 16.0356C19.9399 16.0592 19.9092 16.1122 19.8717 16.1532C19.7684 16.2661 19.8287 16.3469 20.0395 16.3782C20.2257 16.4058 20.4515 16.5723 20.388 16.6351C20.3716 16.6513 20.2452 16.6346 20.1072 16.5981C19.9692 16.5615 19.868 16.5503 19.8823 16.5733C19.8987 16.5994 19.873 16.6039 19.8136 16.5852C19.7471 16.5644 19.7277 16.5698 19.7487 16.6034C19.7935 16.675 19.696 16.7672 19.6014 16.7427C19.5559 16.7309 19.5187 16.7322 19.5187 16.7454C19.5187 16.7587 19.5993 16.7915 19.6977 16.8184C19.7962 16.8453 19.8571 16.8744 19.8332 16.883C19.8092 16.8916 19.6306 16.8516 19.4364 16.7941C19.2421 16.7366 19.0747 16.6979 19.0644 16.7082C19.0541 16.7184 19.067 16.7875 19.0931 16.8617C19.1458 17.0113 19.124 17.0506 18.977 17.0713C18.8788 17.0851 18.8796 17.0881 19.0476 17.3348C19.1411 17.4721 19.2101 17.5919 19.201 17.6009C19.1918 17.61 19.1349 17.5854 19.0746 17.5463C19.0142 17.5071 18.9302 17.4685 18.888 17.4605C18.8457 17.4524 18.7334 17.3973 18.6384 17.338C18.5114 17.2586 18.4656 17.2458 18.4656 17.2896C18.4656 17.3223 18.515 17.3847 18.5754 17.4283L18.6852 17.5074L18.56 17.6312L18.4349 17.755L18.2747 17.6181C18.1866 17.5427 18.1072 17.4883 18.0984 17.497C18.0895 17.5058 18.1309 17.5839 18.1903 17.6705C18.2508 17.7587 18.2883 17.8596 18.2754 17.8997C18.2587 17.9517 18.3278 18.0302 18.5255 18.1839C18.6758 18.3007 18.8217 18.4388 18.8497 18.4908C18.9083 18.5996 18.908 18.5994 18.5287 18.2895C18.4129 18.1949 18.2423 18.0681 18.1496 18.0077C17.8001 17.7801 17.6815 17.6946 17.5177 17.5524C17.4251 17.4719 17.3617 17.3935 17.3769 17.378C17.4247 17.3295 17.656 17.4748 17.7733 17.6269C17.8352 17.7071 17.9052 17.7728 17.929 17.7728C17.9528 17.7728 17.8747 17.6708 17.7555 17.5461C17.537 17.3176 17.4677 17.1537 17.6125 17.2082C17.6648 17.2279 17.6732 17.223 17.6415 17.1914C17.593 17.1429 17.286 16.9812 17.286 17.004C17.286 17.0117 17.3259 17.0848 17.3747 17.1665C17.4538 17.2992 17.4553 17.3121 17.3888 17.2868C17.3379 17.2675 17.324 17.274 17.3448 17.3073C17.3616 17.3342 17.3545 17.3561 17.3292 17.3561C17.2967 17.3561 17.2977 17.3839 17.3324 17.4498C17.3807 17.5417 17.3795 17.5416 17.2707 17.4426C17.2096 17.387 17.1597 17.3099 17.1597 17.2712C17.1597 17.2325 17.0657 17.1139 16.9509 17.0076C16.735 16.8079 16.6116 16.7406 16.7732 16.9108C16.8677 17.0103 16.897 17.089 16.8227 17.0436C16.7541 17.0016 16.7746 17.0495 16.8518 17.1114C16.9125 17.1601 16.9178 17.1599 16.8874 17.11C16.8631 17.07 16.8674 17.0611 16.9011 17.0817C16.9282 17.0983 16.9386 17.1307 16.9241 17.1539C16.9097 17.177 17.0279 17.3183 17.1868 17.4679C17.3456 17.6175 17.4424 17.7292 17.4019 17.716C17.288 17.679 17.312 17.7217 17.5214 17.9289C17.7118 18.1171 17.8192 18.3016 17.7676 18.3515C17.7531 18.3655 17.6403 18.2647 17.5169 18.1274C17.3935 17.9902 17.3101 17.8672 17.3316 17.854C17.3531 17.8409 17.2451 17.6907 17.0916 17.5202C16.7024 17.0878 16.6696 17.0593 16.8067 17.2727C16.873 17.3759 16.9386 17.4696 16.9526 17.4811C17.0128 17.5305 17.3703 18.0356 17.3703 18.0713C17.3703 18.0929 17.2449 17.969 17.0917 17.7959C16.8202 17.4892 16.7016 17.3859 16.8379 17.5748C16.8751 17.6264 16.9942 17.828 17.1025 18.0228C17.2108 18.2176 17.3791 18.4895 17.4765 18.627C17.6387 18.8561 17.7419 19.0645 17.6932 19.0645C17.6558 19.0645 17.1748 18.3751 17.0385 18.126C16.9634 17.989 16.7979 17.7644 16.6704 17.6269L16.4387 17.3769L16.5502 17.6269C16.684 17.9273 16.7384 18.0619 16.7384 18.0931C16.7384 18.1442 16.6026 18.0006 16.543 17.8865C16.508 17.8197 16.47 17.7744 16.4584 17.7859C16.4468 17.7973 16.4648 17.86 16.4983 17.9252C16.5318 17.9903 16.5731 18.0905 16.59 18.1478C16.6199 18.249 16.6188 18.2496 16.5545 18.1686C16.5181 18.1228 16.4877 18.0631 16.487 18.0358C16.4863 18.0086 16.4128 17.8535 16.3237 17.6911L16.1618 17.3958L16.1727 17.6526C16.1787 17.7938 16.2013 17.9208 16.223 17.9348C16.2819 17.9729 16.3593 18.1323 16.3593 18.2155C16.3593 18.2819 16.3535 18.2812 16.2974 18.2079C16.2377 18.1297 16.2354 18.1305 16.2316 18.2311C16.2277 18.3308 16.2245 18.3294 16.1594 18.1999C16.1219 18.1254 16.0773 18.0645 16.0601 18.0645C16.0075 18.0645 15.9735 18.2993 16.0033 18.4568C16.0189 18.539 16.0224 18.6062 16.0111 18.6062C15.9998 18.6062 15.9569 18.4327 15.9157 18.2207C15.8515 17.8909 15.7891 17.7395 15.7381 17.7899C15.7311 17.7969 15.7542 17.9123 15.7896 18.0465C15.8249 18.1806 15.8516 18.3473 15.8489 18.417C15.8444 18.536 15.8422 18.5342 15.8134 18.387C15.7964 18.3007 15.7676 18.2164 15.7491 18.1994C15.7306 18.1825 15.7265 18.2155 15.74 18.2728C15.8249 18.6353 15.8186 19.0855 15.7305 18.9445C15.6975 18.8917 15.7074 19.3995 15.7512 20.0064C15.7741 20.3249 15.7687 20.4352 15.7289 20.4596C15.6888 20.4841 15.6789 20.4383 15.6874 20.2678C15.7031 19.9537 15.6917 19.8474 15.6451 19.8759C15.6204 19.891 15.5981 19.63 15.5874 19.2013C15.5692 18.4774 15.5291 18.1746 15.4494 18.1603C15.4195 18.1549 15.401 18.2647 15.397 18.4705C15.3883 18.9255 15.3073 18.9683 15.3019 18.5208C15.2991 18.2805 15.287 18.2017 15.264 18.2728C15.2321 18.3715 15.2301 18.3699 15.2261 18.2416C15.2211 18.0795 15.162 18.0701 14.9666 18.2004C14.8608 18.2709 14.7973 18.3674 14.714 18.5839L14.6029 18.8732L14.5702 18.6043L14.5375 18.3353L14.478 18.4603C14.4195 18.5835 14.4189 18.5825 14.4437 18.3874C14.4739 18.149 14.4286 18.1357 14.3012 18.3457L14.2066 18.502L14.2293 18.3562L14.252 18.2103L14.1973 18.3259C14.1672 18.3895 14.1319 18.4308 14.1186 18.4177C14.1054 18.4046 14.0825 18.4417 14.0677 18.5C14.026 18.6644 13.9618 18.6253 13.9693 18.44C13.9817 18.1325 13.7939 18.1049 13.6857 18.3984C13.5778 18.691 13.4926 18.8562 13.4496 18.8562C13.4253 18.8562 13.4134 18.8421 13.4229 18.8249C13.5517 18.5936 13.6656 18.2858 13.6553 18.1972C13.6445 18.105 13.6162 18.0812 13.4948 18.0622C13.3949 18.0466 13.3222 18.06 13.2694 18.1037C13.1978 18.163 13.1926 18.1618 13.2062 18.089C13.217 18.0307 13.1877 18.0006 13.0956 17.9756C12.9806 17.9445 12.9548 17.959 12.7859 18.15C12.6846 18.2646 12.542 18.3889 12.469 18.4262C12.3166 18.5041 12.3011 18.5306 12.6628 18.0936C12.7729 17.9606 12.8629 17.8454 12.8629 17.8375C12.8629 17.8167 12.5862 17.8817 12.5308 17.9156C12.4629 17.9571 12.4724 17.9182 12.5678 17.7634C12.6141 17.6883 12.652 17.6147 12.6521 17.5997C12.6523 17.5665 12.2309 17.7214 12.1573 17.7816C12.0785 17.846 12.0938 17.7704 12.1783 17.6777C12.2427 17.6072 12.2306 17.6091 12.0836 17.6921L11.9151 17.7874L12.0256 17.6655C12.0865 17.5984 12.1273 17.5195 12.1165 17.4901C12.1055 17.4607 12.1197 17.4091 12.1479 17.3755C12.19 17.3254 12.1844 17.3144 12.1167 17.3144C12.0713 17.3144 11.9661 17.3894 11.8829 17.4811C11.7997 17.5728 11.6995 17.6478 11.6602 17.6478C11.6015 17.6478 11.5981 17.6366 11.6412 17.5853C11.6701 17.5509 11.6796 17.5228 11.6623 17.5228C11.645 17.5228 11.6568 17.4919 11.6884 17.4543C11.7393 17.3935 11.7356 17.389 11.655 17.4143C11.5082 17.4603 11.5076 17.378 11.654 17.2957C11.9242 17.1439 12.1917 16.97 12.1772 16.9555C12.1689 16.9475 12.0984 16.9589 12.0204 16.9811C11.8405 17.0321 11.8099 17.0054 11.9595 16.928C12.1616 16.8232 12.0101 16.8211 11.6634 16.9239C11.3264 17.0238 11.1179 17.0343 11.382 16.9381C11.4618 16.909 11.5029 16.8745 11.4769 16.8585C11.4496 16.8419 11.5095 16.7754 11.6233 16.6961C11.7981 16.5742 11.8133 16.5502 11.788 16.4363C11.7714 16.3617 11.7801 16.2872 11.8094 16.2522C11.8508 16.2029 11.8344 16.1974 11.7078 16.2177C11.6093 16.2335 11.557 16.2256 11.557 16.1948C11.557 16.1689 11.5978 16.1477 11.6478 16.1477C11.7359 16.1477 11.7363 16.1452 11.6623 16.0643C11.6204 16.0185 11.5558 15.9813 11.5189 15.9816C11.4661 15.9821 11.4637 15.9898 11.5077 16.0174C11.638 16.0991 11.2262 16.1112 10.883 16.0358C10.7811 16.0134 10.7825 16.0108 10.9251 15.9583C11.0062 15.9284 11.1768 15.9023 11.3042 15.9002C11.6136 15.8951 11.7131 15.8348 11.5213 15.7686C11.418 15.733 11.3955 15.7103 11.4371 15.6837C11.4702 15.6626 11.3621 15.6584 11.1779 15.6737C10.8172 15.7037 10.8172 15.6642 11.1779 15.5299C11.3053 15.4824 11.3732 15.4426 11.3288 15.4414C11.2844 15.4402 11.2614 15.4261 11.2777 15.41C11.2939 15.3939 11.3729 15.3851 11.4531 15.3905C11.637 15.4027 11.6418 15.3388 11.4622 15.27C11.3438 15.2246 11.3374 15.2153 11.4149 15.2012C11.4641 15.1922 11.5464 15.1406 11.5977 15.0866L11.6909 14.9884L11.6047 14.9031C11.5573 14.8562 11.4276 14.7889 11.3166 14.7537L11.1147 14.6895L11.3358 14.7141C11.656 14.7497 11.6334 14.6471 11.2832 14.4746C11.1326 14.4005 11.0094 14.3247 11.0094 14.3062C11.0094 14.2596 11.0339 14.2628 11.2895 14.3425C11.5213 14.4148 11.6342 14.3897 11.5033 14.295C11.4331 14.2443 11.4339 14.2397 11.5173 14.2181C11.566 14.2055 11.6802 14.2212 11.771 14.2528C11.8618 14.2845 11.9361 14.3023 11.9361 14.2923C11.9361 14.2823 11.8366 14.2177 11.715 14.1487C11.5933 14.0797 11.5257 14.0231 11.5647 14.0229C11.7256 14.022 11.6772 13.7331 11.4782 13.5069C11.4121 13.4319 11.4167 13.4299 11.5991 13.4543C11.7034 13.4683 11.7661 13.4694 11.7384 13.4567C11.7107 13.4441 11.6987 13.4065 11.7116 13.3731C11.7245 13.3398 11.7121 13.2578 11.6841 13.1908C11.6055 13.0031 11.6679 12.9592 11.8346 13.085C12.0159 13.2217 12.0152 13.1824 11.8311 12.8799C11.6927 12.6526 11.6902 12.6422 11.7889 12.7062C11.8886 12.7708 11.894 12.7701 11.894 12.693C11.894 12.6483 11.8472 12.5754 11.7901 12.5309C11.733 12.4864 11.6998 12.4352 11.7164 12.417C11.733 12.3989 11.7246 12.3964 11.6977 12.4116C11.6706 12.427 11.6004 12.3822 11.5398 12.3109C11.4272 12.1785 11.3935 12.078 11.4793 12.1305C11.5141 12.1518 11.5204 12.1228 11.5014 12.0288C11.4868 11.9565 11.4834 11.8973 11.4938 11.8973C11.5041 11.8973 11.5979 11.9817 11.7022 12.0848C11.8784 12.2591 12.0409 12.3215 12.1185 12.2448C12.1338 12.2296 12.0955 12.1499 12.0334 12.0677C11.9603 11.9708 11.9493 11.9416 12.002 11.9847C12.1835 12.133 12.1763 12.093 11.9582 11.7438C11.8329 11.5429 11.7403 11.3688 11.7524 11.3567C11.7646 11.3447 11.8499 11.4192 11.942 11.5223C12.1448 11.7493 12.1358 11.6841 11.8886 11.1346C11.7343 10.7918 11.7268 10.7569 11.7733 10.6033C11.8007 10.5129 11.8406 10.4389 11.8621 10.4389C11.8835 10.4389 11.8926 10.4623 11.8824 10.491C11.8723 10.5196 11.9323 10.6202 12.0159 10.7145C12.0994 10.8089 12.2117 10.9589 12.2653 11.0479C12.4355 11.3306 12.5193 11.4129 12.5832 11.3604C12.6167 11.3329 12.6969 11.3249 12.7777 11.3409L12.9152 11.368L12.8385 11.2523C12.7964 11.1887 12.7487 11.0312 12.7325 10.9023C12.7164 10.7735 12.6897 10.6353 12.6732 10.5951C12.6073 10.4346 12.7303 10.5353 12.8371 10.7293C12.9612 10.955 13.0314 11.0232 13.0314 10.9184C13.0314 10.848 13.3031 10.7115 13.3664 10.7502C13.432 10.7903 13.621 10.5217 13.6243 10.3836L13.6275 10.2514L13.6871 10.3972C13.7453 10.5397 13.7461 10.537 13.7213 10.2772C13.7031 10.0872 13.7092 10.0196 13.7427 10.0401C13.7685 10.0558 13.7896 10.1198 13.7896 10.1823C13.7896 10.2778 13.8069 10.295 13.8986 10.2911C13.9585 10.2885 14.0245 10.2597 14.0454 10.2272C14.0739 10.1826 14.0834 10.1927 14.0839 10.2682C14.0845 10.3661 14.0865 10.3666 14.1694 10.2924C14.2161 10.2506 14.2713 10.1587 14.292 10.088C14.3277 9.9665 14.3299 9.97008 14.3335 10.1551C14.3382 10.3967 14.4215 10.4727 14.4215 10.2354C14.4215 10.0421 14.481 9.98179 14.5485 10.1066C14.5949 10.1924 14.5963 10.1922 14.6824 10.0839C14.7813 9.95954 14.8114 9.97737 14.8847 10.2041L14.9368 10.3651L15.469 10.3462C15.8816 10.3315 16.0533 10.307 16.2329 10.2372C16.3603 10.1877 16.4694 10.1472 16.4751 10.1472C16.5094 10.1471 16.4759 10.3522 16.4263 10.4464C16.3751 10.5434 16.3756 10.5612 16.4303 10.5819C16.4649 10.595 16.5077 10.597 16.5254 10.5862C16.5431 10.5753 16.5819 10.6175 16.6116 10.6798L16.6655 10.7931L16.7211 10.6681L16.7767 10.543L16.7786 10.6814C16.7806 10.8271 16.8811 10.9722 16.928 10.8972C16.9445 10.8707 16.9782 10.8784 17.0179 10.9177C17.1039 11.0028 17.1323 10.998 17.2828 10.8727C17.3836 10.7889 17.4124 10.7796 17.4124 10.831C17.4124 10.8674 17.4266 10.8971 17.444 10.8969C17.5003 10.8965 17.7234 10.7363 17.8044 10.6383C17.8969 10.5264 17.8558 10.6168 17.7373 10.7859C17.692 10.8507 17.6714 10.9173 17.6916 10.9339C17.7919 11.0165 18.3466 11.1264 18.6627 11.1264C18.9883 11.1264 19.0036 11.1305 18.9405 11.1993C18.8789 11.2667 18.8808 11.2723 18.9658 11.2723C19.0596 11.2723 19.071 11.2889 19.1158 11.491C19.1513 11.6513 19.2584 11.6397 19.6415 11.434L19.961 11.2624L19.803 11.4254C19.7162 11.515 19.6451 11.6014 19.6451 11.6173C19.6451 11.6333 19.725 11.659 19.8228 11.6744C19.9832 11.6998 19.9914 11.7066 19.907 11.7438C19.7315 11.8213 19.8072 11.8646 20.0663 11.8348C20.2307 11.8159 20.3191 11.8208 20.3191 11.8487C20.3191 11.8724 20.2831 11.903 20.239 11.9168C20.1235 11.9531 19.9693 12.5351 19.9647 12.9525C19.961 13.2769 19.9617 13.2791 20.1172 13.4202C20.2065 13.5013 20.3552 13.5824 20.4642 13.6096C20.6663 13.6599 20.6816 13.705 20.5109 13.7473C20.4538 13.7615 20.3541 13.7932 20.2893 13.8177L20.1716 13.8623L20.3052 13.9181C20.4891 13.9951 20.5411 14.1139 20.5343 14.4421C20.5256 14.8571 20.5901 14.9201 21.4448 15.3314C21.6603 15.435 22.4257 15.6476 22.5835 15.6476C22.6616 15.6476 22.6616 15.6418 22.5834 15.3455C22.4636 14.8915 22.4996 14.3558 22.715 13.3878C22.8106 12.9584 22.8887 12.5679 22.8887 12.5199C22.8887 12.4719 22.8061 12.3263 22.7051 12.1963C22.4974 11.9287 22.3412 11.645 22.3408 11.5344C22.3407 11.4933 22.3091 11.4035 22.2706 11.3348C22.2322 11.266 22.0068 10.8412 21.7699 10.3906C21.2424 9.38741 21.0203 9.04342 20.6659 8.68019C20.3405 8.34679 20.0468 8.13902 19.7092 8.0033L19.4622 7.90396L19.3922 8.03314C19.3536 8.10414 19.2771 8.19165 19.2221 8.22757C19.1614 8.2672 19.1348 8.27241 19.1544 8.24078C19.2059 8.15769 19.118 8.18057 19.0343 8.27203C18.9923 8.31787 18.942 8.35537 18.9224 8.35537C18.8544 8.35537 18.8875 8.27411 19.0132 8.13248L19.1397 7.99005L18.9184 7.90283C18.7968 7.85483 18.4286 7.72436 18.1002 7.61285L17.5032 7.41009L17.4262 7.50535C17.3734 7.57064 17.2831 7.60994 17.1386 7.6304C16.6843 7.69478 16.6907 7.69728 16.53 7.3915L16.3848 7.11523L16.0035 7.00072C15.6792 6.90338 15.5306 6.88413 15.0113 6.87209C14.613 6.86288 14.2704 6.87888 14.0268 6.91809ZM5.2803 7.93375C5.2803 7.95667 5.29925 7.98701 5.32242 8.00118C5.34559 8.01534 5.36455 8.00818 5.36455 7.98526C5.36455 7.96234 5.34559 7.932 5.32242 7.91784C5.29925 7.90367 5.2803 7.91084 5.2803 7.93375ZM5.36455 8.74636C5.36455 8.75515 5.4025 8.77215 5.44884 8.78415C5.49522 8.79615 5.52256 8.78895 5.50954 8.7682C5.48688 8.7319 5.36455 8.71348 5.36455 8.74636ZM31.5666 11.6467V12.4807H31.9668H32.367V14.9601V17.4394H31.9668H31.5666V18.2728V19.1062H33.2305H34.8945V18.2728V17.4394H34.4732H34.052V15.6868C34.052 14.7229 34.0666 13.9432 34.0845 13.9541C34.1024 13.965 34.4767 14.5377 34.9165 15.2266C35.3562 15.9156 35.7283 16.4796 35.7434 16.4801C35.7585 16.4806 36.1266 15.9232 36.5613 15.2413C36.9961 14.5595 37.3676 13.9839 37.3869 13.9621C37.4062 13.9403 37.422 14.7131 37.422 15.6794V17.4364L37.0113 17.4483L36.6006 17.4603L36.5891 18.2832L36.5777 19.1062H38.2645H39.9513L39.9399 18.2832L39.9285 17.4603L39.5177 17.4483L39.107 17.4364V14.9586V12.4807H39.5283H39.9495V11.6473V10.8139H38.6752H37.4009L36.5795 12.1036C36.1277 12.8129 35.7443 13.3796 35.7274 13.363C35.7105 13.3463 35.3389 12.7706 34.9015 12.0837L34.1062 10.8347L32.8364 10.8237L31.5666 10.8127V11.6467ZM43.5081 10.866C43.4974 10.8947 43.0455 12.3807 42.5038 14.1683L41.519 17.4186L41.1134 17.4305L40.7078 17.4424V18.2743V19.1062H42.3717H44.0357V18.2728V17.4394H43.6566C43.448 17.4394 43.2777 17.4254 43.2781 17.4082C43.2785 17.391 43.3316 17.2082 43.3962 17.0019L43.5137 16.6269L44.804 16.6159L46.0944 16.6048L46.2045 16.9701C46.2651 17.1709 46.3224 17.358 46.3317 17.3858C46.3441 17.4224 46.242 17.4396 45.961 17.4483L45.5733 17.4603L45.5619 18.2832L45.5504 19.1062H47.2364H48.9223V18.2728V17.4394H48.5112H48.1001L47.1558 14.3246C46.6364 12.6114 46.1849 11.1207 46.1525 11.0118L46.0935 10.8139H44.8105C43.8226 10.8139 43.5231 10.8259 43.5081 10.866ZM48.2482 12.064V13.3141H49.0697H49.8911V12.8974V12.4807H50.3124H50.7336V14.9586V17.4364L50.3229 17.4483L49.9122 17.4603L49.9008 18.2832L49.8894 19.1062H51.5753H53.2612V18.2728V17.4394H52.8399H52.4187V14.9601V12.4807H52.8399H53.2612V12.8974V13.3141H54.1037H54.9462V12.064V10.8139H51.5972H48.2482V12.064ZM55.7044 11.6473V12.4807H56.1257H56.547V14.9601V17.4394H56.1257H55.7044V18.2728V19.1062H58.6322H61.5599V17.877V16.6477H60.7174H59.8749V17.0436V17.4394H59.0534H58.232V16.6269V15.8143H59.0534H59.8749V14.9809V14.1475H59.0534H58.232V13.3141V12.4807H59.0519H59.8718L59.8839 12.887L59.8959 13.2933L60.7279 13.3046L61.5599 13.3158V12.0649V10.8139H58.6322H55.7044V11.6473ZM62.3181 11.6473V12.4807H62.7394H63.1606V14.9586V17.4364L62.7499 17.4483L62.3392 17.4603L62.3278 18.2832L62.3164 19.1062H64.0023H65.6882V18.2728V17.4394H65.2669H64.8457V16.7935V16.1477L65.6145 16.1489L66.3832 16.1502L66.746 16.7844L67.1088 17.4186L66.7776 17.4307L66.4464 17.4428V18.2745V19.1062H68.1323H69.8182L69.8068 18.2832L69.7954 17.4603L69.4237 17.4394L69.0521 17.4186L68.507 16.4866L67.9621 15.5545L68.2258 15.2779C68.8253 14.649 69.0808 13.7983 68.9143 12.9854C68.7391 12.1302 68.215 11.4584 67.4286 11.081C66.8953 10.825 66.7875 10.8154 64.4349 10.8146L62.3181 10.8139V11.6473ZM44.4005 13.6987C44.1983 14.3696 44.0335 14.9324 44.0343 14.9496C44.0351 14.9669 44.3864 14.9809 44.815 14.9809C45.2436 14.9809 45.5938 14.9669 45.5931 14.9496C45.5885 14.8358 44.8476 12.5053 44.8123 12.4937C44.7873 12.4854 44.609 13.0072 44.4005 13.6987ZM64.8457 13.4822V14.4883L65.6987 14.4735C66.4774 14.46 66.5668 14.4509 66.7243 14.3681C67.4273 13.9985 67.473 13.0354 66.8069 12.6276L66.6008 12.5015L65.7232 12.4888L64.8457 12.476V13.4822ZM11.0015 14.676C11.0319 14.688 11.0682 14.6865 11.0822 14.6727C11.0962 14.6589 11.0713 14.649 11.0269 14.6508C10.9778 14.6528 10.9679 14.6627 11.0015 14.676ZM28.4914 15.3559C28.4914 15.3788 28.5198 15.3976 28.5546 15.3976C28.5894 15.3976 28.6178 15.4175 28.6178 15.4417C28.6178 15.466 28.6377 15.4737 28.662 15.4588C28.6921 15.4404 28.6905 15.4133 28.6568 15.373C28.6001 15.3054 28.4914 15.2942 28.4914 15.3559ZM21.2248 15.6476C21.2711 15.6673 21.3375 15.6834 21.3722 15.6834C21.412 15.6834 21.4043 15.6702 21.3512 15.6476C21.3048 15.6279 21.2385 15.6118 21.2037 15.6118C21.1639 15.6118 21.1717 15.625 21.2248 15.6476ZM24.6397 15.8099C24.6268 15.8305 24.6437 15.8576 24.6772 15.8703C24.7177 15.8857 24.7302 15.8733 24.7145 15.833C24.6874 15.763 24.6719 15.7582 24.6397 15.8099ZM20.8778 15.8859C20.9419 15.8954 21.0366 15.8952 21.0885 15.8853C21.1403 15.8754 21.0879 15.8676 20.972 15.8679C20.8562 15.8682 20.8138 15.8763 20.8778 15.8859ZM28.3229 15.9152C28.1875 15.9638 28.183 15.9706 28.2681 15.9976C28.3511 16.0239 28.6178 15.9309 28.6178 15.8757C28.6178 15.8413 28.4757 15.8604 28.3229 15.9152ZM24.5133 16.2267C24.4526 16.2502 24.4456 16.2667 24.4858 16.2912C24.5177 16.3107 24.5675 16.2967 24.6079 16.2567C24.6802 16.1853 24.6473 16.1749 24.5133 16.2267ZM11.6623 16.7755C11.5928 16.8196 11.5575 16.8557 11.5839 16.8558C11.6103 16.856 11.6767 16.8192 11.7313 16.7741C11.8566 16.6709 11.8265 16.6715 11.6623 16.7755ZM16.949 16.8718C16.949 16.8804 16.9822 16.9133 17.0228 16.9447C17.0896 16.9965 17.091 16.9951 17.0387 16.929C16.9836 16.8595 16.949 16.8375 16.949 16.8718ZM17.7916 16.9203C17.7916 16.9644 18.0806 17.0811 18.2023 17.0862C18.3631 17.0929 18.3698 17.0836 18.2498 17.02C18.1871 16.9868 18.169 16.9863 18.1891 17.0186C18.2337 17.0899 18.1427 17.0724 18.0639 16.9946C18.0017 16.9329 17.7916 16.8757 17.7916 16.9203ZM17.8299 17.1407C17.8526 17.1827 17.9047 17.2437 17.9456 17.2762C17.9983 17.3181 17.9921 17.2959 17.924 17.1998C17.8199 17.0531 17.7632 17.0174 17.8299 17.1407ZM16.2786 17.4186C16.2786 17.4415 16.3127 17.5236 16.3544 17.6011C16.4199 17.7227 16.4344 17.7314 16.4602 17.6649C16.4766 17.6225 16.4758 17.602 16.4582 17.6194C16.4407 17.6367 16.3931 17.5893 16.3524 17.5139C16.3118 17.4386 16.2786 17.3957 16.2786 17.4186ZM12.231 17.4824C12.1769 17.517 12.1764 17.5282 12.2275 17.5608C12.2667 17.5858 12.3211 17.5769 12.3855 17.5352C12.504 17.4584 12.5161 17.4194 12.4029 17.4793C12.3523 17.5061 12.3168 17.5071 12.3081 17.4821C12.2992 17.4566 12.2712 17.4568 12.231 17.4824ZM3.67953 18.1061C3.67953 18.1291 3.7091 18.1478 3.7452 18.1478C3.78131 18.1478 3.79917 18.1291 3.78484 18.1061C3.77052 18.0832 3.74099 18.0645 3.71917 18.0645C3.69735 18.0645 3.67953 18.0832 3.67953 18.1061ZM15.6919 18.5645C15.6919 18.6218 15.7015 18.6453 15.7132 18.6166C15.7249 18.588 15.7249 18.5411 15.7132 18.5124C15.7015 18.4838 15.6919 18.5072 15.6919 18.5645ZM22.6393 19.6722C22.6413 19.7208 22.6513 19.7306 22.6647 19.6974C22.6769 19.6673 22.6754 19.6314 22.6614 19.6175C22.6474 19.6037 22.6375 19.6283 22.6393 19.6722ZM22.3832 19.8191C22.3832 19.8444 22.3548 19.8544 22.32 19.8412C22.2853 19.828 22.2568 19.8366 22.2568 19.8602C22.2568 19.9209 22.5205 19.8883 22.5414 19.825C22.5516 19.7946 22.5223 19.7729 22.471 19.7729C22.4227 19.7729 22.3832 19.7937 22.3832 19.8191ZM22.1371 20.3146C22.1371 20.3719 22.1467 20.3954 22.1584 20.3667C22.1701 20.3381 22.1701 20.2912 22.1584 20.2626C22.1467 20.2339 22.1371 20.2574 22.1371 20.3146ZM25.5426 20.5325C25.5426 20.6084 25.6173 20.6714 25.6588 20.6303C25.6732 20.616 25.653 20.5727 25.6138 20.5339C25.5482 20.469 25.5426 20.4688 25.5426 20.5325ZM25.3377 20.5959C25.3339 20.6592 25.3053 20.6897 25.2499 20.6897C25.2047 20.6897 25.1504 20.7202 25.1293 20.7575C25.1031 20.8039 25.0816 20.8105 25.0615 20.7784C25.0454 20.7525 25.0025 20.7313 24.9663 20.7313C24.9151 20.7313 24.9112 20.7441 24.9487 20.7888C25.0195 20.8733 25.2243 20.9018 25.3785 20.8486C25.4932 20.8091 25.5036 20.795 25.4479 20.7547C25.4118 20.7286 25.3736 20.6611 25.3629 20.6047C25.3446 20.5082 25.3431 20.5077 25.3377 20.5959ZM21.707 20.5918C21.6711 20.6014 21.5941 20.7111 21.536 20.8356C21.4496 21.0203 21.4413 21.066 21.4902 21.0846C21.528 21.099 21.5415 21.1406 21.5266 21.1971C21.5051 21.2784 21.509 21.2807 21.5689 21.2213C21.6103 21.1804 21.6217 21.1351 21.5994 21.1C21.525 20.9825 21.6475 20.7147 21.7972 20.6677C21.8415 20.6538 21.8777 20.6249 21.8777 20.6035C21.8777 20.564 21.8247 20.5604 21.707 20.5918ZM21.2669 20.898C21.2526 20.9209 21.261 20.9397 21.2855 20.9397C21.31 20.9397 21.3301 20.9209 21.3301 20.898C21.3301 20.8751 21.3217 20.8564 21.3115 20.8564C21.3013 20.8564 21.2812 20.8751 21.2669 20.898ZM21.309 21.1064C21.2947 21.1293 21.3137 21.148 21.3512 21.148C21.3886 21.148 21.4076 21.1293 21.3933 21.1064C21.379 21.0835 21.36 21.0647 21.3512 21.0647C21.3423 21.0647 21.3233 21.0835 21.309 21.1064ZM24.8974 21.338C24.8841 21.4195 24.8899 21.5273 24.9103 21.5776C24.9385 21.6468 24.9482 21.6109 24.9502 21.4293C24.9533 21.1564 24.933 21.1213 24.8974 21.338ZM24.3827 21.7756C24.3675 21.7998 24.3058 21.8139 24.2456 21.8068C24.1428 21.7947 24.1331 21.8093 24.0872 22.044C24.0603 22.1815 24.0251 22.324 24.009 22.3607C23.9891 22.4062 24.014 22.4496 24.0872 22.4971C24.1645 22.5472 24.1946 22.6033 24.1946 22.6973C24.1946 22.8251 24.1963 22.8262 24.2789 22.7523C24.3252 22.7109 24.3631 22.6562 24.3631 22.6309C24.3631 22.6056 24.3252 22.5615 24.2789 22.5328C24.2166 22.4944 24.1946 22.4356 24.1946 22.308C24.1946 22.1603 24.2193 22.112 24.3654 21.9746C24.4592 21.8862 24.5245 21.7953 24.5103 21.7727C24.4766 21.7188 24.4173 21.7201 24.3827 21.7756ZM23.6334 22.123C23.6166 22.1663 23.6307 22.2023 23.6706 22.2173C23.7627 22.2523 23.7813 22.2165 23.7165 22.1288C23.6651 22.0592 23.6584 22.0587 23.6334 22.123ZM19.7531 22.2193C19.7302 22.2786 19.7351 22.2834 19.7767 22.2426C19.8055 22.2143 19.8184 22.1807 19.8054 22.1679C19.7925 22.155 19.7689 22.1782 19.7531 22.2193ZM23.8134 22.5048C23.7724 22.5537 23.7791 22.5648 23.85 22.5648C23.9561 22.5648 24.0061 22.4988 23.9236 22.4675C23.8907 22.455 23.8411 22.4718 23.8134 22.5048ZM6.14627 22.8253C6.18326 22.9444 6.19244 22.9537 6.24244 22.9231C6.30209 22.8867 6.25011 22.7315 6.17824 22.7315C6.13431 22.7315 6.12533 22.7579 6.14627 22.8253ZM16.2961 23.8566C16.2632 23.9093 16.3189 23.9093 16.4014 23.8566C16.4559 23.8218 16.4547 23.8161 16.3934 23.8155C16.3542 23.8152 16.3104 23.8337 16.2961 23.8566ZM21.78 23.9551C21.74 24.0155 21.7243 24.0649 21.7452 24.0649C21.8034 24.0649 21.8877 23.9488 21.8693 23.894C21.8602 23.8671 21.8201 23.8946 21.78 23.9551ZM20.9088 24.6786C20.9088 24.7825 20.9738 24.8378 21.0162 24.77C21.0321 24.7445 21.0145 24.6933 20.977 24.6562C20.9142 24.5941 20.9088 24.5959 20.9088 24.6786ZM17.463 26.4901C17.4352 26.5176 17.4124 26.5658 17.4124 26.5973C17.4124 26.6421 17.4266 26.6404 17.4786 26.5889C17.515 26.5529 17.5624 26.5235 17.5839 26.5235C17.6054 26.5235 17.6231 26.5047 17.6231 26.4818C17.6231 26.4243 17.5243 26.4295 17.463 26.4901Z" fill="white" fill-opacity="0.8"/>
</svg>
