<svg width="111" height="24" viewBox="0 0 111 24" fill="none" xmlns="http://www.w3.org/2000/svg">
<path fill-rule="evenodd" clip-rule="evenodd" d="M11.2429 0.598833C11.2035 0.675763 11.0821 0.906499 10.9731 1.11161C10.8642 1.31672 10.5661 1.88011 10.3109 2.36358C10.0556 2.84706 9.7893 3.35051 9.71907 3.48237C9.54607 3.80719 9.40926 4.06619 8.37507 6.02628C7.88419 6.9566 7.47242 7.73698 7.46001 7.76042C7.44108 7.79617 7.62112 7.88642 8.5712 8.31747C9.19478 8.60039 10.0567 8.99175 10.4865 9.18717C10.9163 9.38258 11.282 9.54246 11.2991 9.54246C11.3226 9.54246 11.3302 8.4241 11.3302 5.00072C11.3302 2.50277 11.3267 0.458984 11.3224 0.458984C11.3181 0.458984 11.2823 0.521903 11.2429 0.598833ZM10.0542 0.996215C9.86215 1.1732 9.62642 1.39173 9.53039 1.48187C9.43435 1.57202 9.114 1.86652 8.8185 2.13628C8.523 2.40607 8.18428 2.71741 8.06581 2.82817C7.94732 2.93891 7.77808 3.09564 7.68972 3.17646C7.60134 3.25725 7.19662 3.6292 6.79031 4.00301C6.384 4.37679 5.70704 4.99881 5.28595 5.38527C4.86487 5.77175 4.44177 6.16144 4.34573 6.25123C4.24969 6.34103 3.74802 6.80327 3.23089 7.27844C2.19904 8.22658 2.09559 8.32181 1.78026 8.61411C1.66206 8.7237 1.37798 8.98581 1.14897 9.19665C0.91996 9.40746 0.72853 9.58958 0.723561 9.60139C0.718591 9.61316 0.748812 9.60954 0.790719 9.59334C0.832626 9.57712 1.21143 9.44641 1.63251 9.30286C2.0536 9.15928 2.89376 8.8718 3.49953 8.66397C4.1053 8.45617 4.96963 8.16018 5.42027 8.00624C5.8709 7.8523 6.36049 7.68504 6.50824 7.63453C6.65599 7.58403 6.78988 7.53416 6.80573 7.52369C6.8216 7.51322 7.08011 7.03718 7.38018 6.4658C7.68027 5.89442 7.99538 5.29507 8.08048 5.13391C8.16556 4.97275 8.45547 4.42135 8.72469 3.90857C8.99395 3.3958 9.2837 2.8444 9.36864 2.68324C9.45356 2.52208 9.62309 2.19843 9.7454 1.96402C9.86768 1.72961 10.0068 1.46589 10.0545 1.37799C10.2465 1.02461 10.4249 0.670115 10.4093 0.673259C10.4061 0.673924 10.2463 0.81926 10.0542 0.996215ZM23.9561 11.0075V16.708H25.4469H26.9377L26.9445 13.045L26.9514 9.38189L28.5229 11.4587C29.3872 12.601 30.1004 13.5356 30.1078 13.5356C30.1152 13.5356 30.2291 13.3923 30.361 13.2172C30.4929 13.042 30.8616 12.5582 31.1804 12.1419C31.4991 11.7256 32.1045 10.9343 32.5255 10.3833L33.2912 9.38168L33.298 13.0448L33.3048 16.708H34.8762H36.4476V11.0075V5.30706L34.8963 5.30828L33.3449 5.30948L33.0494 5.70079C31.8471 7.29285 30.2824 9.35091 30.2446 9.39012C30.201 9.43519 30.1759 9.4068 29.7389 8.81741C29.4859 8.47631 29.0301 7.86162 28.7258 7.4514C28.4216 7.04118 27.9404 6.39089 27.6565 6.0063L27.1403 5.30706H25.5482H23.9561V11.0075ZM38.7579 11.0063V16.708L41.7733 16.7078C45.0731 16.7076 45.1847 16.703 45.8364 16.5434C46.6854 16.3353 47.3 15.9995 47.8114 15.4641C48.2666 14.9876 48.4961 14.5035 48.602 13.7961C48.703 13.1218 48.618 12.4771 48.3609 11.9665C48.0761 11.4011 47.4348 10.8593 46.8324 10.6752L46.6464 10.6183L46.7921 10.5365C47.3058 10.2482 47.7843 9.72014 47.9465 9.2625C48.0201 9.0548 48.0793 8.69852 48.0794 8.46262C48.0796 8.17134 48.0082 7.67084 47.9302 7.41613C47.7947 6.97373 47.6179 6.68215 47.2893 6.35864C46.7563 5.83401 46.0876 5.54704 44.9831 5.36896C44.7415 5.33002 44.3473 5.32341 41.733 5.31457L38.7579 5.30447V11.0063ZM49.7182 6.49223V7.67737L51.2427 7.68427L52.7672 7.69114L52.774 12.1996L52.7808 16.708H54.3388H55.8968V12.1929V7.67782H57.4549H59.013V6.49244V5.30706H54.3656H49.7182V6.49223ZM41.9009 8.69005V9.70229L42.9284 9.70208C44.0241 9.70186 44.2384 9.68465 44.4142 9.58276C44.5595 9.49851 44.7398 9.30099 44.8113 9.14758C44.8608 9.04127 44.8692 8.9762 44.8683 8.70337C44.8673 8.41808 44.8598 8.36798 44.7987 8.23721C44.7039 8.03461 44.6162 7.94028 44.432 7.84292C44.1345 7.68568 44.0629 7.67782 42.9295 7.67782H41.9009V8.69005ZM6.76344 8.25074C6.71173 8.27133 5.96224 8.52938 5.09791 8.82417C4.23357 9.11895 3.37528 9.4122 3.1906 9.47579C3.00591 9.5394 2.48006 9.71912 2.02203 9.87519C1.2665 10.1326 0.96458 10.2364 0.376645 10.4407C0.269514 10.4779 0.181885 10.5133 0.181885 10.5194C0.181885 10.5255 0.444825 10.6573 0.766166 10.8122C1.64165 11.2344 2.38856 11.5964 3.28462 12.0329C3.72787 12.2489 4.29603 12.5246 4.5472 12.6457C4.79838 12.7669 5.45003 13.0832 5.99536 13.3488C6.54066 13.6143 6.99251 13.826 6.99949 13.8191C7.01467 13.804 6.95863 9.38945 6.93446 8.69671C6.92288 8.36515 6.90794 8.211 6.88747 8.21196C6.87098 8.21271 6.81516 8.23015 6.76344 8.25074ZM7.60733 8.84322C7.6155 8.95675 7.63527 10.1105 7.65131 11.4071C7.66735 12.7037 7.68269 13.8545 7.68535 13.9643L7.69023 14.1641L8.13348 14.3828C8.56042 14.5935 9.50476 15.0533 10.7076 15.6363C11.0227 15.789 11.2855 15.9088 11.2918 15.9026C11.298 15.8964 11.3096 14.6385 11.3176 13.1072C11.3293 10.8578 11.3255 10.3179 11.2976 10.2964C11.2786 10.2818 10.8702 10.0925 10.39 9.87567C9.90983 9.6589 9.09756 9.29143 8.58498 9.05915C8.0724 8.82684 7.63938 8.63678 7.62275 8.63678C7.60167 8.63678 7.59702 8.6993 7.60733 8.84322ZM96.3398 9.94424C95.2168 10.025 94.4085 10.5235 93.9894 11.3938C93.5738 12.2568 93.5045 13.7678 93.8317 14.8301C93.9899 15.3435 94.2719 15.785 94.6359 16.0889C95.5349 16.8396 97.1805 16.9421 98.7239 16.3434L99.0396 16.221V14.7197V13.2185H97.871H96.7025V13.5781V13.9377H97.5084H98.3143V14.8573V15.7768L98.2538 15.8023C98.1814 15.8328 97.8359 15.9162 97.5755 15.9661C97.29 16.0208 96.3175 16.015 96.0559 15.9571C95.0929 15.7438 94.6129 15.1997 94.4154 14.0975C94.3668 13.8265 94.3672 12.7937 94.416 12.5259C94.6025 11.5006 95.0646 10.9468 95.9213 10.7213C96.2689 10.6299 97.0185 10.6053 97.3845 10.6733C97.6879 10.7296 98.145 10.8678 98.4889 11.007C98.6366 11.0669 98.7696 11.1184 98.7844 11.1216C98.801 11.1252 98.8141 10.984 98.8187 10.7501L98.8261 10.3728L98.5494 10.2655C98.0503 10.072 97.6427 9.98486 97.0383 9.94232C96.8314 9.92778 96.6561 9.91747 96.6487 9.91944C96.6413 9.92138 96.5023 9.93255 96.3398 9.94424ZM65.4602 13.325V16.6281H67.569H69.6778V16.282V15.9359L67.9384 15.9291L66.199 15.9222V14.8034V13.6846L67.7235 13.6778L69.248 13.6709V13.3117V12.9525L67.7235 12.9456L66.199 12.9388V11.8333V10.7278L67.9384 10.721L69.6778 10.7141V10.368V10.0219H67.569H65.4602V13.325ZM72.0955 13.3244V16.6281H72.458H72.8206L72.8274 13.868L72.8342 11.1079L73.2137 11.6371C73.5965 12.171 74.0614 12.8208 74.9168 14.0176C75.1733 14.3766 75.5294 14.874 75.708 15.1231C75.8866 15.3721 76.2013 15.8127 76.4073 16.102L76.7819 16.6281H77.1922H77.6025V13.325V10.0219H77.24H76.8774L76.8706 12.778L76.8638 15.534L75.1579 13.147C74.2197 11.8341 73.3363 10.5969 73.1947 10.3976L72.9374 10.0353L72.5164 10.0279L72.0955 10.0206V13.3244ZM80.1277 13.325V16.6281H82.2373H84.3469L84.3393 16.2885L84.3318 15.9488L82.5924 15.942L80.853 15.9351V14.8032V13.6713H82.3842H83.9154V13.3117V12.9521H82.3842H80.853V11.8335V10.7149L82.5924 10.7081L84.3318 10.7012L84.3393 10.3616L84.3469 10.0219H82.2373H80.1277V13.325ZM86.7361 13.3235V16.6281H87.1122H87.4883V15.2958V13.9636L88.327 13.9706L89.1656 13.9776L90.0126 15.2751C90.4785 15.9887 90.8727 16.5853 90.8885 16.601C90.9073 16.6195 91.0659 16.6269 91.3392 16.6221L91.7609 16.6148L91.4173 16.0954C90.7821 15.1352 90.0811 14.0734 90.0204 13.9795L89.9602 13.8864L90.0741 13.8583C90.6707 13.7114 91.1418 13.2698 91.3463 12.6659C91.5268 12.1325 91.4849 11.3944 91.2462 10.9052C91.0518 10.5066 90.6991 10.2312 90.2096 10.0956C90.0067 10.0394 89.9477 10.0372 88.3681 10.0282L86.7361 10.0189V13.3235ZM101.565 13.325V16.6281H101.927H102.29V13.325V10.0219H101.927H101.565V13.325ZM106.672 10.3749C106.594 10.569 106.496 10.8118 106.453 10.9143C106.41 11.0169 106.042 11.9339 105.633 12.9521C105.225 13.9703 104.734 15.193 104.541 15.6691C104.348 16.1453 104.184 16.5559 104.177 16.5815C104.165 16.6244 104.196 16.6281 104.556 16.6281C104.902 16.6281 104.951 16.6226 104.972 16.5815C104.986 16.5559 105.04 16.421 105.093 16.2818C105.146 16.1426 105.315 15.7051 105.47 15.3095L105.75 14.5903H107.181H108.612L109.005 15.6026L109.399 16.6148L109.796 16.6222C110.111 16.628 110.191 16.6224 110.181 16.5955C110.174 16.5768 110.052 16.2738 109.912 15.9222C109.771 15.5706 109.418 14.6895 109.128 13.9643C108.838 13.2391 108.364 12.0554 108.075 11.3339L107.55 10.0219H107.181H106.812L106.672 10.3749ZM11.9926 11.0696C11.983 11.3212 11.9751 12.6041 11.975 13.9206C11.975 15.8249 11.9818 16.3114 12.0085 16.3006C12.0405 16.2878 16.3681 14.2307 17.9252 13.4882L18.1401 13.3858L18.0461 13.3455C17.9944 13.3234 17.5229 13.1105 16.9984 12.8724C15.6369 12.2543 14.8029 11.8762 14.6479 11.8065C14.574 11.7733 14.2899 11.6446 14.0166 11.5203C13.3118 11.2 12.3084 10.7455 12.147 10.6734L12.0101 10.6123L11.9926 11.0696ZM87.4883 11.995V13.2755L88.583 13.2647C89.5249 13.2555 89.7 13.2475 89.8374 13.2074C90.4464 13.0297 90.7119 12.6546 90.7119 11.9714C90.7119 11.4295 90.5365 11.044 90.2101 10.8685C89.9562 10.7321 89.7704 10.7145 88.5774 10.7145H87.4883V11.995ZM107.171 10.9458C107.162 10.9608 107.083 11.1577 106.995 11.3832C106.359 13.0274 106.068 13.771 106.047 13.8112C106.024 13.8552 106.086 13.8578 107.176 13.8578H108.33L108.263 13.6913C108.226 13.5997 108.162 13.4349 108.12 13.325C108.079 13.2151 107.861 12.6518 107.636 12.073C107.411 11.4943 107.218 10.9978 107.207 10.9697C107.196 10.9407 107.181 10.9304 107.171 10.9458ZM41.9009 13.1234V14.3373L43.0762 14.3371C43.7226 14.337 44.318 14.3261 44.3992 14.3128C44.8532 14.2385 45.1635 14.006 45.3162 13.6256C45.3697 13.4921 45.3781 13.4236 45.3789 13.1119C45.3797 12.7632 45.3772 12.747 45.2954 12.5759C45.187 12.349 45.0573 12.2083 44.8609 12.1045C44.5383 11.934 44.5108 11.931 43.1433 11.9197L41.9009 11.9094V13.1234ZM14.9568 15.6315C13.6788 16.2382 12.4881 16.8052 12.3108 16.8914L11.9884 17.0481L11.8502 17.3109C11.7742 17.4555 11.4073 18.1551 11.0348 18.8657C10.6623 19.5762 10.2817 20.3015 10.1892 20.4773C10.0966 20.6531 9.92101 20.9887 9.79899 21.2231C9.67698 21.4575 9.53801 21.7212 9.49022 21.8092C9.2985 22.1616 8.8556 23.0212 8.86567 23.0212C8.87158 23.0212 9.56391 22.3289 10.4042 21.4828C11.2444 20.6367 12.4092 19.465 12.9924 18.879C13.5757 18.293 14.4464 17.4179 14.9272 16.9344C15.408 16.451 16.1395 15.717 16.5527 15.3035C16.966 14.8899 17.2987 14.5463 17.2923 14.5399C17.2858 14.5335 16.2348 15.0247 14.9568 15.6315ZM7.71785 16.102C7.72669 16.7503 7.7513 18.3704 7.77254 19.7022C7.79377 21.034 7.81233 22.4066 7.81381 22.7522C7.81528 23.0979 7.82471 23.41 7.83479 23.4458C7.8501 23.5002 7.90949 23.4023 8.19865 22.8465C8.38871 22.481 8.57686 22.1221 8.61678 22.0489C8.65673 21.9756 8.80182 21.6999 8.9392 21.4362C9.07661 21.1725 9.33372 20.681 9.51053 20.3441C9.68738 20.0071 9.92313 19.5576 10.0344 19.3452C10.1457 19.1327 10.3661 18.7132 10.5242 18.4128C10.6823 18.1125 10.9468 17.6067 11.1121 17.2889L11.4125 16.7111L11.0826 16.5526C10.7126 16.3749 9.917 15.9894 8.60617 15.3527C8.12 15.1165 7.71764 14.9233 7.71199 14.9233C7.70635 14.9233 7.70899 15.4537 7.71785 16.102Z" fill="white" fill-opacity="0.8"/>
</svg>
