<svg width="66" height="31" viewBox="0 0 66 31" fill="none" xmlns="http://www.w3.org/2000/svg">
<path fill-rule="evenodd" clip-rule="evenodd" d="M20.6071 1.08302C20.4549 1.16492 20.3 1.29602 20.2229 1.40817C20.1166 1.56284 13.9517 15.8034 13.8744 16.0729C13.8518 16.1519 13.9316 16.156 15.2582 16.1441L16.666 16.1315L18.9253 10.7476C21.0998 5.56577 21.1869 5.36864 21.2462 5.49865C21.2801 5.57295 22.2864 8.00644 23.4823 10.9064L25.6567 16.179H27.0886H28.5205L30.7817 10.7913C32.5057 6.68348 33.0522 5.42522 33.0817 5.49485C33.103 5.54511 34.1029 7.96962 35.3036 10.8826L37.4869 16.179L38.966 16.1905L40.4451 16.2019L42.7011 10.816C44.655 6.15137 44.964 5.44365 45.0086 5.5319C45.0369 5.58791 46.0403 8.01181 47.2384 10.9183L49.4167 16.2028H50.8982C52.2943 16.2028 52.3771 16.198 52.3368 16.1197C52.3133 16.074 52.0738 15.5235 51.8045 14.8965C51.5352 14.2695 50.6786 12.2816 49.9008 10.4789C49.1231 8.67621 47.9441 5.94327 47.2809 4.40574C46.299 2.12934 46.0662 1.62649 46.0277 1.69817C45.9218 1.89539 45.5536 2.21778 45.37 2.27393C45.0911 2.35924 44.6638 2.34532 44.4455 2.24377C44.273 2.16358 43.9982 1.8933 43.8861 1.6937C43.8477 1.62525 43.3693 2.69892 41.4222 7.22347L39.006 12.8382L38.9207 12.6561C38.8737 12.5559 37.7841 10.0371 36.4994 7.05879L34.1636 1.64363H33.0339H31.9042L29.5186 7.18989C28.2066 10.2403 27.1241 12.7453 27.1132 12.7564C27.1022 12.7676 26.0053 10.2545 24.6754 7.1717C23.2923 3.96526 22.2014 1.49671 22.1263 1.40323C21.9016 1.12364 21.621 0.988781 21.2165 0.965886C20.8953 0.947693 20.8383 0.958666 20.6071 1.08302ZM31.6305 24.9193V28.9331H32.0956H32.5608V24.9193V20.9054H32.0956H31.6305V24.9193ZM65.0285 24.921V28.9365L65.5053 28.9229L65.9821 28.9094L65.9968 27.1043C66.0049 26.1116 65.9972 24.3107 65.9797 23.1024L65.9478 20.9054H65.4882H65.0285V24.921ZM19.3504 22.188V23.138H18.7457H18.141V23.5417V23.9455H18.7438H19.3467L19.3602 25.9999C19.3731 27.9676 19.3778 28.0634 19.4708 28.2687C19.6865 28.7446 20.088 28.9915 20.7941 29.0826C21.1684 29.1309 21.3305 29.1271 21.877 29.0573C22.2305 29.0121 22.5497 28.9635 22.5863 28.9491C22.6364 28.9295 22.653 28.8296 22.653 28.5481C22.653 28.1147 22.7011 28.1399 22.0832 28.2493C21.8232 28.2954 21.4965 28.3179 21.2575 28.3064C20.6524 28.2773 20.3757 28.0976 20.2787 27.6707C20.2555 27.5682 20.2359 26.6885 20.2353 25.7158L20.2342 23.9472L21.3622 23.9345L22.4902 23.9218V23.5417V23.1617L21.3622 23.149L20.2342 23.1363V22.1871V21.2379H19.7923H19.3504V22.188ZM55.161 23.0224C55.0424 23.0597 54.8235 23.1817 54.6746 23.2937L54.4039 23.4971L54.0709 23.3263C53.5931 23.0812 53.1531 22.9955 52.373 22.9955C51.5991 22.9955 51.1382 23.0784 50.6785 23.3002C50.2319 23.5157 49.948 23.7858 49.7616 24.1727C49.6181 24.4703 49.6087 24.5206 49.6087 24.9895C49.6087 25.5707 49.6672 25.7256 50.0654 26.1974L50.3023 26.478L50.1885 26.5537C49.9593 26.706 49.7091 26.9657 49.6481 27.1147C49.5571 27.3365 49.5693 27.6944 49.6738 27.8694C49.7223 27.9504 49.8373 28.0644 49.9295 28.1226C50.0217 28.1808 50.0971 28.2464 50.0971 28.2683C50.0971 28.2903 50.0268 28.3319 49.941 28.3609C49.568 28.4866 49.2165 28.9487 49.2143 29.3164C49.2101 30.0197 49.7257 30.5383 50.6746 30.7851C51.6754 31.0454 53.4407 31.0088 54.4686 30.7065C55.509 30.4005 56.0369 29.7076 55.8669 28.871C55.7907 28.4961 55.6059 28.2597 55.2515 28.0835C54.7938 27.856 54.3078 27.7928 52.6322 27.743C51.0742 27.6967 50.7053 27.6542 50.5581 27.5039C50.4244 27.3673 50.4443 27.1462 50.6052 26.9819C50.7662 26.8174 50.8233 26.8139 51.1902 26.9456C51.5777 27.0846 52.7943 27.1241 53.3066 27.0142C54.0604 26.8526 54.6752 26.3994 54.9531 25.8005C55.0831 25.5203 55.0975 25.4443 55.0975 25.038C55.0975 24.6453 55.0809 24.5507 54.9699 24.3086C54.8997 24.1556 54.8535 24.0119 54.8672 23.9892C54.9027 23.9306 55.3432 23.8032 55.513 23.8023C55.853 23.8008 55.865 23.7852 55.865 23.3462V22.948L55.6208 22.9513C55.4864 22.9531 55.2795 22.9851 55.161 23.0224ZM2.256 23.0854C1.89555 23.1929 1.49221 23.4049 1.12991 23.6776L0.841138 23.8949L0.827555 23.5283L0.814019 23.1617L0.40701 23.148L0 23.1343V26.0337V28.9331H0.418639H0.837277V26.8437V24.7542L1.18451 24.4724C1.84848 23.9336 2.58523 23.684 3.19612 23.7908C3.61197 23.8636 3.83733 24.0258 3.99283 24.3646L4.11661 24.6343L4.13122 26.7837L4.14582 28.9331H4.58474H5.02366V26.8468V24.7604L5.27057 24.545C5.84992 24.0395 6.44294 23.7848 7.04708 23.782C7.47907 23.7799 7.71216 23.8508 7.93725 24.0526C8.2663 24.3477 8.25397 24.2521 8.27974 26.7006L8.303 28.9094L8.75652 28.923L9.21005 28.9366L9.20949 26.7142C9.20884 24.08 9.1967 23.9943 8.76099 23.5489C8.39012 23.1698 7.86994 22.9955 7.10951 22.9955C6.44364 22.9955 6.019 23.1292 5.4496 23.5181C5.22331 23.6727 5.01143 23.8321 4.97873 23.8723C4.88477 23.9879 4.8243 23.9589 4.6748 23.7262C4.48315 23.4281 4.18225 23.2027 3.82552 23.0902C3.43423 22.9667 2.66208 22.9644 2.256 23.0854ZM12.9434 23.0883C12.376 23.2443 12.0192 23.4531 11.6 23.8743C11.0072 24.4697 10.7451 25.1251 10.7451 26.0118C10.7451 27.3733 11.5143 28.4873 12.7489 28.9139C13.7358 29.2548 15.1596 29.1367 15.9948 28.6446C16.1319 28.5639 16.4211 28.3243 16.6373 28.1123L17.0305 27.7268L16.9229 27.6423C16.8637 27.5959 16.706 27.4804 16.5723 27.3856L16.3293 27.2132L16.0141 27.5432C15.6475 27.9271 15.2742 28.1348 14.7454 28.2494C14.2819 28.3498 13.5294 28.3157 13.1444 28.1769C12.4138 27.9137 11.8928 27.3356 11.6982 26.5727C11.6601 26.423 11.6288 26.2837 11.6288 26.2631C11.6288 26.2424 12.8743 26.2256 14.3965 26.2256H17.1642V25.938C17.1642 25.5356 17.0444 25.0289 16.8503 24.6105C16.6163 24.1059 16.1612 23.6487 15.6292 23.3835C15.0441 23.0919 14.7798 23.0325 13.9779 23.0129C13.3956 22.9986 13.2244 23.0111 12.9434 23.0883ZM25.816 23.0643C25.1068 23.2166 24.5517 23.5161 24.1654 23.9549C24.0499 24.086 23.9562 24.207 23.9571 24.2238C23.9581 24.2405 24.1044 24.3542 24.2822 24.4764L24.6054 24.6985L24.861 24.4477C25.3515 23.9664 25.9599 23.7578 26.8767 23.7563C27.524 23.7553 27.9706 23.8516 28.269 24.0563C28.5714 24.2639 28.7 24.4733 28.7 24.7579C28.7 25.0275 28.8203 24.9892 27.5139 25.1358C25.1686 25.399 24.1261 25.8244 23.738 26.6768C23.6272 26.9202 23.6085 27.0209 23.6102 27.3656C23.6136 28.0493 23.889 28.5152 24.4661 28.8139C24.8888 29.0326 25.2211 29.0957 25.9323 29.0923C26.8572 29.0879 27.5054 28.9228 28.3065 28.4876L28.6932 28.2775L28.7473 28.6053L28.8014 28.9331H29.2673C29.6944 28.9331 29.7302 28.9262 29.6957 28.85C29.675 28.8043 29.6454 27.7943 29.6298 26.6056C29.5979 24.1576 29.6013 24.1817 29.227 23.7566C28.9968 23.4951 28.5438 23.241 28.072 23.1086C27.6901 23.0015 26.2412 22.973 25.816 23.0643ZM36.4137 23.0416C35.6279 23.1861 34.9519 23.5508 34.5697 24.0364L34.422 24.2242L34.7572 24.4624L35.0925 24.7006L35.3525 24.4473C35.8524 23.9605 36.4509 23.7555 37.3728 23.7555C38.5071 23.7555 39.1207 24.0875 39.1966 24.7422L39.2247 24.9839L39.0674 25.0107C38.9809 25.0254 38.5857 25.0714 38.1891 25.1129C35.7704 25.3659 34.6782 25.7854 34.2423 26.6284C34.1316 26.8425 34.119 26.9177 34.119 27.3656C34.119 27.7974 34.1342 27.8958 34.2317 28.0982C34.4768 28.6067 34.9583 28.9199 35.695 29.0501C36.2085 29.1409 36.553 29.1419 37.1193 29.0542C37.8027 28.9483 38.3785 28.7449 38.9238 28.4164C39.0593 28.3349 39.1766 28.2681 39.1847 28.2681C39.1927 28.2681 39.2125 28.3982 39.2288 28.5572C39.2451 28.7162 39.2702 28.8658 39.2847 28.8897C39.2992 28.9136 39.511 28.9331 39.7555 28.9331H40.1999L40.1668 28.7788C40.1486 28.6938 40.1201 27.6732 40.1034 26.5106L40.073 24.3968L39.9517 24.1355C39.7271 23.6519 39.2718 23.3113 38.5845 23.1128C38.2673 23.0211 36.7886 22.9726 36.4137 23.0416ZM44.5617 23.1042C44.1481 23.2333 43.7586 23.4399 43.3756 23.7334L43.0965 23.9473L43.0831 23.5426L43.0696 23.138H42.6295H42.1895V26.0356V28.9331H42.6314H43.0733V26.924V24.9148L43.2477 24.7446C43.7417 24.2626 44.4028 23.895 44.9462 23.8001C45.5968 23.6864 46.3069 23.8859 46.5872 24.2612C46.8575 24.6231 46.8602 24.6468 46.8772 26.8787L46.8929 28.9331H47.3343H47.7756L47.7611 26.7125C47.7481 24.7266 47.738 24.4692 47.6646 24.278C47.4557 23.7332 47.0516 23.3383 46.4921 23.1322C46.2689 23.0499 46.0828 23.026 45.5618 23.0124C44.9862 22.9974 44.8701 23.008 44.5617 23.1042ZM59.3727 23.066C58.4299 23.2755 57.6585 23.8685 57.2709 24.6818C57.0536 25.1377 57.0043 25.387 57.008 26.0118C57.0137 26.9836 57.2363 27.5799 57.8168 28.1786C58.2147 28.589 58.6269 28.8297 59.2078 28.9908C59.7205 29.133 60.7583 29.1314 61.284 28.9875C62.4207 28.6765 63.1239 27.9712 63.4013 26.8636C63.5162 26.4047 63.526 25.6128 63.4217 25.2041C63.1539 24.154 62.3265 23.3652 61.2049 23.0907C60.7474 22.9787 59.8219 22.9662 59.3727 23.066ZM13.3262 23.8214C12.8833 23.9079 12.4912 24.1202 12.2074 24.4271C11.9822 24.6705 11.7688 25.0553 11.7039 25.3349L11.6736 25.4656H13.9355H16.1975L16.1662 25.3349C16.0039 24.6556 15.4472 24.1027 14.6989 23.8776C14.342 23.7703 13.7188 23.7448 13.3262 23.8214ZM51.5181 23.8293C51.0196 23.9569 50.6347 24.2661 50.5156 24.6346C50.4845 24.731 50.4672 24.9533 50.477 25.1313C50.4986 25.5208 50.6437 25.7687 50.9746 25.9811C51.3821 26.2427 51.629 26.2971 52.3996 26.2946C53.0139 26.2926 53.1295 26.2793 53.3663 26.1837C53.9488 25.9485 54.1989 25.6269 54.2296 25.0733C54.2617 24.4974 54.0061 24.1348 53.394 23.8874C53.0636 23.7539 51.9475 23.7194 51.5181 23.8293ZM59.8421 23.7855C59.299 23.8712 58.8254 24.1095 58.5101 24.4556C58.0794 24.9284 57.9117 25.3751 57.9117 26.0492C57.9117 26.7332 58.0716 27.1888 58.4609 27.6138C58.8686 28.0589 59.3533 28.2626 60.0986 28.3021C60.9333 28.3463 61.6321 28.0975 62.0616 27.6031C62.449 27.1572 62.6371 26.5615 62.5944 25.9155C62.5263 24.8853 61.9352 24.1235 61.0049 23.8669C60.754 23.7977 60.0688 23.7497 59.8421 23.7855ZM27.8395 25.8486C25.6879 26.1048 24.8287 26.3954 24.5625 26.9569C24.3082 27.4931 24.5643 28.036 25.1722 28.2501C25.5512 28.3835 26.3531 28.3631 26.9433 28.2051C27.4109 28.08 28.1559 27.7782 28.5023 27.5734L28.7 27.4566V26.6036C28.7 25.9503 28.6864 25.7517 28.6419 25.7553C28.6099 25.7579 28.2488 25.7999 27.8395 25.8486ZM38.7473 25.8027C36.6258 26.0445 35.7402 26.2601 35.3045 26.641C34.6962 27.1727 34.8755 27.9862 35.6586 28.247C35.8586 28.3136 36.0594 28.3377 36.3983 28.3357C37.1357 28.3314 37.7751 28.1593 38.6892 27.7192L39.2125 27.4672V26.6089C39.2125 25.9506 39.1989 25.752 39.1543 25.7567C39.1224 25.7601 38.9392 25.7808 38.7473 25.8027ZM50.6101 28.703C50.1347 28.9563 49.9829 29.2877 50.1863 29.6283C50.4423 30.057 51.6615 30.2901 53.0275 30.1715C54.3914 30.0532 55.0269 29.756 55.0275 29.2364C55.0281 28.7475 54.5557 28.6423 52.0507 28.5738L50.9111 28.5426L50.6101 28.703Z" fill="white" fill-opacity="0.5"/>
</svg>
