<svg width="80" height="37" viewBox="0 0 80 37" fill="none" xmlns="http://www.w3.org/2000/svg">
<path fill-rule="evenodd" clip-rule="evenodd" d="M61.0366 0.964234C60.3752 1.01225 59.4137 1.14497 58.465 1.31924C57.8584 1.43064 57.8382 1.43741 57.4895 1.64739C57.0902 1.8878 56.3486 2.40801 55.939 2.73496C53.3458 4.80524 51.7656 7.12896 51.2986 9.55864C50.8404 11.9426 51.4783 13.8306 53.0291 14.6814L53.2808 14.8194L53.9677 14.4088C58.328 11.8023 62.6563 9.52739 66.086 8.03944C68.5145 6.98586 70.9226 6.18445 72.3366 5.9592C72.5431 5.9263 72.7422 5.88758 72.779 5.8731C72.834 5.8516 72.7136 5.70293 72.1111 5.04808C71.7068 4.60875 71.3548 4.24931 71.3288 4.24931C71.2287 4.24931 67.8409 5.7876 65.6918 6.80885C64.4307 7.40817 61.224 9.01327 60.2107 9.55247C57.4965 10.9967 55.3747 12.2727 54.0377 13.2649L53.6085 13.5834L53.4464 13.4947C53.3572 13.446 53.2843 13.3938 53.2843 13.3788C53.2843 13.3464 54.6249 12.4061 55.9122 11.5354C60.7069 8.29263 66.002 5.25773 69.6712 3.64943C69.9396 3.53178 70.1564 3.42147 70.153 3.40432C70.1476 3.37755 68.5366 2.46944 68.204 2.30567L68.0883 2.2487L66.9276 2.99244C60.7584 6.94541 55.6162 10.3926 53.4292 12.0412L52.9547 12.3989L52.9077 12.177C52.8819 12.0549 52.8673 11.9496 52.8754 11.943C52.8835 11.9363 53.2702 11.6098 53.7348 11.2175C58.1296 7.50648 62.2503 4.31853 65.185 2.35921C65.7115 2.00766 66.1465 1.70966 66.1516 1.69695C66.1567 1.68424 65.5778 1.51557 64.865 1.32213L63.5691 0.970475L63.3728 1.13918C63.2648 1.23193 60.7607 3.42429 57.8081 6.01105C51.9827 11.1145 52.384 10.7893 52.3218 10.4573C52.2618 10.1368 52.8036 9.42422 54.0699 8.15825C55.2793 6.94913 56.357 5.98939 58.9155 3.84283C61.3999 1.7585 62.0315 1.20125 62.0315 1.09361C62.0315 1.07049 61.993 1.03691 61.9459 1.01898C61.8404 0.97886 61.2911 0.945773 61.0366 0.964234ZM73.22 7.08911C71.8669 7.31251 70.6871 7.59176 69.3384 8.00789C65.3734 9.23127 60.5156 11.5645 55.5181 14.6457C54.3927 15.3397 54.3146 15.3903 54.3031 15.4344C54.2978 15.4548 54.7676 15.5902 55.3473 15.7352L56.401 15.9988L57.6865 15.3579C62.2535 13.0808 67.1844 11.0443 72.2979 9.32305L73.836 8.80535L74.0288 9.0934L74.2215 9.38147L72.3218 10.0241C67.9442 11.5048 64.0514 13.0088 60.3421 14.6524C59.0588 15.221 57.3691 16.039 57.2262 16.1607L57.1323 16.2406L57.3715 16.2419C57.7194 16.2437 58.3549 16.3461 58.7052 16.4568C59.0365 16.5614 59.5403 16.8004 59.7289 16.9423L59.8478 17.0317L61.118 16.4082C67.4888 13.2806 72.1197 11.2876 74.439 10.6753C74.6661 10.6154 74.8811 10.5662 74.9167 10.566C74.9911 10.5658 75.1181 10.7843 75.0709 10.8315C75.0537 10.8488 71.704 12.3362 67.6273 14.1368C63.5505 15.9375 60.2072 17.4186 60.1976 17.4281C60.1881 17.4377 60.2658 17.536 60.3702 17.6466C60.7083 18.0046 60.9326 18.5775 61.0429 19.365C61.0776 19.6125 61.1181 19.815 61.1329 19.815C61.1476 19.815 61.9598 19.4448 62.9377 18.9924C71.4694 15.0453 76.2811 12.5479 76.7647 11.8161C77.0542 11.3779 76.9438 10.5945 76.4481 9.56946C75.7869 8.20235 74.6968 7.0882 73.9509 7.01726C73.843 7.00699 73.5324 7.03752 73.22 7.08911ZM76.6352 14.0284C76.222 14.0695 76.5744 13.9242 72.5807 15.6988C66.5346 18.3852 62.4029 20.324 61.5666 20.8673L61.2706 21.0596L61.2907 21.725C61.3348 23.1861 61.6329 24.0923 62.1629 24.3766C62.2941 24.447 62.3701 24.4567 62.7635 24.4531C63.3185 24.4481 63.5861 24.4106 66.2174 23.9687C70.5629 23.2391 73.3753 22.9156 76.6917 22.7638L77.255 22.738L77.492 22.194C77.6224 21.8948 77.7197 21.6406 77.7083 21.6292C77.6668 21.5876 75.3721 21.7658 73.4441 21.9603C69.4291 22.3653 65.8291 22.9769 63.7396 23.609L63.3642 23.7226L63.2633 23.6017C63.2078 23.5352 63.174 23.4701 63.1882 23.457C63.2397 23.4096 65.9835 22.7057 67.5501 22.338C71.5113 21.4084 75.541 20.7136 77.7331 20.5823L78.172 20.5561L78.2803 20.2701C78.7015 19.1586 78.8578 18.7198 78.839 18.701C78.8147 18.6767 78.4194 18.7678 75.2086 19.5377C69.9126 20.8075 65.6782 21.8934 63.7074 22.4871C63.4391 22.568 63.2156 22.6301 63.2108 22.6251C63.206 22.6201 63.2109 22.5387 63.2216 22.4441L63.2411 22.2721L64.4101 21.866C69.7851 19.9987 75.1952 18.3078 78.0805 17.5932C78.576 17.4704 79.0655 17.3491 79.1682 17.3235L79.3548 17.277L79.4451 16.9387C79.5547 16.5276 79.5808 15.7462 79.4919 15.5351C79.4424 15.4177 79.4307 15.4114 79.3048 15.4351C78.7771 15.5342 73.196 17.6618 65.211 20.8078C64.1827 21.213 63.3338 21.5445 63.3246 21.5445C63.2848 21.5445 63.3124 21.2118 63.3548 21.1789C63.3807 21.1589 64.1028 20.8502 64.9597 20.493C70.8606 18.0332 75.8914 15.8412 77.7045 14.9399C78.4734 14.5577 78.6999 14.4173 78.6999 14.3232C78.6999 14.2294 78.5795 14.1227 78.4085 14.065C78.2286 14.0043 77.1101 13.9812 76.6352 14.0284ZM3.22262 16.3198C1.48036 16.5918 0.455284 18.0631 0.551654 20.1534C0.59783 21.1554 0.862648 21.9075 1.39525 22.549C1.70174 22.9183 2.31284 23.2943 2.84721 23.4424C3.15659 23.5282 4.09167 23.5617 4.47114 23.5007C5.47943 23.3385 6.28662 22.7231 6.71827 21.7874C7.08422 20.9941 7.18855 19.8282 6.98053 18.8562C6.70603 17.5735 5.8895 16.6748 4.74306 16.3936C4.37515 16.3033 3.57664 16.2646 3.22262 16.3198ZM8.1218 19.8902V23.4244H8.79755H9.47329V19.8902V16.356H8.79755H8.1218V19.8902ZM19.1215 19.8902V23.4244H19.7972H20.473V19.8902V16.356H19.7972H19.1215V19.8902ZM30.1587 19.909V23.4244H30.8344H31.5102V19.909V16.3936H30.8344H30.1587V19.909ZM3.4291 17.4516C2.75001 17.564 2.26036 18.0739 2.03087 18.9075C1.91978 19.311 1.91133 20.4452 2.01619 20.8677C2.26933 21.8877 2.88156 22.4102 3.82179 22.4088C4.72755 22.4075 5.34665 21.9004 5.58842 20.9617C5.80139 20.1348 5.72653 19.0565 5.40961 18.3863C5.24938 18.0474 4.87404 17.6741 4.58489 17.5661C4.19638 17.421 3.83234 17.3849 3.4291 17.4516ZM33.9504 18.3472C33.473 18.4496 32.8333 18.7246 32.8485 18.8209C32.8516 18.8403 32.9171 19.0542 32.9941 19.2961L33.1342 19.736L33.3465 19.6287C33.7263 19.4366 34.0177 19.359 34.4418 19.3369C35.1708 19.2988 35.4896 19.512 35.4896 20.0373V20.2171L34.8608 20.2389C34.1574 20.2632 33.7455 20.3343 33.4078 20.4895C32.7933 20.7718 32.4897 21.3358 32.5307 22.1189C32.5609 22.695 32.8676 23.1571 33.3797 23.3981C33.5986 23.5011 33.6807 23.5183 34.0112 23.5309C34.6159 23.554 34.9814 23.4148 35.3353 23.0271L35.521 22.8235L35.5858 23.124L35.6506 23.4244H36.2486H36.8467L36.8321 21.5727C36.8191 19.917 36.8104 19.6991 36.7501 19.5142C36.531 18.8431 36.1239 18.4692 35.4586 18.3279C35.1033 18.2526 34.3466 18.2622 33.9504 18.3472ZM40.5999 18.3305C40.3053 18.4132 39.9233 18.6259 39.681 18.8422C39.5567 18.9531 39.469 19.0088 39.469 18.9767C39.469 18.9465 39.4418 18.8013 39.4086 18.6541L39.3482 18.3863H38.7328H38.1175V20.9053V23.4244H38.812H39.5065V21.6978V19.9712L39.7036 19.7976C40.0045 19.5324 40.3301 19.3858 40.6501 19.3714C41.1244 19.35 41.3188 19.5487 41.3847 20.1225C41.4044 20.2946 41.4207 21.1079 41.4209 21.9299L41.4212 23.4244H42.0994H42.7777L42.7628 21.5727C42.7497 19.9473 42.7398 19.6937 42.6821 19.4974C42.531 18.984 42.2452 18.6144 41.8473 18.4183C41.626 18.3092 41.5642 18.2965 41.2022 18.2857C40.9271 18.2776 40.7385 18.2916 40.5999 18.3305ZM45.3818 18.3003C44.8988 18.3672 44.0491 18.6963 44.0491 18.8165C44.0491 18.8963 44.3373 19.721 44.3612 19.7096C45.0109 19.4014 45.3606 19.3127 45.8475 19.3328C46.1375 19.3447 46.238 19.3647 46.3628 19.4353C46.5558 19.5445 46.6758 19.7512 46.7038 20.0225L46.725 20.2286L46.2974 20.2292C44.6233 20.2318 43.8807 20.6622 43.7406 21.7111C43.6388 22.4729 43.967 23.1218 44.6027 23.4155C44.8912 23.5488 45.4389 23.5787 45.7997 23.4809C46.1015 23.3991 46.4386 23.1838 46.5921 22.9748L46.7095 22.8149L46.746 22.9599C46.7661 23.0396 46.7974 23.1725 46.8156 23.2552L46.8487 23.4056L47.4405 23.416L48.0324 23.4263L48.02 21.5361C48.0079 19.6886 48.0058 19.6408 47.924 19.4232C47.6139 18.5976 47.0427 18.2676 45.9449 18.2797C45.6972 18.2825 45.4437 18.2917 45.3818 18.3003ZM56.3439 18.3288C55.8844 18.4139 55.1614 18.7043 55.1614 18.8039C55.1614 18.8566 55.3869 19.59 55.4272 19.6681C55.4541 19.7203 55.4905 19.7119 55.7133 19.6022C56.0629 19.4299 56.4966 19.3262 56.8661 19.3264C57.2308 19.3267 57.4104 19.3717 57.5642 19.5013C57.718 19.6309 57.7829 19.7661 57.8125 20.0186L57.8372 20.2286H57.423C56.1448 20.2286 55.4448 20.4672 55.0842 21.0259C54.8119 21.4478 54.7495 22.1134 54.9357 22.608C55.0494 22.9098 55.3581 23.2367 55.6788 23.3949C55.8994 23.5037 55.9689 23.5186 56.3118 23.5314C56.6231 23.5429 56.7461 23.5307 56.9527 23.4679C57.2461 23.3786 57.5252 23.194 57.6986 22.9745C57.8323 22.8053 57.8315 22.8045 57.9034 23.1706L57.9532 23.4244H58.547H59.1408L59.1401 21.6667C59.1396 20.2607 59.1284 19.8565 59.084 19.6464C58.9334 18.9345 58.4807 18.4812 57.7699 18.3304C57.4493 18.2624 56.7076 18.2616 56.3439 18.3288ZM10.5704 19.3167L9.73608 20.2471V20.6458V21.0445L9.94865 21.3415C10.0656 21.5049 10.4635 22.0404 10.8329 22.5315L11.5044 23.4244H12.2368C12.8125 23.4244 12.9631 23.4144 12.9412 23.3774C12.9259 23.3516 12.4593 22.726 11.9043 21.9872L10.8953 20.644L11.8923 19.5433C12.4407 18.938 12.8894 18.43 12.8895 18.4145C12.8895 18.3989 12.5555 18.3863 12.1471 18.3863H11.4046L10.5704 19.3167ZM13.265 20.2038C13.265 21.879 13.2707 22.0436 13.3377 22.3062C13.5048 22.9605 13.8275 23.3037 14.4427 23.4815C14.6077 23.5292 14.7637 23.5415 15.0622 23.5307C15.4305 23.5172 15.4831 23.5054 15.7468 23.3774C15.9266 23.2901 16.11 23.1623 16.2415 23.0327L16.4505 22.8267L16.515 23.1256L16.5795 23.4244H17.1935H17.8075V20.9053V18.3863H17.113H16.4185V20.115V21.8437L16.2105 22.0487C15.9247 22.3305 15.6811 22.4469 15.3775 22.4469C14.9622 22.4469 14.7346 22.2802 14.6574 21.9197C14.6314 21.7983 14.6165 21.1209 14.6165 20.0575V18.3863H13.9407H13.265V20.2038ZM21.5711 19.3262L20.7358 20.2605V20.6487V21.0369L21.626 22.2307L22.5163 23.4244H23.2403C23.6385 23.4244 23.9643 23.4128 23.9643 23.3986C23.9643 23.3844 23.5067 22.7659 22.9475 22.0242C22.3882 21.2825 21.9389 20.654 21.949 20.6276C21.9591 20.6012 22.4083 20.0939 22.9471 19.5001C23.4859 18.9064 23.9268 18.4128 23.9268 18.4034C23.9268 18.394 23.5847 18.3875 23.1666 18.3891L22.4064 18.3919L21.5711 19.3262ZM24.2647 20.0755C24.2647 21.0763 24.2812 21.8832 24.3051 22.0556C24.3813 22.6044 24.5843 22.988 24.9293 23.2355C25.2519 23.4669 25.4459 23.5184 25.9935 23.5184H26.4648L26.7597 23.3724C26.9348 23.2858 27.1373 23.1462 27.2581 23.0291C27.37 22.9206 27.4676 22.8509 27.4751 22.8743C27.4826 22.8977 27.512 23.0268 27.5405 23.1612L27.5922 23.4056L28.1997 23.416L28.8072 23.4263V20.9063V18.3863H28.1315H27.4557V20.1045V21.8228L27.2297 22.0429C26.9401 22.3249 26.6865 22.446 26.3843 22.4465C26.0685 22.447 25.8508 22.3336 25.7382 22.1099C25.6541 21.943 25.6537 21.9332 25.6537 20.1642V18.3863H24.9592H24.2647V20.0755ZM49.3056 20.1064C49.3061 21.0525 49.3227 21.9394 49.3426 22.0774C49.4173 22.5942 49.6342 22.995 49.9695 23.2355C50.2922 23.4669 50.4861 23.5184 51.0338 23.5184H51.505L51.7999 23.3724C51.975 23.2858 52.1775 23.1462 52.2983 23.0291C52.4102 22.9206 52.5078 22.8509 52.5153 22.8743C52.5228 22.8977 52.5522 23.0268 52.5807 23.1612L52.6324 23.4056L53.2399 23.416L53.8474 23.4263V20.9063V18.3863H53.1717H52.4959V20.1045V21.8228L52.2699 22.0429C51.9804 22.3249 51.7267 22.446 51.4246 22.4465C51.1087 22.447 50.891 22.3336 50.7784 22.1099C50.6943 21.943 50.6939 21.9332 50.6939 20.1642V18.3863H49.9994H49.3049L49.3056 20.1064ZM34.5886 21.1682C34.0473 21.2401 33.7631 21.5583 33.8094 22.0409C33.8654 22.6243 34.5814 22.7388 35.1343 22.2526C35.3513 22.0619 35.462 21.8034 35.4819 21.4411L35.499 21.1309L35.147 21.1359C34.9535 21.1386 34.7022 21.1531 34.5886 21.1682ZM45.7676 21.1717C45.2702 21.2446 45.0152 21.5028 45.0095 21.9393C45.0073 22.1118 45.0265 22.1971 45.0915 22.3019C45.3158 22.6634 45.8968 22.64 46.3204 22.2523C46.5641 22.0292 46.6761 21.7829 46.7045 21.4077L46.7254 21.1309L46.3539 21.1355C46.1496 21.138 45.8858 21.1543 45.7676 21.1717ZM56.8883 21.1677C56.4034 21.2308 56.1009 21.542 56.1001 21.9783C56.0998 22.1542 56.2502 22.4124 56.4002 22.4937C56.6966 22.6542 57.2252 22.4987 57.5189 22.1646C57.6986 21.9602 57.785 21.7328 57.8155 21.3847L57.8377 21.1309L57.4662 21.1359C57.2619 21.1386 57.0019 21.1529 56.8883 21.1677ZM74.2137 24.1238C74.1311 24.1315 73.8186 24.1559 73.5192 24.1778C71.8114 24.303 68.7976 24.6812 64.1448 25.3544C63.1081 25.5043 62.2523 25.6348 62.243 25.6443C62.2258 25.6618 62.3558 26.9584 62.3767 26.9777C62.383 26.9836 62.8949 26.9135 63.5144 26.8221C66.1325 26.4359 70.6386 25.8208 73.6242 25.4421L74.9117 25.2788L74.9839 25.3803L75.0561 25.4819L74.1844 25.7117C70.2437 26.7506 66.1356 27.4931 63.0918 27.7165L62.4444 27.764V27.861C62.4444 27.9883 62.5553 29.3008 62.5669 29.311C62.5841 29.3263 65.7181 28.5621 68.6013 27.8396C71.5009 27.1129 73.3741 26.6176 74.4343 26.2972C74.7415 26.2044 75.0007 26.1364 75.0104 26.1461C75.0201 26.1558 75.0169 26.2142 75.0034 26.2759C74.9802 26.3819 74.9493 26.3984 74.4461 26.5744C73.5649 26.8827 70.0121 28.0574 68.8077 28.4387C66.556 29.1517 64.4018 29.7769 63.214 30.0622C62.9043 30.1366 62.6412 30.209 62.6293 30.223C62.6019 30.2554 62.6808 31.3437 62.7129 31.3759C62.7293 31.3923 73.4372 27.5193 74.9014 26.9673C74.9382 26.9534 74.9478 26.9858 74.9389 27.0932L74.927 27.2377L68.8319 29.615C65.4796 30.9225 62.7271 32.002 62.7152 32.0139C62.6948 32.0344 62.9119 33.631 62.9642 33.8457L62.9888 33.9463L63.3454 33.7943C68.0925 31.7715 72.9047 29.3722 74.8762 28.0452C75.5105 27.6183 76.1272 26.8746 76.5411 26.0375C76.8978 25.316 76.9814 24.8716 76.825 24.5267C76.6822 24.2118 76.379 24.1347 75.2273 24.1203C74.7524 24.1144 74.2963 24.116 74.2137 24.1238ZM74.0823 30.0677C74.0514 30.0787 73.2911 30.3805 72.393 30.7382C67.6477 32.6283 64.497 34.1413 63.4674 35.0241C63.2706 35.1929 63.2643 35.2812 63.4257 35.6047C63.6327 36.0196 64.3367 36.6663 64.8208 36.8865C64.9075 36.9259 65.056 36.9585 65.1507 36.959C65.2454 36.9594 65.8705 36.849 66.5397 36.7137L67.7566 36.4675L68.1695 36.2086C68.3967 36.0662 68.6163 35.9237 68.6576 35.8919C68.7294 35.8367 68.727 35.8342 68.6013 35.8331C68.1392 35.829 66.5794 36.0851 65.3891 36.3603C64.5755 36.5485 64.6529 36.5352 64.636 36.4898C64.6214 36.4504 64.8002 36.3991 66.7242 35.8903C68.0486 35.5401 69.027 35.3123 69.3083 35.2886C69.471 35.2749 69.5681 35.2246 70.034 34.9131C70.3298 34.7153 70.5434 34.5535 70.5086 34.5535C70.4739 34.5535 69.9671 34.6562 69.3826 34.7817C67.4449 35.1977 65.8999 35.5718 64.8207 35.8863C64.5688 35.9598 64.3534 36.0199 64.3421 36.0199C64.3308 36.0199 64.3215 35.9809 64.3215 35.9334C64.3215 35.8547 64.4067 35.8155 65.2694 35.497C67.2878 34.752 70.1007 33.8606 71.217 33.6122L71.599 33.5272L72.2052 32.7961C72.5386 32.3939 72.8049 32.0585 72.7969 32.0505C72.789 32.0426 70.8872 32.7954 68.5708 33.7235C64.4128 35.3894 64.3591 35.4097 64.3592 35.3112C64.3594 35.2152 64.5283 35.1353 68.9458 33.1436L73.5322 31.0757L73.8378 30.6057C74.0059 30.3472 74.156 30.1146 74.1714 30.0887C74.2007 30.0396 74.177 30.034 74.0823 30.0677Z" fill="white"/>
</svg>
