<svg width="57" height="28" viewBox="0 0 57 28" fill="none" xmlns="http://www.w3.org/2000/svg">
<path fill-rule="evenodd" clip-rule="evenodd" d="M13.6011 0.115058C13.1785 0.338416 12.8423 0.786812 12.7256 1.28295C12.6859 1.45205 12.6789 1.53871 12.6871 1.76536C12.6973 2.04948 12.7499 2.27595 12.8113 2.2997C12.8565 2.31724 13.1556 2.16461 13.2902 2.05531C13.5185 1.86993 13.7296 1.52727 13.8261 1.18521C13.9009 0.920081 13.8999 0.477347 13.8238 0.229062C13.7938 0.13094 13.7579 0.0511627 13.744 0.0517612C13.7302 0.0523596 13.6659 0.0808548 13.6011 0.115058ZM10.1989 0.29153C9.8641 0.708093 9.61334 1.32594 9.53331 1.93143C9.44207 2.62178 9.64653 3.49772 10.0357 4.08341C10.1643 4.2771 10.4045 4.53901 10.4534 4.53901C10.4718 4.53901 10.5634 4.45804 10.6571 4.35906C11.5193 3.44796 11.5753 1.81363 10.7848 0.63094C10.6604 0.444893 10.3888 0.142748 10.3459 0.142748C10.3308 0.142748 10.2646 0.209704 10.1989 0.29153ZM6.51619 0.286604C6.43102 0.418009 6.28964 0.763634 6.2396 0.962869C6.08895 1.5624 6.12955 2.16052 6.35886 2.72022C6.54417 3.17246 6.81367 3.53797 7.13296 3.77001C7.20979 3.82583 7.28371 3.87152 7.2972 3.87152C7.38256 3.87152 7.63392 3.39842 7.71298 3.08893C7.77588 2.8427 7.79695 2.38855 7.75796 2.1187C7.68052 1.58226 7.38641 0.976473 7.01703 0.592456C6.88355 0.453663 6.60969 0.234816 6.56952 0.234816C6.55864 0.234816 6.53466 0.258109 6.51619 0.286604ZM17.5604 0.575055C16.6134 0.682913 15.4297 1.37122 14.752 2.20812C14.4277 2.60845 14.0998 3.20225 13.9284 3.69942C13.7432 4.23652 13.66 4.83922 13.7057 5.31215C13.7201 5.46041 13.7381 5.59195 13.7458 5.6045C13.7659 5.63739 14.1727 5.6062 14.4124 5.55337C14.8601 5.45472 15.2274 5.29245 15.6567 5.00356C16.673 4.31982 17.3593 3.23723 17.6219 1.90355C17.6542 1.73988 17.6625 1.58769 17.6614 1.17852C17.6607 0.89368 17.6505 0.639917 17.6388 0.614598C17.6242 0.583272 17.5992 0.570635 17.5604 0.575055ZM2.24877 1.00013C2.1877 1.26856 2.18747 1.96722 2.24832 2.29485C2.37216 2.96144 2.61558 3.50561 3.01307 4.00449C3.46287 4.56903 3.99323 4.95597 4.58401 5.15067C4.83981 5.23498 4.8446 5.23348 4.9034 5.05114C5.03364 4.64731 5.06401 4.17122 4.98814 3.7219C4.77372 2.45196 3.79625 1.29565 2.59372 0.889399C2.46483 0.845874 2.34421 0.810243 2.32567 0.810243C2.30214 0.810243 2.27891 0.867556 2.24877 1.00013ZM18.6206 3.08063C18.4175 3.12452 18.0923 3.28023 17.906 3.42271C17.6565 3.61359 17.4362 3.92413 17.319 4.2501C17.256 4.42535 17.2097 4.72658 17.2295 4.83287L17.2445 4.91375L17.4082 4.89978C17.5957 4.88374 17.7736 4.82712 17.9771 4.71861C18.1564 4.62305 18.4829 4.30037 18.5909 4.11204C18.7646 3.80923 18.8675 3.45219 18.8553 3.19511C18.8474 3.03128 18.8479 3.03151 18.6206 3.08063ZM12.6907 3.24883C12.2896 3.44749 11.9119 3.76957 11.6302 4.15308C11.3818 4.49137 11.2434 4.78743 11.127 5.22952C11.0666 5.45873 11.0558 5.54513 11.0464 5.874C11.0374 6.19249 11.0429 6.28907 11.0806 6.47245C11.1053 6.59271 11.1422 6.7313 11.1627 6.78042C11.1971 6.86328 11.2052 6.86885 11.2744 6.85752C11.4163 6.83428 11.7145 6.70278 11.8917 6.58528C12.4741 6.19928 12.8856 5.57681 13.0614 4.81554C13.138 4.48435 13.1579 3.9701 13.1058 3.66926C13.0647 3.43205 12.979 3.15322 12.9436 3.1421C12.931 3.13814 12.8172 3.18618 12.6907 3.24883ZM5.59878 4.03839C5.54032 4.21532 5.53599 4.25498 5.53533 4.61957C5.53473 4.95801 5.54155 5.03508 5.58587 5.19014C5.69738 5.58035 5.88663 5.89568 6.1775 6.17592C6.35352 6.34551 6.61466 6.51848 6.69464 6.51848C6.74142 6.51848 6.82555 6.34346 6.8827 6.12719C6.93883 5.91479 6.93359 5.48439 6.87199 5.2504C6.73296 4.72223 6.35931 4.21433 5.91787 3.95343C5.82022 3.89573 5.72257 3.8485 5.70091 3.8485C5.67187 3.8485 5.64508 3.89828 5.59878 4.03839ZM7.98827 3.93481C7.93791 4.03082 7.82613 4.38627 7.78338 4.58636C7.63952 5.25986 7.66816 6.06808 7.85962 6.73714C8.11567 7.63198 8.75955 8.53434 9.50112 9.03759C9.74276 9.20158 10.0778 9.35911 10.1163 9.32684C10.1981 9.25834 10.4052 8.73613 10.4679 8.44041C10.6056 7.79068 10.5336 6.98078 10.2789 6.31501C9.92823 5.39845 9.27441 4.59711 8.50252 4.13785C8.3552 4.0502 8.0445 3.89453 8.01686 3.89453C8.01276 3.89453 7.9999 3.91265 7.98827 3.93481ZM1.52291 4.4527C1.50515 4.64443 1.53787 4.95334 1.60353 5.21415C1.83288 6.12496 2.5913 6.85704 3.46451 7.01052C3.5345 7.02283 3.53926 7.0189 3.56683 6.92632C3.58454 6.8668 3.59496 6.70895 3.59373 6.51848C3.592 6.25206 3.58311 6.17896 3.53124 6.00573C3.45698 5.75777 3.3054 5.44844 3.16726 5.26297C2.92863 4.94255 2.53663 4.62132 2.18291 4.45633C2.00234 4.37209 1.7076 4.28582 1.60045 4.28582C1.54001 4.28582 1.53796 4.29022 1.52291 4.4527ZM16.8765 5.735C15.8096 5.96568 14.9178 6.81077 14.6101 7.88286C14.5455 8.10783 14.5024 8.4654 14.522 8.61294L14.535 8.71097L14.8223 8.69864C15.1727 8.68361 15.357 8.63463 15.7035 8.46441C16.0117 8.31301 16.2596 8.12958 16.5009 7.87439C17.0174 7.32792 17.3324 6.58663 17.3324 5.9175V5.68987L17.2013 5.69148C17.1292 5.69237 16.9831 5.71196 16.8765 5.735ZM19.5439 5.89881C18.3043 6.03427 17.1729 7.26476 17.1729 8.47751C17.1729 8.62848 17.1754 8.63582 17.2327 8.65035C17.32 8.67244 17.6499 8.64436 17.8281 8.59964C18.3857 8.4597 18.948 8.04838 19.2924 7.52856C19.5292 7.17122 19.6664 6.84454 19.7365 6.47136C19.7806 6.23703 19.7848 5.87262 19.7434 5.87706C19.7277 5.87874 19.638 5.88853 19.5439 5.89881ZM4.43976 6.54725C4.37766 6.72508 4.36453 7.61745 4.41795 8.03068C4.62908 9.66462 5.37412 11.0847 6.55737 12.1086C7.44145 12.8736 8.37533 13.3252 9.34525 13.4567L9.44018 13.4695L9.49793 13.2222C9.58203 12.862 9.60376 12.6599 9.6033 12.2423C9.60237 11.419 9.40911 10.6471 9.00156 9.83904C8.71101 9.26295 8.35483 8.77554 7.8612 8.27853C6.96154 7.37271 5.90254 6.78391 4.77946 6.56511C4.50036 6.51075 4.45337 6.50826 4.43976 6.54725ZM0.377304 6.92703C0.431656 8.27979 1.23072 9.50927 2.45635 10.126C2.81162 10.3047 3.17175 10.4124 3.51891 10.4436C3.7315 10.4627 3.72136 10.4825 3.73732 10.0171C3.74689 9.73726 3.74108 9.64574 3.70127 9.45077C3.55782 8.74826 3.23078 8.15672 2.70167 7.6427C2.12217 7.07978 1.44834 6.73217 0.72366 6.62236C0.598268 6.60334 0.465968 6.58774 0.429672 6.58767L0.363647 6.58753L0.377304 6.92703ZM13.6391 6.70522C13.381 6.77441 13.0004 6.93698 12.7298 7.09363C11.4372 7.84194 10.6291 9.00552 10.3638 10.5004C10.2936 10.8962 10.3123 11.556 10.4038 11.9097L10.4259 11.9955L10.5335 11.983C10.8957 11.9409 11.2798 11.83 11.5692 11.684C12.8478 11.039 13.7246 9.77459 13.9702 8.22175C14.0363 7.80392 14.021 7.18395 13.9346 6.77742C13.9045 6.63603 13.9007 6.63509 13.6391 6.70522ZM16.0785 9.27222C16.0472 9.27687 15.9446 9.29183 15.8505 9.30546C15.2681 9.38991 14.5289 9.67992 13.9924 10.0344C13.0124 10.6822 12.2409 11.8017 12.0198 12.8973C11.9685 13.1511 11.9331 13.6308 11.9656 13.6308C11.9769 13.6308 12.099 13.6416 12.237 13.6548C12.7957 13.7084 13.4075 13.5817 14.0198 13.2856C14.9397 12.8408 15.6723 12.092 16.148 11.1104C16.3318 10.7312 16.4178 10.4899 16.4975 10.1303C16.5569 9.86256 16.6158 9.3477 16.5937 9.28958C16.5843 9.26488 16.5303 9.25823 16.3585 9.26064C16.2359 9.26237 16.1099 9.2676 16.0785 9.27222ZM18.7004 9.46623C18.5016 9.49629 18.1862 9.59656 17.985 9.69362C17.6717 9.8448 17.4507 10.0057 17.1957 10.2685C16.9321 10.54 16.7665 10.7864 16.6262 11.1155C16.4853 11.4459 16.3918 11.9272 16.4322 12.1132L16.4483 12.1869L16.7023 12.174C17.0051 12.1587 17.2177 12.1027 17.5054 11.9622C18.354 11.548 18.9739 10.5705 18.9739 9.64678V9.44165L18.8998 9.44446C18.8591 9.446 18.7693 9.45581 18.7004 9.46623ZM3.19731 11.314C3.0736 11.3402 3.07196 11.3416 3.07572 11.4195C3.07782 11.4629 3.12686 11.5947 3.18468 11.7123C3.47379 12.3003 3.96877 12.6959 4.61082 12.8522C4.83698 12.9073 5.19793 12.9169 5.38027 12.8726C5.48827 12.8464 5.49997 12.8375 5.49997 12.781C5.49997 12.6826 5.43449 12.4825 5.34694 12.3134C5.08852 11.8141 4.55164 11.4359 3.93056 11.3154C3.73339 11.2772 3.37436 11.2765 3.19731 11.314ZM5.18765 13.7917C4.93789 13.8184 4.64404 13.8751 4.46249 13.9317C4.28945 13.9857 4.29162 13.966 4.42114 14.3098C4.68168 15.0013 5.28988 15.7914 5.94495 16.2892C6.45728 16.6786 7.21734 17.0218 7.81263 17.1325C7.89491 17.1478 7.96222 17.1666 7.96222 17.1743C7.96222 17.182 7.88707 17.2783 7.79522 17.3885C7.05499 18.2762 6.54631 19.3816 6.36679 20.4925C6.07107 22.3225 6.55623 24.0821 7.78669 25.6423C8.77111 26.8905 10.0209 27.5913 11.6784 27.8245C12.0781 27.8807 12.9888 27.8802 13.3997 27.8236C13.9705 27.7449 14.4861 27.6167 15.0001 27.4256C15.3234 27.3054 15.9482 26.9985 16.2267 26.8232C16.3772 26.7284 16.4151 26.7133 16.4433 26.7368C16.4621 26.7525 16.7205 26.9847 17.0175 27.2528L17.5575 27.7402H18.5393H19.5211V27.5374V27.3346L18.5057 26.3721C17.522 25.4397 17.4914 25.4081 17.5255 25.3608C18.1995 24.4239 18.5832 23.5 18.7503 22.4118C18.8216 21.9472 18.8209 21.1053 18.7487 20.6304C18.5619 19.4009 18.0765 18.3237 17.278 17.3663L17.0821 17.1314L17.1593 16.8599C17.2471 16.5509 17.3017 16.2458 17.3235 15.9417L17.3385 15.7322L17.2399 15.7188C16.9747 15.6829 16.2994 15.7897 15.8667 15.936L15.6663 16.0038L15.3537 15.8444C15.1818 15.7568 14.9258 15.6404 14.7847 15.5856L14.5283 15.4861L14.5819 15.4273C14.7395 15.2545 14.9159 14.9063 14.9741 14.653C15.0032 14.5264 15.0042 14.4945 14.9798 14.4778C14.9292 14.443 14.3279 14.4722 14.1634 14.5174C13.8017 14.6169 13.5118 14.7789 13.2499 15.0281L13.0996 15.1711L12.6113 15.1702C12.1916 15.1694 11.6422 15.2038 11.6119 15.2328C11.6067 15.2378 11.5785 15.1461 11.5493 15.029C11.4847 14.771 11.3558 14.4942 11.2164 14.3144L11.1128 14.1809L10.997 14.2979C10.7268 14.5706 10.4934 15.0412 10.4359 15.4288L10.4202 15.5351L10.2114 15.6186C10.0966 15.6646 9.8926 15.7584 9.75802 15.8272L9.51334 15.9523L9.39171 15.764C8.7339 14.7455 7.56668 14.0223 6.26618 13.8273C5.96469 13.7821 5.44014 13.7648 5.18765 13.7917ZM31.6885 21.4048C30.3387 24.845 29.2278 27.6778 29.2199 27.7C29.2065 27.7379 29.2615 27.7402 30.1743 27.7402H31.1431L31.2509 27.4583C31.4213 27.0131 31.9613 25.6743 32.2652 24.9437C32.418 24.5765 32.5597 24.2322 32.5801 24.1783L32.6173 24.0805L34.8068 24.081L36.9962 24.0815L37.4848 25.2952C37.7534 25.9627 38.0856 26.7859 38.2228 27.1245L38.4724 27.7402H39.4271C39.9618 27.7402 40.3818 27.7313 40.3818 27.72C40.3818 27.7052 35.7571 15.9101 35.4916 15.2477L35.4524 15.1499H34.7976H34.1429L31.6885 21.4048ZM19.9544 19.8396C19.9545 23.728 19.9592 24.3767 19.9888 24.5754C20.1951 25.9633 21.2062 27.061 22.7558 27.5792C23.688 27.891 24.7261 27.9429 25.6995 27.7262C27.0252 27.4311 28.1308 26.6511 28.6503 25.6443C28.7789 25.3951 28.9024 25.0536 28.9745 24.748C29.0128 24.5858 29.0157 24.2977 29.0221 19.9547L29.0289 15.334H28.1284H27.2278L27.2217 19.8281L27.2156 24.3222L27.1617 24.4833C26.9803 25.0259 26.6325 25.4051 26.0434 25.7028C25.5381 25.9581 24.8232 26.09 24.2246 26.0384C22.882 25.9225 21.9332 25.2427 21.7795 24.2862C21.7636 24.187 21.7557 22.6837 21.7556 19.736L21.7554 15.334H20.8548H19.9543L19.9544 19.8396ZM38.2844 15.3537C38.2844 15.3672 42.6077 26.2716 43.2022 27.7575C43.2111 27.7796 43.3663 27.7863 43.8701 27.7863H44.5265L44.8159 27.0555C44.975 26.6535 46.0802 23.8699 47.272 20.8696C48.4637 17.8694 49.4438 15.3964 49.4499 15.3741C49.4605 15.3358 49.4082 15.3338 48.4993 15.3395L47.5375 15.3455L45.7094 19.9432C44.704 22.4719 43.8758 24.5408 43.869 24.5408C43.8621 24.5409 43.0414 22.4696 42.0451 19.938L40.2336 15.3352L39.259 15.3346C38.7229 15.3343 38.2844 15.3429 38.2844 15.3537ZM50.0028 16.2317V17.1294H51.1428H52.2827V21.5256V25.9219H51.1428H50.0028V26.8311V27.7402H53.1832H56.3636V26.8311V25.9219H55.2123H54.061V21.5256V17.1294H55.2123H56.3636V16.2317V15.334H53.1832H50.0028V16.2317ZM12.0546 17.0164C11.4586 17.0898 10.8332 17.3056 10.3059 17.62C8.80631 18.5141 7.91568 20.2752 8.10042 21.9811C8.27278 23.5728 9.23584 24.9544 10.6638 25.6585C11.7368 26.1876 12.9321 26.2641 14.0616 25.8758C14.3325 25.7827 14.9842 25.4773 14.9842 25.4435C14.9842 25.4303 13.0452 23.6748 11.6811 22.453L11.5986 22.3792L12.8525 22.3791L14.1064 22.3791L14.9842 23.1855C15.4669 23.629 15.9309 24.0541 16.0152 24.1301L16.1684 24.2682L16.2964 24.07C16.9279 23.0919 17.157 21.6413 16.8654 20.4668C16.7419 19.9694 16.5194 19.4601 16.2394 19.034C16.15 18.8979 16.0706 18.7866 16.0629 18.7866C16.0552 18.7866 15.9607 18.8721 15.8529 18.9766C15.3079 19.5045 14.633 19.8732 13.9013 20.0426C13.6675 20.0967 13.5746 20.1062 13.2629 20.108C13.0623 20.1091 12.848 20.1015 12.7867 20.0909L12.6753 20.0718L12.6912 19.8377C12.7503 18.9683 13.1636 18.0187 13.7881 17.3174L13.8896 17.2034L13.7017 17.1521C13.3278 17.0501 13.07 17.0138 12.6473 17.0038C12.4216 16.9984 12.1549 17.0041 12.0546 17.0164ZM11.7468 17.7823C10.9888 18.0129 10.3929 18.7766 10.3404 19.5846L10.3264 19.7993L10.4381 19.7992C10.7323 19.7988 11.2355 19.6004 11.5454 19.3628C11.9756 19.0327 12.3004 18.4427 12.3332 17.9314L12.3463 17.7278L12.132 17.729C11.978 17.7299 11.8697 17.7449 11.7468 17.7823ZM34.0529 20.2312L33.2999 22.3657L34.7926 22.3717C35.6136 22.3749 36.2881 22.3748 36.2916 22.3713C36.3007 22.3621 34.8414 18.1336 34.8221 18.1136C34.8132 18.1042 34.467 19.0572 34.0529 20.2312ZM11.3234 19.6965C11.3145 19.7445 11.3131 19.8934 11.3204 20.0274C11.362 20.7959 11.801 21.4696 12.4877 21.8191C12.6447 21.899 12.8436 21.9629 12.9349 21.9629C13.0072 21.9629 13.0131 21.9498 13.0454 21.7176C13.1026 21.3068 12.9472 20.7912 12.6477 20.3982C12.3518 20.01 11.8351 19.6779 11.4422 19.6236L11.3396 19.6094L11.3234 19.6965Z" fill="white" fill-opacity="0.9"/>
</svg>
