<svg width="100" height="30" viewBox="0 0 100 30" fill="none" xmlns="http://www.w3.org/2000/svg">
<path fill-rule="evenodd" clip-rule="evenodd" d="M12.1365 0.479962C12.1239 0.491495 12.0597 0.514051 11.9939 0.530076C11.5891 0.6287 11.3092 0.933679 11.4007 1.17633C11.4396 1.2793 11.5174 1.35581 11.6421 1.41357C11.7315 1.45494 11.8005 1.46419 12.0289 1.46526C12.3104 1.46662 12.4188 1.44375 12.617 1.34124C12.8192 1.23667 12.9475 1.0637 12.9475 0.895802C12.9475 0.733613 12.7622 0.561372 12.5397 0.516673C12.4975 0.5082 12.4572 0.491762 12.45 0.480132C12.4331 0.452696 12.1665 0.45255 12.1365 0.479962ZM16.1142 0.479574C16.1142 0.490912 16.0715 0.519514 16.0193 0.543162C15.9006 0.596894 15.8147 0.687894 15.7748 0.802034C15.7484 0.877617 15.75 0.905223 15.7859 0.996272C15.8675 1.20282 16.0379 1.32735 16.3453 1.40514C16.6195 1.47454 16.8092 1.46485 17.069 1.36814C17.2137 1.31431 17.347 1.15144 17.347 1.02861C17.347 0.838235 17.1417 0.620032 16.8814 0.533742C16.8317 0.517256 16.7911 0.493704 16.7911 0.48137C16.7911 0.468769 16.6432 0.458984 16.4526 0.458984C16.2665 0.458984 16.1142 0.468259 16.1142 0.479574ZM9.88573 0.786713C9.5662 0.907117 9.37821 1.06897 9.3215 1.27238C9.28386 1.40735 9.3046 1.49197 9.39646 1.57814C9.47725 1.65394 9.67979 1.72197 9.82077 1.72066C9.95837 1.7194 10.1724 1.66236 10.3462 1.58066C10.8181 1.35884 10.9475 0.934067 10.5925 0.772097C10.4443 0.704526 10.0841 0.71198 9.88573 0.786713ZM20.159 1.00428C19.8434 1.14217 20.0189 1.5944 20.4753 1.81904C20.6466 1.90341 20.8642 1.96433 20.9941 1.96433C21.14 1.96433 21.3058 1.89577 21.3726 1.80778C21.441 1.71762 21.4463 1.66382 21.3981 1.54847C21.3039 1.32335 21.0931 1.14261 20.7919 1.02876C20.6081 0.959245 20.2902 0.94696 20.159 1.00428ZM8.02552 1.12367C7.81274 1.20311 7.6796 1.28792 7.55133 1.42561C7.35582 1.63556 7.3148 1.80974 7.43134 1.93505C7.59804 2.11428 7.94115 2.09632 8.33281 1.88783C8.74504 1.66839 8.89914 1.24715 8.6202 1.10225C8.51094 1.04551 8.20539 1.05651 8.02552 1.12367ZM22.01 1.43705C21.9406 1.48391 21.9267 1.50892 21.9202 1.59916C21.896 1.9377 22.451 2.37709 22.9029 2.37709C23.0467 2.37709 23.0623 2.3715 23.142 2.29153C23.2195 2.21364 23.2257 2.19722 23.2116 2.10836C23.1417 1.66902 22.3345 1.21807 22.01 1.43705ZM6.35441 1.54907C6.0747 1.65348 5.78753 1.88372 5.68218 2.08799C5.62453 2.19977 5.62295 2.35851 5.67887 2.42057C5.74645 2.49562 5.9141 2.52915 6.05205 2.49521C6.41787 2.40518 6.78078 2.1188 6.87557 1.84538C6.91753 1.72425 6.91086 1.65921 6.849 1.58697C6.77269 1.49787 6.53948 1.48 6.35441 1.54907ZM14.0808 1.83113C13.7526 1.9215 13.5874 2.05919 13.5051 2.31093C13.4327 2.53243 13.5872 2.77865 13.8868 2.91909C14.0371 2.98959 14.0651 2.9944 14.3254 2.99443C14.5956 2.99443 14.6084 2.99197 14.7847 2.90627C14.9789 2.81184 15.0408 2.7578 15.1207 2.61309C15.181 2.50393 15.1876 2.32479 15.1359 2.20048C15.0135 1.90625 14.4828 1.72047 14.0808 1.83113ZM16.3318 1.8786C16.1558 1.92925 16.1005 1.95661 16.0069 2.03914C15.8861 2.14563 15.8483 2.2291 15.8483 2.38899C15.8483 2.66279 16.0341 2.87033 16.3964 3.00127C16.5758 3.06612 16.9819 3.05816 17.1416 2.98666C17.2743 2.92722 17.4048 2.81395 17.4579 2.71215C17.5082 2.61561 17.5006 2.41904 17.4416 2.29303C17.2932 1.97586 16.7275 1.76463 16.3318 1.8786ZM11.7127 1.96545C11.509 2.04562 11.356 2.16367 11.261 2.31386C11.1738 2.4518 11.1686 2.69205 11.2503 2.80708C11.3779 2.98678 11.6037 3.0812 11.906 3.0812C12.0182 3.0812 12.1489 3.06879 12.1964 3.05362C12.5053 2.95495 12.7407 2.76576 12.8105 2.56008C12.86 2.41416 12.8609 2.35864 12.8153 2.24916C12.7183 2.01597 12.4687 1.89079 12.1039 1.89241C11.9319 1.89317 11.8642 1.90582 11.7127 1.96545ZM18.4228 2.09612C18.1957 2.20159 18.0912 2.38906 18.1464 2.59201C18.2044 2.80565 18.3614 2.97976 18.6133 3.10983C18.8723 3.24359 19.2114 3.26789 19.4348 3.16866C19.7282 3.03832 19.8103 2.80939 19.6667 2.52216C19.6165 2.42179 19.4194 2.23007 19.3056 2.17098C19.0245 2.02501 18.6451 1.99284 18.4228 2.09612ZM9.73759 2.12242C9.42605 2.19878 9.14165 2.40928 9.03988 2.6388C8.94139 2.86096 8.97415 3.0426 9.13413 3.16125C9.40968 3.36566 9.8383 3.34046 10.1958 3.09885C10.3804 2.97415 10.4929 2.83046 10.5439 2.65427C10.5795 2.53124 10.5792 2.51403 10.5396 2.40999C10.4892 2.27749 10.3632 2.17554 10.1834 2.12191C10.0404 2.07925 9.91311 2.07939 9.73759 2.12242ZM20.6308 2.3522C20.5319 2.38219 20.4341 2.4474 20.3808 2.51874C20.3102 2.61345 20.3173 2.841 20.3951 2.97488C20.5576 3.25424 20.8161 3.43484 21.1725 3.51787C21.4159 3.57462 21.6862 3.47701 21.7782 3.29923C21.8336 3.19206 21.8178 3.00756 21.7406 2.86181C21.6754 2.73859 21.4621 2.54027 21.3115 2.46275C21.0806 2.34397 20.8053 2.29925 20.6308 2.3522ZM7.74566 2.44714C7.46987 2.5057 7.11566 2.77719 7.00584 3.01417C6.94214 3.15159 6.93651 3.32572 6.99264 3.42114C7.04299 3.50678 7.1801 3.58535 7.32734 3.61298C7.56042 3.65673 7.9016 3.52686 8.14276 3.30263C8.3199 3.1379 8.40291 2.97641 8.40291 2.79659C8.40291 2.64463 8.36256 2.57091 8.2394 2.49793C8.14276 2.44065 7.89587 2.41526 7.74566 2.44714ZM22.508 2.78647C22.3753 2.8688 22.3387 2.92962 22.34 3.06559C22.3416 3.22885 22.4391 3.41359 22.6175 3.59108C22.909 3.88112 23.3092 3.99823 23.5425 3.86168C23.6286 3.81132 23.7046 3.68249 23.7046 3.5871C23.7046 3.49481 23.5868 3.24487 23.4859 3.12301C23.3953 3.01368 23.1847 2.86788 23.0112 2.79438C22.849 2.72567 22.612 2.72196 22.508 2.78647ZM5.9134 2.87558C5.71525 2.93756 5.58841 3.01776 5.41613 3.18993C5.21542 3.39053 5.13951 3.53591 5.13951 3.71974C5.13951 3.83055 5.14983 3.85954 5.21203 3.92342C5.311 4.0251 5.44315 4.05613 5.61063 4.01704C5.8138 3.9696 6.0068 3.85973 6.167 3.70034C6.50642 3.36263 6.54405 2.99523 6.25131 2.87759C6.13473 2.83073 6.05819 2.83027 5.9134 2.87558ZM4.19675 3.42566C4.09058 3.47711 3.98463 3.55762 3.87 3.67392C3.6558 3.89125 3.56334 4.05939 3.5592 4.23913C3.55642 4.36012 3.56314 4.37813 3.63511 4.44279C3.74706 4.54335 3.87324 4.5394 4.09426 4.42834C4.39309 4.27817 4.68822 3.90841 4.72027 3.64406C4.72786 3.58139 4.71626 3.53089 4.68148 3.47514C4.58894 3.32686 4.43338 3.31099 4.19675 3.42566ZM13.999 3.56716C13.5572 3.73765 13.3524 4.06249 13.4597 4.42232C13.4978 4.5501 13.6752 4.74468 13.8216 4.81915C14.1142 4.96808 14.4011 4.9833 14.6942 4.86543C14.9625 4.75758 15.1333 4.57533 15.1947 4.33161C15.2743 4.01527 15.0235 3.67632 14.6183 3.55279C14.4555 3.50314 14.1463 3.51032 13.999 3.56716ZM16.3789 3.61227C16.16 3.69835 16.0113 3.83545 15.9312 4.02501C15.8097 4.31265 16.0171 4.69811 16.3893 4.87652C17.0781 5.20668 17.8422 4.72776 17.6073 4.11309C17.5207 3.88637 17.2843 3.6882 16.9869 3.59307C16.8561 3.55126 16.5061 3.56233 16.3789 3.61227ZM11.7509 3.60747C11.6181 3.62976 11.3413 3.77628 11.2352 3.88049C11.0081 4.10362 10.9429 4.4407 11.0836 4.66359C11.2482 4.92423 11.5883 5.0635 11.9207 5.00632C12.4418 4.91666 12.8241 4.49302 12.7314 4.10797C12.6595 3.80928 12.3869 3.61577 12.0194 3.60244C11.9116 3.59851 11.7908 3.60079 11.7509 3.60747ZM18.8216 3.73979C18.6093 3.79736 18.4576 3.9158 18.3726 4.09034C18.2949 4.24979 18.2998 4.36461 18.393 4.56912C18.4865 4.77421 18.6231 4.90677 18.8653 5.0274C19.0695 5.12913 19.082 5.13207 19.3051 5.13093C19.4921 5.12998 19.5556 5.11966 19.647 5.07523C19.9697 4.91836 20.0821 4.61462 19.9382 4.28791C19.7723 3.91128 19.209 3.63476 18.8216 3.73979ZM9.47862 3.8002C9.15313 3.88316 8.83888 4.14075 8.73343 4.41101C8.68221 4.54234 8.68153 4.73606 8.73196 4.83663C8.7871 4.94659 8.90634 5.06763 9.01933 5.12838C9.0998 5.17162 9.15659 5.18029 9.35776 5.18002C9.57827 5.17975 9.6139 5.17295 9.76363 5.10274C9.99139 4.99591 10.2221 4.77088 10.2901 4.58922C10.4021 4.29021 10.3131 4.02348 10.0521 3.87615C9.94512 3.81579 9.8923 3.80282 9.72572 3.796C9.61641 3.79153 9.50521 3.7934 9.47862 3.8002ZM20.9006 4.0706C20.8265 4.10977 20.7441 4.17928 20.7014 4.23877C20.6383 4.32659 20.6286 4.36118 20.6286 4.49722C20.6286 4.88832 20.9878 5.26767 21.4636 5.37919C21.6218 5.41626 21.7755 5.39759 21.9211 5.32356C22.067 5.24948 22.1817 5.06151 22.1817 4.89675C22.1817 4.32651 21.3866 3.81377 20.9006 4.0706ZM7.33667 4.11185C6.94349 4.22077 6.59583 4.60233 6.57035 4.95293C6.54384 5.31778 6.88693 5.55434 7.29159 5.45023C7.67022 5.3528 8.0144 5.013 8.07768 4.67413C8.11015 4.50033 8.07099 4.37221 7.94773 4.24891C7.78163 4.08282 7.59373 4.04067 7.33667 4.11185ZM22.951 4.42278C22.7538 4.54379 22.6826 4.73155 22.7485 4.95648C22.873 5.38147 23.2956 5.72649 23.6925 5.72724C23.8614 5.72755 23.9536 5.68145 24.0573 5.5449C24.153 5.41881 24.1528 5.19641 24.0567 4.98971C23.8454 4.53561 23.258 4.2344 22.951 4.42278ZM5.37315 4.5232C5.09013 4.64278 4.89111 4.83092 4.75835 5.10441C4.61862 5.39223 4.65904 5.62504 4.87418 5.77169C4.99464 5.85378 5.23838 5.84021 5.4402 5.74013C5.76896 5.57714 6.03262 5.20085 6.03356 4.89335C6.0346 4.55802 5.71488 4.37884 5.37315 4.5232ZM3.70741 4.97381C3.55103 5.05228 3.3847 5.18837 3.28336 5.32079C2.9995 5.69174 2.97626 6.08806 3.23064 6.22051C3.54294 6.38308 4.15283 5.8666 4.2283 5.37564C4.25141 5.22537 4.21116 5.09521 4.11379 5.00538C4.04175 4.93892 4.01006 4.92661 3.91308 4.92744C3.84972 4.92797 3.75718 4.94883 3.70741 4.97381ZM2.22029 5.53164C2.04516 5.64532 1.90585 5.81511 1.79117 6.05458C1.71993 6.20329 1.70692 6.25644 1.70702 6.39794C1.70712 6.53792 1.71662 6.57722 1.76489 6.63785C1.8121 6.69712 1.83976 6.70989 1.91651 6.70787C2.18091 6.70091 2.49314 6.38267 2.67081 5.93901C2.68577 5.90166 2.69801 5.80981 2.69801 5.73491C2.69801 5.62636 2.68551 5.58229 2.63634 5.51753C2.5461 5.39871 2.41837 5.40303 2.22029 5.53164ZM14.0076 5.58969C13.7217 5.68759 13.5207 5.86869 13.4312 6.10909C13.3209 6.40503 13.3988 6.69943 13.6466 6.92316C14.0339 7.27296 14.5929 7.26476 14.9772 6.90369C15.1486 6.74264 15.2198 6.57662 15.2198 6.33766C15.2198 6.23078 15.2089 6.13657 15.1956 6.12832C15.1823 6.12006 15.1712 6.09483 15.1708 6.07225C15.1698 6.00043 15.0065 5.80386 14.8752 5.71643C14.5973 5.53135 14.3034 5.48842 14.0076 5.58969ZM16.49 5.63233C16.1129 5.78944 15.8846 6.15871 15.9698 6.47396C16.0489 6.76692 16.2339 6.98418 16.5188 7.11883C16.6686 7.18961 16.7024 7.19602 16.924 7.19575C17.1336 7.19551 17.1838 7.18701 17.3017 7.13195C17.4691 7.05374 17.6189 6.92069 17.7049 6.77377C17.7628 6.67495 17.77 6.63795 17.7697 6.44395C17.7693 6.24806 17.7619 6.21198 17.698 6.09559C17.6065 5.92854 17.4247 5.76441 17.2262 5.66935C17.0894 5.6039 17.0393 5.59341 16.8394 5.58831C16.6534 5.58355 16.587 5.59193 16.49 5.63233ZM11.533 5.64857C11.2481 5.75084 11.0098 5.96042 10.9032 6.20259C10.7441 6.56392 10.9147 6.97041 11.3037 7.1571C11.42 7.21289 11.4672 7.22091 11.6797 7.22091C11.912 7.22091 11.9307 7.2169 12.1072 7.12927C12.4395 6.96432 12.6574 6.65439 12.6574 6.34662C12.6574 6.08041 12.4702 5.81059 12.1981 5.68458C12.0196 5.60191 11.7098 5.58513 11.533 5.64857ZM18.9442 5.77084C18.8854 5.79386 18.7799 5.86515 18.7098 5.92929C18.3319 6.27516 18.4444 6.84255 18.9565 7.17407C19.1341 7.28906 19.3248 7.33861 19.5328 7.32393C19.7433 7.30907 19.8894 7.24669 20.0257 7.11357C20.163 6.97935 20.2237 6.8335 20.2237 6.63732C20.2237 6.48926 20.2151 6.45413 20.1318 6.26205C20.0721 6.12455 19.8351 5.90572 19.6508 5.81807C19.5084 5.7503 19.4573 5.73913 19.2688 5.73442C19.11 5.73047 19.0224 5.7403 18.9442 5.77084ZM9.20742 5.79981C8.9544 5.86019 8.63263 6.11503 8.53204 6.33469C8.43782 6.54047 8.41403 6.68352 8.45036 6.82636C8.60278 7.4259 9.35186 7.56801 9.84688 7.0913C10.2229 6.72922 10.2565 6.26164 9.928 5.96494C9.74567 5.80027 9.47004 5.73712 9.20742 5.79981ZM21.3236 5.98014C21.1299 6.05526 21.0196 6.15077 20.9316 6.3194C20.8877 6.4037 20.8778 6.77384 20.9182 6.82694C20.9306 6.84331 20.9559 6.89495 20.9744 6.94169C21.0925 7.23994 21.5442 7.54997 21.8582 7.54832C21.9415 7.54788 22.0936 7.50199 22.1938 7.44707C22.3758 7.34733 22.496 7.12685 22.496 6.89255C22.496 6.81432 22.4851 6.74357 22.4718 6.73531C22.4585 6.72706 22.4476 6.70013 22.4476 6.67546C22.4476 6.60012 22.3454 6.43009 22.2138 6.2866C21.967 6.01733 21.5752 5.88251 21.3236 5.98014ZM7.0597 6.04064C6.7817 6.08845 6.46196 6.34676 6.32618 6.63319C6.17981 6.94198 6.22874 7.27223 6.44886 7.46149C6.56803 7.56396 6.71455 7.60581 6.90926 7.59304C7.26887 7.56947 7.60028 7.28828 7.77136 6.86164C7.80982 6.76571 7.80515 6.5021 7.76321 6.40129C7.65182 6.13354 7.36742 5.98774 7.0597 6.04064ZM23.4203 6.29281C23.2008 6.37682 23.0761 6.57174 23.0761 6.83102C23.0761 7.0282 23.1194 7.14795 23.2765 7.38579C23.4118 7.59071 23.6333 7.74193 23.8739 7.79376C24.2811 7.88149 24.6029 7.5069 24.49 7.07656C24.4094 6.76913 24.1761 6.48045 23.9057 6.35334C23.7349 6.27305 23.5366 6.24833 23.4203 6.29281ZM4.96807 6.40486C4.58473 6.55549 4.29473 6.95939 4.29381 7.34381C4.29323 7.58124 4.43454 7.80292 4.62713 7.86675C4.92976 7.96707 5.3951 7.68543 5.58046 7.28976C5.66992 7.0988 5.69951 6.82871 5.64597 6.69219C5.5323 6.40246 5.26379 6.28866 4.96807 6.40486ZM25.2009 6.70496C25.1008 6.77154 24.9877 6.98996 24.9866 7.11871C24.9855 7.24689 25.0747 7.5127 25.1686 7.66107C25.2716 7.82397 25.4531 7.99682 25.5897 8.06227C25.661 8.09646 25.7493 8.1154 25.844 8.1169C26.0195 8.11965 26.09 8.07568 26.1836 7.90501C26.2407 7.80083 26.2468 7.76735 26.2387 7.60152C26.2311 7.44673 26.2142 7.38331 26.1387 7.22727C25.9208 6.77637 25.4705 6.52563 25.2009 6.70496ZM3.20985 6.80813C2.97769 6.91668 2.75428 7.20466 2.65285 7.52613C2.61429 7.64828 2.61886 7.86675 2.66213 7.97079C2.71021 8.08631 2.83413 8.20334 2.9131 8.20776C3.14149 8.22058 3.29269 8.15842 3.47249 7.97785C3.69677 7.75256 3.80998 7.49801 3.80998 7.21892C3.80998 7.01968 3.77435 6.93069 3.65109 6.82199C3.54192 6.72572 3.39591 6.72113 3.20985 6.80813ZM26.874 7.09698C26.7641 7.15814 26.7024 7.29957 26.7022 7.49044C26.7022 7.58525 26.7138 7.69997 26.7281 7.74537C26.8925 8.2688 27.3765 8.64883 27.6063 8.43492C27.9106 8.15165 27.6511 7.36187 27.1771 7.12876C27.0294 7.05612 26.9604 7.04888 26.874 7.09698ZM1.80993 7.21253C1.51661 7.35542 1.24768 7.81877 1.2484 8.17996C1.24869 8.33193 1.31486 8.50235 1.389 8.54219C1.45501 8.57769 1.62266 8.57538 1.68911 8.53808C2.01233 8.35662 2.23871 7.96338 2.23871 7.58336C2.23871 7.38225 2.20591 7.29222 2.10298 7.2109C2.02313 7.14782 1.94184 7.14829 1.80993 7.21253ZM13.9622 7.91953C13.6668 8.04409 13.4965 8.21417 13.3899 8.49108C13.2338 8.89667 13.4497 9.3644 13.8898 9.57389C14.0334 9.64223 14.0689 9.64889 14.2904 9.64889C14.5227 9.64889 14.5415 9.64486 14.7176 9.55745C14.9233 9.4553 15.0806 9.30062 15.1733 9.10939C15.2198 9.01353 15.2298 8.95317 15.2307 8.76267C15.2318 8.5585 15.2242 8.51631 15.165 8.39517C15.0763 8.21385 14.9109 8.05196 14.7156 7.95527C14.5748 7.88559 14.5296 7.87568 14.326 7.86986C14.1302 7.86422 14.0757 7.87165 13.9622 7.91953ZM16.6056 7.93398C15.9868 8.16554 15.8071 8.85829 16.2419 9.33609C16.462 9.57804 16.6955 9.68531 17.0019 9.68531C17.1548 9.68531 17.2064 9.67336 17.3547 9.60341C17.5372 9.51734 17.7148 9.35639 17.8 9.19971C17.8254 9.15297 17.8603 9.04733 17.8775 8.96497C17.934 8.69474 17.8403 8.43239 17.6012 8.19103C17.3969 7.98475 17.2294 7.90934 16.9482 7.89686C16.7755 7.88918 16.7048 7.89683 16.6056 7.93398ZM11.3756 7.96807C11.0971 8.08556 10.917 8.24993 10.8043 8.4896C10.7486 8.60794 10.7384 8.66232 10.7372 8.84765C10.7359 9.03609 10.7445 9.08455 10.7997 9.19971C10.8847 9.37705 11.0364 9.52472 11.23 9.61849C11.3724 9.68751 11.4101 9.69511 11.6059 9.69422C11.803 9.69332 11.8405 9.68523 12.0047 9.60807C12.2139 9.50981 12.3944 9.33471 12.503 9.12486C12.5633 9.00819 12.5711 8.96725 12.5719 8.76267C12.5726 8.57735 12.5628 8.51055 12.5218 8.42276C12.4405 8.24877 12.2866 8.09379 12.1068 8.00483C11.9662 7.93522 11.9177 7.92417 11.7274 7.91837C11.544 7.91278 11.4879 7.92072 11.3756 7.96807ZM19.1993 8.02547C19.0424 8.07386 18.9198 8.15427 18.8144 8.2779C18.6691 8.44847 18.6282 8.56331 18.6282 8.80142C18.6282 8.98631 18.6371 9.02944 18.7049 9.17196C18.8374 9.45086 19.1068 9.67178 19.4167 9.75552C19.5617 9.79473 19.6579 9.78891 19.8449 9.72964C20.1086 9.64604 20.2978 9.44642 20.3908 9.1536C20.4305 9.02876 20.4225 8.88458 20.3665 8.71326C20.1999 8.20324 19.658 7.88396 19.1993 8.02547ZM9.01933 8.0505C8.8981 8.08289 8.67206 8.20905 8.58317 8.2939C8.3558 8.51106 8.21607 8.82701 8.24085 9.06806C8.26019 9.25623 8.36677 9.47635 8.49225 9.58731C8.66795 9.74265 8.79461 9.79068 9.03142 9.79177C9.22195 9.79267 9.25055 9.78597 9.42462 9.69953C10.0165 9.40558 10.1889 8.68636 9.76844 8.26499C9.6183 8.11452 9.46393 8.04841 9.24898 8.04253C9.14926 8.03981 9.04592 8.04338 9.01933 8.0505ZM21.5058 8.23359C21.3553 8.30854 21.2206 8.45201 21.1498 8.61292C21.0977 8.73118 21.0906 8.7779 21.0977 8.95713C21.1047 9.13238 21.1182 9.18946 21.185 9.32553C21.284 9.52741 21.481 9.7309 21.6656 9.82195C21.7895 9.88306 21.8339 9.89168 22.0246 9.89168C22.2835 9.89168 22.3861 9.84793 22.5406 9.67168C22.8446 9.3248 22.7841 8.7938 22.4003 8.44089C22.208 8.26404 22.0462 8.19467 21.807 8.18651C21.6474 8.18107 21.5948 8.18928 21.5058 8.23359ZM6.65791 8.27647C6.49385 8.33919 6.39737 8.40469 6.26986 8.54C6.09803 8.72225 6.00765 8.92059 5.99203 9.14967C5.96948 9.48002 6.08711 9.72187 6.34416 9.87364C6.44402 9.93259 6.48053 9.94007 6.66243 9.93883C6.92592 9.93701 7.05244 9.87918 7.2672 9.66231C7.44748 9.48026 7.5419 9.30375 7.57408 9.08851C7.65912 8.51985 7.16555 8.08235 6.65791 8.27647ZM23.6925 8.46304C23.4291 8.60226 23.279 8.93848 23.3445 9.24225C23.4174 9.58013 23.6254 9.87396 23.8812 10.0004C24.085 10.1012 24.2643 10.1202 24.4076 10.0563C24.6235 9.95993 24.7333 9.81399 24.7938 9.54266C24.8741 9.18254 24.5979 8.67463 24.2243 8.49557C24.0475 8.41083 23.8179 8.39678 23.6925 8.46304ZM4.54004 8.56984C4.14601 8.7676 3.88656 9.33111 4.01668 9.70643C4.07033 9.86116 4.11137 9.93228 4.18856 10.0042C4.31044 10.1179 4.40716 10.1528 4.56917 10.1417C4.87665 10.1205 5.13243 9.91987 5.30237 9.5665C5.38477 9.39516 5.39113 9.36603 5.39048 9.16329C5.38968 8.91241 5.35644 8.81592 5.21752 8.66131C5.10482 8.53585 5.01064 8.4956 4.8299 8.4956C4.71993 8.4956 4.65459 8.51232 4.54004 8.56984ZM25.6143 8.74308C25.3913 8.85792 25.2642 9.17778 25.3244 9.47286C25.3889 9.78903 25.5926 10.0992 25.8261 10.2366C25.9612 10.3161 26.185 10.3271 26.3094 10.2603C26.4497 10.185 26.5804 9.91766 26.581 9.70471C26.582 9.3595 26.323 8.91333 26.0423 8.77678C25.8527 8.68456 25.7445 8.67604 25.6143 8.74308ZM2.82487 8.83945C2.70811 8.89631 2.50126 9.11213 2.43108 9.25028C2.3328 9.44377 2.30149 9.57308 2.30229 9.78242C2.3035 10.0952 2.40302 10.2742 2.61833 10.3504C2.70444 10.381 2.7362 10.3813 2.84379 10.3528C3.06015 10.2955 3.22397 10.1533 3.35542 9.90882C3.63779 9.3837 3.47489 8.78401 3.05098 8.78817C2.97798 8.78887 2.88571 8.8098 2.82487 8.83945ZM27.1624 9.09336C27.0406 9.19631 27.0072 9.30047 27.0079 9.57605C27.0083 9.77065 27.0195 9.84776 27.0643 9.96452C27.2267 10.388 27.5462 10.6319 27.7993 10.5257C27.9796 10.45 28.0872 10.144 28.0333 9.85993C27.9941 9.65309 27.8443 9.33556 27.7303 9.21765C27.5434 9.02431 27.3056 8.97228 27.1624 9.09336ZM1.39864 9.15372C1.11494 9.29476 0.90918 9.69562 0.90918 10.1072C0.90918 10.3176 0.967196 10.4766 1.07527 10.5623C1.16426 10.6329 1.35327 10.6163 1.48912 10.526C1.70112 10.3851 1.90029 9.95442 1.90029 9.63694C1.90029 9.43127 1.85878 9.3061 1.75384 9.19531C1.64958 9.08523 1.55799 9.0745 1.39864 9.15372ZM28.5057 9.39618C28.4074 9.47383 28.3701 9.5919 28.3701 9.82506C28.3701 10.0769 28.3991 10.2011 28.5133 10.438C28.6611 10.7444 28.9512 10.8956 29.0954 10.7413C29.2528 10.5731 29.2568 10.2138 29.1056 9.83098C29.0222 9.6198 28.9007 9.4689 28.7518 9.39181C28.637 9.33237 28.5853 9.3333 28.5057 9.39618ZM13.9604 10.4609C13.7097 10.5569 13.5107 10.7484 13.3898 11.0104C13.3328 11.1338 13.3234 11.1853 13.3235 11.3728C13.3237 11.571 13.3312 11.6069 13.4049 11.7597C13.6154 12.1962 14.0934 12.4236 14.5328 12.2962C14.708 12.2454 14.813 12.1847 14.9503 12.0549C15.0873 11.9255 15.157 11.8141 15.2183 11.6266C15.2974 11.3845 15.2771 11.1792 15.1492 10.9274C15.0444 10.721 14.8403 10.5448 14.6069 10.4591C14.4451 10.3997 14.1178 10.4006 13.9604 10.4609ZM16.7354 10.4516C16.4784 10.522 16.2575 10.708 16.1261 10.9644C16.0593 11.0949 16.0538 11.1251 16.0538 11.3606C16.0538 11.5951 16.0596 11.6272 16.1261 11.7612C16.2709 12.0527 16.5731 12.2823 16.8772 12.3321C17.2706 12.3964 17.6978 12.1592 17.874 11.7787C17.949 11.6167 17.9769 11.292 17.9272 11.1593C17.7833 10.7751 17.5397 10.5406 17.1894 10.449C17.0298 10.4072 16.8943 10.408 16.7354 10.4516ZM11.4072 10.4599C11.0759 10.5459 10.8251 10.783 10.6782 11.1493C10.6416 11.2408 10.6443 11.5951 10.6826 11.7005C10.7766 11.9597 10.9527 12.1542 11.2024 12.2745C11.3196 12.331 11.3721 12.3411 11.5575 12.3424C11.753 12.3438 11.7914 12.3362 11.9352 12.2678C12.3095 12.0896 12.5369 11.7512 12.5363 11.3731C12.5358 11.0826 12.4488 10.8814 12.24 10.6884C12.0642 10.5258 11.9134 10.4613 11.6827 10.4497C11.574 10.4442 11.45 10.4488 11.4072 10.4599ZM19.4018 10.5082C19.1434 10.5638 18.9005 10.7613 18.7831 11.0112C18.7234 11.1384 18.7159 11.1819 18.7156 11.4031C18.7153 11.5648 18.7254 11.6621 18.7442 11.6811C18.7602 11.6971 18.7733 11.725 18.7733 11.743C18.7733 11.7947 18.9256 12.0193 19.0293 12.1205C19.0813 12.1712 19.1942 12.2477 19.2803 12.2905C19.4215 12.3606 19.4583 12.3682 19.655 12.3682C19.8409 12.3682 19.8935 12.3586 20.0108 12.3034C20.466 12.0891 20.6517 11.5319 20.427 11.0548C20.3427 10.8758 20.1291 10.6654 19.9481 10.583C19.789 10.5106 19.5454 10.4772 19.4018 10.5082ZM8.80349 10.5629C8.53374 10.6545 8.34253 10.8307 8.20203 11.1173C8.13166 11.2607 8.12492 11.2947 8.12492 11.5061C8.12492 11.7186 8.13142 11.751 8.20406 11.8993C8.37953 12.2576 8.73196 12.4492 9.09238 12.3823C9.49506 12.3075 9.8177 11.9706 9.89892 11.5401C9.94971 11.2709 9.84175 10.9629 9.62417 10.7562C9.37809 10.5225 9.10921 10.4592 8.80349 10.5629ZM21.6813 10.6822C21.4485 10.7956 21.2931 11.0106 21.2318 11.3041C21.1747 11.5777 21.2896 11.9204 21.5196 12.1626C21.7118 12.3649 21.8692 12.437 22.1213 12.4382C22.2761 12.4389 22.3353 12.4281 22.4185 12.3844C22.7621 12.2034 22.9589 11.8106 22.8856 11.4517C22.8356 11.2062 22.7337 11.0209 22.5582 10.856C22.2833 10.5977 21.9787 10.5373 21.6813 10.6822ZM6.5894 10.6558C6.23239 10.7011 5.91424 11.0367 5.8262 11.4607C5.79608 11.6059 5.79611 11.6496 5.82637 11.7954C5.86793 11.9956 5.91013 12.083 6.02911 12.2153C6.33868 12.5595 6.77856 12.5554 7.13009 12.2051C7.42853 11.9078 7.51966 11.463 7.35538 11.1057C7.20372 10.7758 6.9265 10.6129 6.5894 10.6558ZM23.9798 10.7914C23.8252 10.8487 23.6916 10.9797 23.6029 11.161C23.5287 11.3126 23.5234 11.3398 23.5243 11.5666C23.5252 11.7963 23.5303 11.8201 23.6145 11.9951C23.7791 12.3372 24.035 12.5259 24.3331 12.5252C24.5325 12.5248 24.6928 12.4426 24.8172 12.2769C24.9546 12.0937 24.9934 11.9557 24.9807 11.6933C24.9719 11.5101 24.9569 11.4414 24.8971 11.3121C24.7079 10.9026 24.3018 10.6721 23.9798 10.7914ZM4.3716 10.8427C4.24715 10.8869 4.02331 11.0867 3.94404 11.2242C3.85646 11.3762 3.78581 11.6202 3.78581 11.7706C3.78581 11.8448 3.80991 11.9823 3.83937 12.0761C3.94433 12.41 4.24524 12.616 4.52853 12.5478C4.78179 12.4868 4.99172 12.3004 5.12148 12.0211C5.19139 11.8707 5.19724 11.8381 5.19854 11.5913C5.19982 11.3467 5.19446 11.3138 5.1348 11.2002C5.03992 11.0195 4.96082 10.9353 4.81994 10.8648C4.67659 10.793 4.53143 10.7859 4.3716 10.8427ZM25.9078 10.9653C25.8265 10.9808 25.6595 11.1574 25.5914 11.2999C25.5123 11.4657 25.507 11.8659 25.5814 12.0536C25.6655 12.2655 25.7856 12.4254 25.9374 12.5276C26.0646 12.6134 26.0946 12.6232 26.2298 12.6232C26.4087 12.6232 26.504 12.5812 26.6054 12.4577C26.8466 12.1641 26.8392 11.6492 26.5884 11.2697C26.4159 11.0087 26.196 10.9104 25.9078 10.9653ZM2.59172 11.0308C2.31851 11.1328 2.06897 11.5725 2.06977 11.9506C2.07027 12.1953 2.18575 12.4629 2.33891 12.5744C2.46145 12.6635 2.57649 12.6869 2.70395 12.6485C2.99186 12.5619 3.18365 12.3012 3.27875 11.8673C3.33512 11.61 3.2173 11.2349 3.03389 11.0878C2.92666 11.0018 2.73545 10.9772 2.59172 11.0308ZM27.5004 11.1846C27.2719 11.3002 27.152 11.7181 27.2447 12.0758C27.3657 12.5423 27.64 12.8059 27.9286 12.7331C28.0277 12.7082 28.1835 12.5312 28.2207 12.4013C28.2596 12.2653 28.2607 11.8734 28.2225 11.7525C28.1234 11.4394 27.9513 11.2177 27.7673 11.1664C27.6463 11.1326 27.5966 11.136 27.5004 11.1846ZM55.3639 11.9767C55.206 12.056 55.1377 12.1253 55.0615 12.2832L54.997 12.4168V15.0511V17.6855L55.0527 17.783C55.0833 17.8367 55.1479 17.9077 55.1961 17.9408C55.2801 17.9985 55.2992 18.0011 55.636 17.9992C55.9579 17.9974 55.9959 17.9925 56.0793 17.9418C56.1295 17.9113 56.1975 17.8402 56.2304 17.7838L56.2903 17.6812V15.7106C56.2903 14.6268 56.2967 13.74 56.3046 13.74C56.3124 13.74 56.4185 13.8269 56.5402 13.933C56.7903 14.151 57.1698 14.4758 58.1153 15.281C58.4743 15.5868 58.845 15.9032 58.9391 15.9842C59.0332 16.0653 59.2774 16.2736 59.4818 16.4472C59.6862 16.6208 59.9038 16.8066 59.9653 16.86C60.0269 16.9134 60.2441 17.0991 60.4481 17.2727C60.6521 17.4463 60.8705 17.6336 60.9335 17.6889C61.0817 17.819 61.2281 17.9175 61.3787 17.9888C61.5351 18.0628 61.8625 18.0699 61.9952 18.0022C62.2174 17.8887 62.328 17.7286 62.3799 17.4447C62.4169 17.2419 62.4164 12.5291 62.3793 12.3512C62.3465 12.1942 62.265 12.0801 62.1398 12.0159C62.0604 11.9753 61.9973 11.9676 61.7413 11.9676C61.4137 11.9676 61.3192 11.9939 61.2047 12.1173C61.073 12.2591 61.0766 12.1981 61.0766 14.2734C61.0766 15.3288 61.0684 16.1922 61.0585 16.1921C61.0485 16.192 60.8173 15.9999 60.5448 15.7653C60.2722 15.5307 59.9634 15.2658 59.8586 15.1767C59.7537 15.0876 59.6114 14.9656 59.5423 14.9055C59.4733 14.8454 59.3197 14.7136 59.2012 14.6125C58.793 14.2649 57.6805 13.3139 56.9924 12.7247C56.4236 12.2375 56.2673 12.1164 56.0991 12.0327C55.9141 11.9406 55.8761 11.9306 55.6878 11.9247C55.5091 11.919 55.4644 11.9262 55.3639 11.9767ZM34.1917 12.0167C34.0372 12.0989 33.9936 12.1882 33.9824 12.4451C33.9702 12.7246 33.9874 12.8199 34.0667 12.9147C34.2021 13.0762 34.1599 13.0711 35.4586 13.0845L36.6367 13.0966L36.6431 15.3789L36.6494 17.6612L36.7043 17.7644C36.736 17.8239 36.8018 17.8946 36.8599 17.9314C36.9476 17.9871 36.9936 17.9968 37.2185 18.0075C37.5951 18.0255 37.6849 18.0066 37.8062 17.8839C37.874 17.8154 37.9162 17.7452 37.9367 17.6669C37.9598 17.5784 37.9669 17.0267 37.9669 15.3179V13.0845H39.1121C40.077 13.0845 40.2737 13.0786 40.3619 13.0474C40.5819 12.9694 40.6583 12.83 40.6464 12.5286C40.6367 12.2848 40.5877 12.1685 40.4468 12.0539L40.3556 11.9797L37.318 11.9746C34.3506 11.9696 34.2784 11.9705 34.1917 12.0167ZM42.5719 11.9946C41.9043 12.0918 41.4639 12.2775 41.1157 12.6086C40.9499 12.7662 40.8968 12.8359 40.8182 12.999C40.7656 13.1081 40.7113 13.2588 40.6975 13.3338C40.6812 13.4219 40.6749 14.0482 40.6794 15.1043L40.6864 16.7386L40.7504 16.8884C40.8969 17.2314 41.1422 17.4821 41.5165 17.6711C41.679 17.7533 42.0307 17.8733 42.2335 17.9159C42.3132 17.9326 42.4166 17.958 42.4631 17.9723C42.5197 17.9897 43.2911 18.0013 44.7914 18.0072C47.0275 18.016 47.0355 18.0158 47.1396 17.9652C47.3164 17.8793 47.4166 17.6772 47.4181 17.4038C47.4192 17.1927 47.3299 17.0233 47.1759 16.9444C47.0848 16.8977 47.0263 16.8964 45.0809 16.8959C42.9936 16.8954 42.6776 16.8827 42.369 16.7871C42.2077 16.7372 42.0703 16.648 42.0256 16.5642C42 16.5163 41.9917 16.39 41.9917 16.0491V15.5974L44.542 15.5853C47.3291 15.572 47.1571 15.5814 47.2889 15.4359C47.3968 15.3167 47.4286 15.2187 47.4296 15.0026C47.4307 14.7409 47.3764 14.624 47.2072 14.5241L47.0923 14.4563L44.5346 14.4497L41.9769 14.4431L41.9843 13.9472L41.9917 13.4512L42.0694 13.371C42.1585 13.279 42.3428 13.2025 42.6202 13.1425C42.7722 13.1096 42.99 13.0976 43.6374 13.0865L44.4611 13.0723L44.5641 13.0038C44.7793 12.8607 44.8361 12.5309 44.6987 12.2225C44.6635 12.1434 44.561 12.0381 44.4771 11.9948C44.4135 11.962 42.7969 11.9618 42.5719 11.9946ZM49.3042 12.0038C48.9783 12.0598 48.8098 12.1125 48.5065 12.2531C48.3821 12.3108 48.1476 12.473 48.0261 12.5855C47.9224 12.6815 47.7709 12.8901 47.7166 13.0116C47.6225 13.2221 47.6241 13.1879 47.6241 14.9783V16.7143L47.6819 16.8721C47.746 17.0474 47.8834 17.264 47.9908 17.3594C48.2045 17.5491 48.6471 17.7893 48.9657 17.8886C49.3337 18.0031 49.284 18.0011 51.7457 18.0011H54.0784L54.163 17.9413C54.3312 17.8224 54.3806 17.7121 54.3806 17.4548C54.3806 17.1911 54.3147 17.0528 54.1388 16.9473C54.0549 16.897 54.0383 16.8966 52.1083 16.8957C49.8107 16.8947 49.551 16.8786 49.1881 16.7147C49.0676 16.6602 49.0234 16.6247 48.9766 16.5444L48.9174 16.443V14.9442C48.9174 13.8514 48.925 13.4311 48.9455 13.3924C48.9815 13.3245 49.0271 13.2883 49.147 13.2322C49.4385 13.0958 49.6459 13.0849 51.958 13.0847C54.1889 13.0845 54.114 13.0887 54.2556 12.9558C54.3623 12.8558 54.3898 12.7711 54.3872 12.5503C54.384 12.2667 54.3184 12.1262 54.1388 12.0185C54.0545 11.968 54.046 11.9678 51.7699 11.9702C50.029 11.972 49.4423 11.98 49.3042 12.0038ZM64.8335 12.0044C63.8548 12.1383 63.2637 12.4636 63.0176 13.0036C62.8891 13.2854 62.8902 13.2688 62.8899 14.9973C62.8896 16.5511 62.8913 16.6118 62.9388 16.7576C63.0234 17.0168 63.0881 17.1207 63.2936 17.3266C63.4616 17.4951 63.5314 17.5452 63.7411 17.6477C64.0813 17.8141 64.2622 17.8697 64.7872 17.9691C64.9161 17.9935 65.322 18.0011 66.4914 18.0011C68.0272 18.0011 68.0992 17.998 68.534 17.9133C69.4176 17.7411 69.9501 17.3105 70.0808 16.6623C70.1148 16.4942 70.1186 16.2685 70.1112 14.8924C70.1018 13.1528 70.1075 13.2206 69.9434 12.894C69.829 12.6666 69.5722 12.4145 69.329 12.2909C68.9982 12.1229 68.7876 12.0657 68.2681 12.0031C67.8859 11.9569 65.1726 11.9579 64.8335 12.0044ZM70.6686 12.0172C70.5413 12.0847 70.4643 12.1993 70.4338 12.3666C70.3984 12.5604 70.3977 16.1768 70.433 16.5028C70.4838 16.9729 70.6352 17.2549 70.9756 17.5136C71.2569 17.7275 71.4841 17.819 71.9667 17.9129C72.4031 17.9979 72.5052 18.0011 74.7242 18.0011H76.9257L77.0107 17.9426C77.0575 17.9104 77.122 17.8457 77.154 17.7987C77.2061 17.7223 77.2121 17.6883 77.2106 17.4782C77.209 17.2678 77.202 17.2315 77.1428 17.13C77.1064 17.0677 77.0352 16.9904 76.9846 16.9583L76.8925 16.8999L74.7922 16.8877C73.6219 16.8809 72.6223 16.865 72.5347 16.8518C72.2132 16.8034 72.1675 16.7908 71.9987 16.705C71.7122 16.5594 71.737 16.776 71.737 14.4172C71.737 12.2225 71.739 12.2581 71.6093 12.1171C71.5036 12.0022 71.3733 11.9675 71.0521 11.9687C70.8084 11.9696 70.7427 11.9779 70.6686 12.0172ZM79.6296 12.0034C79.2237 12.0593 78.9633 12.1191 78.7352 12.2089C78.2039 12.418 77.8778 12.7347 77.7302 13.1848L77.6716 13.3637V14.9783C77.6716 16.6351 77.6711 16.6244 77.7635 16.8843C77.8193 17.041 78.0068 17.29 78.1643 17.4165C78.5136 17.697 78.9402 17.8634 79.5813 17.9692C79.8585 18.015 82.6795 18.0148 82.9897 17.969C83.3643 17.9137 83.5906 17.8587 83.8358 17.7634C84.3629 17.5584 84.7002 17.2243 84.8457 16.7631C84.8989 16.5944 84.8994 16.5788 84.8994 14.9904C84.8994 13.5109 84.896 13.3759 84.8551 13.2302C84.7192 12.7454 84.4154 12.406 83.9413 12.2092C83.6571 12.0912 83.426 12.0394 82.9725 11.9921C82.6292 11.9563 79.905 11.9655 79.6296 12.0034ZM87.1233 12.004C86.7035 12.071 86.2141 12.2185 85.9802 12.3486C85.5735 12.5747 85.3253 12.8754 85.2361 13.2499C85.189 13.448 85.1881 16.5293 85.2351 16.7264C85.3362 17.15 85.6156 17.473 86.0666 17.688C86.3408 17.8187 86.4653 17.8556 87.0146 17.9687C87.1372 17.994 87.5644 18.0011 88.9605 18.0011C90.8507 18.0011 90.7802 18.0045 91.1965 17.8935C91.2431 17.881 91.3083 17.8638 91.3416 17.8551C91.4893 17.8164 91.8058 17.664 91.9678 17.5535C92.2348 17.3714 92.4328 17.0969 92.5295 16.775C92.5547 16.6911 92.5623 16.4484 92.5623 15.731C92.5623 14.7172 92.5601 14.698 92.4249 14.5743C92.3074 14.4667 92.262 14.4561 91.9321 14.4597C91.5515 14.4637 91.4544 14.5 91.3403 14.6807L91.2691 14.7936V15.6277C91.2691 16.3131 91.2627 16.4741 91.2336 16.5306C91.1889 16.6174 91.0395 16.7058 90.8219 16.7742C90.4726 16.884 90.2967 16.8955 88.9618 16.896C87.3804 16.8965 87.0082 16.8654 86.7188 16.7084C86.5039 16.5918 86.519 16.7214 86.519 14.9894C86.519 13.235 86.4995 13.3788 86.7543 13.2588C87.0321 13.128 87.2326 13.1026 88.1144 13.0867C88.8306 13.0738 88.9216 13.0677 89.0042 13.0264C89.1688 12.9443 89.2627 12.7562 89.2627 12.5086C89.2627 12.2841 89.1642 12.1019 88.9963 12.0159C88.9075 11.9704 88.8561 11.9678 88.1094 11.9704C87.5993 11.9722 87.2478 11.9842 87.1233 12.004ZM92.8645 11.9988C92.686 12.086 92.5744 12.2426 92.5744 12.4059C92.5744 12.5948 92.6674 12.7072 93.4291 13.4396C93.8299 13.8249 94.3155 14.2935 94.5083 14.481C94.7011 14.6684 95.0247 14.979 95.2274 15.1712L95.5961 15.5206V16.6044V17.6881L95.6691 17.8037C95.7827 17.9836 95.8913 18.0214 96.2598 18.0091C96.5286 18.0001 96.5632 17.9935 96.6692 17.9311C96.7584 17.8786 96.7982 17.8343 96.8429 17.7378L96.901 17.6127L96.9012 16.5649L96.9014 15.5172L97.3298 15.1081C97.5654 14.8832 97.9217 14.5401 98.1215 14.3459C98.3213 14.1517 98.599 13.8843 98.7386 13.7518C98.8782 13.6193 99.1887 13.3139 99.4286 13.0731C99.8205 12.6797 99.8678 12.6235 99.8941 12.5191C99.9331 12.3645 99.8955 12.2124 99.7934 12.1114C99.6626 11.9822 99.5851 11.963 99.2342 11.9726C98.8542 11.9831 98.7875 12.0086 98.5521 12.2335C98.4619 12.3197 98.2848 12.4886 98.1585 12.609C98.0322 12.7293 97.8092 12.9432 97.6629 13.0843C97.5167 13.2254 97.2719 13.4603 97.119 13.6063C96.9661 13.7523 96.7071 14.0022 96.5434 14.1616L96.2458 14.4515L96.1325 14.343C96.0701 14.2832 95.8941 14.1149 95.7414 13.969C95.5886 13.823 95.3112 13.5559 95.125 13.3753C94.0526 12.3359 93.7945 12.0954 93.6921 12.0404C93.5895 11.9853 93.549 11.9793 93.252 11.9745C93.0342 11.971 92.9047 11.9791 92.8645 11.9988ZM65.2586 13.1005C64.7163 13.1538 64.4548 13.2403 64.2795 13.4243L64.207 13.5004V14.9907V16.481L64.2896 16.5665C64.5409 16.8269 64.9906 16.8946 66.478 16.8957C67.6735 16.8966 68.0501 16.8678 68.3975 16.7492C68.5616 16.6932 68.6674 16.6204 68.7348 16.5172L68.7879 16.4358V14.9903V13.5447L68.7236 13.4472C68.6752 13.3737 68.6171 13.3298 68.4879 13.269C68.1465 13.1084 67.8781 13.0844 66.4672 13.0888C65.849 13.0907 65.3051 13.096 65.2586 13.1005ZM79.9318 13.1091C79.635 13.1418 79.4705 13.183 79.2835 13.2713C79.1387 13.3398 79.0939 13.3753 79.0358 13.4672L78.9648 13.5796V14.987V16.3944L79.0247 16.497C79.0576 16.5534 79.1256 16.624 79.1758 16.6539C79.4998 16.8468 79.9228 16.8951 81.2855 16.8947C82.7417 16.8943 83.2007 16.8312 83.4573 16.5962C83.5852 16.4792 83.5821 16.5203 83.5802 14.9856C83.5786 13.6706 83.5751 13.5522 83.536 13.4851C83.4761 13.3821 83.3201 13.2693 83.1688 13.2196C82.8271 13.1073 82.7623 13.1028 81.4063 13.0958C80.695 13.0921 80.0315 13.0981 79.9318 13.1091ZM11.3521 13.1435C11.0145 13.2378 10.7619 13.4795 10.6532 13.812C10.5679 14.0729 10.5881 14.284 10.7262 14.575C10.783 14.6947 11.0181 14.9146 11.1708 14.9909C11.3026 15.0567 11.3378 15.0633 11.5575 15.0633C11.7696 15.0633 11.8164 15.0552 11.9383 14.9978C12.2287 14.8611 12.4561 14.5639 12.5147 14.2444C12.634 13.5945 11.9741 12.9697 11.3521 13.1435ZM14.0232 13.1428C13.6527 13.2608 13.3723 13.582 13.3121 13.9575C13.2475 14.3609 13.4925 14.8079 13.8792 14.9922C14.067 15.0816 14.3789 15.1031 14.5712 15.0399C14.9664 14.9101 15.2681 14.5015 15.2681 14.0963C15.2681 13.8808 15.2019 13.6946 15.0578 13.5043C14.9662 13.3833 14.9521 13.37 14.8029 13.2639C14.6051 13.1231 14.2555 13.0688 14.0232 13.1428ZM16.7325 13.1598C16.4647 13.2523 16.258 13.438 16.1399 13.6923C15.9142 14.1781 16.1223 14.7392 16.6193 14.9847C16.7663 15.0574 16.7963 15.0633 17.0203 15.0633C17.2463 15.0633 17.2732 15.0579 17.424 14.9824C17.709 14.8396 17.9016 14.5824 17.9762 14.2451C18.0609 13.8625 17.7923 13.3788 17.3954 13.1988C17.1697 13.0964 16.9529 13.0837 16.7325 13.1598ZM19.4734 13.154C19.2375 13.2045 18.9545 13.4296 18.8472 13.652C18.7812 13.789 18.7256 13.9918 18.7252 14.097C18.7249 14.1699 18.7702 14.3718 18.8112 14.4806C18.8485 14.5793 19.0004 14.7746 19.1088 14.8631C19.3031 15.0218 19.4097 15.0606 19.6556 15.062C19.8426 15.0631 19.8925 15.0542 20.0114 14.9982C20.4446 14.7943 20.6846 14.2775 20.5409 13.858C20.4328 13.5423 20.2824 13.359 20.0288 13.2336C19.8622 13.1512 19.637 13.119 19.4734 13.154ZM21.8865 13.2142C21.502 13.323 21.2022 13.8501 21.2881 14.2661C21.3481 14.556 21.4885 14.7771 21.7089 14.9283C22.0086 15.1338 22.4108 15.0894 22.6778 14.8212C22.9768 14.5209 23.0445 14.0187 22.8367 13.6438C22.7532 13.4933 22.5803 13.3247 22.439 13.256C22.2962 13.1867 22.0496 13.168 21.8865 13.2142ZM24.1058 13.2728C23.9662 13.3195 23.7618 13.5087 23.6941 13.654C23.5002 14.0697 23.5693 14.5291 23.8714 14.8325C24.3076 15.2706 24.9413 14.9873 25.0618 14.3005C25.1338 13.8899 24.8686 13.3821 24.5238 13.2703C24.3711 13.2207 24.2594 13.2214 24.1058 13.2728ZM25.9727 13.3733C25.7861 13.4922 25.6777 13.6753 25.6148 13.9782C25.5883 14.1058 25.5884 14.1606 25.6157 14.306C25.7639 15.0948 26.458 15.2799 26.7811 14.6167C26.8555 14.4639 26.8592 14.443 26.8587 14.1771C26.8582 13.9167 26.8532 13.8871 26.7841 13.7393C26.645 13.4417 26.463 13.303 26.2116 13.303C26.1114 13.303 26.0588 13.3185 25.9727 13.3733ZM24.2123 15.767C23.8806 15.8554 23.6624 16.1139 23.5691 16.5292C23.5359 16.6766 23.5342 16.7282 23.5586 16.8525C23.6515 17.327 24.0017 17.6207 24.3648 17.5286C24.8164 17.4139 25.1143 16.8811 25.0101 16.3742C24.922 15.9457 24.5639 15.6732 24.2123 15.767ZM21.8995 15.8388C21.6415 15.9198 21.425 16.1432 21.3149 16.4421C21.2548 16.6051 21.2444 16.9277 21.2947 17.0664C21.3857 17.3175 21.5552 17.5138 21.7546 17.5991C21.9258 17.6723 22.1859 17.6681 22.3637 17.5891C22.5416 17.5101 22.7365 17.308 22.8383 17.0971C22.9123 16.9436 22.9175 16.9161 22.9178 16.6779C22.918 16.434 22.9145 16.4163 22.8359 16.2699C22.7352 16.0822 22.5374 15.8954 22.3837 15.8428C22.2484 15.7965 22.0396 15.7948 21.8995 15.8388ZM19.4447 15.864C19.1414 15.9478 18.9021 16.1896 18.7521 16.5637C18.7372 16.601 18.7249 16.718 18.7249 16.8236C18.7249 16.9291 18.7372 17.0461 18.7521 17.0834C18.8704 17.3784 19.0285 17.564 19.2502 17.6684C19.3695 17.7245 19.4213 17.7341 19.6078 17.7341C19.8051 17.7341 19.841 17.7265 19.9862 17.6548C20.1896 17.5542 20.3446 17.4009 20.4393 17.2067C20.5464 16.987 20.5767 16.8089 20.5405 16.6116C20.4405 16.0669 19.9418 15.7266 19.4447 15.864ZM11.3158 15.8848C11.0783 15.9641 10.9216 16.0789 10.7983 16.2636C10.6578 16.4743 10.6387 16.5407 10.6408 16.8114C10.6423 17.0193 10.6517 17.0743 10.7059 17.1939C10.7782 17.3531 10.9779 17.5775 11.1241 17.6635C11.5663 17.9238 12.1032 17.7848 12.3901 17.3356C12.6983 16.8532 12.4881 16.1999 11.9407 15.9385C11.7712 15.8576 11.4738 15.832 11.3158 15.8848ZM14.1121 15.8784C13.8193 15.9362 13.5337 16.1588 13.3999 16.4333C13.3282 16.5806 13.3222 16.6116 13.3222 16.8357C13.3222 17.0626 13.3276 17.0896 13.4044 17.2476C13.5073 17.459 13.6714 17.6225 13.8849 17.7262C14.0351 17.7992 14.0656 17.8051 14.2891 17.805C14.5134 17.8048 14.5426 17.799 14.6935 17.7246C15.0328 17.5575 15.2681 17.1932 15.2677 16.8357C15.2673 16.3938 14.8967 15.9625 14.4433 15.8761C14.3016 15.8491 14.2585 15.8494 14.1121 15.8784ZM16.806 15.8778C16.5274 15.9481 16.2639 16.1743 16.1286 16.4594C16.0612 16.6016 16.0538 16.64 16.0538 16.8484C16.0538 17.0627 16.0598 17.092 16.1367 17.2488C16.2622 17.5047 16.4384 17.6582 16.7355 17.7704C16.7822 17.7881 16.8972 17.7962 17.0256 17.791C17.2051 17.7837 17.2627 17.7704 17.3954 17.7051C17.8972 17.4585 18.103 16.9015 17.873 16.4123C17.7231 16.0935 17.4157 15.8818 17.0762 15.8636C16.9792 15.8584 16.8576 15.8648 16.806 15.8778ZM24.0023 18.2828C23.9236 18.3131 23.8275 18.38 23.7445 18.462C23.3762 18.826 23.3041 19.4002 23.5862 19.7221C23.7244 19.8797 23.8343 19.9314 24.0315 19.9314C24.2423 19.9314 24.4133 19.8485 24.5828 19.6644C24.7903 19.4388 24.8732 19.231 24.8719 18.9395C24.8711 18.7716 24.8596 18.7054 24.8145 18.6091C24.7465 18.4637 24.6076 18.319 24.4879 18.2688C24.3675 18.2182 24.1533 18.2244 24.0023 18.2828ZM21.8433 18.4063C21.6498 18.4883 21.5641 18.5449 21.4476 18.6676C21.0043 19.1344 21.052 19.7776 21.5518 20.0727C21.6492 20.1302 21.6871 20.1378 21.8795 20.1378C22.0813 20.1378 22.1081 20.1317 22.2495 20.0548C22.6332 19.8458 22.8672 19.3859 22.7877 18.9967C22.7116 18.6245 22.4208 18.3755 22.0662 18.3791C21.9768 18.38 21.8765 18.3923 21.8433 18.4063ZM19.4232 18.5098C19.2305 18.5632 19.0913 18.6486 18.9412 18.8056C18.7306 19.0258 18.6682 19.1776 18.6678 19.4701C18.6676 19.6609 18.6771 19.7205 18.7227 19.8152C18.8939 20.1708 19.2846 20.3752 19.6447 20.2976C19.9994 20.2212 20.2968 19.9488 20.418 19.5894C20.5205 19.2854 20.4405 18.9584 20.2092 18.7365C19.9694 18.5064 19.7079 18.431 19.4232 18.5098ZM16.8273 18.5687C16.5435 18.6198 16.2493 18.8482 16.1111 19.1248C16.0355 19.2761 16.0296 19.3047 16.03 19.5186C16.0303 19.7096 16.0399 19.7686 16.0857 19.8618C16.1977 20.0895 16.4163 20.2826 16.6581 20.3674C16.7113 20.3861 16.8427 20.4011 16.9502 20.4007C17.1258 20.4 17.1649 20.3906 17.3349 20.3085C17.5689 20.1955 17.7256 20.0429 17.8271 19.8293C17.8957 19.685 17.903 19.6475 17.9025 19.4423C17.902 19.2427 17.894 19.1997 17.836 19.0881C17.7998 19.0183 17.729 18.912 17.6787 18.852C17.5043 18.6436 17.1207 18.516 16.8273 18.5687ZM13.9936 18.6184C13.7453 18.7034 13.5271 18.894 13.4145 19.1243C13.3543 19.2475 13.3464 19.2905 13.3464 19.4943C13.3464 19.6943 13.3551 19.7437 13.4117 19.865C13.6036 20.2763 14.0918 20.5189 14.5141 20.4127C14.9876 20.2937 15.3329 19.797 15.2426 19.3649C15.1681 19.0088 14.8936 18.717 14.5212 18.598C14.3994 18.559 14.1373 18.5692 13.9936 18.6184ZM27.4636 19.9735C27.1036 20.0601 26.7942 20.5149 26.7904 20.9633C26.7891 21.1168 26.7995 21.1782 26.8404 21.2563C26.9088 21.3873 26.9477 21.4161 27.0752 21.4305C27.5229 21.4812 28.0004 20.6163 27.7757 20.1616C27.7075 20.0236 27.5785 19.9458 27.4636 19.9735ZM23.8848 20.6079C23.5641 20.7178 23.3199 20.9864 23.1993 21.3614C23.1347 21.5626 23.1834 21.8171 23.3172 21.9773C23.61 22.3274 24.1855 22.1677 24.4859 21.6528C24.7435 21.2112 24.6141 20.6881 24.2228 20.5891C24.0861 20.5545 24.0316 20.5575 23.8848 20.6079ZM21.6586 20.8634C21.3117 20.9929 21.0579 21.2843 20.9732 21.6505C20.9114 21.9176 21.0448 22.2136 21.2979 22.3707C21.4058 22.4378 21.4351 22.4443 21.6243 22.4443C21.8111 22.4443 21.8489 22.4361 21.9958 22.3635C22.3563 22.1852 22.614 21.7831 22.5875 21.4402C22.565 21.1495 22.4012 20.9429 22.1092 20.8369C21.9843 20.7916 21.826 20.8009 21.6586 20.8634ZM19.2809 21.0311C18.8713 21.1475 18.5315 21.564 18.5315 21.9498C18.5315 22.0583 18.6097 22.2697 18.688 22.3728C19.0604 22.8632 19.8679 22.7279 20.2003 22.1194C20.4206 21.716 20.2779 21.2693 19.8646 21.0684C19.7323 21.004 19.4414 20.9854 19.2809 21.0311ZM16.7911 21.1181C16.5052 21.1613 16.1785 21.4061 16.0521 21.6716C15.9955 21.7906 15.9849 21.8439 15.9855 22.0073C15.9861 22.1671 15.9972 22.2231 16.0482 22.3229C16.2187 22.6571 16.6477 22.8703 16.999 22.7954C17.3386 22.7229 17.6074 22.5252 17.7463 22.2454C17.8062 22.1249 17.8163 22.0763 17.816 21.9102C17.8157 21.7549 17.8039 21.6916 17.7572 21.5945C17.5961 21.2601 17.1867 21.0583 16.7911 21.1181ZM14.2287 21.1385C13.8317 21.2013 13.5219 21.4193 13.4147 21.7115C13.3759 21.817 13.3763 22.1326 13.4152 22.245C13.4923 22.4674 13.7052 22.6736 13.9628 22.7754C14.1524 22.8504 14.4526 22.8496 14.6569 22.7736C14.8524 22.7008 15.065 22.5099 15.1541 22.3272C15.2092 22.2141 15.2198 22.1607 15.2198 21.9941C15.2198 21.8299 15.2091 21.7744 15.1578 21.6709C15.034 21.4216 14.7849 21.2302 14.5067 21.1708C14.3225 21.1315 14.294 21.1282 14.2287 21.1385ZM26.9758 21.9895C26.6893 22.1413 26.473 22.4352 26.3856 22.7912C26.3266 23.0317 26.4513 23.282 26.6302 23.282C26.8437 23.282 27.1623 23.0062 27.3195 22.6853C27.4059 22.5091 27.4139 22.4759 27.4145 22.2907L27.4152 22.0885L27.3249 22.0054C27.2142 21.9035 27.144 21.9003 26.9758 21.9895ZM23.5937 22.7678C23.3126 22.8654 23.0873 23.0696 22.9488 23.3521C22.8829 23.4866 22.8706 23.5387 22.8706 23.6842C22.8706 23.8355 22.8794 23.8694 22.9416 23.9595C23.1555 24.2695 23.6141 24.2188 23.9752 23.8453C24.0963 23.7201 24.1389 23.6551 24.2368 23.4469C24.2538 23.4107 24.2677 23.3055 24.2677 23.2131C24.2677 23.0682 24.2581 23.0304 24.1975 22.9389C24.0671 22.7418 23.8478 22.6796 23.5937 22.7678ZM21.4919 23.075C21.3058 23.134 21.1321 23.2398 20.9974 23.3759C20.6997 23.6768 20.6367 24.0565 20.8441 24.2999C20.9759 24.4545 21.0932 24.5046 21.3236 24.5045C21.4955 24.5045 21.537 24.4949 21.6982 24.4175C22.1694 24.1914 22.4164 23.7141 22.2427 23.3657C22.1091 23.0977 21.7988 22.9775 21.4919 23.075ZM19.1963 23.2985C19.1564 23.3051 19.0445 23.3473 18.9475 23.3923C18.4411 23.6271 18.2324 24.1768 18.5211 24.5156C18.6373 24.652 18.7764 24.7297 18.9671 24.7647C19.3586 24.8366 19.8511 24.5699 20.0292 24.1894C20.0993 24.0395 20.1013 23.7861 20.0334 23.6523C19.9729 23.5332 19.837 23.4115 19.6935 23.3477C19.5838 23.2989 19.3392 23.2748 19.1963 23.2985ZM16.7427 23.4435C16.5284 23.4762 16.3179 23.5824 16.157 23.7387C15.9959 23.8952 15.9365 24.0303 15.9361 24.241C15.9358 24.4447 15.9883 24.5633 16.1398 24.7007C16.4991 25.0268 17.0696 25.003 17.4496 24.646C17.7625 24.352 17.7893 23.9667 17.516 23.6922C17.3182 23.4935 17.0275 23.4 16.7427 23.4435ZM14.1537 23.4887C13.8571 23.5387 13.5904 23.7141 13.4821 23.9305C13.443 24.0088 13.431 24.0776 13.431 24.2242C13.431 24.4048 13.4362 24.4237 13.5233 24.5591C13.6234 24.7146 13.8023 24.8551 13.9869 24.9232C14.0586 24.9497 14.174 24.9637 14.3254 24.9643C14.5317 24.9651 14.5715 24.9576 14.7171 24.8905C15.0244 24.7486 15.2198 24.4917 15.2198 24.2291C15.2198 24.0753 15.1323 23.8816 15.0098 23.7643C14.7724 23.5372 14.4609 23.4368 14.1537 23.4887ZM24.9381 24.2723C24.8653 24.3085 24.7337 24.4062 24.6456 24.4894C24.0824 25.0213 24.2777 25.6497 24.9078 25.3331C25.229 25.1717 25.5176 24.7802 25.5176 24.506C25.5176 24.3941 25.5074 24.3672 25.4362 24.2913C25.3605 24.2107 25.3448 24.2047 25.2126 24.2055C25.1079 24.2062 25.0355 24.2238 24.9381 24.2723ZM21.2175 25.0442C20.7849 25.1611 20.4412 25.5235 20.4412 25.8627C20.4412 26.0262 20.5072 26.1341 20.6597 26.2197C20.7517 26.2714 20.7979 26.2802 20.9731 26.2794C21.1639 26.2785 21.1934 26.2712 21.3868 26.1772C21.7231 26.0137 21.9427 25.733 21.9451 25.4635C21.9471 25.241 21.8434 25.1105 21.608 25.0394C21.471 24.998 21.3848 24.999 21.2175 25.0442ZM18.9787 25.3136C18.8542 25.3345 18.5677 25.4806 18.4604 25.5781C18.4039 25.6293 18.3262 25.7264 18.2877 25.7938C18.2299 25.895 18.2178 25.9438 18.2183 26.0742C18.2191 26.2847 18.2922 26.3971 18.4945 26.4986C18.8197 26.6617 19.2613 26.5798 19.5727 26.2986C19.8517 26.0467 19.9125 25.7387 19.7264 25.5203C19.6105 25.3843 19.4554 25.3178 19.2332 25.3088C19.1331 25.3048 19.0186 25.3069 18.9787 25.3136ZM16.5279 25.5056C16.1989 25.5944 15.9528 25.7984 15.8828 26.0403C15.8454 26.1694 15.8453 26.1898 15.8809 26.3032C16.0106 26.7166 16.6201 26.8795 17.1174 26.6338C17.4038 26.4922 17.5404 26.2999 17.5404 26.0382C17.5404 25.8429 17.4795 25.7363 17.3011 25.619C17.0834 25.4761 16.7941 25.4336 16.5279 25.5056ZM14.0595 25.5531C13.8702 25.6062 13.7403 25.6742 13.6391 25.7728C13.5291 25.8802 13.4793 25.9977 13.4793 26.1502C13.4793 26.3911 13.632 26.5854 13.9284 26.7217C14.0563 26.7805 14.0999 26.7876 14.3375 26.7878C14.5867 26.7881 14.6139 26.7832 14.7715 26.7096C14.9695 26.6172 15.0108 26.5835 15.1026 26.4397C15.1597 26.3501 15.1714 26.3056 15.1714 26.1777C15.1714 25.8899 15.0116 25.7019 14.6607 25.577C14.5008 25.5201 14.217 25.5088 14.0595 25.5531ZM20.7571 26.766C20.4444 26.8826 20.1857 27.1248 20.1279 27.3551C20.1051 27.4461 20.1076 27.4762 20.1442 27.5511C20.3485 27.9693 21.2681 27.7367 21.5197 27.2032C21.5894 27.0553 21.5917 26.9842 21.5299 26.8824C21.4188 26.6994 21.0746 26.6476 20.7571 26.766ZM18.7194 27.0342C18.2813 27.1545 18.0112 27.408 18.0154 27.695C18.0183 27.8989 18.1371 28.0005 18.4484 28.0654C18.6063 28.0983 18.7852 28.0732 19.015 27.9857C19.3818 27.8462 19.6189 27.5425 19.5439 27.3083C19.4672 27.0687 19.0721 26.9373 18.7194 27.0342ZM16.3801 27.2351C16.1465 27.2964 15.968 27.4105 15.8635 27.5651C15.8135 27.6391 15.7999 27.6883 15.7999 27.7959C15.7999 27.9138 15.8106 27.9456 15.877 28.0265C16.1395 28.3464 16.8602 28.3336 17.2249 28.0027C17.3941 27.8492 17.4455 27.6259 17.3485 27.4661C17.2121 27.2414 16.7636 27.1344 16.3801 27.2351ZM18.4953 28.4287C18.024 28.5332 17.7146 28.8268 17.8168 29.0725C17.8705 29.2017 18.0352 29.2672 18.3019 29.2656C18.6191 29.2636 18.8995 29.1676 19.0883 28.9963C19.3161 28.7896 19.3134 28.5831 19.0816 28.4626C18.9918 28.416 18.6436 28.3958 18.4953 28.4287ZM16.3922 28.614C16.0485 28.6634 15.8068 28.806 15.7285 29.0055C15.6137 29.2983 16.0493 29.5259 16.5622 29.441C16.769 29.4068 17.0077 29.3105 17.1023 29.2231C17.1732 29.1575 17.2262 29.0372 17.2262 28.9418C17.2262 28.8464 17.1228 28.7265 16.9921 28.6702C16.8878 28.6253 16.54 28.5927 16.3922 28.614Z" fill="white"/>
</svg>
