<svg width="96" height="30" viewBox="0 0 96 30" fill="none" xmlns="http://www.w3.org/2000/svg">
<path fill-rule="evenodd" clip-rule="evenodd" d="M20.7595 0.494117C18.7238 0.638567 16.6152 1.2357 14.9041 2.15225C14.3904 2.42737 13.6464 2.88045 13.2241 3.17522C12.9782 3.34692 12.957 3.35423 12.5004 3.42638C9.29694 3.93242 6.5171 5.09927 4.26782 6.88202C3.71945 7.31662 2.83587 8.18003 2.41552 8.69198C1.14033 10.2451 0.405516 11.8784 0.135923 13.7588C0.0759248 14.1773 0.075961 15.5249 0.135959 15.9431C0.400196 17.7852 1.08482 19.3402 2.31373 20.8898C2.73444 21.4203 3.71319 22.3846 4.30401 22.8507C6.33019 24.4492 8.76641 25.5412 11.5775 26.111C11.906 26.1775 12.2673 26.2431 12.3804 26.2567C12.5584 26.2781 12.6244 26.3105 12.869 26.4966C13.0245 26.6149 13.3797 26.8617 13.6583 27.045C15.7106 28.3949 18.0769 29.2134 20.5339 29.423C21.096 29.4709 22.5519 29.471 23.085 29.4231C26.7263 29.096 29.9743 27.553 32.503 24.9489C35.4657 21.8978 36.9273 17.6206 36.4552 13.3829C36.0118 9.40266 33.9121 5.77586 30.6564 3.36644C29.1237 2.23214 27.268 1.35566 25.4423 0.903727C23.931 0.529639 22.2861 0.385761 20.7595 0.494117ZM20.7872 1.17401C18.7135 1.34496 16.818 1.89744 15.0713 2.83998C14.3256 3.2424 14.285 3.20917 15.522 3.20917C16.8766 3.20917 17.643 3.26489 18.8037 3.44779C22.0065 3.9524 24.9007 5.2092 27.1561 7.07463C27.6191 7.4576 28.4397 8.28441 28.8149 8.74598C30.6041 10.9471 31.3865 13.5299 31.0285 16.0533C30.5782 19.2274 28.4909 22.0607 25.1477 24.0357C23.6382 24.9275 21.6961 25.6764 19.9384 26.0445C18.1832 26.4121 16.4334 26.5646 14.8177 26.4908C14.4005 26.4717 14.0536 26.4615 14.047 26.4681C14.0403 26.4747 14.1781 26.5686 14.3532 26.6767C16.1564 27.7899 18.0356 28.4382 20.2625 28.7152C20.8672 28.7904 22.9045 28.7793 23.5193 28.6974C26.7665 28.2649 29.4794 26.9507 31.766 24.7025C34.9232 21.5984 36.3798 17.1676 35.6757 12.8099C35.286 10.3983 34.2844 8.18135 32.7158 6.25834C32.3578 5.81948 31.4894 4.93634 31.0267 4.5407C28.8454 2.6753 26.2877 1.56962 23.3565 1.22482C22.7856 1.15768 21.3336 1.12896 20.7872 1.17401ZM14.5992 3.63178C14.4798 3.63783 14.2221 3.65899 14.0265 3.67886C13.6847 3.71353 13.6615 3.72151 13.4294 3.88462C12.5836 4.47893 11.5625 5.45588 10.7984 6.40183C10.1902 7.15477 9.46409 8.30973 9.09965 9.10377C8.94705 9.43632 8.95816 9.42859 9.25442 8.99635C10.0046 7.90194 11.1195 6.83099 12.304 6.06699C13.0409 5.59163 14.2297 5.05512 15.1029 4.80374C16.1784 4.49411 17.0428 4.37634 18.2179 4.37934C19.1432 4.38167 19.6053 4.4264 20.4253 4.59305C23.358 5.18911 25.997 7.05322 27.5321 9.61318C28.5035 11.2333 28.9957 12.9267 29.0454 14.8204C29.0944 16.6846 28.7533 18.2393 27.9349 19.882C27.1875 21.3824 26.3277 22.4288 24.8378 23.6514C24.7049 23.7604 24.7122 23.7584 24.9468 23.6206C26.4176 22.7566 27.8179 21.4991 28.7511 20.2043C29.7027 18.8839 30.2845 17.4555 30.4837 15.9503C30.557 15.3961 30.557 14.3058 30.4837 13.7517C29.9004 9.34297 25.934 5.60323 20.3485 4.19568C18.5333 3.73827 16.4769 3.53656 14.5992 3.63178ZM11.6681 4.00039C7.57155 4.87525 4.27358 6.8664 2.33768 9.63356C0.936777 11.636 0.363937 14.012 0.743068 16.2475C1.45552 20.4485 5.22128 23.9865 10.5153 25.4286C10.9631 25.5506 11.7832 25.7367 11.8731 25.7367C11.897 25.7367 11.6645 25.4829 11.3566 25.1727C10.1425 23.95 9.34044 22.8436 8.61171 21.386C7.52917 19.2207 7.04174 17.0369 7.10115 14.6182C7.15507 12.4245 7.65058 10.4454 8.63128 8.50689C9.4393 6.90973 10.6013 5.38659 11.8623 4.2716C12.0839 4.07573 12.2651 3.91054 12.2651 3.90456C12.2651 3.88071 12.1178 3.90435 11.6681 4.00039ZM15.8115 7.76469C15.1748 7.80723 14.6897 7.87824 14.6897 7.92883C14.6897 7.95469 14.6502 7.97581 14.6018 7.97581C14.5535 7.97581 14.491 7.99848 14.463 8.0262C14.4272 8.06161 14.2947 8.08023 14.0171 8.08886C13.6263 8.101 13.6194 8.10275 13.362 8.25365C13.2189 8.33755 13.0205 8.48257 12.9211 8.57592L12.7405 8.74569L12.6323 9.22334C12.5727 9.48606 12.5187 9.70428 12.5122 9.70825C12.5057 9.71223 12.3817 9.75219 12.2367 9.79706C11.7329 9.95289 11.5922 10.1971 11.4842 11.1037C11.4651 11.2638 11.4566 11.2762 11.3766 11.261C11.3151 11.2494 11.2836 11.2635 11.2689 11.3093C11.2377 11.4066 11.3183 11.6641 11.38 11.6641C11.4498 11.6641 11.4473 11.771 11.3749 11.8731C11.3219 11.9481 11.3219 11.9602 11.3749 12.0182C11.4068 12.053 11.4328 12.1337 11.4328 12.1975C11.4328 12.2938 11.4216 12.3099 11.3662 12.2925C11.3086 12.2744 11.2914 12.3082 11.2395 12.5418C11.2065 12.6904 11.1795 12.9483 11.1795 13.115C11.1795 13.4062 11.1845 13.4245 11.3062 13.5822C11.3758 13.6725 11.4328 13.769 11.4328 13.7965C11.4328 13.8685 12.1949 14.7309 12.4311 14.9262C12.5407 15.0168 12.7119 15.1288 12.8117 15.175C12.9726 15.2496 13.006 15.2539 13.1086 15.2135C13.5321 15.0465 13.5112 15.0505 13.6385 15.1133C13.7038 15.1455 13.8378 15.1825 13.9363 15.1954C14.1085 15.218 14.1211 15.2135 14.2578 15.0815C14.3685 14.9745 14.4097 14.9535 14.4436 14.987C14.5449 15.0873 15.0459 15.0036 15.2069 14.8594C15.2723 14.8008 15.2814 14.8051 15.4156 14.9588C15.4928 15.0472 15.5814 15.1715 15.6126 15.2351C15.6667 15.3454 15.6765 15.3496 15.8283 15.329C16.2044 15.278 16.3178 15.4139 16.3179 15.9163C16.318 16.1133 16.3034 16.2475 16.2819 16.2475C16.2613 16.2475 16.2458 16.3518 16.2459 16.4892C16.246 16.671 16.264 16.7576 16.3185 16.8383C16.3583 16.8974 16.4241 16.9967 16.4647 17.059C16.5053 17.1212 16.5622 17.1811 16.5912 17.1921C16.6201 17.2031 16.6438 17.2362 16.6438 17.2656C16.6438 17.2951 16.6763 17.3365 16.7161 17.3576C16.7559 17.3787 16.7885 17.4298 16.7885 17.4711C16.7885 17.5125 16.856 17.6817 16.9384 17.8472C17.0688 18.1089 17.083 18.1598 17.047 18.2379C16.9961 18.3485 16.9922 18.6825 17.0418 18.6825C17.1336 18.6825 17.0701 18.9676 16.8997 19.3216C16.8016 19.5254 16.7108 19.7538 16.6979 19.8293C16.6661 20.0158 16.7549 20.3402 16.9411 20.7174C17.0924 21.0239 17.0932 21.0272 17.1143 21.532C17.1315 21.9427 17.1473 22.0505 17.1972 22.0999C17.2314 22.1337 17.2589 22.2158 17.2589 22.2837C17.2589 22.357 17.2869 22.4342 17.3284 22.4752C17.3718 22.5182 17.4076 22.622 17.424 22.7527C17.4418 22.8942 17.4719 22.9767 17.5174 23.0084C17.563 23.0401 17.5846 23.0993 17.5846 23.1925C17.5846 23.2746 17.6042 23.3373 17.6333 23.3484C17.6663 23.3609 17.6891 23.4663 17.704 23.6756C17.7244 23.9619 17.7344 23.9926 17.8422 24.0995C17.9297 24.1863 18.0107 24.2244 18.1696 24.2535C18.3381 24.2843 18.3807 24.2828 18.3807 24.2459C18.3807 24.1878 18.5161 24.1527 19.1949 24.0345C19.4935 23.9825 19.7385 23.9374 19.7395 23.9342C19.7704 23.83 19.8395 23.7314 19.8817 23.7314C19.9147 23.7314 19.9368 23.6991 19.9368 23.6509C19.9368 23.6017 19.9862 23.5313 20.0634 23.4703C20.1331 23.4153 20.1901 23.3482 20.1901 23.3211C20.1901 23.2941 20.2552 23.2209 20.3348 23.1585C20.4144 23.0961 20.4796 23.0151 20.4796 22.9786C20.4796 22.942 20.4959 22.9021 20.5158 22.8899C20.5357 22.8778 20.552 22.8365 20.552 22.7983C20.552 22.7601 20.5746 22.7288 20.6024 22.7288C20.6744 22.7288 20.6967 22.6476 20.6967 22.3857C20.6967 22.2053 20.7084 22.1559 20.751 22.1559C20.7838 22.1559 20.8053 22.1227 20.8053 22.0719C20.8053 21.9587 20.9131 21.8694 21.0498 21.8694C21.1586 21.8694 21.1627 21.8636 21.1869 21.6718C21.2006 21.5631 21.2004 21.323 21.1864 21.1382L21.1609 20.8022L21.271 20.7783C21.3337 20.7646 21.3905 20.7246 21.4031 20.6853C21.4153 20.6472 21.4557 20.6161 21.4928 20.6161C21.5299 20.6161 21.5698 20.5879 21.5814 20.5534C21.593 20.519 21.7564 20.3619 21.9446 20.2043L22.2867 19.9179L22.2878 19.134C22.2888 18.4281 22.2826 18.3456 22.2256 18.3044C22.1705 18.2645 22.1624 18.1944 22.1634 17.7633C22.1646 17.2251 22.2181 17.0111 22.3608 16.9742C22.4011 16.9637 22.4337 16.9254 22.4337 16.8882C22.4337 16.8055 23.1842 16.0685 23.2684 16.0685C23.3014 16.0685 23.3709 16.0081 23.4226 15.9342C23.4744 15.8604 23.615 15.7037 23.7351 15.5862C23.8553 15.4686 23.9535 15.3448 23.9535 15.3111C23.9535 15.2773 23.9841 15.2401 24.0216 15.2283C24.0961 15.2049 24.2792 14.7483 24.2792 14.5858C24.2792 14.5347 24.2955 14.4929 24.3154 14.4929C24.3353 14.4929 24.3516 14.4627 24.3516 14.4258C24.3516 14.3889 24.3759 14.2904 24.4057 14.207C24.4761 14.0095 24.4447 13.7905 24.3421 13.7639C24.2367 13.7366 24.0621 13.7778 24.0621 13.83C24.0621 13.8555 23.9202 13.9121 23.7274 13.9637L23.3926 14.0531L23.2841 13.9792C23.0811 13.8411 22.2157 12.9597 22.1651 12.8398C22.1375 12.7741 22.1038 12.6468 22.0902 12.5568C22.0681 12.4098 22.0494 12.3845 21.9059 12.3069L21.7461 12.2206V11.9274V11.6342L21.604 11.5148C21.4721 11.4041 21.4585 11.3748 21.4157 11.109C21.3903 10.9515 21.3484 10.8097 21.3226 10.7939C21.2968 10.7782 21.2757 10.7339 21.2757 10.6954C21.2757 10.6571 21.2513 10.6256 21.2214 10.6256C21.1916 10.6256 21.1671 10.5963 21.1671 10.5605C21.1671 10.5246 21.1259 10.4598 21.0755 10.4164C20.9529 10.311 20.9357 10.255 20.8592 9.71251C20.8231 9.45648 20.7889 9.2411 20.7831 9.23383C20.7773 9.22659 20.4828 9.20783 20.1285 9.19215C19.7743 9.17646 19.4559 9.15244 19.4211 9.13883C19.3663 9.11738 19.3578 9.13629 19.3578 9.27898V9.44395H19.213C19.1334 9.44395 19.0683 9.43539 19.0683 9.4249C19.0683 9.41441 19.0927 9.34799 19.1226 9.2773C19.1953 9.10503 19.1943 9.10137 19.0592 9.0487C18.9945 9.02346 18.9172 8.97526 18.8874 8.94156C18.8575 8.90783 18.7563 8.85516 18.6623 8.8245L18.4916 8.76872L18.3368 9.05615L18.1821 9.34362L18.0418 9.325C17.8892 9.30473 17.6915 9.14492 17.5963 8.96487C17.5425 8.86329 17.5384 8.86214 17.3099 8.88531C17.0819 8.90844 17.078 8.90736 17.078 8.82171C17.078 8.75342 17.0347 8.71046 16.8774 8.62258C16.767 8.56096 16.6672 8.48587 16.6555 8.45568C16.6366 8.40695 16.6809 8.00238 16.7195 7.87218C16.7484 7.77436 16.3583 7.72816 15.8115 7.76469ZM44.6678 9.10084C44.4832 9.18037 44.3048 9.36088 44.2138 9.56008L44.1278 9.74832L44.1162 12.3086C44.1035 15.1141 44.1207 15.4924 44.292 16.1671C44.6156 17.4418 45.3702 18.1199 46.7753 18.3983C47.2665 18.4957 48.4132 18.5342 48.9056 18.4698C49.8261 18.3496 50.3712 18.1036 50.9337 17.5545C51.4483 17.0523 51.6597 16.6302 51.8055 15.8134C51.8661 15.4739 51.8718 15.1963 51.8718 12.5951V9.74832L51.7852 9.55875C51.6285 9.21546 51.3476 9.04931 50.9267 9.05085C50.5659 9.05217 50.2923 9.22591 50.1385 9.55138C50.0639 9.70951 50.062 9.76472 50.0405 12.5235C50.0172 15.5225 50.018 15.5087 49.8322 15.9926C49.6215 16.5413 49.2697 16.8477 48.6971 16.9813C48.396 17.0515 47.6035 17.0515 47.3025 16.9813C46.6615 16.8318 46.2367 16.3948 46.0793 15.7228C45.9825 15.3101 45.9568 14.5619 45.956 12.1399C45.9552 9.89288 45.9525 9.79749 45.8828 9.61318C45.7981 9.3892 45.6338 9.20891 45.4305 9.11706C45.2564 9.03835 44.8337 9.02936 44.6678 9.10084ZM54.7015 9.10177C54.3751 9.21696 54.1504 9.44789 54.0323 9.78961C53.9783 9.94595 53.9711 10.3311 53.9605 13.6693C53.9528 16.0819 53.9617 17.4723 53.986 17.6529C54.062 18.2173 54.349 18.5034 54.8391 18.5034C55.2467 18.5034 55.5131 18.3021 55.6656 17.8789C55.6922 17.8051 55.7114 16.8439 55.7244 14.936L55.7438 12.1027L56.9726 13.9692C59.764 18.2093 59.782 18.2343 60.1671 18.4038C60.3869 18.5006 60.8348 18.5309 61.0724 18.4651C61.3048 18.4007 61.5484 18.1571 61.6428 17.8947C61.7111 17.7047 61.714 17.5649 61.7248 13.9383C61.7313 11.7165 61.7218 10.0641 61.7016 9.89821C61.6345 9.3491 61.392 9.08161 60.9384 9.05626C60.4653 9.02979 60.217 9.19365 60.0556 9.63882C60.0287 9.71312 60.0097 10.6788 59.9968 12.6434L59.9777 15.5385L58.3079 13.0373C57.3895 11.6617 56.48 10.2962 56.2867 10.003C55.888 9.39804 55.693 9.18978 55.4481 9.10725C55.243 9.03806 54.8893 9.03549 54.7015 9.10177ZM64.4634 9.08816C64.2893 9.13829 64.0673 9.3511 63.9724 9.55875L63.8859 9.74832V13.7767V17.8052L63.9724 17.9947C64.1292 18.338 64.41 18.5042 64.8309 18.5026C65.0979 18.5017 65.2919 18.4169 65.467 18.2247C65.725 17.9416 65.7133 18.1524 65.7133 13.7767C65.7133 9.40109 65.725 9.61193 65.467 9.32879C65.2843 9.1283 65.0992 9.05106 64.8086 9.05407C64.6793 9.05543 64.5239 9.07076 64.4634 9.08816ZM70.9966 9.10066C70.3384 9.21571 69.7343 9.448 69.2299 9.7799C68.7575 10.0908 68.2249 10.7023 67.9458 11.2542C67.4292 12.276 67.2738 13.8362 67.5586 15.1419C67.9627 16.994 69.2039 18.1602 71.0855 18.4557C71.5839 18.5339 72.7259 18.5044 73.1678 18.4018C74.4553 18.103 75.3618 17.4231 75.9248 16.334C76.3733 15.4664 76.5703 14.3103 76.4643 13.1669C76.2645 11.0104 75.1325 9.62066 73.2075 9.16862C72.8739 9.09031 72.7228 9.07695 72.046 9.06589C71.5077 9.05711 71.1844 9.06782 70.9966 9.10066ZM78.7949 9.13439C78.4135 9.31064 78.2255 9.55693 78.1621 9.96346C78.1355 10.134 78.1263 11.4297 78.1333 14.0299L78.1435 17.8461L78.2526 18.057C78.4075 18.3569 78.5925 18.4789 78.9198 18.4972C79.3955 18.5238 79.6745 18.336 79.8383 17.8789C79.8646 17.8056 79.884 16.8354 79.8971 14.9456L79.9167 12.1218L81.1271 13.9609C83.2916 17.2496 83.7842 17.9739 83.9769 18.151C84.2502 18.4021 84.4237 18.4771 84.7753 18.4962C85.4856 18.5348 85.7957 18.2449 85.8741 17.4693C85.8948 17.2646 85.9043 15.6349 85.8974 13.4545C85.8871 10.2051 85.8792 9.76504 85.828 9.61769C85.6939 9.23172 85.4367 9.05006 85.0243 9.05006C84.6549 9.05006 84.3993 9.21002 84.252 9.53347C84.1913 9.66664 84.1855 9.88299 84.1687 12.6097L84.1506 15.5427L82.1241 12.5038C81.0095 10.8324 80.0351 9.40241 79.9587 9.32596C79.7561 9.12322 79.571 9.05171 79.2472 9.05121C79.038 9.05085 78.9344 9.0699 78.7949 9.13439ZM88.6824 9.23225C88.4793 9.27963 88.2786 9.39121 88.1727 9.51571C87.9629 9.76243 87.9683 9.65114 87.9683 13.7767C87.9683 18.0501 87.9542 17.8245 88.2374 18.0942C88.5062 18.3504 88.3947 18.3423 91.6594 18.3423H94.5724L94.7262 18.261C94.9225 18.1572 95.057 17.9566 95.0845 17.7262C95.1126 17.4912 95.0492 17.3021 94.8854 17.1327C94.6509 16.89 94.6748 16.8921 92.1051 16.8921H89.8138V15.5864V14.2808L91.9398 14.2705C94.0592 14.2602 94.0663 14.2599 94.2165 14.1804C94.4018 14.0824 94.5039 13.9458 94.5525 13.7308C94.6393 13.3478 94.4443 13.0234 94.0658 12.9211C93.9691 12.8949 93.2395 12.8819 91.8674 12.8818L89.8138 12.8815V11.7548V10.6282L92.1027 10.6179L94.3915 10.6077L94.5639 10.5237C94.7983 10.4095 94.9331 10.1853 94.933 9.90996C94.9328 9.56863 94.7433 9.32023 94.4138 9.22967C94.2494 9.18448 88.8769 9.18688 88.6824 9.23225ZM71.2577 10.5905C70.5935 10.7627 70.0318 11.2202 69.7198 11.8431C69.1792 12.9226 69.1747 14.5762 69.7094 15.6541C70.026 16.2925 70.4785 16.6993 71.1148 16.9179C71.4676 17.039 72.1585 17.0711 72.5345 16.9838C72.9844 16.8794 73.3604 16.6708 73.6942 16.3405C73.9422 16.0951 74.0192 15.9887 74.1765 15.6735C74.2794 15.4673 74.407 15.1375 74.4602 14.9405C74.5515 14.6018 74.5567 14.5378 74.5567 13.7588C74.5567 12.9773 74.5517 12.917 74.4593 12.5772C74.3418 12.1451 74.1423 11.7239 73.9131 11.4241C73.6087 11.026 73.0489 10.6804 72.5335 10.5723C72.1765 10.4975 71.5838 10.506 71.2577 10.5905ZM23.9026 19.2897C23.8644 19.4245 23.8093 19.5287 23.7531 19.5724C23.7041 19.6105 23.664 19.6756 23.664 19.7171C23.664 19.7594 23.6408 19.7925 23.6112 19.7925C23.5821 19.7925 23.5247 19.8282 23.4836 19.8719C23.4253 19.9338 23.3733 19.9497 23.2469 19.9443C23.109 19.9383 23.085 19.9475 23.085 20.0061C23.085 20.0438 23.0688 20.0847 23.0489 20.0969C23.029 20.1091 23.0127 20.1583 23.0127 20.2064C23.0127 20.2545 22.9943 20.2938 22.9717 20.2938C22.9147 20.2938 22.9582 20.5368 23.0292 20.6144C23.1058 20.6982 23.0997 20.74 22.9946 20.8523C22.931 20.9201 22.9041 20.9894 22.9041 21.0851C22.9041 21.1733 22.8835 21.2327 22.8456 21.2537C22.7578 21.3023 22.7874 21.78 22.8864 21.9112C22.9596 22.0082 23.1206 22.1201 23.1871 22.1201C23.249 22.1201 23.5193 21.8509 23.5193 21.7893C23.5193 21.7574 23.5405 21.71 23.5664 21.684C23.6261 21.624 23.7608 21.3451 23.7925 21.2159C23.8058 21.1617 23.8393 21.1174 23.867 21.1174C23.8947 21.1174 23.9173 21.1086 23.9173 21.0978C23.9173 21.0382 24.0304 20.0841 24.0455 20.0163C24.0572 19.9637 24.0901 19.9358 24.1402 19.9358C24.2112 19.9358 24.2155 19.9217 24.1969 19.7478C24.1488 19.2965 24.093 19.0764 24.027 19.0764C23.9798 19.0764 23.9472 19.1323 23.9026 19.2897ZM9.63996 21.8515C9.81109 22.1528 10.3427 22.9427 10.6135 23.2979C10.9839 23.7841 11.5762 24.442 12.0512 24.8952C12.4598 25.2849 13.1566 25.8706 13.2965 25.9418C13.5642 26.0782 16.292 26.1243 17.424 26.0116C18.3232 25.922 18.4633 25.8889 17.9646 25.8835C17.7457 25.8811 17.3386 25.8553 17.0599 25.8261C14.203 25.5271 11.6428 24.1657 9.78746 21.9589C9.51819 21.6387 9.51964 21.6397 9.63996 21.8515Z" fill="white"/>
</svg>
