<svg width="78" height="66" viewBox="0 0 78 66" fill="none" xmlns="http://www.w3.org/2000/svg">
<path d="M2.5 55.5278C22.9669 55.5278 42.7945 58.2488 61.6366 63.3469C64.3582 64.0833 67.0769 62.0718 67.0769 59.2681V55.5278M8.11538 2.5V5.29093C8.11538 6.83232 6.85834 8.08187 5.30769 8.08187H2.5M2.5 8.08187V6.6864C2.5 4.37432 4.38557 2.5 6.71154 2.5H69.8846M2.5 8.08187V41.5731M69.8846 2.5V5.29093C69.8846 6.83232 71.1417 8.08187 72.6923 8.08187H75.5M69.8846 2.5H71.2885C73.6144 2.5 75.5 4.37432 75.5 6.6864V42.9685C75.5 45.2806 73.6144 47.1549 71.2885 47.1549H69.8846M75.5 41.5731H72.6923C71.1417 41.5731 69.8846 42.8226 69.8846 44.364V47.1549M69.8846 47.1549H8.11538M8.11538 47.1549H6.71154C4.38557 47.1549 2.5 45.2806 2.5 42.9685V41.5731M8.11538 47.1549V44.364C8.11538 42.8226 6.85834 41.5731 5.30769 41.5731H2.5M50.2308 24.8275C50.2308 30.993 45.2026 35.9912 39 35.9912C32.7974 35.9912 27.7692 30.993 27.7692 24.8275C27.7692 18.6619 32.7974 13.6637 39 13.6637C45.2026 13.6637 50.2308 18.6619 50.2308 24.8275ZM61.4615 24.8275H61.4896V24.8554H61.4615V24.8275ZM16.5385 24.8275H16.5665V24.8554H16.5385V24.8275Z" stroke="#C33622" stroke-width="4" stroke-linecap="round" stroke-linejoin="round"/>
</svg>
