<svg width="80" height="66" viewBox="0 0 80 66" fill="none" xmlns="http://www.w3.org/2000/svg">
<path d="M9.53817 24.6432C9.95185 24.5789 10.3763 24.5455 10.8093 24.5455H69.1907C69.6237 24.5455 70.0481 24.5789 70.4618 24.6432M9.53817 24.6432C5.1221 25.33 1.93132 29.5386 2.58506 34.1956L5.74993 56.7411C6.33461 60.9062 9.83984 64 13.9742 64H66.0258C70.1602 64 73.6654 60.9062 74.2501 56.7411L77.4149 34.1957C78.0687 29.5386 74.8779 25.33 70.4618 24.6432M9.53817 24.6432V10.4545C9.53817 5.78523 13.2577 2 17.8459 2H32.1674C33.6363 2 35.045 2.59383 36.0837 3.65085L43.9163 11.6219C44.955 12.6789 46.3637 13.2727 47.8326 13.2727H62.1541C66.7423 13.2727 70.4618 17.058 70.4618 21.7273V24.6432" stroke="#C33622" stroke-width="4" stroke-linecap="round" stroke-linejoin="round"/>
</svg>
