<svg width="92" height="78" viewBox="0 0 92 78" fill="none" xmlns="http://www.w3.org/2000/svg">
<path d="M72.7663 65.8477C73.8705 65.9342 74.9875 65.9783 76.1153 65.9783C80.7925 65.9783 85.2829 65.2197 89.4573 63.8253C89.4856 63.4885 89.5 63.148 89.5 62.8043C89.5 55.7927 83.5075 50.1087 76.1153 50.1087C73.3151 50.1087 70.7158 50.9243 68.5669 52.3187M72.7663 65.8477C72.7665 65.8912 72.7665 65.9347 72.7665 65.9783C72.7665 66.9304 72.7113 67.8703 72.6037 68.7952C64.7657 73.061 55.6817 75.5 45.9971 75.5C36.3125 75.5 27.2285 73.061 19.3905 68.7952C19.2829 67.8703 19.2276 66.9304 19.2276 65.9783C19.2276 65.9349 19.2278 65.8915 19.228 65.8481M72.7663 65.8477C72.7398 60.8686 71.2025 56.2285 68.5669 52.3187M68.5669 52.3187C63.8113 45.264 55.48 40.587 45.9971 40.587C36.5153 40.587 28.1849 45.2628 23.4291 52.3161M23.4291 52.3161C21.281 50.9233 18.6831 50.1087 15.8847 50.1087C8.49255 50.1087 2.5 55.7927 2.5 62.8043C2.5 63.148 2.5144 63.4885 2.54265 63.8253C6.71705 65.2197 11.2075 65.9783 15.8847 65.9783C17.0106 65.9783 18.1256 65.9343 19.228 65.8481M23.4291 52.3161C20.7923 56.2266 19.2543 60.8678 19.228 65.8481M59.3818 15.1957C59.3818 22.2073 53.3893 27.8913 45.9971 27.8913C38.6049 27.8913 32.6124 22.2073 32.6124 15.1957C32.6124 8.18404 38.6049 2.5 45.9971 2.5C53.3893 2.5 59.3818 8.18404 59.3818 15.1957ZM86.1513 27.8913C86.1513 33.15 81.6569 37.413 76.1127 37.413C70.5686 37.413 66.0742 33.15 66.0742 27.8913C66.0742 22.6326 70.5686 18.3696 76.1127 18.3696C81.6569 18.3696 86.1513 22.6326 86.1513 27.8913ZM25.92 27.8913C25.92 33.15 21.4256 37.413 15.8815 37.413C10.3373 37.413 5.84291 33.15 5.84291 27.8913C5.84291 22.6326 10.3373 18.3696 15.8815 18.3696C21.4256 18.3696 25.92 22.6326 25.92 27.8913Z" stroke="#C33622" stroke-width="4" stroke-linecap="round" stroke-linejoin="round"/>
</svg>
