<svg width="78" height="80" viewBox="0 0 78 80" fill="none" xmlns="http://www.w3.org/2000/svg">
<path fill-rule="evenodd" clip-rule="evenodd" d="M21.2308 12.6538C21.2308 5.94146 26.5345 0.5 33.0769 0.5H44.9231C51.4655 0.5 56.7692 5.94146 56.7692 12.6538V13.4843C60.4513 13.8301 64.1036 14.2823 67.7231 14.838C73.4648 15.7194 77.5 20.844 77.5 26.6538V38.9422C77.5 43.8488 74.6031 48.4722 69.8542 50.0921C60.1517 53.4016 49.7767 55.1923 39.0001 55.1923C28.2234 55.1923 17.8484 53.4016 8.14577 50.092C3.39694 48.4721 0.5 43.8487 0.5 38.9421V26.6538C0.5 20.844 4.53523 15.7194 10.2769 14.838C13.8964 14.2823 17.5487 13.8301 21.2308 13.4843V12.6538ZM50.8462 12.6538V13.0218C46.9277 12.7777 42.9778 12.6538 39 12.6538C35.0223 12.6538 31.0724 12.7777 27.1538 13.0218V12.6538C27.1538 9.29765 29.8057 6.57692 33.0769 6.57692H44.9231C48.1943 6.57692 50.8462 9.29765 50.8462 12.6538ZM39 46.0769C40.6356 46.0769 41.9615 44.7166 41.9615 43.0385C41.9615 41.3604 40.6356 40 39 40C37.3644 40 36.0385 41.3604 36.0385 43.0385C36.0385 44.7166 37.3644 46.0769 39 46.0769Z" fill="#C33622"/>
<path d="M3.46154 65.928V54.6005C4.34225 55.0961 5.28179 55.519 6.27711 55.8586C16.5747 59.3711 27.5803 61.2692 39.0001 61.2692C50.4198 61.2692 61.4253 59.3712 71.7228 55.8587C72.7182 55.5191 73.6577 55.0962 74.5385 54.6006V65.928C74.5385 71.8102 70.4032 76.978 64.5753 77.7719C56.2067 78.9118 47.6695 79.5 39 79.5C30.3305 79.5 21.7933 78.9118 13.4247 77.7719C7.5968 76.978 3.46154 71.8102 3.46154 65.928Z" fill="#C33622"/>
</svg>
