<svg width="74" height="74" viewBox="0 0 74 74" fill="none" xmlns="http://www.w3.org/2000/svg">
<path d="M53.2941 61.2308H20.7058M53.2941 61.2308C59.2935 61.2308 64.1569 66.0523 64.1569 72H9.84303C9.84303 66.0523 14.7065 61.2308 20.7058 61.2308M53.2941 61.2308V49.1154C53.2941 46.885 51.4704 45.0769 49.2206 45.0769H46.0645M20.7058 61.2308V49.1154C20.7058 46.885 22.5296 45.0769 24.7794 45.0769H27.9355M46.0645 45.0769H27.9355M46.0645 45.0769C44.0826 41.6804 42.8277 37.8148 42.5107 33.6893M27.9355 45.0769C29.9173 41.6804 31.1722 37.8148 31.4892 33.6893M12.5587 9.13051C9.00189 9.64328 5.4811 10.2663 2 10.9959C3.63055 20.5715 11.6351 27.9999 21.5374 28.8432M12.5587 9.13051V10.0769C12.5587 17.6433 16.0569 24.3997 21.5374 28.8432M12.5587 9.13051V3.69038C20.5444 2.57618 28.7043 2 37 2C45.2956 2 53.4556 2.57618 61.4412 3.69038V9.13051M21.5374 28.8432C24.3891 31.1554 27.7776 32.8413 31.4892 33.6893M61.4412 9.13051V10.0769C61.4412 17.6433 57.943 24.3997 52.4626 28.8432M61.4412 9.13051C64.9981 9.64329 68.5189 10.2663 72 10.9959C70.3694 20.5715 62.3648 27.9999 52.4626 28.8432M52.4626 28.8432C49.6108 31.1554 46.2224 32.8413 42.5107 33.6893M42.5107 33.6893C40.7397 34.0939 38.895 34.3077 37 34.3077C35.105 34.3077 33.2603 34.0939 31.4892 33.6893" stroke="#C33622" stroke-width="4" stroke-linecap="round" stroke-linejoin="round"/>
</svg>
