<svg width="10" height="15" viewBox="0 0 10 15" fill="none" xmlns="http://www.w3.org/2000/svg">
<path d="M0.75 0.138672C0.335786 0.138672 0 0.474458 0 0.888672V13.3887C0 13.8029 0.335786 14.1387 0.75 14.1387H2.25C2.66421 14.1387 3 13.8029 3 13.3887V0.888672C3 0.474458 2.66421 0.138672 2.25 0.138672H0.75Z" fill="white"/>
<path d="M7.75 0.138672C7.33579 0.138672 7 0.474458 7 0.888672V13.3887C7 13.8029 7.33579 14.1387 7.75 14.1387H9.25C9.66421 14.1387 10 13.8029 10 13.3887V0.888672C10 0.474458 9.66421 0.138672 9.25 0.138672H7.75Z" fill="white"/>
</svg>
