<svg width="14" height="13" viewBox="0 0 14 13" fill="none" xmlns="http://www.w3.org/2000/svg">
<path fill-rule="evenodd" clip-rule="evenodd" d="M14 6.13867C14 5.72446 13.6642 5.38867 13.25 5.38867L2.61208 5.38867L6.76983 1.4293C7.06841 1.1422 7.07772 0.667418 6.79063 0.368839C6.50353 0.0702607 6.02875 0.0609509 5.73017 0.348046L0.230169 5.59805C0.0831101 5.73945 2.71186e-07 5.93466 2.62268e-07 6.13867C2.53351e-07 6.34268 0.0831101 6.53789 0.230169 6.67929L5.73017 11.9293C6.02875 12.2164 6.50353 12.2071 6.79062 11.9085C7.07772 11.6099 7.06841 11.1351 6.76983 10.848L2.61208 6.88867L13.25 6.88867C13.6642 6.88867 14 6.55288 14 6.13867Z" fill="#9E9E9E"/>
</svg>
