<svg width="14" height="13" viewBox="0 0 14 13" fill="none" xmlns="http://www.w3.org/2000/svg">
<path fill-rule="evenodd" clip-rule="evenodd" d="M-2.62268e-07 6.13867C-2.80374e-07 5.72446 0.335786 5.38867 0.75 5.38867L11.3879 5.38867L7.23017 1.4293C6.93159 1.1422 6.92228 0.667418 7.20937 0.368839C7.49647 0.0702607 7.97125 0.0609509 8.26983 0.348046L13.7698 5.59805C13.9169 5.73945 14 5.93466 14 6.13867C14 6.34268 13.9169 6.53789 13.7698 6.67929L8.26983 11.9293C7.97125 12.2164 7.49647 12.2071 7.20938 11.9085C6.92228 11.6099 6.93159 11.1351 7.23017 10.848L11.3879 6.88867L0.75 6.88867C0.335786 6.88867 -2.44163e-07 6.55288 -2.62268e-07 6.13867Z" fill="#9E9E9E"/>
</svg>
