<svg width="84" height="84" viewBox="0 0 84 84" fill="none" xmlns="http://www.w3.org/2000/svg">
<path d="M81.0298 48.1905L76.0498 43.1475C75.2993 42.3875 74.6747 41.5099 74.2 40.5485L69.4597 30.948C68.9056 29.8257 67.4285 29.5829 66.5523 30.4702C65.6199 31.4144 64.2553 31.7725 62.9875 31.4057L57.4009 29.7893C55.2793 29.1754 53.0773 30.4633 52.5421 32.6311C52.1421 34.2516 52.7912 35.9518 54.1636 36.8784L56.7387 38.6169C59.3312 40.3671 59.6945 44.0816 57.4913 46.3127L56.6128 47.2022C55.6869 48.1399 55.1667 49.4117 55.1667 50.7377V52.5635C55.1667 54.3759 54.6802 56.1543 53.7594 57.7085L47.9897 67.4464C46.3158 70.2714 43.301 72 40.0476 72C37.49 72 35.4167 69.9004 35.4167 67.3104V62.1037C35.4167 58.0146 32.9583 54.3375 29.2091 52.8189L26.3382 51.656C22.0295 49.9107 19.5021 45.3627 20.265 40.7272L20.2959 40.5395C20.4996 39.302 20.9314 38.1144 21.5688 37.0386L21.9612 36.3762C24.1084 32.7524 28.2734 30.8866 32.3656 31.7154L37.5351 32.7624C40.0573 33.2732 42.5443 31.7376 43.2509 29.2331L44.1659 25.99C44.8187 23.6765 43.7517 21.2203 41.6265 20.1442L38.7083 18.6667L38.309 19.0711C36.4571 20.9464 33.9453 22 31.3263 22H30.5322C29.4444 22 28.3986 22.4402 27.6294 23.2191C26.3853 24.479 24.4802 24.7959 22.9065 23.9991C20.7768 22.9207 20.0043 20.2346 21.2294 18.167L27.4261 7.70845C28.0444 6.66492 28.4668 5.52031 28.6777 4.33217M81.0298 48.1905C81.3394 46.1729 81.5 44.1055 81.5 42C81.5 19.9086 63.8152 2 42 2C37.3251 2 32.8398 2.82242 28.6777 4.33217M81.0298 48.1905C78.0915 67.3424 61.7361 82 42 82C20.1848 82 2.5 64.0914 2.5 42C2.5 24.6427 13.4173 9.86759 28.6777 4.33217" stroke="#C33622" stroke-width="4" stroke-linecap="round" stroke-linejoin="round"/>
</svg>
